<svg xmlns="http://www.w3.org/2000/svg" width="580" height="462" viewBox="0 0 580 462" fill="none"> <g clip-path="url(#clip0)"> <path d="M256.07 116.832C244.065 122.006 250.527 106.912 250.343 105.106C249.731 98.9517 247.373 100.238 242.136 103.054C241.156 103.575 240.084 102.503 240.636 101.523C243.116 97.0841 247.373 93.1346 251.109 89.3994C256.008 84.5008 254.232 90.8384 254.294 77.5816C254.324 72.7442 254.508 64.9676 252.701 60.712C247.955 49.537 242.473 60.314 235.981 67.1414C232.184 71.1521 228.448 75.2241 224.834 79.3879C217.821 87.4706 219.904 88.0523 210.288 87.7156C199.54 87.3482 190.108 84.409 179.022 86.001C166.712 87.7768 165.15 90.1036 165.609 102.166C166.007 112.117 164.721 128.65 168.304 137.896C170.693 144.111 174.429 146.07 173.694 136.089C176.327 137.069 187.719 123.812 195.375 124.731C201.898 125.527 198.008 123.23 201.193 128.772C202.418 130.885 203.245 135.997 203.245 138.447C203.245 143.192 198.1 151.459 199.662 153.969C207.318 159.511 225.385 154 238.615 142.519C243.698 138.11 250.772 134.222 255.12 129.048C256.498 127.394 264.215 113.311 256.07 116.832Z" fill="#DAFADD"></path> <path d="M409.583 149.56C415.034 169.461 435.122 156.816 426.517 140.161C424.19 135.661 416.473 127.884 411.144 127.609C400.151 126.996 407.286 141.172 409.583 149.56Z" fill="#DAFADD"></path> <path d="M468.348 164.93C469.175 162.021 474.901 135.263 471.104 133.487C465.102 130.64 448.106 150.663 445.902 154.52C433.162 176.564 462.101 186.759 468.348 164.93Z" fill="#DAFADD"></path> <path d="M401.866 204.425C409.95 212.048 421.311 211.16 423.424 199.281C425.047 190.28 416.136 184.034 408.082 180.36C403.213 178.156 381.379 169.124 378.684 175.033C376.54 179.748 398.926 201.669 401.866 204.425Z" fill="#DAFADD"></path> <path d="M442.687 262.443C450.618 249.124 397.793 225.244 395.435 238.317C394.21 245.175 410.747 261.402 415.126 265.535C425.629 275.454 434.571 276.036 442.687 262.443Z" fill="#DAFADD"></path> <path d="M490.704 201.639C489.969 194.23 464.858 217.222 462.929 219.672C459.713 223.713 455.64 229.653 457.355 235.255C459.223 241.409 460.816 238.317 463.755 240.154C484.579 253.258 492.235 216.977 490.704 201.639Z" fill="#DAFADD"></path> <path d="M478.638 261.555C477.199 256.197 467.369 267.617 472.483 274.383C475.361 278.241 480.659 279.588 482.864 273.893C484.732 269.087 479.74 265.688 478.638 261.555Z" fill="#DAFADD"></path> <path d="M522.674 229.898C513.854 235.562 499.737 242.695 495.052 252.86C491.132 261.371 495.082 267.556 503.871 267.372C514.161 267.158 518.234 260.024 521.663 251.299C522.429 249.37 529.717 225.397 522.674 229.898Z" fill="#DAFADD"></path> <path d="M522.398 283.354C517.712 283.139 479.801 285.313 490.979 295.478C494.868 299.029 506.78 296.029 511.22 294.651C513.15 294.069 531.462 283.782 522.398 283.354Z" fill="#DAFADD"></path> <path d="M441.89 294.375C436.317 289.385 425.2 291.895 434.847 298.539C440.634 302.52 447.004 295.998 441.89 294.375Z" fill="#DAFADD"></path> <path d="M579.51 187.188C578.928 187.188 578.928 188.106 579.51 188.106C580.123 188.106 580.123 187.188 579.51 187.188Z" fill="#DAFADD"></path> <path d="M28.2037 60.6815C33.8077 53.4866 47.833 40.3522 48.8742 30.8C49.4867 25.1666 47.9555 19.7475 41.2491 19.4413C36.0738 19.1964 30.1329 30.0958 27.2544 33.4636C20.4867 41.4238 3.00094 56.1196 4.47085 68.1212C6.64508 85.8787 23.5796 66.621 28.2037 60.6815Z" fill="#EBF2FF"></path> <path d="M46.8839 103.452C53.4679 96.6248 64.2778 73.8769 55.4277 64.8451C48.0782 57.3747 43.546 75.9282 39.2282 80.9493C35.4309 85.358 14.4541 103.024 28.7857 108.075C27.867 107.769 47.8638 102.411 46.8839 103.452Z" fill="#EBF2FF"></path> <path d="M52.5794 20.4823C66.911 18.3085 81.2425 16.1348 95.5435 13.9916C99.6164 13.3793 118.603 12.0934 108.405 6.52122C101.852 2.93911 73.4337 11.8178 65.4411 13.0119C62.6237 13.4405 51.0482 13.9304 50.2827 15.8286C49.5477 17.6962 48.4147 21.1252 52.5794 20.4823Z" fill="#EBF2FF"></path> <path d="M152.564 8.75623C167.079 -0.857282 172.898 25.3196 174.674 33.6167C176.542 42.2811 177.644 51.4966 180.155 59.9773C182.268 67.0803 185.147 71.9789 186.127 61.7224C187.26 49.9351 180.339 24.5542 174.888 14.1447C171.826 8.32761 166.773 2.8779 159.822 1.99003C147.297 0.459217 149.9 10.532 152.564 8.75623Z" fill="#EBF2FF"></path> <path d="M117.562 135.6C123.595 139.61 122.002 161.011 124.605 168.512C127.331 176.381 135.048 181.004 137.528 168.788C139.029 161.44 130.822 150.142 128.035 143.315C126.687 140.039 124.728 131.16 120.349 130.823C117.929 130.67 113.703 133.028 117.562 135.6Z" fill="#EBF2FF"></path> <path d="M119.981 84.4704C112.846 96.6556 146.47 110.066 151.125 96.0127C153.636 88.4505 147.052 89.9201 141.785 88.7566C138.967 88.1749 121.39 82.0823 119.981 84.4704Z" fill="#EBF2FF"></path> <path d="M108.987 26.3606C106.691 38.8214 112.295 36.3721 120.165 31.3204C125.952 27.5852 139.672 25.534 138.937 16.3491C137.344 -3.61275 111.253 14.1447 108.987 26.3606Z" fill="#EBF2FF"></path> <path d="M91.3792 87.0113C94.4415 95.6758 135.874 75.2853 116.582 60.5282C109.141 54.8336 96.2789 61.0793 93.4004 68.9783C92.1448 72.4992 95.5746 72.9891 95.3602 75.6833C94.9928 80.0002 89.45 81.5923 91.3792 87.0113Z" fill="#EBF2FF"></path> <path d="M158.29 76.3263C162.118 72.2237 161.077 56.885 154.677 61.906C150.022 65.5188 154.769 80.1227 158.29 76.3263Z" fill="#EBF2FF"></path> <path d="M138.875 151.092C143.04 150.142 167.997 136.12 156.851 134.834C155.565 134.681 144.203 143.009 142.519 144.203C144.203 142.978 128.126 153.51 138.875 151.092Z" fill="#EBF2FF"></path> <path d="M160.679 186.178C167.477 193.372 160.832 177.728 161.23 178.493C159.791 175.646 154.83 167.349 152.625 166.032C141.509 159.358 158.474 183.851 160.679 186.178Z" fill="#EBF2FF"></path> <path d="M179.757 190.005C171.397 202.098 197.366 200.721 199.846 185.321C200.673 180.146 198.805 174.054 192.221 175.217C187.474 176.044 181.962 186.79 179.757 190.005Z" fill="#EBF2FF"></path> <path d="M214.361 188.321C222.813 187.556 230.407 173.074 233.684 166.492C239.349 155.225 243.759 143.131 229.397 153.173C224.038 156.939 220.7 159.144 214.146 160.368C209.308 161.287 208.604 157.705 205.143 161.134C201.04 165.175 205.786 189.086 214.361 188.321Z" fill="#EBF2FF"></path> <path d="M287.029 255.156C290.275 260.238 290.612 271.934 298.819 271.505C306.046 271.138 308.312 263.331 309.598 257.605C312.385 245.359 311.252 228.612 302.708 218.784C297.747 213.089 285.896 206.323 280.415 213.089C273.371 221.815 281.885 247.073 287.029 255.156Z" fill="#EBF2FF"></path> <path d="M331.709 258.218C331.188 249.553 320.286 269.515 320.838 271.72C323.318 281.854 332.015 263.055 331.709 258.218Z" fill="#EBF2FF"></path> <path d="M250.833 359.405C251.751 365.161 258.917 365.497 263.266 367.028C270.248 369.478 270.615 372.631 277.781 366.232C285.253 359.527 296.584 338.341 294.93 327.717C292.266 310.602 281.854 330.166 277.444 334.728C272.208 340.178 249.393 350.281 250.833 359.405Z" fill="#EBF2FF"></path> <path d="M353.696 354.659C359.729 347.372 363.067 313.664 348.674 320.338C351.95 318.838 337.956 348.046 337.558 349.148C332.872 361.946 346.01 363.936 353.696 354.659Z" fill="#EBF2FF"></path> <path d="M224.987 248.543C220.486 248.298 223.211 262.688 226.151 264.678C232.061 268.689 247.281 262.627 251.721 258.218C256.958 252.982 257.693 246.186 249.455 243.706C242.29 241.563 232.735 248.941 224.987 248.543Z" fill="#EBF2FF"></path> <path d="M239.87 285.926C235.123 290.059 229.029 292.508 222.752 292.906C221.741 272.301 226.059 239.236 208.91 223.836C194.364 210.793 167.232 211.957 149.501 215.692C126.902 220.468 113.826 223.009 96.4929 204.701C93.9818 202.068 85.6524 186.974 82.4063 188.015C75.7305 190.158 88.286 211.344 90.9196 214.375C117.745 245.328 196.477 208.222 202.663 256.014C204.317 268.903 204.286 282.344 203.765 295.294C203.674 297.591 201.071 314.031 202.204 315.685C205.205 320.093 204.99 317.338 210.717 316.818C218.311 316.083 233.225 311.643 238.553 305.888C241.585 302.581 246.148 280.445 239.87 285.926Z" fill="#EBF2FF"></path> <path d="M316.428 415.831C301.514 415.188 286.601 414.514 271.687 413.871C269.115 413.749 235.889 412.157 247.587 418.311C256.896 423.209 278.455 419.658 288.898 420.117C295.696 420.423 302.739 421.342 309.538 421.036C313.029 422.413 316.121 422.046 318.786 420.025C319.521 417.79 318.724 416.413 316.428 415.831Z" fill="#EBF2FF"></path> <path d="M353.696 409.187C367.537 405.085 381.471 401.349 395.527 398.043C397.946 397.461 429.763 390.695 416.81 387.725C406.857 385.429 387.565 394.216 377.888 396.726C371.58 398.38 364.72 399.635 358.626 401.992C354.982 401.87 352.226 403.186 350.358 405.911C350.205 408.269 351.307 409.371 353.696 409.187Z" fill="#EBF2FF"></path> <path d="M64.8899 306.653C55.3662 302.918 49.3947 301.632 46.3324 309.806C42.3208 320.522 44.2806 337.453 42.5657 349.056C40.5752 362.65 37.7579 401.227 26.2437 406.983C24.7738 407.717 6.61432 408.146 15.9237 413.136C21.099 415.892 39.5647 412.432 46.0874 412.493C50.5277 412.524 67.1254 415.494 66.1761 408.513C65.7167 405.237 39.4116 406.952 36.288 406.921C44.9543 397.491 72.8213 309.745 64.8899 306.653Z" fill="#EBF2FF"></path> <path d="M200.673 344.28C201.53 331.36 210.625 318.348 193.446 319.665C206.828 314.736 201.714 298.08 192.313 292.171C179.114 283.874 155.779 285.405 140.437 283.783C109.661 280.537 65.7782 285.528 50.7117 252.921C48.9356 249.064 38.7381 217.835 34.3284 223.928C32.7666 226.071 36.2577 232.531 36.7476 235.47C36.8089 235.776 33.8691 237.215 34.3896 239.511C35.2165 243.277 39.1975 248.176 40.6368 252.095C43.2703 259.136 44.7402 266.515 44.924 274.046C45.0771 280.231 41.3411 289.661 42.7804 295.57C46.0877 309.225 83.7234 308.306 95.5132 309.99C86.9694 321.165 99.2492 383.775 114.561 388.521C129.505 393.175 118.848 370.335 117.531 362.834C114.622 346.209 113.213 329.34 113.366 312.47C137.13 315.654 162.149 320.645 186.188 320.767C179.328 326.339 186.065 357.078 187.535 364.885C190.628 381.387 191.914 401.778 197.059 417.576C198.498 421.985 201.224 428.475 207.318 426.363C213.871 424.066 207.318 408.942 206.215 403.4C202.296 383.99 199.356 364.15 200.673 344.28Z" fill="#EBF2FF"></path> <path d="M165.364 386.378C165.364 383.041 126.013 382.122 125.401 384.449C123.87 390.388 165.364 393.45 165.364 386.378Z" fill="#EBF2FF"></path> <path d="M137.834 417.943C130.699 417.055 117.071 420.913 129.872 423.76C134.465 424.801 145.612 418.923 137.834 417.943Z" fill="#EBF2FF"></path> <path d="M174.643 403.339C171.55 402.574 145.827 400.002 155.044 407.809C155.35 408.085 169.376 408.513 170.356 408.146C169.958 408.299 183.156 405.482 174.643 403.339Z" fill="#EBF2FF"></path> <path d="M135.353 448.56C127.636 454.346 117.255 446.784 108.803 449.08C102.526 450.795 98.3302 453.979 105.312 456.091C107.548 456.765 115.142 454.714 118.235 454.867C122.063 455.05 125.922 456.52 129.78 456.091C140.437 454.836 137.956 446.6 135.353 448.56Z" fill="#EBF2FF"></path> <path d="M192.925 430.19C188.76 428.077 167.416 428.904 176.572 434.353C178.287 435.394 199.815 433.711 192.925 430.19Z" fill="#EBF2FF"></path> <path d="M223.211 426.118C219.138 426.118 211.513 431.782 218.067 431.629C221.435 431.568 230.346 426.118 223.211 426.118Z" fill="#EBF2FF"></path> <path d="M276.679 455.999C269.544 455.112 255.917 458.969 268.717 461.816C273.28 462.827 284.427 456.948 276.679 455.999Z" fill="#EBF2FF"></path> <path d="M264.031 440.783C267.829 439.313 288.438 438.548 271.84 434.262C261.949 431.721 259.561 442.528 264.031 440.783Z" fill="#EBF2FF"></path> <path d="M328.217 432.088C323.532 436.925 336.884 436.833 337.71 436.343C345.152 431.935 333.362 426.822 328.217 432.088Z" fill="#EBF2FF"></path> <path d="M382.328 441.487C373.019 439.956 363.556 439.589 354.186 440.263C351.797 440.446 336.761 442.253 345.213 446.447C350.725 449.172 367.476 445.559 373.968 445.896C375.469 445.988 381.624 448.039 382.941 446.508C383.982 445.314 385.421 442.008 382.328 441.487Z" fill="#EBF2FF"></path> <path d="M437.45 428.659C427.804 430.465 417.361 427.771 408.205 429.424C405.633 429.884 397.548 429.455 403.489 434.323C408.174 438.15 426.211 436.007 431.846 435.058C436.378 434.262 444.83 427.251 437.45 428.659Z" fill="#EBF2FF"></path> <path d="M498.267 316.787C488.651 316.971 436.286 312.99 433.254 319.083C429.396 326.89 437.45 349.607 439.226 358.119C441.645 369.631 443.207 385.949 449.576 395.961C454.262 403.339 465.776 405.788 474.565 403.278C484.119 400.553 485.742 389.745 488.559 381.05C490.581 374.958 505.892 316.664 498.267 316.787Z" fill="#EBF2FF"></path> <path d="M135.323 49.6904C134.129 52.354 132.261 51.5886 129.842 50.6089C127.423 49.6292 125.922 47.6391 126.534 46.1389C127.147 44.6387 129.597 44.2407 132.016 45.2204C134.435 46.2002 135.966 48.2208 135.323 49.6904Z" fill="#EBF2FF"></path> <path d="M146.96 58.3239C146.96 60.1609 145.613 60.2222 143.806 60.314C142.03 60.4059 140.529 59.6404 140.499 58.6301C140.437 57.6198 141.846 56.7319 143.653 56.64C145.429 56.5482 146.96 57.3136 146.96 58.3239Z" fill="#EBF2FF"></path> <path d="M154.677 47.1491C153.084 48.3431 151.308 48.6187 150.328 47.7308C149.165 46.6286 149.655 44.2099 151.431 42.2811C152.258 41.3932 153.238 40.7503 154.187 40.4441C154.279 41.5463 154.34 42.6485 154.432 43.72C154.524 44.8528 154.616 45.9856 154.677 47.1491Z" fill="#EBF2FF"></path> <path d="M143.652 14.512C144.142 16.7163 143.04 18.982 141.723 20.7883C138.171 25.5645 132.536 28.7485 126.626 29.2996" stroke="#003188" stroke-width="2" stroke-miterlimit="10" stroke-linecap="round" stroke-linejoin="round"></path> <path d="M133.976 15.4917C130.914 20.7883 125.83 24.8909 120.012 26.7279" stroke="#003188" stroke-width="2" stroke-miterlimit="10" stroke-linecap="round" stroke-linejoin="round"></path> <path d="M123.717 30.6467C123.074 34.8718 123.594 39.2499 125.248 43.1688" stroke="#003188" stroke-width="2" stroke-miterlimit="10" stroke-linecap="round" stroke-linejoin="round"></path> <path d="M120.502 39.3416C119.889 38.7293 118.94 38.5456 118.082 38.5762C115.816 38.6681 113.703 40.1989 112.846 42.2808C111.989 44.3627 112.448 46.9345 113.918 48.649C115.388 50.3635 117.807 51.2207 120.042 50.8533" stroke="#003188" stroke-width="2" stroke-miterlimit="10" stroke-linecap="round" stroke-linejoin="round"></path> <path d="M116.061 43.7812C117.286 44.2711 118.358 45.159 119.123 46.2305" stroke="#003188" stroke-width="2" stroke-miterlimit="10" stroke-linecap="round" stroke-linejoin="round"></path> <path d="M130.117 36.5555C132.108 35.2084 135.262 34.6267 137.65 35.0553" stroke="#003188" stroke-width="2" stroke-miterlimit="10" stroke-linecap="round" stroke-linejoin="round"></path> <path d="M134.895 40.1682C135.017 41.1785 135.17 41.5766 135.292 42.5869" stroke="#003188" stroke-width="2" stroke-miterlimit="10" stroke-linecap="round" stroke-linejoin="round"></path> <path d="M149.318 31.9631C147.909 32.2693 146.47 32.6979 145.245 33.494C144.02 34.29 143.04 35.5452 142.857 36.9842C142.673 38.4538 143.347 39.8927 144.204 41.1174C145.123 42.4339 146.317 43.9647 145.766 45.4955C145.398 46.5671 144.265 47.1488 143.224 47.5775" stroke="#003188" stroke-width="2" stroke-miterlimit="10" stroke-linecap="round" stroke-linejoin="round"></path> <path d="M148.399 37.6885C148.521 38.5764 148.521 38.7601 148.674 39.6479" stroke="#003188" stroke-width="2" stroke-miterlimit="10" stroke-linecap="round" stroke-linejoin="round"></path> <path d="M145.429 19.6555C146.133 22.4722 148.338 24.8603 151.063 25.8094" stroke="#003188" stroke-width="2" stroke-miterlimit="10" stroke-linecap="round" stroke-linejoin="round"></path> <path d="M107.732 49.0777C104.118 44.5464 102.373 38.6069 102.587 32.8204C102.801 27.0339 104.945 21.3699 108.313 16.6244C111.437 12.2156 115.724 8.54168 120.716 6.45977C127.943 3.45937 136.609 4.04108 143.224 8.23551C149.838 12.4299 154.095 20.1759 153.819 27.983" stroke="#003188" stroke-width="2" stroke-miterlimit="10" stroke-linecap="round" stroke-linejoin="round"></path> <path d="M109.171 51.6189C111.376 53.364 114.04 54.5274 116.827 54.9561" stroke="#003188" stroke-width="2" stroke-miterlimit="10" stroke-linecap="round" stroke-linejoin="round"></path> <path d="M107.885 54.405C110.09 55.9665 112.632 57.038 115.296 57.4667" stroke="#003188" stroke-width="2" stroke-miterlimit="10" stroke-linecap="round" stroke-linejoin="round"></path> <path d="M139.641 52.323C141.387 53.364 143.622 53.5476 145.521 52.8435" stroke="#003188" stroke-width="2" stroke-miterlimit="10" stroke-linecap="round" stroke-linejoin="round"></path> <path d="M129.688 62.3039C132.445 63.8654 135.323 65.3349 138.447 66.0391C141.54 66.7433 144.939 66.5902 147.725 65.0594C151.216 63.1612 153.329 59.3954 154.187 55.5377C154.769 52.7823 154.799 49.9656 154.646 47.1489C154.585 45.9855 154.493 44.8526 154.401 43.7198C154.309 42.6177 154.248 41.5155 154.156 40.4439C153.911 37.0149 153.636 33.5552 153.391 30.1262" stroke="#003188" stroke-width="2" stroke-miterlimit="10" stroke-linecap="round" stroke-linejoin="round"></path> <path d="M106.078 55.1091C103.322 57.9564 99.4942 59.4567 96.0032 61.3549C92.5122 63.2531 89.0518 65.9779 88.1943 69.8356C87.49 72.9891 88.8068 76.5099 91.4404 78.4388" stroke="#003188" stroke-width="2" stroke-miterlimit="10" stroke-linecap="round" stroke-linejoin="round"></path> <path d="M95.9727 65.8555C94.7477 67.1413 94.1046 68.9171 94.0434 70.6928C93.9822 72.4686 94.4109 74.2443 95.0846 75.867" stroke="#003188" stroke-width="2" stroke-miterlimit="10" stroke-linecap="round" stroke-linejoin="round"></path> <path d="M102.802 69.8354C100.321 73.9687 95.207 75.6526 91.7466 78.9897C89.1436 81.5003 87.49 84.9599 87.2144 88.5726C86.9388 92.1854 88.0106 95.8593 90.2154 98.7373" stroke="#003188" stroke-width="2" stroke-miterlimit="10" stroke-linecap="round" stroke-linejoin="round"></path> <path d="M98.4223 88.4808C97.6261 85.4192 99.3409 82.2045 101.576 79.9389C103.812 77.6733 106.599 76.02 108.803 73.7238C111.743 70.6621 113.55 66.5595 113.795 62.3345" stroke="#003188" stroke-width="2" stroke-miterlimit="10" stroke-linecap="round" stroke-linejoin="round"></path> <path d="M156.238 57.3748C156.82 57.5585 157.31 57.9871 157.739 58.4157C162.149 62.9163 163.71 70.0193 161.628 75.9588" stroke="#003188" stroke-width="2" stroke-miterlimit="10" stroke-linecap="round" stroke-linejoin="round"></path> <path d="M155.688 64.3247C157.249 66.2841 157.892 68.9478 157.372 71.3971" stroke="#003188" stroke-width="2" stroke-miterlimit="10" stroke-linecap="round" stroke-linejoin="round"></path> <path d="M119.307 54.1294C121.512 62.2121 122.798 70.5397 123.104 78.898" stroke="#003188" stroke-width="2" stroke-miterlimit="10" stroke-linecap="round" stroke-linejoin="round"></path> <path d="M150.727 63.0999C151.86 68.5496 152.84 74.0605 153.728 79.5714" stroke="#003188" stroke-width="2" stroke-miterlimit="10" stroke-linecap="round" stroke-linejoin="round"></path> <path d="M130.914 63.3142C132.2 65.0287 133.547 66.7126 135.17 68.0904C136.793 69.4681 138.784 70.509 140.897 70.754C142.673 70.9377 144.51 70.5397 146.103 69.713C148.369 68.5496 150.267 66.284 150.145 63.7735C148.461 65.5492 145.949 66.4371 143.5 66.5596C141.05 66.682 138.6 66.1615 136.242 65.5186C134.588 65.0593 132.904 64.5389 131.587 63.4673" fill="#003188"></path> <path d="M130.914 63.3142C132.2 65.0287 133.547 66.7126 135.17 68.0904C136.793 69.4681 138.784 70.509 140.897 70.754C142.673 70.9377 144.51 70.5397 146.103 69.713C148.369 68.5496 150.267 66.284 150.145 63.7735C148.461 65.5492 145.949 66.4371 143.5 66.5596C141.05 66.682 138.6 66.1615 136.242 65.5186C134.588 65.0593 132.904 64.5389 131.587 63.4673" stroke="#003188" stroke-width="2" stroke-miterlimit="10" stroke-linecap="round" stroke-linejoin="round"></path> <path d="M122.951 80.4287C114.683 85.1436 106.415 89.8585 98.1161 94.5734C95.6969 95.9512 93.2164 97.3901 91.3178 99.4414C89.3273 101.646 88.1024 104.432 87.1837 107.249C82.8352 120.444 84.2745 134.773 86.6325 148.458C89.4804 164.96 93.6452 181.218 99.586 196.893C101.607 202.22 103.843 207.517 107.334 212.018C110.794 216.518 115.632 220.192 121.237 221.233C126.841 222.274 132.689 220.56 137.559 217.59C142.428 214.62 146.439 210.487 150.267 206.231C159.791 195.638 168.427 184.249 175.99 172.186" stroke="#003188" stroke-width="2" stroke-miterlimit="10" stroke-linecap="round" stroke-linejoin="round"></path> <path d="M159.393 161.409C147.082 167.471 135.231 174.39 123.901 182.136C122.951 182.779 121.971 183.483 121.512 184.555C121.083 185.627 121.481 187.127 122.584 187.402C123.411 187.617 124.237 187.127 124.819 186.514C126.81 184.524 127.055 181.401 126.871 178.585C126.534 174.207 125.34 169.92 124.207 165.665C121.328 154.765 118.94 143.743 117.041 132.63" stroke="#003188" stroke-width="2" stroke-miterlimit="10" stroke-linecap="round" stroke-linejoin="round"></path> <path d="M132.781 150.877C134.435 150.938 136.119 150.754 137.712 150.326C144.296 148.55 149.134 142.733 155.657 140.773" stroke="#003188" stroke-width="2" stroke-miterlimit="10" stroke-linecap="round" stroke-linejoin="round"></path> <path d="M152.472 144.723C150.114 146.284 148.001 148.213 146.194 150.418" stroke="#003188" stroke-width="2" stroke-miterlimit="10" stroke-linecap="round" stroke-linejoin="round"></path> <path d="M119.858 136.273C120.471 133.671 121.053 131.068 121.665 128.435" stroke="#003188" stroke-width="2" stroke-miterlimit="10" stroke-linecap="round" stroke-linejoin="round"></path> <path d="M115.755 127.761C115.755 128.098 115.755 128.404 115.755 128.741" stroke="#003188" stroke-width="2" stroke-miterlimit="10" stroke-linecap="round" stroke-linejoin="round"></path> <path d="M98.6981 98.0637C95.0233 100.544 92.206 104.279 90.7974 108.504" stroke="#003188" stroke-width="2" stroke-miterlimit="10" stroke-linecap="round" stroke-linejoin="round"></path> <path d="M95.0537 106.82C94.5943 107.402 94.2575 108.044 94.0737 108.779" stroke="#003188" stroke-width="2" stroke-miterlimit="10" stroke-linecap="round" stroke-linejoin="round"></path> <path d="M123.196 80.0305C128.341 86.4906 137.283 89.6747 145.367 87.9295C149.226 87.0723 153.207 84.7454 154.095 80.9184" stroke="#003188" stroke-width="2" stroke-miterlimit="10" stroke-linecap="round" stroke-linejoin="round"></path> <path d="M123.472 84.8071C127.177 88.1749 131.587 90.8998 136.456 92.1244C141.325 93.3491 146.653 93.0429 151.094 90.7467" stroke="#003188" stroke-width="2" stroke-miterlimit="10" stroke-linecap="round" stroke-linejoin="round"></path> <path d="M124.421 91.2668C130.117 96.8696 138.324 99.8088 146.286 99.0434" stroke="#003188" stroke-width="2" stroke-miterlimit="10" stroke-linecap="round" stroke-linejoin="round"></path> <path d="M155.105 77.4282C158.413 77.5813 161.689 77.7038 164.997 77.8568" stroke="#003188" stroke-width="2" stroke-miterlimit="10" stroke-linecap="round" stroke-linejoin="round"></path> <path d="M145.979 163.889C149.409 173.808 155.901 182.626 164.384 188.81" stroke="#003188" stroke-width="2" stroke-miterlimit="10" stroke-linecap="round" stroke-linejoin="round"></path> <path d="M153.728 171.512C156.514 176.38 160.311 180.636 164.813 183.973" stroke="#003188" stroke-width="2" stroke-miterlimit="10" stroke-linecap="round" stroke-linejoin="round"></path> <path d="M160.311 158.776C159.025 151.612 160.495 144.019 164.323 137.834" stroke="#003188" stroke-width="2" stroke-miterlimit="10" stroke-linecap="round" stroke-linejoin="round"></path> <path d="M168.763 146.039C174.122 139.12 180.032 132.66 186.463 126.69" stroke="#003188" stroke-width="2" stroke-miterlimit="10" stroke-linecap="round" stroke-linejoin="round"></path> <path d="M180.063 142.121C185.729 135.722 191.915 129.813 198.499 124.394C199.142 123.874 200.183 123.353 200.703 123.996C201.071 124.455 200.856 125.098 200.642 125.649C200.244 126.629 199.846 127.609 199.417 128.588C199.295 128.895 199.172 129.231 199.325 129.507C199.478 129.782 199.785 129.905 200.06 130.058C201.132 130.64 201.561 132.017 201.408 133.211C201.224 134.406 200.581 135.508 199.938 136.518" stroke="#003188" stroke-width="2" stroke-miterlimit="10" stroke-linecap="round" stroke-linejoin="round"></path> <path d="M198.406 131.588C193.476 137.497 188.485 143.284 183.34 149.009" stroke="#003188" stroke-width="2" stroke-miterlimit="10" stroke-linecap="round" stroke-linejoin="round"></path> <path d="M190.598 151.152C193.354 147.662 196.508 144.509 199.999 141.753C201.01 140.957 202.572 140.467 203.276 141.539C203.643 142.059 203.184 142.916 202.786 143.498C201.255 145.886 199.724 148.274 198.193 150.662C195.222 155.316 192.19 160.031 188.087 163.736C183.983 167.44 178.655 170.104 173.112 169.798" stroke="#003188" stroke-width="2" stroke-miterlimit="10" stroke-linecap="round" stroke-linejoin="round"></path> <path d="M203.306 160.552C202.725 171.91 204.868 183.422 209.492 193.831" stroke="#003188" stroke-width="2" stroke-miterlimit="10" stroke-linecap="round" stroke-linejoin="round"></path> <path d="M196.538 178.493C193.231 184.034 186.923 186.912 182.299 191.413C181.87 191.842 181.411 192.301 181.227 192.883C181.012 193.464 181.135 194.199 181.625 194.567C182.207 194.995 183.034 194.75 183.738 194.475C189.219 192.27 194.058 188.749 198.835 185.259C197.12 187.892 195.283 190.495 193.384 193.005" stroke="#003188" stroke-width="2" stroke-miterlimit="10" stroke-linecap="round" stroke-linejoin="round"></path> <path d="M210.839 189.453C213.442 190.219 216.321 189.484 218.618 188.045C220.914 186.575 222.69 184.463 224.313 182.289C232.367 171.451 237.022 158.439 239.962 145.243" stroke="#003188" stroke-width="2" stroke-miterlimit="10" stroke-linecap="round" stroke-linejoin="round"></path> <path d="M213.106 197.751C207.624 197.322 202.051 198.179 196.998 200.261C193.599 201.669 190.444 203.568 187.168 205.251C178.165 209.844 168.212 212.569 158.137 213.212" stroke="#003188" stroke-width="2" stroke-miterlimit="10" stroke-linecap="round" stroke-linejoin="round"></path> <path d="M208.818 205.833C232.061 205.558 255.335 207.089 278.333 210.426C287.826 211.803 298.238 214.038 304.025 221.692C308.006 226.928 309.017 233.786 309.568 240.338C310.762 254.207 310.426 268.199 308.619 282.007C307.486 290.64 305.771 299.182 304.056 307.694C299.707 329.278 295.39 350.893 291.041 372.478" stroke="#003188" stroke-width="2" stroke-miterlimit="10" stroke-linecap="round" stroke-linejoin="round"></path> <path d="M224.834 264.31C230.346 263.545 235.889 262.81 241.401 262.045C246.729 261.31 253.191 259.596 254.385 254.36C254.6 253.38 254.569 252.278 253.926 251.513C252.854 250.227 250.619 250.717 249.577 252.033C248.536 253.35 248.352 255.126 248.23 256.779C244.953 296.886 241.646 336.994 238.369 377.101" stroke="#003188" stroke-width="2" stroke-miterlimit="10" stroke-linecap="round" stroke-linejoin="round"></path> <path d="M241.371 376.978C244.372 375.539 248.046 375.57 251.017 377.07C253.344 378.234 255.335 380.224 257.907 380.652C260.357 381.05 262.776 379.918 265.134 379.183C268.748 378.05 272.667 377.774 276.403 378.417C280.476 379.122 284.825 380.867 288.591 379.122" stroke="#003188" stroke-width="2" stroke-miterlimit="10" stroke-linecap="round" stroke-linejoin="round"></path> <path d="M216.259 196.893C235.092 197.414 253.956 197.903 272.789 198.424C287.672 198.822 304.147 199.863 314.62 210.456C320.224 216.12 323.256 223.744 326.165 231.153C342.886 273.862 359.575 316.603 376.295 359.313" stroke="#003188" stroke-width="2" stroke-miterlimit="10" stroke-linecap="round" stroke-linejoin="round"></path> <path d="M305.863 320.889C312.386 336.35 317.53 352.363 321.236 368.712" stroke="#003188" stroke-width="2" stroke-miterlimit="10" stroke-linecap="round" stroke-linejoin="round"></path> <path d="M324.022 373.243C326.778 368.896 332.75 367.64 337.802 368.559C341.14 369.171 344.754 370.488 347.724 368.896C349.5 367.946 350.664 366.109 352.287 364.915C357.799 360.905 366.067 365.558 372.253 362.68" stroke="#003188" stroke-width="2" stroke-miterlimit="10" stroke-linecap="round" stroke-linejoin="round"></path> <path d="M353.727 325.053C353.941 330.717 352.195 336.32 349.501 341.31C346.806 346.301 343.223 350.74 339.487 354.996" stroke="#003188" stroke-width="2" stroke-miterlimit="10" stroke-linecap="round" stroke-linejoin="round"></path> <path d="M355.748 333.993C355.166 341.126 352.838 348.076 348.98 354.108" stroke="#003188" stroke-width="2" stroke-miterlimit="10" stroke-linecap="round" stroke-linejoin="round"></path> <path d="M307.272 255.677C302.923 260.177 297.809 263.974 292.236 266.821" stroke="#003188" stroke-width="2" stroke-miterlimit="10" stroke-linecap="round" stroke-linejoin="round"></path> <path d="M304.026 264.157C301.514 266.515 299.034 268.842 296.523 271.199" stroke="#003188" stroke-width="2" stroke-miterlimit="10" stroke-linecap="round" stroke-linejoin="round"></path> <path d="M331.219 258.983C330.331 261.34 329.045 263.575 327.452 265.535" stroke="#003188" stroke-width="2" stroke-miterlimit="10" stroke-linecap="round" stroke-linejoin="round"></path> <path d="M291.501 326.125C286.387 334.422 279.404 341.525 271.228 346.791C265.716 350.342 259.499 353.22 255.549 358.455C254.998 359.19 254.477 360.109 254.753 360.966C255.243 362.497 257.448 362.313 258.948 361.823C267.982 358.853 276.71 355.026 285.407 351.199C281.242 356.19 277.046 361.18 272.882 366.201" stroke="#003188" stroke-width="2" stroke-miterlimit="10" stroke-linecap="round" stroke-linejoin="round"></path> <path d="M246.301 379.917C245.566 393.297 244.8 406.706 244.065 420.086" stroke="#003188" stroke-width="2" stroke-miterlimit="10" stroke-linecap="round" stroke-linejoin="round"></path> <path d="M243.882 420.453C269.238 420.453 294.624 420.453 319.98 420.453" stroke="#003188" stroke-width="2" stroke-miterlimit="10" stroke-linecap="round" stroke-linejoin="round"></path> <path d="M274.199 380.989C273.464 388.153 277.016 395.348 282.467 400.063C287.918 404.778 295.083 407.196 302.219 407.962C305.771 408.36 309.446 408.39 312.784 409.676C317.132 411.36 320.562 415.279 321.664 419.841" stroke="#003188" stroke-width="2" stroke-miterlimit="10" stroke-linecap="round" stroke-linejoin="round"></path> <path d="M247.771 411.667C268.717 414.575 290 415.249 311.099 413.687" stroke="#003188" stroke-width="2" stroke-miterlimit="10" stroke-linecap="round" stroke-linejoin="round"></path> <path d="M339.701 373.182C342.396 386.316 345.06 399.481 347.755 412.615" stroke="#003188" stroke-width="2" stroke-miterlimit="10" stroke-linecap="round" stroke-linejoin="round"></path> <path d="M347.663 412.983C372.192 406.523 396.752 400.094 421.281 393.634" stroke="#003188" stroke-width="2" stroke-miterlimit="10" stroke-linecap="round" stroke-linejoin="round"></path> <path d="M366.956 367.12C368.089 374.223 373.325 380.285 379.817 383.469C386.279 386.622 393.812 387.143 400.947 386.102C404.499 385.582 408.052 384.663 411.604 385.092C416.259 385.643 420.546 388.551 422.751 392.654" stroke="#003188" stroke-width="2" stroke-miterlimit="10" stroke-linecap="round" stroke-linejoin="round"></path> <path d="M349.194 403.523C370.202 401.012 390.934 396.267 410.961 389.378" stroke="#003188" stroke-width="2" stroke-miterlimit="10" stroke-linecap="round" stroke-linejoin="round"></path> <path d="M1.43925 74.9791C-0.918727 64.9063 3.58285 58.6912 8.51316 51.7719C14.7296 43.0463 20.9461 34.3513 27.1626 25.6256C30.4392 21.0332 34.7265 15.9509 40.3611 16.3489C47.3431 16.8694 50.5279 25.1358 52.0591 31.9632C62.6547 78.9898 71.1679 126.506 77.5375 174.298C79.8342 191.505 82.9577 210.701 96.8912 221.019C104.088 226.346 113.152 228.367 122.002 229.53C136.701 231.459 151.645 231.306 166.405 229.898C176.052 228.979 186.8 227.754 194.548 233.602C201.346 238.715 203.735 247.778 204.96 256.228C207.44 273.311 207.073 290.824 203.888 307.785" stroke="#003188" stroke-width="2" stroke-miterlimit="10" stroke-linecap="round" stroke-linejoin="round"></path> <path d="M203.245 311.582C202.479 314.123 201.714 316.695 200.917 319.236" stroke="#003188" stroke-width="2" stroke-miterlimit="10" stroke-linecap="round" stroke-linejoin="round"></path> <path d="M81.5186 183.116C85.3158 192.882 92.1141 201.486 100.75 207.456" stroke="#003188" stroke-width="2" stroke-miterlimit="10" stroke-linecap="round" stroke-linejoin="round"></path> <path d="M143.469 216.396C154.952 217.376 166.436 215.232 177.95 214.957C189.465 214.681 201.775 216.641 210.319 224.356C221.006 234 223.027 249.768 223.609 264.157C224.191 278.7 223.946 293.273 222.874 307.816" stroke="#003188" stroke-width="2" stroke-miterlimit="10" stroke-linecap="round" stroke-linejoin="round"></path> <path d="M196.232 229.163C199.754 228.918 203.245 228.367 206.675 227.51" stroke="#003188" stroke-width="2" stroke-miterlimit="10" stroke-linecap="round" stroke-linejoin="round"></path> <path d="M224.283 293.518C231.571 291.651 238.584 288.865 245.168 285.221" stroke="#003188" stroke-width="2" stroke-miterlimit="10" stroke-linecap="round" stroke-linejoin="round"></path> <path d="M200.367 321.318C214.576 316.45 228.57 310.97 242.32 304.969" stroke="#003188" stroke-width="2" stroke-miterlimit="10" stroke-linecap="round" stroke-linejoin="round"></path> <path d="M46.1182 279.955C42.9028 283.2 41.096 287.732 41.1573 292.293C41.2185 296.855 43.1784 301.325 46.4857 304.479" stroke="#003188" stroke-width="2" stroke-miterlimit="10" stroke-linecap="round" stroke-linejoin="round"></path> <path d="M47.1594 303.714C95.3294 310.817 150.145 317.124 198.682 321.777" stroke="#003188" stroke-width="2" stroke-miterlimit="10" stroke-linecap="round" stroke-linejoin="round"></path> <path d="M52.6411 290.518C99.2494 295.447 145.766 300.988 192.221 307.142" stroke="#003188" stroke-width="2" stroke-miterlimit="10" stroke-linecap="round" stroke-linejoin="round"></path> <path d="M50.8342 284.456C98.453 291.069 146.072 297.651 193.66 304.265" stroke="#003188" stroke-width="2" stroke-miterlimit="10" stroke-linecap="round" stroke-linejoin="round"></path> <path d="M199.203 252.707C200.948 256.411 201.316 260.636 201.438 264.739C201.744 273.832 201.009 282.955 200.244 292.048" stroke="#003188" stroke-width="2" stroke-miterlimit="10" stroke-linecap="round" stroke-linejoin="round"></path> <path d="M79.9263 224.601C84.6116 231.214 91.3793 236.297 99.0656 238.899" stroke="#003188" stroke-width="2" stroke-miterlimit="10" stroke-linecap="round" stroke-linejoin="round"></path> <path d="M83.6006 223.56C89.3883 230.112 97.4728 234.643 106.109 236.113" stroke="#003188" stroke-width="2" stroke-miterlimit="10" stroke-linecap="round" stroke-linejoin="round"></path> <path d="M47.1285 303.867C43.9437 339.596 37.2679 375.05 27.3154 409.524" stroke="#003188" stroke-width="2" stroke-miterlimit="10" stroke-linecap="round" stroke-linejoin="round"></path> <path d="M70.2798 307.418C66.2988 343.362 51.3548 377.04 36.5945 410.044" stroke="#003188" stroke-width="2" stroke-miterlimit="10" stroke-linecap="round" stroke-linejoin="round"></path> <path d="M27.4688 409.86C30.3473 410.871 33.5627 410.901 36.4719 409.952" stroke="#003188" stroke-width="2" stroke-miterlimit="10" stroke-linecap="round" stroke-linejoin="round"></path> <path d="M48.2617 367.487C45.0463 372.324 45.1994 378.601 43.4845 384.142C41.494 390.633 36.9006 396.297 36.135 403.063" stroke="#003188" stroke-width="2" stroke-miterlimit="10" stroke-linecap="round" stroke-linejoin="round"></path> <path d="M43.0559 364.701C43.944 359.313 44.8627 353.955 45.7507 348.566C47.0369 340.943 48.2925 333.289 49.5786 325.665" stroke="#003188" stroke-width="2" stroke-miterlimit="10" stroke-linecap="round" stroke-linejoin="round"></path> <path d="M57.1118 309.316C57.2955 312.561 56.7443 315.807 55.4888 318.807" stroke="#003188" stroke-width="2" stroke-miterlimit="10" stroke-linecap="round" stroke-linejoin="round"></path> <path d="M63.1755 313.786C60.2969 320.154 61.5525 327.563 60.2051 334.422C59.072 340.116 56.1322 345.443 55.6729 351.23" stroke="#003188" stroke-width="2" stroke-miterlimit="10" stroke-linecap="round" stroke-linejoin="round"></path> <path d="M92.6343 310.48C91.8381 324.318 92.5119 338.31 95.6048 351.842C98.6977 365.375 104.149 378.417 112.386 389.562" stroke="#003188" stroke-width="2" stroke-miterlimit="10" stroke-linecap="round" stroke-linejoin="round"></path> <path d="M112.631 389.439C115.51 390.388 118.787 390.052 121.39 388.521" stroke="#003188" stroke-width="2" stroke-miterlimit="10" stroke-linecap="round" stroke-linejoin="round"></path> <path d="M112.295 313.817C111.468 338.647 114.714 363.63 121.849 387.449" stroke="#003188" stroke-width="2" stroke-miterlimit="10" stroke-linecap="round" stroke-linejoin="round"></path> <path d="M100.474 317.429C99.8618 324.594 99.2187 331.85 100.444 338.953C101.056 342.474 102.097 345.903 102.893 349.362C103.751 353.067 104.302 356.833 105.19 360.537C106.446 365.803 108.375 370.916 110.274 375.998" stroke="#003188" stroke-width="2" stroke-miterlimit="10" stroke-linecap="round" stroke-linejoin="round"></path> <path d="M107.732 345.199C107.364 350.863 108.773 356.466 110.181 361.946C111.529 367.151 112.876 372.386 114.805 377.407" stroke="#003188" stroke-width="2" stroke-miterlimit="10" stroke-linecap="round" stroke-linejoin="round"></path> <path d="M107.089 339.871C106.844 339.565 106.875 339.075 107.119 338.769" stroke="#003188" stroke-width="2" stroke-miterlimit="10" stroke-linecap="round" stroke-linejoin="round"></path> <path d="M182.881 320.981C182.575 358.547 188.516 394.644 200.336 430.312" stroke="#003188" stroke-width="2" stroke-miterlimit="10" stroke-linecap="round" stroke-linejoin="round"></path> <path d="M205.94 319.266C198.958 355.455 204.286 392.807 210.901 429.056" stroke="#003188" stroke-width="2" stroke-miterlimit="10" stroke-linecap="round" stroke-linejoin="round"></path> <path d="M200.458 430.128C203.827 431.016 207.501 430.679 210.655 429.179" stroke="#003188" stroke-width="2" stroke-miterlimit="10" stroke-linecap="round" stroke-linejoin="round"></path> <path d="M187.995 325.604C188.147 328.788 188.331 331.972 188.484 335.156" stroke="#003188" stroke-width="2" stroke-miterlimit="10" stroke-linecap="round" stroke-linejoin="round"></path> <path d="M193.17 328.911C194.977 335.463 192.986 342.382 192.619 349.148C191.945 361.456 196.692 373.396 197.855 385.704" stroke="#003188" stroke-width="2" stroke-miterlimit="10" stroke-linecap="round" stroke-linejoin="round"></path> <path d="M199.325 340.116C199.57 343.515 199.631 346.944 199.447 350.373" stroke="#003188" stroke-width="2" stroke-miterlimit="10" stroke-linecap="round" stroke-linejoin="round"></path> <path d="M193.813 381.05C192.19 389.194 196.079 397.246 198.376 405.237C199.846 410.381 200.642 415.708 200.764 421.066" stroke="#003188" stroke-width="2" stroke-miterlimit="10" stroke-linecap="round" stroke-linejoin="round"></path> <path d="M202.112 399.94C203.275 404.717 203.949 409.585 204.102 414.483" stroke="#003188" stroke-width="2" stroke-miterlimit="10" stroke-linecap="round" stroke-linejoin="round"></path> <path d="M2.60278 80.3982C5.51197 93.5632 8.42116 106.728 11.3303 119.863C23.0896 173.074 34.8488 226.316 44.2195 280.017" stroke="#003188" stroke-width="2" stroke-miterlimit="10" stroke-linecap="round" stroke-linejoin="round"></path> <path d="M50.7422 71.9172C51.1097 75.285 50.3747 78.7753 48.6598 81.7145C46.3631 85.6027 42.5965 88.297 39.0442 91.083C35.4919 93.8691 31.9703 97.0532 30.531 101.34" stroke="#003188" stroke-width="2" stroke-miterlimit="10" stroke-linecap="round" stroke-linejoin="round"></path> <path d="M50.0383 87.1948C46.9147 90.5932 44.8017 94.9101 44.0361 99.472" stroke="#003188" stroke-width="2" stroke-miterlimit="10" stroke-linecap="round" stroke-linejoin="round"></path> <path d="M61.981 31.7795C66.6663 32.0857 71.3516 32.3919 76.0369 32.7287" stroke="#003188" stroke-width="2" stroke-miterlimit="10" stroke-linecap="round" stroke-linejoin="round"></path> <path d="M67.2175 24.1255C71.566 24.4317 75.8226 25.6869 79.6505 27.7994" stroke="#003188" stroke-width="2" stroke-miterlimit="10" stroke-linecap="round" stroke-linejoin="round"></path> <path d="M40.698 15.5528C64.2165 10.5317 88.0718 6.98025 112.05 4.92896" stroke="#003188" stroke-width="2" stroke-miterlimit="10" stroke-linecap="round" stroke-linejoin="round"></path> <path d="M144.418 3.09202C149.501 3.21449 154.493 1.65305 159.546 1.07134C164.599 0.489633 170.264 1.13258 173.816 4.80653C176.725 7.83755 177.613 12.2157 178.348 16.3489C181.564 34.0757 185.085 51.7107 188.913 69.3151" stroke="#003188" stroke-width="2" stroke-miterlimit="10" stroke-linecap="round" stroke-linejoin="round"></path> <path d="M256.59 86.2764C250.006 89.5217 244.31 94.5428 240.237 100.635C240.023 100.942 239.839 101.278 239.839 101.646C239.839 102.258 240.482 102.717 241.095 102.748C241.707 102.779 242.289 102.503 242.84 102.227C246.607 100.299 250.159 97.9412 253.405 95.2163" stroke="#003188" stroke-width="2" stroke-miterlimit="10" stroke-linecap="round" stroke-linejoin="round"></path> <path d="M258.213 92.1855C253.712 97.8189 250.098 104.157 247.526 110.861C247.097 111.964 246.822 113.433 247.771 114.137" stroke="#003188" stroke-width="2" stroke-miterlimit="10" stroke-linecap="round" stroke-linejoin="round"></path> <path d="M259.285 98.4924C256.101 103.36 253.191 108.412 250.527 113.586C250.16 114.29 249.823 115.117 250.221 115.791C250.895 116.893 252.579 116.189 253.59 115.423" stroke="#003188" stroke-width="2" stroke-miterlimit="10" stroke-linecap="round" stroke-linejoin="round"></path> <path d="M261.551 103.054C259.132 107.065 256.682 111.076 254.263 115.117" stroke="#003188" stroke-width="2" stroke-miterlimit="10" stroke-linecap="round" stroke-linejoin="round"></path> <path d="M257.907 83.2454C261.153 84.1945 262.439 87.9909 264.093 90.93C265.195 92.8589 266.665 94.6652 267.155 96.839C267.798 99.5945 266.788 102.442 265.594 105.014C264.338 107.708 262.868 110.31 261.184 112.759C259.836 114.719 258.03 116.801 255.641 116.831" stroke="#003188" stroke-width="2" stroke-miterlimit="10" stroke-linecap="round" stroke-linejoin="round"></path> <path d="M232.398 182.748C239.656 183.269 246.914 184.187 254.079 185.534C257.326 186.147 260.663 186.882 263.328 188.841C265.992 190.8 267.799 194.291 266.819 197.444" stroke="#003188" stroke-width="2" stroke-miterlimit="10" stroke-linecap="round" stroke-linejoin="round"></path> <path d="M236.961 169.492C247.005 170.349 257.019 171.788 266.91 173.778C271.381 174.696 276.097 175.86 279.313 179.044C283.875 183.545 284.243 190.678 284.304 197.077" stroke="#003188" stroke-width="2" stroke-miterlimit="10" stroke-linecap="round" stroke-linejoin="round"></path> <path d="M268.687 188.32C271.534 187.126 274.352 185.932 277.2 184.708" stroke="#003188" stroke-width="2" stroke-miterlimit="10" stroke-linecap="round" stroke-linejoin="round"></path> <path d="M279.129 45.4957C284.396 41.1482 289.694 36.8006 294.961 32.4531" stroke="#003188" stroke-width="2" stroke-miterlimit="10" stroke-linecap="round" stroke-linejoin="round"></path> <path d="M285.131 65.8248C290.275 64.3858 295.328 62.6713 300.289 60.6506" stroke="#003188" stroke-width="2" stroke-miterlimit="10" stroke-linecap="round" stroke-linejoin="round"></path> <path d="M286.295 87.2253C291.96 88.1132 297.534 89.6134 302.923 91.6341" stroke="#003188" stroke-width="2" stroke-miterlimit="10" stroke-linecap="round" stroke-linejoin="round"></path> <path d="M425.17 319.052C428.814 346.638 435.031 373.886 443.758 400.339" stroke="#003188" stroke-width="2" stroke-miterlimit="10" stroke-linecap="round" stroke-linejoin="round"></path> <path d="M504.667 319.052C501.023 346.638 494.684 374.039 485.987 400.461" stroke="#003188" stroke-width="2" stroke-miterlimit="10" stroke-linecap="round" stroke-linejoin="round"></path> <path d="M443.819 400.338C454.446 405.972 477.413 405.666 485.987 400.461" stroke="#003188" stroke-width="2" stroke-miterlimit="10" stroke-linecap="round" stroke-linejoin="round"></path> <path d="M426.395 317.919C452.486 317.919 478.607 317.919 504.698 317.919" stroke="#003188" stroke-width="2" stroke-miterlimit="10" stroke-linecap="round" stroke-linejoin="round"></path> <path d="M432.336 322.389C451.628 322.389 470.921 322.389 490.213 322.389" stroke="#003188" stroke-width="2" stroke-miterlimit="10" stroke-linecap="round" stroke-linejoin="round"></path> <path d="M454.385 399.634C461.551 401.226 469.023 401.288 476.188 399.757" stroke="#003188" stroke-width="2" stroke-miterlimit="10" stroke-linecap="round" stroke-linejoin="round"></path> <path d="M470.768 396.297C471.441 396.389 472.115 396.328 472.758 396.114" stroke="#003188" stroke-width="2" stroke-miterlimit="10" stroke-linecap="round" stroke-linejoin="round"></path> <path d="M14.6069 411.238C18.3736 409.585 22.6914 409.156 26.7336 410.013" stroke="#003188" stroke-width="2" stroke-miterlimit="10" stroke-linecap="round" stroke-linejoin="round"></path> <path d="M38.1257 410.013C43.2704 409.738 48.4151 409.83 53.5291 410.35" stroke="#003188" stroke-width="2" stroke-miterlimit="10" stroke-linecap="round" stroke-linejoin="round"></path> <path d="M61.6133 409.186C62.7157 409.003 63.8794 409.125 64.9206 409.493" stroke="#003188" stroke-width="2" stroke-miterlimit="10" stroke-linecap="round" stroke-linejoin="round"></path> <path d="M129.137 387.173C133.516 384.724 139.151 384.663 143.561 387.02C147.082 385.398 151.339 385.367 154.891 386.959" stroke="#003188" stroke-width="2" stroke-miterlimit="10" stroke-linecap="round" stroke-linejoin="round"></path> <path d="M162.486 386.408C162.486 386.285 162.486 386.163 162.486 386.041" stroke="#003188" stroke-width="2" stroke-miterlimit="10" stroke-linecap="round" stroke-linejoin="round"></path> <path d="M152.625 405.604C155.902 403.767 159.852 403.584 163.557 404.043C167.263 404.502 170.907 405.574 174.612 406.094" stroke="#003188" stroke-width="2" stroke-miterlimit="10" stroke-linecap="round" stroke-linejoin="round"></path> <path d="M178.991 409.523C178.869 409.523 178.746 409.523 178.624 409.523" stroke="#003188" stroke-width="2" stroke-miterlimit="10" stroke-linecap="round" stroke-linejoin="round"></path> <path d="M124.697 420.882C128.678 420.056 132.812 420.056 136.793 420.852" stroke="#003188" stroke-width="2" stroke-miterlimit="10" stroke-linecap="round" stroke-linejoin="round"></path> <path d="M104.241 452.846C108.069 450.55 112.938 450.121 117.133 451.713C119.491 452.601 121.665 454.101 124.176 454.254C128.372 454.499 132.567 450.886 136.425 452.54" stroke="#003188" stroke-width="2" stroke-miterlimit="10" stroke-linecap="round" stroke-linejoin="round"></path> <path d="M175.623 431.353C180.768 429.179 186.831 429.393 191.792 431.965" stroke="#003188" stroke-width="2" stroke-miterlimit="10" stroke-linecap="round" stroke-linejoin="round"></path> <path d="M214.943 429.608C217.485 429.148 220.118 429.118 222.69 429.485" stroke="#003188" stroke-width="2" stroke-miterlimit="10" stroke-linecap="round" stroke-linejoin="round"></path> <path d="M262.286 437.476C266.573 436.129 271.259 436.19 275.515 437.629" stroke="#003188" stroke-width="2" stroke-miterlimit="10" stroke-linecap="round" stroke-linejoin="round"></path> <path d="M264.858 458.326C268.472 457.346 272.392 457.561 275.883 458.908" stroke="#003188" stroke-width="2" stroke-miterlimit="10" stroke-linecap="round" stroke-linejoin="round"></path> <path d="M329.779 433.036C333.087 431.843 336.823 431.965 340.038 433.343" stroke="#003188" stroke-width="2" stroke-miterlimit="10" stroke-linecap="round" stroke-linejoin="round"></path> <path d="M345.826 444.15C349.654 441.977 354.37 441.426 358.595 442.711C359.912 443.109 361.168 443.661 362.515 443.783C364.261 443.936 365.976 443.324 367.66 442.956C371.304 442.191 375.224 442.65 378.592 444.212" stroke="#003188" stroke-width="2" stroke-miterlimit="10" stroke-linecap="round" stroke-linejoin="round"></path> <path d="M406.368 432.424C410.318 430.832 414.789 431.842 418.892 432.975C419.658 433.19 420.424 433.404 421.22 433.373C421.894 433.343 422.537 433.159 423.18 432.975C426.946 431.965 430.897 431.781 434.755 432.394" stroke="#003188" stroke-width="2" stroke-miterlimit="10" stroke-linecap="round" stroke-linejoin="round"></path> <path d="M435.398 440.691C435.398 440.568 435.398 440.446 435.398 440.323" stroke="#003188" stroke-width="2" stroke-miterlimit="10" stroke-linecap="round" stroke-linejoin="round"></path> <path d="M198.468 44.8528C198.284 45.1589 199.079 45.1283 198.896 44.8528" stroke="#003188" stroke-width="2" stroke-miterlimit="10" stroke-linecap="round" stroke-linejoin="round"></path> <path d="M10.7791 167.93C10.5342 168.543 12.004 168.543 11.7284 167.93" stroke="#003188" stroke-width="2" stroke-miterlimit="10" stroke-linecap="round" stroke-linejoin="round"></path> <path d="M312.109 190.494C312.262 190.28 312.629 190.647 312.415 190.8" stroke="#003188" stroke-width="2" stroke-miterlimit="10" stroke-linecap="round" stroke-linejoin="round"></path> <path d="M27.529 323.002C27.3456 323.002 27.1622 323.002 26.9788 323.002" stroke="#003188" stroke-width="2" stroke-miterlimit="10" stroke-linecap="round" stroke-linejoin="round"></path> <path d="M378.837 292.752C378.194 292.63 377.704 293.64 378.225 294.069C378.837 294.008 379.235 293.181 378.868 292.661" stroke="#003188" stroke-width="2" stroke-miterlimit="10" stroke-linecap="round" stroke-linejoin="round"></path> <path d="M521.908 346.76C522.153 346.239 523.072 346.423 523.102 346.974C523.164 347.525 522.245 347.831 521.939 347.372" stroke="#003188" stroke-width="2" stroke-miterlimit="10" stroke-linecap="round" stroke-linejoin="round"></path> <path d="M215.341 87.1341C217.821 86.185 220.302 85.2665 222.782 84.3174" stroke="#00B60F" stroke-width="2" stroke-miterlimit="10" stroke-linecap="round" stroke-linejoin="round"></path> <path d="M215.219 87.532C215.372 110.341 216.229 133.12 217.791 155.868" stroke="#00B60F" stroke-width="2" stroke-miterlimit="10" stroke-linecap="round" stroke-linejoin="round"></path> <path d="M222.905 84.0725C223.242 107.035 224.283 130.915 225.538 153.847" stroke="#00B60F" stroke-width="2" stroke-miterlimit="10" stroke-linecap="round" stroke-linejoin="round"></path> <path d="M218.036 156.572C219.598 156.143 221.16 155.806 222.783 155.653" stroke="#00B60F" stroke-width="2" stroke-miterlimit="10" stroke-linecap="round" stroke-linejoin="round"></path> <path d="M225.569 153.724C234.94 144.356 245.627 136.273 257.172 129.783C257.907 129.354 258.703 128.925 259.132 128.191C259.56 127.425 259.56 126.507 259.53 125.649C259.438 122.802 259.346 119.955 259.285 117.107" stroke="#00B60F" stroke-width="2" stroke-miterlimit="10" stroke-linecap="round" stroke-linejoin="round"></path> <path d="M222.507 83.4602C229.183 69.2542 240.666 57.3138 254.6 50.0884" stroke="#00B60F" stroke-width="2" stroke-miterlimit="10" stroke-linecap="round" stroke-linejoin="round"></path> <path d="M255.028 50.272C255.518 61.8756 256.253 73.4791 257.203 85.0521" stroke="#00B60F" stroke-width="2" stroke-miterlimit="10" stroke-linecap="round" stroke-linejoin="round"></path> <path d="M218.648 83.1232C225.569 68.4579 235.338 54.5275 249.333 46.2917C249.639 47.9144 249.7 49.5983 249.578 51.2516" stroke="#00B60F" stroke-width="2" stroke-miterlimit="10" stroke-linecap="round" stroke-linejoin="round"></path> <path d="M216.842 80.3984C222.66 66.07 232.398 53.3642 244.739 44.0569C244.892 44.3937 245.015 44.7304 245.168 45.0366" stroke="#00B60F" stroke-width="2" stroke-miterlimit="10" stroke-linecap="round" stroke-linejoin="round"></path> <path d="M159.301 91.1141C176.174 83.1845 197.273 81.8986 215.035 87.5626" stroke="#00B60F" stroke-width="2" stroke-miterlimit="10" stroke-linecap="round" stroke-linejoin="round"></path> <path d="M159.484 91.2061C163.22 109.086 165.793 127.241 167.171 145.458" stroke="#00B60F" stroke-width="2" stroke-miterlimit="10" stroke-linecap="round" stroke-linejoin="round"></path> <path d="M197.396 156.051C203.092 155.378 208.88 155.5 214.576 156.358" stroke="#00B60F" stroke-width="2" stroke-miterlimit="10" stroke-linecap="round" stroke-linejoin="round"></path> <path d="M230.438 84.2563C235.461 79.2352 241.157 74.8265 247.312 71.2444" stroke="#00B60F" stroke-width="2" stroke-miterlimit="10" stroke-linecap="round" stroke-linejoin="round"></path> <path d="M233.745 88.0832C237.114 84.4399 241.033 81.2864 245.351 78.7759" stroke="#00B60F" stroke-width="2" stroke-miterlimit="10" stroke-linecap="round" stroke-linejoin="round"></path> <path d="M162.976 84.3787C162.976 85.2359 162.976 86.0626 162.976 86.9198" stroke="#00B60F" stroke-width="2" stroke-miterlimit="10" stroke-linecap="round" stroke-linejoin="round"></path> <path d="M163.251 84.0112C179.084 77.4287 197.335 76.9695 213.473 82.7253" stroke="#00B60F" stroke-width="2" stroke-miterlimit="10" stroke-linecap="round" stroke-linejoin="round"></path> <path d="M165.946 81.7455C165.334 80.7045 165.916 79.2655 166.896 78.5307C167.876 77.7959 169.131 77.5816 170.325 77.3673C177.369 76.2039 184.473 75.0711 191.639 75.0099C198.805 74.9486 206.063 75.9896 212.524 79.0512" stroke="#00B60F" stroke-width="2" stroke-miterlimit="10" stroke-linecap="round" stroke-linejoin="round"></path> <path d="M408.848 132.079C414.421 137.437 418.218 144.325 421.709 151.214C447.31 202.068 459.743 259.504 457.446 316.42" stroke="#00B60F" stroke-width="2" stroke-miterlimit="10" stroke-linecap="round" stroke-linejoin="round"></path> <path d="M441.032 197.536C447.004 176.074 455.946 155.408 467.521 136.365" stroke="#00B60F" stroke-width="2" stroke-miterlimit="10" stroke-linecap="round" stroke-linejoin="round"></path> <path d="M384.227 179.289C407.929 185.566 429.641 199.129 445.718 217.652" stroke="#00B60F" stroke-width="2" stroke-miterlimit="10" stroke-linecap="round" stroke-linejoin="round"></path> <path d="M455.671 258.248C456.436 249.431 460.754 241.348 465.501 233.878C471.442 224.509 478.179 215.661 485.62 207.425" stroke="#00B60F" stroke-width="2" stroke-miterlimit="10" stroke-linecap="round" stroke-linejoin="round"></path> <path d="M398.375 237.429C422.352 245.573 443.36 262.076 456.926 283.446" stroke="#00B60F" stroke-width="2" stroke-miterlimit="10" stroke-linecap="round" stroke-linejoin="round"></path> <path d="M434.632 294.529C443.36 297.131 451.322 302.244 457.324 309.072" stroke="#00B60F" stroke-width="2" stroke-miterlimit="10" stroke-linecap="round" stroke-linejoin="round"></path> <path d="M470.125 315.134C481.7 283.293 501.452 254.422 526.93 232.102" stroke="#00B60F" stroke-width="2" stroke-miterlimit="10" stroke-linecap="round" stroke-linejoin="round"></path> <path d="M474.136 262.902C477.75 273.618 479.067 285.069 477.964 296.305" stroke="#00B60F" stroke-width="2" stroke-miterlimit="10" stroke-linecap="round" stroke-linejoin="round"></path> <path d="M474.81 303.653C487.059 292.876 504.055 289.814 520.132 287.15" stroke="#00B60F" stroke-width="2" stroke-miterlimit="10" stroke-linecap="round" stroke-linejoin="round"></path> <path d="M424.925 159.572C421.495 162.358 416.228 161.991 412.523 159.572C408.817 157.154 406.551 153.02 405.296 148.765C404.04 144.509 403.703 140.07 403.06 135.692C402.233 130.15 400.947 124.639 399.171 119.312C399.018 118.822 398.834 118.24 399.11 117.781C399.539 117.046 400.61 117.199 401.407 117.475C409.859 120.322 417.637 125.19 423.884 131.558C427.467 135.202 430.651 139.58 431.54 144.601C432.428 149.622 430.406 155.47 425.844 157.766" stroke="#00B60F" stroke-width="2" stroke-miterlimit="10" stroke-linecap="round" stroke-linejoin="round"></path> <path d="M420.086 135.967C420.086 137.835 420.086 139.672 420.086 141.539" stroke="#00B60F" stroke-width="2" stroke-miterlimit="10" stroke-linecap="round" stroke-linejoin="round"></path> <path d="M423.363 137.651C423.026 139.243 422.659 140.835 422.322 142.397" stroke="#00B60F" stroke-width="2" stroke-miterlimit="10" stroke-linecap="round" stroke-linejoin="round"></path> <path d="M411.114 144.081C412.4 144.509 413.687 144.938 414.973 145.366" stroke="#00B60F" stroke-width="2" stroke-miterlimit="10" stroke-linecap="round" stroke-linejoin="round"></path> <path d="M411.971 148.275C413.747 148.581 415.493 149.193 417.055 150.112" stroke="#00B60F" stroke-width="2" stroke-miterlimit="10" stroke-linecap="round" stroke-linejoin="round"></path> <path d="M425.874 198.026C426.885 192.821 424.925 187.372 421.587 183.3C418.218 179.228 413.564 176.38 408.756 174.207C395.894 168.451 381.103 167.165 367.445 170.563C373.325 177.942 378.898 185.565 384.165 193.403C389.923 202.006 395.925 211.405 405.54 215.294C408.541 216.518 411.91 217.1 415.034 216.273C420.852 214.681 424.435 207.609 422.261 202.006" stroke="#00B60F" stroke-width="2" stroke-miterlimit="10" stroke-linecap="round" stroke-linejoin="round"></path> <path d="M401.621 199.955C404.592 198.608 407.838 197.934 411.114 198.026" stroke="#00B60F" stroke-width="2" stroke-miterlimit="10" stroke-linecap="round" stroke-linejoin="round"></path> <path d="M404.683 201.394C407.133 200.384 409.736 199.802 412.37 199.649" stroke="#00B60F" stroke-width="2" stroke-miterlimit="10" stroke-linecap="round" stroke-linejoin="round"></path> <path d="M404.683 179.564C406.857 181.034 408.756 182.963 410.195 185.137" stroke="#00B60F" stroke-width="2" stroke-miterlimit="10" stroke-linecap="round" stroke-linejoin="round"></path> <path d="M392.771 176.075C393.199 176.381 393.628 176.656 394.026 176.963" stroke="#00B60F" stroke-width="2" stroke-miterlimit="10" stroke-linecap="round" stroke-linejoin="round"></path> <path d="M446.606 176.687C441.155 175.003 438.521 168.696 438.307 163.001C438.031 154.766 441.584 146.469 447.769 140.988C456.13 133.548 468.134 131.711 477.443 125.496C478.178 128.864 477.811 132.354 477.413 135.783C476.188 145.734 474.503 155.653 472.39 165.451C471.502 169.584 470.431 173.931 467.46 176.962C463.602 180.912 456.773 181.524 452.271 178.279" stroke="#00B60F" stroke-width="2" stroke-miterlimit="10" stroke-linecap="round" stroke-linejoin="round"></path> <path d="M450.985 147.479C451.23 149.347 451.475 151.184 451.72 153.051" stroke="#00B60F" stroke-width="2" stroke-miterlimit="10" stroke-linecap="round" stroke-linejoin="round"></path> <path d="M452.577 144.081C453.098 145.305 453.373 146.622 453.435 147.938" stroke="#00B60F" stroke-width="2" stroke-miterlimit="10" stroke-linecap="round" stroke-linejoin="round"></path> <path d="M464.612 154.827C465.317 154.245 466.021 153.694 466.756 153.112" stroke="#00B60F" stroke-width="2" stroke-miterlimit="10" stroke-linecap="round" stroke-linejoin="round"></path> <path d="M461.336 237.858C457.967 238.164 456.008 234.062 455.916 230.694C455.701 224.54 458.304 218.509 462.132 213.671C465.96 208.834 470.982 205.099 476.188 201.792C482.864 197.567 489.938 194.016 497.318 191.168C498.757 202.006 495.328 212.845 491.745 223.162C489.234 230.449 486.539 237.919 481.241 243.491C479.189 245.635 476.678 247.533 473.738 247.931C470.798 248.359 467.461 246.951 466.419 244.165" stroke="#00B60F" stroke-width="2" stroke-miterlimit="10" stroke-linecap="round" stroke-linejoin="round"></path> <path d="M472.268 229.622C474.412 227.357 477.045 225.581 479.955 224.479" stroke="#00B60F" stroke-width="2" stroke-miterlimit="10" stroke-linecap="round" stroke-linejoin="round"></path> <path d="M471.839 233.48C474.136 232.102 476.586 230.969 479.097 230.051" stroke="#00B60F" stroke-width="2" stroke-miterlimit="10" stroke-linecap="round" stroke-linejoin="round"></path> <path d="M470.216 212.906C470.89 214.865 470.676 217.1 469.665 218.907" stroke="#00B60F" stroke-width="2" stroke-miterlimit="10" stroke-linecap="round" stroke-linejoin="round"></path> <path d="M465.133 222.734C465.316 223.897 465.133 225.122 464.582 226.193" stroke="#00B60F" stroke-width="2" stroke-miterlimit="10" stroke-linecap="round" stroke-linejoin="round"></path> <path d="M493.888 264.035C490.672 262.229 490.244 257.728 491.132 254.146C493.52 244.685 502.033 238.133 510.516 233.296C517.682 229.194 525.184 225.703 532.687 222.244C532.228 234.613 529.257 246.89 524.021 258.126C521.969 262.535 519.427 266.943 515.354 269.638C511.281 272.332 505.371 272.699 501.85 269.362" stroke="#00B60F" stroke-width="2" stroke-miterlimit="10" stroke-linecap="round" stroke-linejoin="round"></path> <path d="M512.047 254.421C513.762 253.166 515.967 252.615 518.049 252.952" stroke="#00B60F" stroke-width="2" stroke-miterlimit="10" stroke-linecap="round" stroke-linejoin="round"></path> <path d="M512.017 257.361C513.18 256.963 514.313 256.565 515.477 256.167" stroke="#00B60F" stroke-width="2" stroke-miterlimit="10" stroke-linecap="round" stroke-linejoin="round"></path> <path d="M509.046 241.562C509.046 242.144 509.046 242.695 509.046 243.277" stroke="#00B60F" stroke-width="2" stroke-miterlimit="10" stroke-linecap="round" stroke-linejoin="round"></path> <path d="M480.475 278.517C482.251 277.353 483.14 275.149 483.231 273.036C483.385 269.822 481.976 266.668 479.955 264.158C477.934 261.647 475.331 259.688 472.697 257.82C471.717 261.77 470.063 265.597 470.002 269.638C469.941 273.679 472.115 278.211 476.066 279.098" stroke="#00B60F" stroke-width="2" stroke-miterlimit="10" stroke-linecap="round" stroke-linejoin="round"></path> <path d="M479.464 267.219C479.158 268.352 478.882 269.485 478.576 270.618" stroke="#00B60F" stroke-width="2" stroke-miterlimit="10" stroke-linecap="round" stroke-linejoin="round"></path> <path d="M473.615 270.128C474.166 270.556 474.718 271.016 475.3 271.444" stroke="#00B60F" stroke-width="2" stroke-miterlimit="10" stroke-linecap="round" stroke-linejoin="round"></path> <path d="M489.417 292.845C488.131 290.824 488.804 287.977 490.427 286.201C492.05 284.425 494.378 283.507 496.705 282.833C509.873 279.037 523.96 282.007 537.679 281.823C527.849 290.518 515.998 296.917 503.32 300.346C500.901 300.989 498.389 301.54 495.94 301.05C493.49 300.56 491.162 298.723 490.795 296.274" stroke="#00B60F" stroke-width="2" stroke-miterlimit="10" stroke-linecap="round" stroke-linejoin="round"></path> <path d="M502.707 284.334C502.493 285.62 501.85 286.814 500.9 287.701" stroke="#00B60F" stroke-width="2" stroke-miterlimit="10" stroke-linecap="round" stroke-linejoin="round"></path> <path d="M506.045 283.905C505.341 284.915 504.606 285.895 503.902 286.905" stroke="#00B60F" stroke-width="2" stroke-miterlimit="10" stroke-linecap="round" stroke-linejoin="round"></path> <path d="M500.074 295.019C501.513 295.019 502.922 295.019 504.361 295.019" stroke="#00B60F" stroke-width="2" stroke-miterlimit="10" stroke-linecap="round" stroke-linejoin="round"></path> <path d="M441.86 270.189C440.665 274.996 435.858 278.394 430.927 278.914C425.997 279.435 421.036 277.414 417.086 274.414C413.135 271.413 410.012 267.464 407.011 263.484C398.742 252.584 390.934 241.318 383.155 230.051C394.21 228.826 405.449 229.592 416.228 232.255C423.915 234.153 431.54 237.123 437.419 242.45C443.268 247.778 447.127 255.799 445.902 263.606" stroke="#00B60F" stroke-width="2" stroke-miterlimit="10" stroke-linecap="round" stroke-linejoin="round"></path> <path d="M414.697 256.84C417.392 255.922 420.362 255.83 423.118 256.595" stroke="#00B60F" stroke-width="2" stroke-miterlimit="10" stroke-linecap="round" stroke-linejoin="round"></path> <path d="M418.035 259.565C420.209 259.443 422.383 259.289 424.557 259.167" stroke="#00B60F" stroke-width="2" stroke-miterlimit="10" stroke-linecap="round" stroke-linejoin="round"></path> <path d="M421.648 242.175C423.792 243.369 425.537 245.298 426.456 247.563" stroke="#00B60F" stroke-width="2" stroke-miterlimit="10" stroke-linecap="round" stroke-linejoin="round"></path> <path d="M429.273 245.788C429.763 246.645 430.253 247.472 430.713 248.329" stroke="#00B60F" stroke-width="2" stroke-miterlimit="10" stroke-linecap="round" stroke-linejoin="round"></path> <path d="M445.932 296.948C446.453 295.233 445.534 293.365 444.126 292.263C442.717 291.161 440.941 290.702 439.195 290.365C435.337 289.569 431.417 289.14 427.497 289.079C427.222 289.079 426.946 289.079 426.701 289.202C426.058 289.569 426.303 290.549 426.609 291.222C428.171 294.468 430.039 297.682 432.918 299.795C435.796 301.907 439.93 302.703 443.023 300.836" stroke="#00B60F" stroke-width="2" stroke-miterlimit="10" stroke-linecap="round" stroke-linejoin="round"></path> <path d="M436.929 298.448C437.419 298.326 437.909 298.203 438.368 298.081" stroke="#00B60F" stroke-width="2" stroke-miterlimit="10" stroke-linecap="round" stroke-linejoin="round"></path> </g> <defs> <clipPath id="clip0"> <rect width="580" height="462" fill="white"></rect> </clipPath> </defs> </svg>
