<svg width="74" height="60" viewBox="0 0 74 60" fill="none" xmlns="http://www.w3.org/2000/svg">
<path fill-rule="evenodd" clip-rule="evenodd" d="M1.7889 18.5864V55.5272C1.7889 56.9642 2.95571 58.127 4.38876 58.127H68.7414C70.1784 58.127 71.3413 56.9602 71.3413 55.5272V18.5864H73.1302V55.5272C73.1302 57.9462 71.1684 59.9159 68.7414 59.9159H4.38876C1.96972 59.9159 0 57.9542 0 55.5272V18.5864H1.7889Z" fill="#003188"/>
<path fill-rule="evenodd" clip-rule="evenodd" d="M13.4665 6.60836C13.9202 6.8038 14.1295 7.33001 13.9341 7.7837C13.8129 8.065 13.7447 8.37427 13.7447 8.69399C13.7447 10.0247 14.8231 11.103 16.1538 11.103C17.4844 11.103 18.5628 10.0247 18.5628 8.69399C18.5628 8.36916 18.4949 8.06582 18.3734 7.7837C18.178 7.33001 18.3873 6.8038 18.841 6.60836C19.2947 6.41293 19.8209 6.62228 20.0164 7.07597C20.2288 7.56904 20.3517 8.11244 20.3517 8.69399C20.3517 11.0127 18.4724 12.8919 16.1538 12.8919C13.8351 12.8919 11.9558 11.0127 11.9558 8.69399C11.9558 8.11926 12.0784 7.56986 12.2912 7.07597C12.4866 6.62228 13.0128 6.41293 13.4665 6.60836Z" fill="#003188"/>
<path fill-rule="evenodd" clip-rule="evenodd" d="M16.1596 0C16.6536 0 17.054 0.400459 17.054 0.894449V8.63442C17.054 9.12841 16.6536 9.52887 16.1596 9.52887C15.6656 9.52887 15.2651 9.12841 15.2651 8.63442V0.894449C15.2651 0.400459 15.6656 0 16.1596 0Z" fill="#003188"/>
<path fill-rule="evenodd" clip-rule="evenodd" d="M54.2892 6.60836C54.7429 6.8038 54.9523 7.33001 54.7569 7.7837C54.6353 8.06581 54.5675 8.36915 54.5675 8.69399C54.5675 10.0247 55.6458 11.103 56.9765 11.103C58.3072 11.103 59.3856 10.0247 59.3856 8.69399C59.3856 8.37427 59.3173 8.065 59.1962 7.7837C59.0007 7.33001 59.2101 6.8038 59.6638 6.60836C60.1175 6.41293 60.6437 6.62228 60.8391 7.07597C61.0519 7.56986 61.1745 8.11926 61.1745 8.69399C61.1745 11.0127 59.2952 12.8919 56.9765 12.8919C54.6578 12.8919 52.7786 11.0127 52.7786 8.69399C52.7786 8.11245 52.9015 7.56904 53.1139 7.07597C53.3093 6.62228 53.8356 6.41293 54.2892 6.60836Z" fill="#003188"/>
<path fill-rule="evenodd" clip-rule="evenodd" d="M56.9704 0C57.4644 0 57.8648 0.400459 57.8648 0.894449V8.63442C57.8648 9.12841 57.4644 9.52887 56.9704 9.52887C56.4764 9.52887 56.0759 9.12841 56.0759 8.63442V0.894449C56.0759 0.400459 56.4764 0 56.9704 0Z" fill="#003188"/>
<path fill-rule="evenodd" clip-rule="evenodd" d="M18.9146 3.04093C18.9146 2.54694 19.315 2.14648 19.809 2.14648H53.3151C53.8091 2.14648 54.2095 2.54694 54.2095 3.04093C54.2095 3.53492 53.8091 3.93538 53.3151 3.93538H19.809C19.315 3.93538 18.9146 3.53492 18.9146 3.04093Z" fill="#003188"/>
<path fill-rule="evenodd" clip-rule="evenodd" d="M59.7313 3.03507C59.7313 2.54108 60.1318 2.14062 60.6258 2.14062H68.7414C71.1684 2.14062 73.1302 4.11035 73.1302 6.52939V19.481H0V6.53535C0 4.10836 1.96972 2.14659 4.38876 2.14659H12.5044C12.9984 2.14659 13.3989 2.54705 13.3989 3.04104C13.3989 3.53503 12.9984 3.93549 12.5044 3.93549H4.38876C2.95571 3.93549 1.7889 5.09833 1.7889 6.53535V17.6921H71.3413V6.52939C71.3413 5.09634 70.1784 3.92952 68.7414 3.92952H60.6258C60.1318 3.92952 59.7313 3.52907 59.7313 3.03507Z" fill="#003188"/>
<path fill-rule="evenodd" clip-rule="evenodd" d="M23.3691 8.96232C23.3691 8.46833 23.7696 8.06787 24.2636 8.06787H48.8669C49.3609 8.06787 49.7614 8.46833 49.7614 8.96232C49.7614 9.45631 49.3609 9.85677 48.8669 9.85677H24.2636C23.7696 9.85677 23.3691 9.45631 23.3691 8.96232Z" fill="#003188"/>
<path d="M28.6223 33.1754C28.6223 32.0186 28.9941 31.0722 29.7375 30.3361C30.481 29.5912 31.4563 29.2188 32.6634 29.2188C33.888 29.2188 34.8676 29.5912 35.6024 30.3361C36.3459 31.0722 36.7176 32.0405 36.7176 33.2411V34.1875C36.7176 35.3355 36.3459 36.2776 35.6024 37.0137C34.8676 37.7498 33.8967 38.1178 32.6896 38.1178C31.5088 38.1178 30.5335 37.7585 29.7638 37.04C29.0028 36.3126 28.6223 35.3355 28.6223 34.1086V33.1754ZM30.8528 34.1875C30.8528 34.7922 31.019 35.2829 31.3514 35.6597C31.6925 36.0278 32.1386 36.2118 32.6896 36.2118C33.2319 36.2118 33.6693 36.0278 34.0017 35.6597C34.3341 35.2829 34.5003 34.7747 34.5003 34.1349V33.1754C34.5003 32.5707 34.3297 32.08 33.9886 31.7031C33.6562 31.3263 33.2145 31.1379 32.6634 31.1379C32.1123 31.1379 31.6706 31.3307 31.3382 31.7163C31.0146 32.0931 30.8528 32.5926 30.8528 33.2148V34.1875ZM37.8066 43.941C37.8066 42.7667 38.1871 41.8159 38.9481 41.0886C39.7091 40.3612 40.68 39.9976 41.8608 39.9976C43.0504 39.9976 44.0213 40.3612 44.7735 41.0886C45.5345 41.8159 45.915 42.7974 45.915 44.033V44.9663C45.915 46.1055 45.5476 47.0476 44.8129 47.7925C44.0869 48.5286 43.1116 48.8966 41.887 48.8966C40.6625 48.8966 39.6741 48.533 38.9218 47.8056C38.1783 47.0695 37.8066 46.1012 37.8066 44.9006V43.941ZM40.0371 44.9663C40.0371 45.5622 40.2076 46.053 40.5488 46.4385C40.8986 46.8154 41.3447 47.0038 41.887 47.0038C42.4468 47.0038 42.8842 46.8241 43.1991 46.4648C43.5227 46.0968 43.6845 45.5841 43.6845 44.9269V43.941C43.6845 43.3276 43.514 42.8368 43.1728 42.4688C42.8317 42.1007 42.3944 41.9167 41.8608 41.9167C41.3185 41.9167 40.8768 42.1007 40.5356 42.4688C40.2033 42.8368 40.0371 43.3451 40.0371 43.9936V44.9663ZM33.3457 47.2009L31.7056 46.2545L41.0342 31.2956L42.6743 32.2421L33.3457 47.2009Z" fill="#003188"/>
</svg>
