<svg width="69" height="49" viewBox="0 0 69 49" fill="none" xmlns="http://www.w3.org/2000/svg">
<g clip-path="url(#clip0)">
<path fill-rule="evenodd" clip-rule="evenodd" d="M-0.00146484 49.0049L-0.00146484 9.58802L68.9985 9.58802V49.0049L-0.00146484 49.0049ZM1.79635 47.2465L67.2007 47.2465V11.3464L1.79635 11.3464L1.79635 47.2465Z" fill="#003188"/>
<path fill-rule="evenodd" clip-rule="evenodd" d="M55.7441 30.2324C55.7441 29.36 56.4702 28.6499 57.3622 28.6499C58.2541 28.6499 58.9802 29.36 58.9802 30.2324C58.9802 31.1168 58.2447 31.802 57.3758 31.8149L57.369 31.815H57.3622C56.4702 31.815 55.7441 31.1049 55.7441 30.2324ZM57.3622 30.4083C57.4631 30.4083 57.5419 30.3312 57.5419 30.2324C57.5419 30.1337 57.4631 30.0566 57.3622 30.0566V30.4083ZM57.354 30.4081L57.3486 30.0567C57.2707 30.0579 57.1824 30.1218 57.1824 30.2324C57.1824 30.3285 57.257 30.4041 57.354 30.4081Z" fill="#003188"/>
<path fill-rule="evenodd" clip-rule="evenodd" d="M10.0139 30.2324C10.0139 29.36 10.74 28.6499 11.6319 28.6499C12.5239 28.6499 13.25 29.36 13.25 30.2324C13.25 31.1168 12.5145 31.802 11.6456 31.8149L11.6388 31.815H11.6319C10.74 31.815 10.0139 31.1048 10.0139 30.2324ZM11.6319 30.4083C11.7329 30.4083 11.8117 30.3312 11.8117 30.2324C11.8117 30.1337 11.7329 30.0566 11.6319 30.0566V30.4083ZM11.6238 30.4081L11.6183 30.0567C11.5404 30.0579 11.4522 30.1218 11.4522 30.2324C11.4522 30.3285 11.5268 30.4041 11.6238 30.4081Z" fill="#003188"/>
<path fill-rule="evenodd" clip-rule="evenodd" d="M5.98682 4.29053H63.0074V10.4683H61.2096V6.0489H7.78463V10.4683H5.98682V4.29053Z" fill="#003188"/>
<path fill-rule="evenodd" clip-rule="evenodd" d="M10.613 0H58.3869V5.16962H56.5891V1.75837H12.4108V5.16962H10.613V0Z" fill="#003188"/>
<path d="M36.8345 35.2522H33.1465V38.684H31.0437V35.2522H28.7649V33.2805H31.0437V31.5708H28.7649V29.6116H31.0437V20.5142H36.9556C38.673 20.5142 40.0344 21.0092 41.0399 21.9992C42.0454 22.9892 42.5481 24.3287 42.5481 26.0175C42.5481 27.7896 42.0637 29.1582 41.0949 30.1232C40.1335 31.08 38.7647 31.5625 36.9886 31.5708H33.1465V33.2805H36.8345V35.2522ZM33.1465 29.6116H36.9556C38.0932 29.6116 38.9592 29.3079 39.5537 28.7006C40.1482 28.0933 40.4454 27.2072 40.4454 26.0425C40.4454 24.9859 40.1372 24.1332 39.5206 23.4842C38.9041 22.827 38.0711 22.4942 37.0216 22.4859H33.1465V29.6116Z" fill="#003188"/>
</g>
<defs>
<clipPath id="clip0">
<rect width="69" height="49" fill="white"/>
</clipPath>
</defs>
</svg>
