<svg xmlns="http://www.w3.org/2000/svg" width="120" height="120" viewBox="0 0 120 120" fill="none"> <circle cx="60" cy="60" r="60" fill="#F2F7FF"></circle> <g clip-path="url(#clip0)"> <path d="M90.0003 80.6248C89.794 79.5841 88.4956 78.8482 86.8503 77.9201C85.8425 77.3482 84.6987 76.7013 84.3096 76.1998C83.5081 75.1685 83.1847 72.4216 83.2597 70.8373C83.2972 70.0544 84.3846 67.2982 85.43 64.631C87.0425 60.5341 88.8659 55.8935 89.0815 53.3201C89.5503 47.5685 87.9565 39.7263 81.9753 34.9544C79.219 32.8123 74.2456 30.356 68.4378 30.0326C63.8112 29.7794 57.1878 30.8388 51.7784 37.3591C49.1862 40.4716 47.8128 42.8951 47.7425 44.5591C47.7425 44.6529 47.3159 53.9341 48.0706 54.9701C48.1643 55.1013 48.2768 55.2466 48.3987 55.3966C48.6673 55.6956 48.8886 56.0339 49.055 56.3998C48.9659 56.7091 48.4831 57.8576 46.0878 62.1279L45.9143 62.4326C45.6485 62.9965 45.5643 63.6291 45.6734 64.2429C45.7826 64.8567 46.0797 65.4215 46.5237 65.8591C47.0068 66.184 47.543 66.422 48.1081 66.5623C48.38 66.6513 48.7831 66.7826 49.0456 66.8904C49.0065 67.3627 48.8942 67.826 48.7128 68.2638C48.0471 69.431 49.4675 70.2935 50.7237 71.0763L50.9768 71.231C50.855 71.4279 50.6956 71.6576 50.5831 71.8263C50.2143 72.2982 49.9217 72.8249 49.7159 73.3873C49.519 74.1185 50.119 74.531 50.5128 74.7935C50.7407 74.9378 50.9515 75.1076 51.1409 75.2998C51.1194 75.3933 51.0928 75.4856 51.0612 75.5763C50.8661 76.1867 50.7311 76.8147 50.6581 77.4513C50.405 79.4294 52.5331 80.9013 53.9815 81.4076C54.7081 81.656 58.144 81.2013 59.8878 80.6482C61.1368 83.4196 62.1163 86.3048 62.8128 89.2638C62.8595 89.4762 62.9785 89.6657 63.1495 89.7999C63.3205 89.9342 63.5329 90.0048 63.7503 89.9998C63.8173 90.0064 63.8848 90.0064 63.9518 89.9998C64.1941 89.9459 64.4051 89.7983 64.5386 89.5892C64.6722 89.3801 64.7174 89.1265 64.6643 88.8841C64.1656 86.7542 63.5283 84.6591 62.7565 82.6123C61.3503 78.8623 60.8815 78.7357 60.5018 78.6185C60.3519 78.5746 60.1938 78.5661 60.0401 78.5938C59.8863 78.6214 59.7411 78.6845 59.6159 78.7779C57.9696 79.2502 56.2737 79.5286 54.5628 79.6076C53.5222 79.2373 52.4393 78.3607 52.5284 77.6716C52.5869 77.1507 52.6984 76.6371 52.8612 76.1388C53.0454 75.6918 53.0686 75.1948 52.9268 74.7326C52.6955 74.1795 52.2973 73.7124 51.7878 73.3966L52.1393 72.8763C52.7675 71.9388 53.4753 70.9216 52.6971 70.1435C52.3919 69.8811 52.0586 69.6531 51.7034 69.4638C51.4128 69.2857 50.8737 68.9623 50.569 68.7232C50.8484 67.9459 50.9633 67.1191 50.9065 66.2951C50.7706 65.4654 49.8987 65.1841 48.694 64.7904C48.3759 64.6942 48.063 64.5816 47.7565 64.4529C47.6511 64.2966 47.5809 64.1191 47.551 63.9329C47.521 63.7468 47.532 63.5563 47.5831 63.3748L47.7518 63.0748C50.719 57.7873 50.9628 56.9341 50.9628 56.4701C50.9628 55.5982 50.3721 54.8576 49.894 54.2576L49.6878 53.9716C49.4628 52.9357 49.5097 46.9685 49.6362 44.6623C49.7018 43.4623 51.0143 41.2357 53.2268 38.5685C62.2034 27.6841 75.9378 32.5498 80.7893 36.4404C87.7596 42.0044 87.3518 51.3607 87.1971 53.1794C87.0003 55.481 85.1534 60.1826 83.6675 63.9607C82.2331 67.6123 81.4175 69.7263 81.3706 70.7669C81.3096 72.0091 81.4503 75.6232 82.8097 77.3669C83.4284 78.1638 84.6331 78.8482 85.9081 79.5701C86.6721 80.0013 87.9378 80.7185 88.1534 81.0654C88.2093 81.3078 88.3593 81.5181 88.5703 81.6499C88.7813 81.7818 89.036 81.8244 89.2784 81.7685C89.5208 81.7126 89.7311 81.5626 89.863 81.3516C89.9948 81.1406 90.0375 80.8859 89.9815 80.6435L90.0003 80.6248ZM60.8487 80.156C60.7623 80.2403 60.6605 80.3072 60.5487 80.3529C60.6515 80.3013 60.7463 80.235 60.83 80.156H60.8487Z" fill="#003188"></path> <path d="M47.386 88.5423C46.308 87.0307 44.9982 85.6986 43.5048 84.5954C43.0747 84.285 42.6759 83.9334 42.3142 83.5454C41.6891 82.0236 40.9721 80.5412 40.1673 79.1064C39.9423 78.6892 39.6985 78.2345 39.4126 77.7001C39.0785 77.0578 38.6862 76.4474 38.2407 75.8767C38.5501 74.9392 38.8267 74.1657 39.0657 73.4814C39.872 71.1798 40.3126 69.9142 40.5048 68.0673C40.6829 66.3845 40.1485 64.9876 39.0985 64.4157C38.7033 64.2072 38.2541 64.1238 37.8104 64.1765C37.3667 64.2293 36.9495 64.4157 36.6142 64.7111C35.6626 65.4704 33.5485 70.1767 31.9689 75.0657C31.6997 75.4207 31.5621 75.8581 31.5798 76.3032C30.3282 80.4282 29.5595 84.4595 30.272 86.147C31.111 88.1345 31.6782 89.4282 31.6782 89.4282C31.7503 89.5984 31.8711 89.7435 32.0254 89.8453C32.1797 89.947 32.3606 90.0009 32.5454 90.0001C32.6747 90.0008 32.8026 89.9736 32.9204 89.9204C33.1452 89.8181 33.3205 89.6312 33.4082 89.4004C33.496 89.1696 33.4892 88.9134 33.3892 88.6876C33.3892 88.6876 32.8173 87.3892 31.9829 85.4064C31.5939 84.4689 31.9829 82.1251 32.6673 79.3923C32.9298 79.8611 33.211 80.3298 33.497 80.7986C33.8845 81.396 34.2246 82.0229 34.5142 82.6736C35.0403 84.2091 35.4754 85.7743 35.8173 87.3611C35.8583 87.6066 35.9952 87.8258 36.1978 87.9704C36.4005 88.115 36.6522 88.1732 36.8978 88.1321C37.1433 88.0911 37.3625 87.9542 37.5071 87.7516C37.6517 87.549 37.7099 87.2972 37.6689 87.0517C37.3164 85.3788 36.8577 83.7302 36.2954 82.1157C35.9744 81.3256 35.5739 80.5702 35.1001 79.8611C34.6314 79.0923 33.6657 77.4798 33.4548 76.6361C33.5204 76.4251 33.586 76.2095 33.6564 75.9939C33.7989 75.8669 33.9662 75.7709 34.1478 75.712C34.3293 75.6531 34.5211 75.6326 34.711 75.6517C35.7001 75.7548 36.8017 76.8236 37.7345 78.5907C38.0204 79.1392 38.2735 79.5986 38.5032 79.997C39.2774 81.3753 39.9662 82.7999 40.5657 84.2626C40.8142 84.8532 41.4095 85.3314 42.3142 86.0579C43.6528 87.0442 44.8308 88.2317 45.8064 89.5782C45.8923 89.707 46.0087 89.8125 46.1453 89.8853C46.2819 89.9581 46.4344 89.9959 46.5892 89.9954C46.773 89.994 46.9523 89.9386 47.1048 89.8361C47.3134 89.7016 47.4601 89.4898 47.5128 89.2473C47.5656 89.0048 47.52 88.7513 47.386 88.5423V88.5423ZM34.9173 73.7673C34.7472 73.7556 34.5765 73.7556 34.4064 73.7673C35.7048 70.0173 37.1345 66.7361 37.786 66.1876C37.9595 66.047 38.1001 66.0048 38.2032 66.0611C38.4423 66.1923 38.7564 66.7876 38.6439 67.8751C38.4704 69.5064 38.0767 70.6267 37.2939 72.8673C37.1298 73.3361 36.9423 73.8751 36.7407 74.4611C36.1996 74.0826 35.5731 73.8443 34.9173 73.7673V73.7673Z" fill="#003188"></path> <path d="M42.1875 74.0625C42.0021 74.0625 41.8208 74.0075 41.6667 73.9045C41.5125 73.8015 41.3923 73.6551 41.3214 73.4838C41.2504 73.3125 41.2318 73.124 41.268 72.9421C41.3042 72.7602 41.3935 72.5932 41.5246 72.4621C41.6557 72.331 41.8227 72.2417 42.0046 72.2055C42.1865 72.1693 42.375 72.1879 42.5463 72.2589C42.7176 72.3298 42.864 72.45 42.967 72.6042C43.07 72.7583 43.125 72.9396 43.125 73.125C43.125 73.3736 43.0262 73.6121 42.8504 73.7879C42.6746 73.9637 42.4361 74.0625 42.1875 74.0625Z" fill="#003188"></path> <path d="M47.3438 74.0625C47.1583 74.0625 46.9771 74.0075 46.8229 73.9045C46.6687 73.8015 46.5486 73.6551 46.4776 73.4838C46.4067 73.3125 46.3881 73.124 46.4243 72.9421C46.4604 72.7602 46.5497 72.5932 46.6808 72.4621C46.8119 72.331 46.979 72.2417 47.1609 72.2055C47.3427 72.1693 47.5312 72.1879 47.7025 72.2589C47.8738 72.3298 48.0202 72.45 48.1233 72.6042C48.2263 72.7583 48.2812 72.9396 48.2812 73.125C48.2812 73.3736 48.1825 73.6121 48.0067 73.7879C47.8308 73.9637 47.5924 74.0625 47.3438 74.0625Z" fill="#003188"></path> <path d="M45 81.5625C44.8146 81.5625 44.6333 81.5075 44.4792 81.4045C44.325 81.3015 44.2048 81.1551 44.1339 80.9838C44.0629 80.8125 44.0443 80.624 44.0805 80.4421C44.1167 80.2602 44.206 80.0932 44.3371 79.9621C44.4682 79.831 44.6352 79.7417 44.8171 79.7055C44.999 79.6693 45.1875 79.6879 45.3588 79.7589C45.5301 79.8298 45.6765 79.95 45.7795 80.1042C45.8825 80.2583 45.9375 80.4396 45.9375 80.625C45.9375 80.8736 45.8387 81.1121 45.6629 81.2879C45.4871 81.4637 45.2486 81.5625 45 81.5625Z" fill="#003188"></path> <path d="M69.3748 84.3745C67.9487 84.3727 66.5349 84.1106 65.2029 83.6011C64.9705 83.5128 64.7826 83.3358 64.6806 83.109C64.5786 82.8822 64.5709 82.6242 64.6592 82.3917C64.7475 82.1592 64.9245 81.9714 65.1513 81.8694C65.3781 81.7674 65.6361 81.7597 65.8686 81.848C68.3078 82.7759 71.0156 82.6972 73.3969 81.6292C75.7781 80.5612 77.6377 78.5913 78.567 76.1527C78.6107 76.0375 78.6767 75.9322 78.7611 75.8425C78.8455 75.7529 78.9468 75.6808 79.0591 75.6303C79.1714 75.5798 79.2925 75.5519 79.4156 75.5483C79.5387 75.5446 79.6613 75.5652 79.7764 75.6089C79.8915 75.6526 79.9969 75.7186 80.0865 75.803C80.1761 75.8874 80.2482 75.9887 80.2987 76.101C80.3492 76.2133 80.3771 76.3344 80.3808 76.4575C80.3845 76.5806 80.3638 76.7032 80.3201 76.8183C79.472 79.0356 77.9724 80.9443 76.0188 82.293C74.0651 83.6418 71.7488 84.3675 69.3748 84.3745V84.3745Z" fill="#003188"></path> <path d="M59.3014 69.7599C59.1876 69.7606 59.0748 69.7399 58.9686 69.699C58.8535 69.6553 58.7481 69.5893 58.6585 69.5049C58.5688 69.4205 58.4967 69.3192 58.4462 69.2069C58.3957 69.0946 58.3679 68.9735 58.3642 68.8504C58.3605 68.7273 58.3811 68.6047 58.4249 68.4896C59.5306 65.5859 61.7443 63.2402 64.5791 61.9683C67.414 60.6964 70.6379 60.6023 73.542 61.7068C73.6572 61.7505 73.7625 61.8165 73.8522 61.9009C73.9418 61.9853 74.0139 62.0866 74.0644 62.1989C74.1149 62.3112 74.1428 62.4323 74.1464 62.5554C74.1501 62.6785 74.1295 62.8011 74.0858 62.9162C74.0421 63.0313 73.9761 63.1367 73.8917 63.2263C73.8073 63.3159 73.706 63.388 73.5937 63.4385C73.4814 63.489 73.3603 63.5169 73.2372 63.5206C73.1141 63.5242 72.9915 63.5036 72.8764 63.4599C70.4372 62.532 67.7294 62.6107 65.3481 63.6787C62.9669 64.7467 61.1073 66.7166 60.178 69.1552C60.1105 69.333 59.9905 69.4861 59.8339 69.5941C59.6773 69.7021 59.4916 69.7599 59.3014 69.7599Z" fill="#003188"></path> <path d="M69.3748 80.3531H69.0561C68.9329 80.3483 68.8119 80.3192 68.7 80.2676C68.5881 80.2159 68.4875 80.1427 68.4039 80.0522C68.3203 79.9616 68.2554 79.8555 68.2129 79.7398C68.1703 79.6241 68.151 79.5012 68.1561 79.3781C68.167 79.1302 68.2758 78.8968 68.4585 78.729C68.6413 78.5611 68.8831 78.4726 69.1311 78.4828C69.895 78.5142 70.6576 78.3948 71.3754 78.1315C72.0932 77.8682 72.7521 77.4661 73.3145 76.9481C73.8769 76.4301 74.3317 75.8064 74.6531 75.1126C74.9744 74.4189 75.1559 73.6686 75.1873 72.9047C75.1922 72.7815 75.2213 72.6606 75.273 72.5487C75.3247 72.4369 75.3979 72.3363 75.4884 72.2527C75.5789 72.1692 75.685 72.1042 75.8007 72.0617C75.9163 72.0191 76.0392 71.9997 76.1623 72.0047C76.2854 72.0096 76.4064 72.0387 76.5182 72.0904C76.6301 72.142 76.7307 72.2152 76.8142 72.3058C76.8978 72.3963 76.9627 72.5024 77.0053 72.618C77.0478 72.7337 77.0672 72.8565 77.0623 72.9797C76.9766 74.962 76.1296 76.8349 74.6976 78.2084C73.2656 79.5819 71.359 80.3501 69.3748 80.3531V80.3531Z" fill="#003188"></path> <path d="M62.6253 73.3173H62.5831C62.3352 73.3063 62.1018 73.1975 61.934 73.0148C61.7662 72.832 61.6776 72.5902 61.6878 72.3423C61.7743 70.3045 62.6651 68.3842 64.1649 67.0021C65.6648 65.62 67.6514 64.8888 69.6894 64.9688C69.938 64.9788 70.1725 65.0871 70.3413 65.2699C70.5101 65.4528 70.5993 65.6952 70.5894 65.9438C70.5794 66.1925 70.4711 66.427 70.2883 66.5958C70.1054 66.7645 69.863 66.8538 69.6144 66.8438C68.0722 66.7829 66.5688 67.3358 65.4335 68.3814C64.2983 69.427 63.6239 70.88 63.5581 72.422C63.5473 72.6624 63.4444 72.8895 63.2707 73.0561C63.0971 73.2228 62.866 73.3163 62.6253 73.3173V73.3173Z" fill="#003188"></path> <path d="M69.3749 76.406H69.2155C68.2517 76.385 67.3351 75.9847 66.6646 75.292C65.9942 74.5993 65.624 73.67 65.6345 72.7061C65.645 71.7421 66.0353 70.8211 66.7207 70.1432C67.406 69.4652 68.3312 69.085 69.2952 69.085C70.2593 69.085 71.1844 69.4652 71.8698 70.1432C72.5551 70.8211 72.9454 71.7421 72.9559 72.7061C72.9664 73.67 72.5963 74.5993 71.9258 75.292C71.2553 75.9847 70.3387 76.385 69.3749 76.406V76.406ZM69.3749 70.781C68.9046 70.7908 68.4572 70.9859 68.1298 71.3237C67.8025 71.6615 67.6216 72.1149 67.6266 72.5853C67.6315 73.0557 67.8218 73.5051 68.1562 73.836C68.4906 74.1669 68.942 74.3525 69.4124 74.3525C69.8828 74.3525 70.3342 74.1669 70.6686 73.836C71.003 73.5051 71.1933 73.0557 71.1982 72.5853C71.2032 72.1149 71.0223 71.6615 70.695 71.3237C70.3676 70.9859 69.9202 70.7908 69.4499 70.781H69.3749Z" fill="#003188"></path> </g> <defs> <clipPath id="clip0"> <rect x="30" y="30" width="60" height="60" fill="white"></rect> </clipPath> </defs> </svg>
