<svg width="83" height="78" viewBox="0 0 83 78" fill="none" xmlns="http://www.w3.org/2000/svg">
	<path fill-rule="evenodd" clip-rule="evenodd" d="M15.6568 29.6731C15.9239 29.2575 16.4774 29.1372 16.8929 29.4044L16.9706 29.4543C18.9464 30.6839 20.0255 32.9627 19.7168 35.272L19.6101 36.072L21.2171 41.7369C21.7543 43.6277 23.0924 45.1972 24.8769 46.0236L28.3007 47.6103C32.6807 49.6459 35.9583 53.4842 37.2757 58.1359L37.2758 58.1365L38.6533 63.0143C38.7875 63.4897 38.511 63.9839 38.0356 64.1181C37.5602 64.2524 37.066 63.9758 36.9317 63.5004L35.5545 58.6233C34.3793 54.4737 31.4555 51.0492 27.5469 49.2326C27.5469 49.2326 27.5469 49.2326 27.5469 49.2326L24.1251 47.6469C24.125 47.6469 24.1252 47.6469 24.1251 47.6469C21.8668 46.6009 20.1755 44.6165 19.4963 42.2258L17.7879 36.2033L17.9436 35.0355C18.1591 33.4237 17.4043 31.8288 16.0211 30.9704L16.015 30.9667L15.9255 30.9092C15.51 30.642 15.3897 30.0886 15.6568 29.6731Z" fill="#003188"/>
	<path fill-rule="evenodd" clip-rule="evenodd" d="M3.61699 44.5577C5.59658 44.3081 8.0852 45.1287 10.7216 48.5027L10.7221 48.5033C12.98 51.3976 16.5302 53.046 20.142 52.7305C20.3812 52.7066 20.5981 52.6847 20.8175 52.6526C21.3063 52.5811 21.7605 52.9193 21.832 53.4081C21.9036 53.8969 21.5653 54.3511 21.0765 54.4226C20.8118 54.4614 20.5562 54.4869 20.3228 54.5103L20.3091 54.5116L20.3038 54.5121C16.0463 54.8862 11.9186 52.9452 9.31176 49.6038C6.93941 46.5679 5.01849 46.184 3.84073 46.3325C3.28494 46.4026 2.82184 46.5986 2.47581 46.7988C2.51134 46.8432 2.54827 46.8894 2.58654 46.9374C3.02254 47.4841 3.63275 48.2636 4.3316 49.1972C5.72627 51.0602 7.48673 53.5537 8.9195 56.0428C10.8211 59.3438 13.8866 61.8282 17.5259 62.7352L17.5265 62.7354C17.7598 62.7937 17.991 62.8485 18.2164 62.8915L18.2223 62.8926L18.2283 62.8938C21.0657 63.4745 23.4136 65.3204 24.72 67.8018C24.9501 68.2389 24.7823 68.7798 24.3452 69.01C23.9081 69.2401 23.3672 69.0723 23.137 68.6352C22.071 66.6102 20.1636 65.1177 17.8754 64.6476C17.6022 64.5953 17.3348 64.5314 17.093 64.471M17.093 64.471C12.9329 63.4339 9.48676 60.6113 7.36941 56.9358C5.98768 54.5353 4.27462 52.1062 2.89952 50.2692C2.21347 49.3528 1.61468 48.5879 1.18791 48.0527C0.974578 47.7852 0.804382 47.5753 0.687934 47.4327C0.629715 47.3615 0.584943 47.3071 0.554948 47.2707L0.521207 47.23L0.510655 47.2173L0 46.6049L0.549838 46.0276L1.19757 46.6444C0.549838 46.0276 0.550293 46.0271 0.550762 46.0266L0.551778 46.0255L0.554086 46.0231L0.559805 46.0172L0.57564 46.0012C0.588139 45.9887 0.604537 45.9725 0.624756 45.9533C0.665162 45.9148 0.721032 45.8636 0.79175 45.8035C0.932844 45.6836 1.13513 45.5263 1.39368 45.363C1.90858 45.038 2.66523 44.6776 3.61699 44.5577" fill="#003188"/>
	<path fill-rule="evenodd" clip-rule="evenodd" d="M8.45759 21.4356L8.23981 22.3032C8.45759 21.4356 8.45824 21.4358 8.45889 21.436L8.46027 21.4363L8.46322 21.4371L8.46994 21.4388L8.48663 21.4433C8.49917 21.4468 8.51451 21.4512 8.53245 21.4567C8.5683 21.4676 8.61468 21.4828 8.66983 21.503C8.77992 21.5434 8.92644 21.6045 9.09489 21.6934C9.43123 21.871 9.8626 22.1636 10.2623 22.6291C11.0894 23.5922 11.6598 25.15 11.2504 27.5575L11.2463 27.5817L9.01573 37.3996L10.5158 43.5151C10.6335 43.9949 10.3399 44.4792 9.86015 44.5969C9.38038 44.7146 8.89606 44.4211 8.77838 43.9413L7.17767 37.4153L9.4908 27.2339C9.8188 25.2743 9.32708 24.2859 8.90514 23.7945C8.85336 23.7342 8.80079 23.6792 8.74836 23.6292L4.15661 37.716L5.81008 45.2723C5.91568 45.7548 5.61008 46.2316 5.12751 46.3372C4.64494 46.4428 4.16813 46.1372 4.06253 45.6546L2.30518 37.6236L7.64806 21.2324L8.45759 21.4356Z" fill="#003188"/>
	<path fill-rule="evenodd" clip-rule="evenodd" d="M11.6968 18.9295L11.3882 19.769C11.6968 18.9295 11.6974 18.9296 11.6979 18.9299L11.6991 18.9303L11.7017 18.9313L11.708 18.9336L11.7247 18.9401C11.7376 18.9451 11.754 18.9517 11.7737 18.9599C11.813 18.9763 11.8654 18.9992 11.9287 19.0292C12.055 19.0891 12.226 19.1781 12.4232 19.3013C12.8159 19.5467 13.3237 19.9352 13.7863 20.5108C14.7388 21.6958 15.4059 23.5591 14.7246 26.2832L12.6882 36.9026L14.2941 42.5722C14.4287 43.0475 14.1526 43.5419 13.6773 43.6766C13.202 43.8112 12.7076 43.535 12.5729 43.0597L10.8515 36.9822L12.9774 25.8958L12.9837 25.8706C13.544 23.6534 12.981 22.3643 12.392 21.6315C12.2288 21.4285 12.0565 21.2595 11.8912 21.1209L10.8976 24.1944C10.7457 24.6644 10.2415 24.9223 9.77141 24.7703C9.30137 24.6184 9.04351 24.1141 9.19546 23.6441L10.8234 18.6084L11.6968 18.9295Z" fill="#003188"/>
	<path fill-rule="evenodd" clip-rule="evenodd" d="M13.3811 23.3852C13.6694 22.9841 14.2283 22.8926 14.6294 23.1809L14.8262 23.3223C16.8577 24.8079 17.8525 27.3295 17.3896 29.7964C17.3896 29.7965 17.3897 29.7963 17.3896 29.7964L16.2241 36.0164L17.883 41.7938C18.0194 42.2686 17.745 42.7641 17.2702 42.9004C16.7954 43.0367 16.2999 42.7623 16.1636 42.2875L14.3878 36.1032L15.6313 29.4669C15.9672 27.6775 15.2459 25.8472 13.7731 24.7684L13.5854 24.6335C13.1842 24.3452 13.0928 23.7863 13.3811 23.3852Z" fill="#003188"/>
	<path fill-rule="evenodd" clip-rule="evenodd" d="M38.3071 62.5255C38.5453 62.693 38.6871 62.966 38.6871 63.2572V67.2405C38.6871 67.7345 38.2866 68.135 37.7927 68.135C37.2987 68.135 36.8982 67.7345 36.8982 67.2405V64.5294L22.4029 69.7421L24.9056 75.9825L35.8242 72.6229C36.2963 72.4777 36.7969 72.7426 36.9421 73.2148C37.0874 73.6869 36.8224 74.1874 36.3503 74.3327L24.6449 77.9344C24.2002 78.0712 23.7249 77.8443 23.5517 77.4124L20.3973 69.5472C20.3069 69.3218 20.312 69.0694 20.4115 68.8479C20.511 68.6263 20.6963 68.4548 20.9248 68.3726L37.49 62.4156C37.764 62.317 38.0689 62.3581 38.3071 62.5255Z" fill="#003188"/>
	<path fill-rule="evenodd" clip-rule="evenodd" d="M38.6359 66.9423C38.8006 67.4081 38.5564 67.9191 38.0907 68.0837L22.891 73.4564C22.4253 73.621 21.9142 73.3769 21.7496 72.9111C21.585 72.4454 21.8291 71.9344 22.2948 71.7697L37.4945 66.3971C37.9603 66.2324 38.4713 66.4766 38.6359 66.9423Z" fill="#003188"/>
	<path fill-rule="evenodd" clip-rule="evenodd" d="M66.4757 29.6731C66.7428 30.0886 66.6225 30.642 66.207 30.9092L66.1175 30.9667L66.1114 30.9704C64.7282 31.8288 63.9733 33.4234 64.1889 35.0352L64.3446 36.2033L62.6363 42.2255C61.9571 44.6161 60.2659 46.6009 58.0076 47.6468C58.0075 47.6468 58.0077 47.6468 58.0076 47.6468L54.5857 49.2325C54.5857 49.2326 54.5858 49.2325 54.5857 49.2325C50.6774 51.049 47.7535 54.4733 46.5782 58.6227C46.5782 58.6228 46.5782 58.6226 46.5782 58.6227C46.5782 58.6228 46.5781 58.6232 46.578 58.6233L45.2008 63.5004C45.0665 63.9758 44.5723 64.2524 44.0969 64.1181C43.6215 63.9839 43.345 63.4897 43.4792 63.0143L44.8568 58.1359C46.1742 53.4842 49.4518 49.6459 53.8318 47.6103L57.2554 46.0237C59.0398 45.1973 60.378 43.6279 60.9153 41.7373C60.9153 41.7372 60.9153 41.7374 60.9153 41.7373L62.5224 36.072L62.4158 35.2723C62.4157 35.2722 62.4158 35.2724 62.4158 35.2723C62.1071 32.9631 63.1861 30.6838 65.1619 29.4543L65.2396 29.4044C65.6551 29.1372 66.2086 29.2575 66.4757 29.6731Z" fill="#003188"/>
	<path fill-rule="evenodd" clip-rule="evenodd" d="M78.292 46.3325C77.1142 46.184 75.1933 46.5679 72.8209 49.6039C70.2141 52.9452 66.0864 54.8862 61.8289 54.5121L61.8236 54.5116L61.8099 54.5103C61.5766 54.4869 61.3209 54.4614 61.0562 54.4226C60.5674 54.3511 60.2291 53.8969 60.3007 53.4081C60.3722 52.9193 60.8264 52.5811 61.3152 52.6526C61.5346 52.6847 61.7515 52.7066 61.9907 52.7305C65.6025 53.046 69.1527 51.3976 71.4106 48.5033L71.4111 48.5027C74.0475 45.1287 76.5361 44.3081 78.5157 44.5577C79.4675 44.6776 80.2241 45.038 80.739 45.363C80.9976 45.5263 81.1999 45.6836 81.341 45.8035C81.4117 45.8636 81.4675 45.9148 81.5079 45.9533C81.5282 45.9725 81.5446 45.9887 81.5571 46.0012L81.5729 46.0172L81.5786 46.0231L81.5809 46.0255L81.5819 46.0266C81.5824 46.0271 81.5829 46.0276 80.9351 46.6444L81.5829 46.0276L82.1327 46.6049L81.6221 47.2172L81.6197 47.22L81.6115 47.23L81.5778 47.2707C81.5478 47.3071 81.503 47.3615 81.4448 47.4327C81.3283 47.5753 81.1581 47.7852 80.9448 48.0527C80.518 48.5879 79.9192 49.3528 79.2332 50.2692C77.8581 52.1062 76.1452 54.535 74.7634 56.9355C72.6461 60.611 69.2001 63.4339 65.0401 64.4709C64.7983 64.5313 64.5308 64.5953 64.2576 64.6475C61.9744 65.1177 60.0614 66.6108 58.9957 68.6352C58.7655 69.0723 58.2246 69.2401 57.7875 69.01C57.3504 68.7798 57.1826 68.2389 57.4127 67.8018C58.7194 65.3199 61.0735 63.4745 63.904 62.8939L63.9102 62.8926L63.9164 62.8915C64.1418 62.8485 64.3729 62.7937 64.6062 62.7354L64.6068 62.7352C68.2461 61.8282 71.3116 59.3438 73.2132 56.0428C74.646 53.5537 76.4064 51.0602 77.8011 49.1972C78.5 48.2636 79.1102 47.4841 79.5462 46.9374C79.5844 46.8894 79.6214 46.8432 79.6569 46.7988C79.3109 46.5986 78.8478 46.4026 78.292 46.3325ZM80.2918 47.2658L80.291 47.265C80.2922 47.2662 80.2924 47.2664 80.2918 47.2658Z" fill="#003188"/>
	<path fill-rule="evenodd" clip-rule="evenodd" d="M74.4847 21.2324L79.8276 37.6236L78.0703 45.6546C77.9647 46.1372 77.4878 46.4428 77.0053 46.3372C76.5227 46.2316 76.2171 45.7548 76.3227 45.2723L77.9762 37.716L73.3844 23.6292C73.332 23.6792 73.2794 23.7342 73.2276 23.7945C72.8057 24.2859 72.314 25.2743 72.642 27.2339L74.9551 37.4153L73.3544 43.9413C73.2367 44.4211 72.7524 44.7146 72.2726 44.5969C71.7929 44.4792 71.4993 43.9949 71.617 43.5151L73.1171 37.3996L70.8865 27.5817L70.8824 27.5575C70.473 25.15 71.0434 23.5922 71.8705 22.6291C72.2702 22.1636 72.7015 21.871 73.0379 21.6934C73.2063 21.6045 73.3529 21.5434 73.4629 21.503C73.5181 21.4828 73.5645 21.4676 73.6003 21.4567C73.6183 21.4512 73.6336 21.4468 73.6461 21.4433L73.6628 21.4388L73.6696 21.4371L73.6725 21.4363L73.6739 21.436C73.6745 21.4358 73.6752 21.4356 73.893 22.3032L73.6752 21.4356L74.4847 21.2324Z" fill="#003188"/>
	<path fill-rule="evenodd" clip-rule="evenodd" d="M71.3091 18.6084L72.9371 23.6441C73.089 24.1141 72.8311 24.6184 72.3611 24.7703C71.8911 24.9223 71.3868 24.6644 71.2349 24.1944L70.2413 21.1209C70.076 21.2595 69.9037 21.4285 69.7405 21.6315C69.1516 22.3643 68.5885 23.6534 69.1488 25.8706L69.1551 25.8958L71.281 36.9822L69.5596 43.0597C69.425 43.535 68.9305 43.8112 68.4552 43.6766C67.9799 43.5419 67.7038 43.0475 67.8384 42.5722L69.4443 36.9026L67.4079 26.2832C66.7267 23.5591 67.3937 21.6958 68.3462 20.5108C68.8088 19.9352 69.3166 19.5467 69.7094 19.3013C69.9065 19.1781 70.0775 19.0891 70.2038 19.0292C70.2671 18.9992 70.3195 18.9763 70.3588 18.9599C70.3785 18.9517 70.3949 18.9451 70.4078 18.9401L70.4245 18.9336L70.4308 18.9313L70.4334 18.9303L70.4346 18.9299C70.4352 18.9296 70.4357 18.9295 70.7443 19.769L70.4357 18.9295L71.3091 18.6084Z" fill="#003188"/>
	<path fill-rule="evenodd" clip-rule="evenodd" d="M68.7517 23.3852C69.04 23.7863 68.9486 24.3452 68.5475 24.6335L68.3598 24.7684C66.8869 25.8472 66.1656 27.6773 66.5014 29.4667L67.745 36.1032L65.9692 42.2875C65.8329 42.7623 65.3375 43.0367 64.8627 42.9004C64.3879 42.7641 64.1135 42.2686 64.2498 41.7938L65.9087 36.0164L64.7432 29.7967C64.7432 29.7966 64.7433 29.7968 64.7432 29.7967C64.2804 27.3297 65.2752 24.808 67.3066 23.3224L67.3126 23.318L67.5034 23.1809C67.9045 22.8926 68.4634 22.9841 68.7517 23.3852Z" fill="#003188"/>
	<path fill-rule="evenodd" clip-rule="evenodd" d="M43.8258 62.5255C44.0641 62.358 44.369 62.317 44.643 62.4156L61.2023 68.3726C61.4307 68.4548 61.6158 68.6263 61.7153 68.8476C61.8148 69.069 61.8201 69.3214 61.7299 69.5467L58.5814 77.4119C58.4084 77.844 57.9329 78.0713 57.488 77.9344L45.7826 74.3327C45.3105 74.1874 45.0455 73.6869 45.1908 73.2148C45.336 72.7426 45.8366 72.4777 46.3087 72.6229L57.2268 75.9823L59.7247 69.7422L45.2347 64.5296V67.2405C45.2347 67.7345 44.8342 68.135 44.3403 68.135C43.8463 68.135 43.4458 67.7345 43.4458 67.2405V63.2572C43.4458 62.966 43.5876 62.693 43.8258 62.5255Z" fill="#003188"/>
	<path fill-rule="evenodd" clip-rule="evenodd" d="M43.4967 66.9423C43.6613 66.4766 44.1723 66.2324 44.6381 66.3971L59.8378 71.7697C60.3035 71.9344 60.5476 72.4454 60.383 72.9111C60.2184 73.3769 59.7073 73.621 59.2416 73.4564L44.0419 68.0837C43.5762 67.9191 43.3321 67.4081 43.4967 66.9423Z" fill="#003188"/>
	<path fill-rule="evenodd" clip-rule="evenodd" d="M26.0383 17.6792C22.5993 26.1564 26.6836 35.8164 35.1608 39.2554C43.638 42.6944 53.298 38.6101 56.737 30.1329C60.176 21.6557 56.0917 11.9958 47.6145 8.55675C39.1373 5.11775 29.4773 9.20202 26.0383 17.6792ZM34.4884 40.913C25.0957 37.1026 20.5704 26.3994 24.3808 17.0068C28.1911 7.6141 38.8943 3.08878 48.287 6.89916C57.6796 10.7095 62.205 21.4127 58.3946 30.8054C54.5842 40.198 43.881 44.7234 34.4884 40.913Z" fill="#003188"/>
	<path fill-rule="evenodd" clip-rule="evenodd" d="M41.3881 11.5697C34.5743 11.5697 29.0506 17.0933 29.0506 23.9071C29.0506 30.7209 34.5743 36.2445 41.3881 36.2445C48.2018 36.2445 53.7255 30.7209 53.7255 23.9071C53.7255 17.0933 48.2018 11.5697 41.3881 11.5697ZM27.2617 23.9071C27.2617 16.1053 33.5863 9.78076 41.3881 9.78076C49.1898 9.78076 55.5144 16.1053 55.5144 23.9071C55.5144 31.7089 49.1898 38.0334 41.3881 38.0334C33.5863 38.0334 27.2617 31.7089 27.2617 23.9071Z" fill="#003188"/>
	<path d="M43.1576 28.5022H40.6047V30.9799H39.1492V28.5022H37.5718V27.0786H39.1492V25.8442H37.5718V24.4296H39.1492V17.8613H43.2414C44.4302 17.8613 45.3726 18.2187 46.0686 18.9335C46.7646 19.6483 47.1126 20.6154 47.1126 21.8347C47.1126 23.1142 46.7773 24.1023 46.1067 24.799C45.4412 25.4898 44.4937 25.8382 43.2642 25.8442H40.6047V27.0786H43.1576V28.5022ZM40.6047 24.4296H43.2414C44.0288 24.4296 44.6283 24.2104 45.0398 23.7719C45.4513 23.3334 45.6571 22.6937 45.6571 21.8528C45.6571 21.0899 45.4437 20.4742 45.0169 20.0057C44.5902 19.5312 44.0136 19.2909 43.2871 19.2849H40.6047V24.4296Z" fill="#003188"/>
</svg>
