<svg width="68" height="60" viewBox="0 0 68 60" fill="none" xmlns="http://www.w3.org/2000/svg">
<g clip-path="url(#clip0)">
<path fill-rule="evenodd" clip-rule="evenodd" d="M0 59.0937C0 58.5932 0.400798 58.1875 0.895208 58.1875H65.6187C66.1132 58.1875 66.514 58.5932 66.514 59.0937C66.514 59.5941 66.1132 59.9998 65.6187 59.9998H0.895208C0.400798 59.9998 0 59.5941 0 59.0937Z" fill="#003188"/>
<path fill-rule="evenodd" clip-rule="evenodd" d="M0 29.0815H8.90434V53.8862H0V29.0815ZM1.79042 30.8939V52.0739H7.11392V30.8939H1.79042Z" fill="#003188"/>
<path fill-rule="evenodd" clip-rule="evenodd" d="M57.5918 41.3813H66.5439V54.0676H57.5918V41.3813ZM59.3822 43.1937V52.2553H64.7535V43.1937H59.3822Z" fill="#003188"/>
<path fill-rule="evenodd" clip-rule="evenodd" d="M19.2053 16.7095H28.1097V53.8863H19.2053V16.7095ZM20.9957 18.5218V52.0739H26.3192V18.5218H20.9957Z" fill="#003188"/>
<path fill-rule="evenodd" clip-rule="evenodd" d="M19.8242 4.40779C18.9533 6.5489 19.9621 8.9992 22.0773 9.88069C24.1925 10.7622 26.6132 9.74107 27.4841 7.59997C28.3549 5.45886 27.3461 3.00856 25.2309 2.12706C23.1157 1.24557 20.695 2.26669 19.8242 4.40779ZM21.3957 11.5565C18.3661 10.294 16.9213 6.78449 18.1686 3.71784C19.4158 0.651185 22.8829 -0.811337 25.9125 0.451208C28.9421 1.71375 30.3869 5.22326 29.1397 8.28992C27.8924 11.3566 24.4253 12.8191 21.3957 11.5565Z" fill="#003188"/>
<path fill-rule="evenodd" clip-rule="evenodd" d="M61.4032 20.4282C59.145 20.7982 57.6107 22.9512 57.9762 25.237C58.3418 27.5228 60.4687 29.0759 62.7269 28.7059C64.9851 28.3359 66.5194 26.1829 66.1538 23.8971C65.7883 21.6112 63.6613 20.0582 61.4032 20.4282ZM56.2087 25.5266C55.6852 22.2527 57.8827 19.169 61.1171 18.6391C64.3514 18.1091 67.3978 20.3335 67.9213 23.6075C68.4449 26.8814 66.2473 29.965 63.013 30.495C59.7786 31.025 56.7323 28.8005 56.2087 25.5266Z" fill="#003188"/>
<path fill-rule="evenodd" clip-rule="evenodd" d="M38.4104 27.7646H47.3147V53.8863H38.4104V27.7646ZM40.2008 29.577V52.0739H45.5243V29.577H40.2008Z" fill="#003188"/>
<path fill-rule="evenodd" clip-rule="evenodd" d="M42.8627 14.909C41.686 14.909 40.7321 15.8746 40.7321 17.0657C40.7321 18.2568 41.686 19.2223 42.8627 19.2223C44.0394 19.2223 44.9933 18.2568 44.9933 17.0657C44.9933 15.8746 44.0394 14.909 42.8627 14.909ZM38.9417 17.0657C38.9417 14.8737 40.6971 13.0967 42.8627 13.0967C45.0282 13.0967 46.7837 14.8737 46.7837 17.0657C46.7837 19.2577 45.0282 21.0347 42.8627 21.0347C40.6971 21.0347 38.9417 19.2577 38.9417 17.0657Z" fill="#003188"/>
<path fill-rule="evenodd" clip-rule="evenodd" d="M0.53125 18.3767C0.53125 16.1847 2.2868 14.4077 4.45226 14.4077C6.61773 14.4077 8.37327 16.1847 8.37327 18.3767C8.37327 20.5724 6.61965 22.3527 4.45066 22.3457C2.28593 22.3448 0.53125 20.5681 0.53125 18.3767ZM4.45226 16.22C3.27562 16.22 2.32167 17.1857 2.32167 18.3767C2.32167 19.5677 3.27562 20.5334 4.45226 20.5334H4.45546V20.5334C5.62784 20.5376 6.58286 19.5756 6.58286 18.3767C6.58286 17.1857 5.62891 16.22 4.45226 16.22Z" fill="#003188"/>
<path fill-rule="evenodd" clip-rule="evenodd" d="M19.7892 9.37656L7.18469 17.1273L6.25513 15.5783L18.8597 7.82764L19.7892 9.37656Z" fill="#003188"/>
<path fill-rule="evenodd" clip-rule="evenodd" d="M39.3547 16.0815L27.8245 8.75363L28.7765 7.21875L40.3068 14.5466L39.3547 16.0815Z" fill="#003188"/>
<path fill-rule="evenodd" clip-rule="evenodd" d="M58.0714 22.9383L44.7087 19.3328L45.1699 17.5816L58.5326 21.1871L58.0714 22.9383Z" fill="#003188"/>
</g>
<defs>
<clipPath id="clip0">
<rect width="68" height="60" fill="white"/>
</clipPath>
</defs>
</svg>
