<svg xmlns="http://www.w3.org/2000/svg" width="420" height="431" viewBox="0 0 420 431" fill="none"> <path d="M226.907 109.296C227.552 109.296 228.309 109.213 229.15 109.018C233.664 107.959 238.907 102.359 240.225 98.0408C241.963 92.3016 236.524 89.2927 231.477 91.4658C225.982 93.8339 218.748 109.213 226.907 109.296Z" fill="#EBF2FF"></path> <path d="M205.43 123.867C208.037 126.013 213.112 126.793 214.121 123.254C215.299 119.103 207.056 116.652 204.645 119.438C203.271 120.998 203.944 122.669 205.43 123.867Z" fill="#EBF2FF"></path> <path d="M184.093 97.9014C184.766 101.746 189 105.507 193.065 104.114C207.084 99.378 178.486 78.9284 184.233 96.2854C184.065 96.7869 184.009 97.3442 184.093 97.9014Z" fill="#EBF2FF"></path> <path d="M266.299 209.008C278.72 207.866 291.813 203.603 296.552 190.899C297.309 188.865 298.907 184.435 297.477 182.457C295.458 179.699 292.514 182.708 290.524 183.934C279 190.955 266.524 198.366 253.178 200.065C235.542 202.322 217.01 197.028 199.851 192.71C194.243 191.289 188.664 189.645 183.168 187.806C178.346 186.191 173.608 184.352 169.29 181.677C164.383 178.64 160.654 174.433 157.486 169.669C155.019 165.936 153 157.216 150.281 153.538C149.103 151.95 141.589 151.031 139.626 154.625C138.645 156.408 140.776 162.398 141.253 164.32C145.626 181.036 157.963 195.719 173.972 202.879C181.711 206.334 190.178 207.309 198.14 210.067C206.664 213.02 214.935 217.617 224.187 217.701C231.337 217.756 238.038 215.026 244.682 212.797C251.916 210.346 258.813 209.677 266.299 209.008Z" fill="#EBF2FF"></path> <path d="M40.2056 247.679C33.2243 245.617 18.1962 243.5 11.8878 248.515C5.21493 253.808 24.5607 270.079 28.514 272.307C32.0467 274.313 36 275.511 40.0654 275.651C44.4953 275.79 49.1215 275.121 53.4392 274.23C56.8878 273.533 62.0747 272.698 64.0374 269.41C66.2803 265.621 62.1028 261.776 59.6355 259.297C54.2803 253.892 47.5233 249.852 40.2056 247.679Z" fill="#EBF2FF"></path> <path d="M14.4673 98.3192C18.056 93.3043 20.1589 87.3143 20.8878 81.2129C21.2804 77.9811 21.1682 74.7771 20.7196 71.5732C20.3271 68.815 19.7383 65.5275 17.7196 63.4658C14.8318 60.5126 10.3738 61.5156 8.07474 64.6081C6.30839 66.9762 5.49531 70.1244 5.01868 73.1334C3.47662 78.399 2.46727 83.776 3.28036 89.2924C3.70092 92.2735 4.71026 95.2545 6.3925 97.7898C7.26166 99.0992 8.271 100.492 9.89717 100.854C11.9439 101.3 13.3738 99.8236 14.4673 98.3192Z" fill="#EBF2FF"></path> <path d="M30.0841 94.0843C32.1308 95.8117 34.9065 95.4216 37.1775 94.4187C41.8037 92.357 46.2897 88.0108 48 83.2188C49.6542 78.5661 47.1588 72.2418 41.5794 72.1304C38.4953 72.0468 35.9439 74.1363 33.7009 75.9751C31.542 77.7303 29.5794 79.9034 28.9906 82.6894C28.8504 83.3581 28.9626 83.9431 29.2149 84.4446C28.9626 85.3362 28.7663 86.2277 28.5981 87.0914C28.0934 89.5431 27.9813 92.2734 30.0841 94.0843Z" fill="#EBF2FF"></path> <path d="M86.5235 190.509C85.5702 187.444 80.6917 188.754 81.645 191.846C82.5702 194.8 83.3272 197.781 83.9721 200.817L83.5235 246.703C82.8226 249.712 81.9814 252.721 81.0001 255.674C79.9908 258.739 84.8413 260.076 85.8786 257.012C91.402 240.351 92.7198 222.465 89.9441 205.164C89.159 200.177 88.0095 195.273 86.5235 190.509Z" fill="#EBF2FF"></path> <path d="M90.3927 192.432C94.0937 208.173 94.6825 224.638 92.047 240.602C91.8227 241.94 92.3834 243.305 93.8133 243.695C95.0189 244.029 96.7011 243.277 96.9254 241.94C99.7011 225.056 99.1684 207.783 95.2712 191.094C94.5142 187.946 89.6638 189.283 90.3927 192.432Z" fill="#EBF2FF"></path> <path d="M212.832 298.635C199.262 296.407 185.243 297.131 171.897 293.648C168.336 292.729 164.832 291.475 161.579 289.748C158.075 287.909 155.019 285.151 151.29 283.786C147.869 282.532 143.327 282.755 140.804 285.736C140.327 286.293 139.962 286.906 139.682 287.575C138.589 287.993 137.748 289.051 138.14 290.5C139.822 296.657 144.645 301.366 150.28 304.18C156.813 307.411 164.075 308.052 171.252 308.442C179.047 308.86 186.617 309.501 194.131 311.841C197.691 312.956 201.14 314.321 204.448 315.992C207.673 317.608 210.953 319.447 214.57 320.004C220.766 320.952 228.477 317.358 227.72 310.114C226.878 302.592 219.364 299.722 212.832 298.635Z" fill="#EBF2FF"></path> <path d="M181.458 377.201C177.364 364.135 167.299 353.102 155.803 345.719C151.205 342.766 131.888 328.696 128.775 340.398C127.402 345.608 134.607 350.427 138.028 353.186C142.626 356.891 147.504 360.457 150.729 365.472C152.131 367.673 154.598 372.103 151.71 374.276C149.046 376.282 144.504 373.579 141.28 374.861C127.233 380.517 142.682 406.287 147.42 413.002C150.925 417.989 163.261 430.442 169.71 423.561C173.215 419.828 172.71 413.782 171.953 409.157C171.532 406.51 170.551 397.316 167.495 396.286C176.131 399.127 183.561 400.715 183.364 389.098C183.336 384.974 182.635 380.99 181.458 377.201Z" fill="#EBF2FF"></path> <path d="M261.869 389.46C252.701 390.937 248.439 425.233 258.028 423.394C266.579 421.75 273.729 394.698 265.486 390.24C264.14 389.516 262.934 389.293 261.869 389.46Z" fill="#EBF2FF"></path> <path d="M394.15 345.162C393.897 343.546 393.589 341.958 393.28 340.537C391.318 331.288 388.037 322.261 385.486 313.178C384.953 311.312 382.57 310.977 381.308 311.98C381.393 311.395 381.477 310.782 381.561 310.197C383.299 298.412 385.037 286.655 386.748 274.87C388.43 263.447 390.533 236.841 391.654 228.204C364.486 232.188 333.449 235.197 306.084 237.064C298.346 237.593 290.608 238.039 282.869 238.401C280.346 238.512 279.785 241.633 281.215 242.887C278.299 266.54 275.411 290.193 272.495 313.847C271.037 325.799 269.551 337.751 268.093 349.703C267.729 352.656 267.365 355.582 267 358.535C266.692 361.154 266.187 364.33 268.43 365.946C273.336 369.428 283.542 379.904 292.037 378.789C290.523 378.984 290.103 382.356 290.439 383.414C291.308 386.005 293.636 385.894 295.85 385.615C302.075 384.807 308.411 382.746 314.523 381.269C326.972 378.288 339.365 375.168 351.701 371.88C361.29 369.317 370.85 366.67 380.411 363.912C384.336 362.77 389.523 362.101 392.131 358.619C394.907 354.969 394.85 349.815 394.15 345.162Z" fill="#EBF2FF"></path> <path d="M287.103 93.3325C283.374 88.4291 278.075 84.8351 273.561 80.6282C263.355 71.1556 264.729 55.6653 257.495 44.4375C253.374 38.0297 247.458 32.8476 240.224 30.2288C233.692 27.8606 226.402 27.8049 219.953 30.3123C220.542 30.0895 218.355 28.0557 218.131 27.9163C217.009 27.2756 215.691 27.2756 214.458 27.387C206.439 28.1114 197.551 33.4327 191.579 38.559C185.299 43.9361 180.42 50.9012 177.561 58.6185C175.682 63.6612 175.065 68.481 175.065 73.8024C175.065 78.3715 175.318 83.9714 171.841 87.5097C168.589 90.7972 163.794 92.0509 160.598 95.3663C156.084 100.047 157.458 106.733 159.308 112.278C160.626 116.234 162.477 121.137 159.729 124.898C158.467 126.626 160.57 129.356 162.589 128.576C166.43 127.099 170.944 130.972 172.991 134.538C176.635 140.946 183.084 138.996 190.991 141.364C194.047 142.283 193.121 136.739 192.477 134.204C190.766 127.378 187.29 120.886 185.131 114.088C182.72 106.427 182.944 98.5145 183.617 90.5743C183.981 86.3395 184.374 82.1048 184.794 77.87C185.215 73.6073 185.103 68.3417 188.075 64.9149C190.822 61.7388 195.364 60.8752 198.841 58.7856C205.374 54.8295 211.374 49.7032 215.327 43.351C214.374 44.8833 216.757 49.6753 217.514 51.0683C218.888 53.6315 220.822 55.8882 223.009 57.8105C226.934 61.2652 231.841 63.4662 236.607 64.5806C239.691 68.7596 239.103 78.3436 239.916 83.9157C242.804 104.087 239.243 125.344 229.738 143.537C236.635 144.818 247.963 148.301 252.533 146.351C258.084 143.983 261.925 138.076 268.514 138.216C271.71 138.299 275.215 139.692 278.243 138.104C281.299 136.488 283.374 133.368 286.402 131.557C292.262 128.019 293.159 119.967 292.991 113.81C292.794 106.873 291.448 99.0439 287.103 93.3325Z" fill="#FFF8DC"></path> <path d="M188.046 64.6084C185.551 75.1953 184.177 86.0052 183.897 96.8707C183.672 105.814 184.289 115.036 188.186 123.087C189.616 126.068 191.523 128.854 193.99 131.055C198.476 135.095 204.672 136.99 210.729 136.767C216.785 136.544 222.644 134.315 227.663 130.972" stroke="#003188" stroke-width="2" stroke-miterlimit="10" stroke-linecap="round" stroke-linejoin="round"></path> <path d="M192.308 70.654C194.691 70.069 197.103 69.4839 199.57 69.6511C202.037 69.8182 204.532 70.7376 205.99 72.6878C207.392 74.5545 207.673 77.0619 207.252 79.3465C206.831 81.631 205.794 83.7484 204.757 85.8379C203.579 88.2339 202.402 90.602 201.224 92.998C200.859 93.7224 200.495 94.5025 200.635 95.2826C200.972 97.3721 204.112 97.6228 205.205 99.4616" stroke="#003188" stroke-width="2" stroke-miterlimit="10" stroke-linecap="round" stroke-linejoin="round"></path> <path d="M222.617 83.0239C222.196 84.0826 221.636 86.005 221.58 87.1472C221.58 87.3701 221.86 87.4537 221.972 87.2587C222.701 86.2 223.038 84.3055 222.869 83.0239" stroke="#003188" stroke-width="2" stroke-miterlimit="10" stroke-linecap="round" stroke-linejoin="round"></path> <path d="M196.823 79.4023C196.402 80.461 195.841 82.3834 195.785 83.5257C195.785 83.7486 196.066 83.8321 196.178 83.6371C196.907 82.5784 197.243 80.6839 197.075 79.4023" stroke="#003188" stroke-width="2" stroke-miterlimit="10" stroke-linecap="round" stroke-linejoin="round"></path> <path d="M217.009 74.2199C219.813 73.5234 222.701 73.0498 225.561 73.3563C228.421 73.6627 231.28 74.805 233.243 76.9224" stroke="#003188" stroke-width="2" stroke-miterlimit="10" stroke-linecap="round" stroke-linejoin="round"></path> <path d="M200.299 108.043C205.318 107.374 217.037 105.814 217.85 106.009C216.42 113.392 206.607 118.964 201.42 111.08" stroke="#003188" stroke-width="2" stroke-miterlimit="10" stroke-linecap="round" stroke-linejoin="round"></path> <path d="M194.299 131.585C195.252 141.587 195.42 151.644 194.86 161.674" stroke="#003188" stroke-width="2" stroke-miterlimit="10" stroke-linecap="round" stroke-linejoin="round"></path> <path d="M244.178 147.744C244.57 154.179 245.496 160.587 247.01 166.856" stroke="#003188" stroke-width="2" stroke-miterlimit="10" stroke-linecap="round" stroke-linejoin="round"></path> <path d="M196.149 145.292C196.682 145.459 197.215 145.571 197.747 145.654C202.738 146.379 207.953 145.877 212.663 144.094C217.402 142.311 221.635 139.218 224.635 135.179C225.308 134.287 225.897 133.368 226.261 132.309C224.243 133.814 221.804 134.566 219.392 135.29C217.402 135.875 215.411 136.46 213.392 136.822C207.168 137.881 200.579 136.683 195.168 133.507C195.56 137.435 195.869 141.364 196.037 145.32" fill="#003188"></path> <path d="M196.149 145.292C196.682 145.459 197.215 145.571 197.747 145.654C202.738 146.379 207.953 145.877 212.663 144.094C217.402 142.311 221.635 139.218 224.635 135.179C225.308 134.287 225.897 133.368 226.261 132.309C224.243 133.814 221.804 134.566 219.392 135.29C217.402 135.875 215.411 136.46 213.392 136.822C207.168 137.881 200.579 136.683 195.168 133.507C195.56 137.435 195.869 141.364 196.037 145.32" stroke="#003188" stroke-width="2" stroke-miterlimit="10" stroke-linecap="round" stroke-linejoin="round"></path> <path d="M239.888 166.549C258.224 170.728 276.505 175.13 294.757 179.727C300.757 181.232 306.785 182.792 312.673 184.714C315.841 185.745 319.009 186.915 321.841 188.67C328.177 192.599 332.355 199.062 336.308 205.331" stroke="#003188" stroke-width="2" stroke-miterlimit="10" stroke-linecap="round" stroke-linejoin="round"></path> <path d="M194.299 161.702C173.832 155.322 151.906 148.942 131.299 154.848C111.084 160.643 96.1681 177.108 80.1027 190.593C71.6915 197.641 62.7195 204.021 54.813 211.655C50.0747 216.224 45.5887 221.546 44.271 227.981C43.8784 229.904 44.5794 232.718 46.542 232.439C47.5233 232.3 48.1401 231.38 48.5887 230.517C51.5046 224.861 51.1962 218.147 50.5513 211.85C47.0747 176.885 36.2242 142.701 35.9438 107.569" stroke="#003188" stroke-width="2" stroke-miterlimit="10" stroke-linecap="round" stroke-linejoin="round"></path> <path d="M4.65397 108.516C2.41098 150.028 0.167996 191.902 6.86893 232.941C9.53248 249.267 15.5605 267.71 31.0652 273.645C43.8502 278.548 58.1773 272.864 70.1493 266.234C86.9157 256.928 102.504 245.589 116.495 232.495C121.149 228.149 125.944 222.744 125.467 216.419C120.448 218.648 118.738 224.777 117.897 230.182C112.962 262.473 119.103 295.264 123.785 327.582C128.439 359.9 131.495 393.667 120.813 424.564" stroke="#003188" stroke-width="2" stroke-miterlimit="10" stroke-linecap="round" stroke-linejoin="round"></path> <path d="M142.346 288.438C152.888 295.821 166.262 297.911 179.131 298.747C192 299.583 205.149 299.388 217.514 303.037" stroke="#003188" stroke-width="2" stroke-miterlimit="10" stroke-linecap="round" stroke-linejoin="round"></path> <path d="M200.495 307.579C207.336 309.529 213.617 313.346 218.495 318.5" stroke="#003188" stroke-width="2" stroke-miterlimit="10" stroke-linecap="round" stroke-linejoin="round"></path> <path d="M132.309 340.064C141.589 345.135 150.953 350.289 158.776 357.365C166.598 364.442 172.851 373.775 174.196 384.195C174.701 388.095 173.804 393.027 170.019 394.169C167.804 394.837 165.449 393.89 163.402 392.831C156.785 389.433 150.785 384.808 145.823 379.264C153.028 391.16 159 403.753 163.626 416.847" stroke="#003188" stroke-width="2" stroke-miterlimit="10" stroke-linecap="round" stroke-linejoin="round"></path> <path d="M67.6259 199.48C67.9063 195.719 66.6446 191.93 67.1493 188.197C67.654 184.464 71.2147 180.591 74.7755 181.928C77.1867 182.848 78.196 185.634 78.8689 188.113C87.3642 220.32 80.2708 254.282 73.1493 286.823" stroke="#003188" stroke-width="2" stroke-miterlimit="10" stroke-linecap="round" stroke-linejoin="round"></path> <path d="M88.4016 198.227C92.7194 221.379 91.7941 245.478 85.7661 268.268" stroke="#003188" stroke-width="2" stroke-miterlimit="10" stroke-linecap="round" stroke-linejoin="round"></path> <path d="M18.5607 114.004C18.1962 120.44 18.056 126.876 18.1401 133.312" stroke="#003188" stroke-width="2" stroke-miterlimit="10" stroke-linecap="round" stroke-linejoin="round"></path> <path d="M4.56996 100.938C0.644727 92.1065 0.532574 81.9932 1.99052 72.465C3.44846 62.9089 6.42043 53.6592 8.41108 44.1867C9.53258 38.8654 10.4298 33.2933 13.3176 28.6685C13.8223 27.8605 14.6354 26.9968 15.5606 27.2197C16.4578 27.4426 16.7662 28.5292 16.9064 29.4485C18.3644 39.4783 17.6634 49.8145 14.8877 59.5935" stroke="#003188" stroke-width="2" stroke-miterlimit="10" stroke-linecap="round" stroke-linejoin="round"></path> <path d="M18.7009 26.8294C19.4019 25.0463 20.243 23.319 21.2523 21.7031C21.729 20.9508 22.2897 20.1429 23.1308 19.8364C24.5607 19.2792 26.2149 20.4215 26.7757 21.8424C27.3364 23.2632 27.1121 24.8513 26.8878 26.3836C25.3458 36.4691 23.3832 46.4988 21.0561 56.4449" stroke="#003188" stroke-width="2" stroke-miterlimit="10" stroke-linecap="round" stroke-linejoin="round"></path> <path d="M27.4766 39.0882C30.1401 30.4236 38.271 24.7401 45.8691 19.7252C46.9906 18.973 48.6728 18.2765 49.57 19.3073C50.1308 19.9481 49.9906 20.9232 49.7663 21.759C48.2523 26.9132 44.0467 30.8415 39.6167 33.8783C39.1121 34.2405 38.5794 34.5748 38.2429 35.1041C37.9065 35.6335 37.7943 36.2464 37.6822 36.8593C36.5326 43.2672 35.3831 49.6751 34.2336 56.1109" stroke="#003188" stroke-width="2" stroke-miterlimit="10" stroke-linecap="round" stroke-linejoin="round"></path> <path d="M12.196 60.6244C18.3923 58.8692 24.8129 57.922 31.2334 57.8384" stroke="#003188" stroke-width="2" stroke-miterlimit="10" stroke-linecap="round" stroke-linejoin="round"></path> <path d="M39.5605 42.292C43.626 39.701 47.9157 37.4722 52.3736 35.6334C52.8503 35.4384 53.3269 35.2434 53.8596 35.2712C54.869 35.3548 55.5699 36.2463 56.1307 37.0543C58.9624 41.1776 61.9064 45.5517 62.2708 50.5387C62.3269 51.2074 62.2708 51.9596 61.7381 52.3775C61.4017 52.6282 60.925 52.6839 60.5045 52.6839C55.5419 52.6839 50.9718 48.3377 50.7475 43.4064" stroke="#003188" stroke-width="2" stroke-miterlimit="10" stroke-linecap="round" stroke-linejoin="round"></path> <path d="M49.8223 47.7251C47.9158 48.533 46.0373 49.3689 44.1307 50.1768C43.1494 50.5947 42.1401 51.0405 41.5232 51.8763C41.1307 52.3778 40.9064 52.9907 40.7102 53.5758C39.6167 56.6125 38.5233 59.6772 37.4018 62.714C37.2616 63.0761 37.1494 63.4383 37.1494 63.8284C37.1494 64.302 37.3457 64.7199 37.5419 65.1657C38.1307 66.4473 38.7195 67.701 39.2802 68.9825" stroke="#003188" stroke-width="2" stroke-miterlimit="10" stroke-linecap="round" stroke-linejoin="round"></path> <path d="M27.897 83.219C28.9344 80.0986 31.3456 77.6191 33.8689 75.5017C37.4297 72.5206 41.411 69.9853 45.6727 68.0351C46.8503 67.5058 48.0559 66.9764 48.925 66.0292C50.1587 64.6919 50.4671 62.7416 50.9717 60.9864C51.7848 58.2283 53.3269 55.693 55.3736 53.687" stroke="#003188" stroke-width="2" stroke-miterlimit="10" stroke-linecap="round" stroke-linejoin="round"></path> <path d="M61.7664 54.1885C57.5608 72.5485 47.6355 89.5433 33.729 102.303" stroke="#003188" stroke-width="2" stroke-miterlimit="10" stroke-linecap="round" stroke-linejoin="round"></path> <path d="M18.8971 63.1597C21.084 68.6203 21.2523 74.7217 20.327 80.5167C19.4018 86.3116 17.4392 91.9116 15.4766 97.4558" stroke="#003188" stroke-width="2" stroke-miterlimit="10" stroke-linecap="round" stroke-linejoin="round"></path> <path d="M212.439 155.433C212.607 158.971 212.775 162.51 212.944 166.02" stroke="#003188" stroke-width="2" stroke-miterlimit="10" stroke-linecap="round" stroke-linejoin="round"></path> <path d="M150.477 153.427C154.29 162.705 158.888 171.954 166.318 178.724C180.505 191.652 201.449 192.794 220.318 196.499C229.43 198.282 238.486 200.818 247.766 200.595C263.748 200.177 278.215 191.68 291.869 183.405" stroke="#003188" stroke-width="2" stroke-miterlimit="10" stroke-linecap="round" stroke-linejoin="round"></path> <path d="M166.177 188.169C177 193.1 188.579 196.443 200.383 198.059C210.084 199.369 220.682 199.815 228.112 206.111" stroke="#003188" stroke-width="2" stroke-miterlimit="10" stroke-linecap="round" stroke-linejoin="round"></path> <path d="M283.037 230.461L266.916 362.463" stroke="#003188" stroke-width="2" stroke-miterlimit="10" stroke-linecap="round" stroke-linejoin="round"></path> <path d="M259.346 245.45L247.009 346.026" stroke="#003188" stroke-width="2" stroke-miterlimit="10" stroke-linecap="round" stroke-linejoin="round"></path> <path d="M268.318 246.286L255.981 346.862" stroke="#003188" stroke-width="2" stroke-miterlimit="10" stroke-linecap="round" stroke-linejoin="round"></path> <path d="M252.897 215.082L234.112 369.15" stroke="#003188" stroke-width="2" stroke-miterlimit="10" stroke-linecap="round" stroke-linejoin="round"></path> <path d="M392.663 220.71L376.542 352.712" stroke="#003188" stroke-width="2" stroke-miterlimit="10" stroke-linecap="round" stroke-linejoin="round"></path> <path d="M392.523 220.654L282.897 230.405" stroke="#003188" stroke-width="2" stroke-miterlimit="10" stroke-linecap="round" stroke-linejoin="round"></path> <path d="M365.047 217.311L288.224 224.276" stroke="#003188" stroke-width="2" stroke-miterlimit="10" stroke-linecap="round" stroke-linejoin="round"></path> <path d="M358.318 212.018L281.495 218.983" stroke="#003188" stroke-width="2" stroke-miterlimit="10" stroke-linecap="round" stroke-linejoin="round"></path> <path d="M358.318 205.61L252.897 215.082" stroke="#003188" stroke-width="2" stroke-miterlimit="10" stroke-linecap="round" stroke-linejoin="round"></path> <path d="M361.907 205.08L392.524 220.654" stroke="#003188" stroke-width="2" stroke-miterlimit="10" stroke-linecap="round" stroke-linejoin="round"></path> <path d="M253.177 215.361L283.458 230.684" stroke="#003188" stroke-width="2" stroke-miterlimit="10" stroke-linecap="round" stroke-linejoin="round"></path> <path d="M371.551 295.181C362.916 307.969 348.925 315.964 335.411 323.515" stroke="#003188" stroke-width="2" stroke-miterlimit="10" stroke-linecap="round" stroke-linejoin="round"></path> <path d="M369.196 309.78C362.439 318.5 353.944 325.883 344.355 331.372" stroke="#003188" stroke-width="2" stroke-miterlimit="10" stroke-linecap="round" stroke-linejoin="round"></path> <path d="M286.486 295.571C288.953 299.025 291.084 302.731 292.85 306.604" stroke="#003188" stroke-width="2" stroke-miterlimit="10" stroke-linecap="round" stroke-linejoin="round"></path> <path d="M287.355 305.601C288.701 307.579 290.018 309.585 291.364 311.563" stroke="#003188" stroke-width="2" stroke-miterlimit="10" stroke-linecap="round" stroke-linejoin="round"></path> <path d="M228.364 376.171C235.458 373.413 242.551 370.627 249.673 367.869C253.99 366.197 258.532 364.47 263.131 365.055C266.832 365.528 270.196 367.451 273.336 369.512C278.411 372.828 283.205 376.589 287.663 380.712" stroke="#003188" stroke-width="2" stroke-miterlimit="10" stroke-linecap="round" stroke-linejoin="round"></path> <path d="M292.177 378.678C322.065 365.166 353.888 355.889 386.355 351.208" stroke="#003188" stroke-width="2" stroke-miterlimit="10" stroke-linecap="round" stroke-linejoin="round"></path> <path d="M227.551 376.895C227.916 378.65 229.43 379.988 231.112 380.601C232.794 381.214 234.645 381.186 236.439 381.046C243.252 380.517 249.953 378.344 255.785 374.778" stroke="#003188" stroke-width="2" stroke-miterlimit="10" stroke-linecap="round" stroke-linejoin="round"></path> <path d="M251.299 377.229C256.99 378.4 262.458 380.545 267.42 383.526" stroke="#003188" stroke-width="2" stroke-miterlimit="10" stroke-linecap="round" stroke-linejoin="round"></path> <path d="M263.327 385.699C256.037 387.622 248.299 387.844 240.925 386.312" stroke="#003188" stroke-width="2" stroke-miterlimit="10" stroke-linecap="round" stroke-linejoin="round"></path> <path d="M228.897 386.312C227.047 389.265 227.439 393.249 229.346 396.175C231.225 399.1 234.393 401.05 237.701 402.137C241.01 403.251 244.542 403.586 248.019 403.92" stroke="#003188" stroke-width="2" stroke-miterlimit="10" stroke-linecap="round" stroke-linejoin="round"></path> <path d="M229.009 398.766C226.514 403.948 229.262 410.941 234.617 413.058C237.224 414.089 240.196 414.117 242.608 415.565" stroke="#003188" stroke-width="2" stroke-miterlimit="10" stroke-linecap="round" stroke-linejoin="round"></path> <path d="M229.178 410.383C227.832 412.361 228.308 415.175 229.766 417.042C231.252 418.909 233.495 420.023 235.766 420.775C238.037 421.527 240.421 422.029 242.607 423.032" stroke="#003188" stroke-width="2" stroke-miterlimit="10" stroke-linecap="round" stroke-linejoin="round"></path> <path d="M228.673 420.33C230.383 425.818 236.299 429.161 242.047 429.691C247.822 430.22 253.514 428.465 259.037 426.765C272.187 422.698 285.336 418.602 298.486 414.535" stroke="#003188" stroke-width="2" stroke-miterlimit="10" stroke-linecap="round" stroke-linejoin="round"></path> <path d="M304.851 411.693C333.673 405.09 362.495 398.487 391.318 391.884C396.673 390.658 402.084 389.404 406.935 386.897C411.785 384.39 416.131 380.406 417.897 375.251C420.953 366.308 415.766 356.808 410.776 348.784C401.86 334.464 392.944 320.116 384.056 305.795" stroke="#003188" stroke-width="2" stroke-miterlimit="10" stroke-linecap="round" stroke-linejoin="round"></path> <path d="M406.43 300.279C405.785 300.335 405.785 301.533 406.43 301.561C406.935 301.422 407.215 300.753 406.935 300.307" stroke="#003188" stroke-width="2" stroke-miterlimit="10" stroke-linecap="round" stroke-linejoin="round"></path> <path d="M360.477 411.943C360.084 412.138 360.253 412.891 360.701 412.891C361.15 412.919 361.346 412.194 360.982 411.971" stroke="#003188" stroke-width="2" stroke-miterlimit="10" stroke-linecap="round" stroke-linejoin="round"></path> <path d="M254.299 412.445C254.495 412.445 254.719 412.445 254.916 412.445" stroke="#003188" stroke-width="2" stroke-miterlimit="10" stroke-linecap="round" stroke-linejoin="round"></path> <path d="M97.766 354.468C97.4015 355.22 99.1679 355.443 98.9996 354.635C99.0557 354.189 98.551 353.771 98.1305 353.939C97.7099 354.106 97.5978 354.746 97.9342 355.025" stroke="#003188" stroke-width="2" stroke-miterlimit="10" stroke-linecap="round" stroke-linejoin="round"></path> <path d="M50.6352 302.146C50.1306 302.313 50.0745 303.149 50.5792 303.372C51.3642 303.288 52.0652 302.731 52.3455 302.034C52.4296 301.561 51.4203 301.839 51.7287 302.202" stroke="#003188" stroke-width="2" stroke-miterlimit="10" stroke-linecap="round" stroke-linejoin="round"></path> <path d="M73.7944 130.192C74.1589 131.167 75.6729 131.585 76.2897 130.749C76.9066 129.913 75.4486 128.576 74.8038 129.384" stroke="#003188" stroke-width="2" stroke-miterlimit="10" stroke-linecap="round" stroke-linejoin="round"></path> <path d="M318.084 149.889C317.691 149.889 317.467 150.474 317.747 150.725C318.028 150.975 318.588 150.697 318.532 150.307" stroke="#003188" stroke-width="2" stroke-miterlimit="10" stroke-linecap="round" stroke-linejoin="round"></path> <path d="M277.037 197.976C280.289 196.5 283.542 195.051 286.794 193.574" stroke="#003188" stroke-width="2" stroke-miterlimit="10" stroke-linecap="round" stroke-linejoin="round"></path> <path d="M149.411 167.942C150.028 168.75 150.673 169.558 151.29 170.366" stroke="#003188" stroke-width="2" stroke-miterlimit="10" stroke-linecap="round" stroke-linejoin="round"></path> <path d="M218.58 29.978C218.636 38.8098 214.738 47.5301 208.374 53.7429C202.038 59.9279 193.374 63.6334 184.514 64.4413" stroke="#FFC701" stroke-width="2" stroke-miterlimit="10" stroke-linecap="round" stroke-linejoin="round"></path> <path d="M215.103 44.3818C216.981 54.6902 226.121 63.299 236.579 64.5806" stroke="#FFC701" stroke-width="2" stroke-miterlimit="10" stroke-linecap="round" stroke-linejoin="round"></path> <path d="M216.421 28.6687C205.654 28.5851 194.916 32.9035 187.29 40.4536C179.663 47.9759 175.206 58.6186 175.206 69.3169C175.206 73.9418 175.935 78.873 173.692 82.9128C171.336 87.1197 166.458 89.1257 162.505 91.8838C157.262 95.5614 153.112 101.969 154.822 108.126C155.748 111.442 158.215 114.144 159.252 117.432C160.458 121.137 159.645 125.4 157.206 128.437" stroke="#FFC701" stroke-width="2" stroke-miterlimit="10" stroke-linecap="round" stroke-linejoin="round"></path> <path d="M161.888 130.359C164.86 128.436 169.205 128.966 171.645 131.529C172.962 132.922 173.719 134.761 174.757 136.377C175.794 137.992 177.308 139.553 179.243 139.72C180.533 139.831 181.766 139.302 183.056 139.135C185.776 138.773 188.663 140.166 190.065 142.506" stroke="#FFC701" stroke-width="2" stroke-miterlimit="10" stroke-linecap="round" stroke-linejoin="round"></path> <path d="M173.074 92.9424C168.981 94.7812 166.374 99.406 166.878 103.836C167.271 107.179 169.233 110.132 170.159 113.392C171.084 116.652 170.467 120.886 167.355 122.224" stroke="#FFC701" stroke-width="2" stroke-miterlimit="10" stroke-linecap="round" stroke-linejoin="round"></path> <path d="M176.131 108.21C174.056 110.912 175.29 114.785 176.607 117.905C177.925 121.054 179.215 124.843 177.252 127.629" stroke="#FFC701" stroke-width="2" stroke-miterlimit="10" stroke-linecap="round" stroke-linejoin="round"></path> <path d="M208.935 40.2026C208.149 43.4623 206.411 46.4712 204.168 48.9786C200.607 52.9905 195.785 55.8602 190.542 57.086" stroke="#FFC701" stroke-width="2" stroke-miterlimit="10" stroke-linecap="round" stroke-linejoin="round"></path> <path d="M230.187 46.3877C245.215 77.2013 244.206 115.259 227.523 145.236" stroke="#FFC701" stroke-width="2" stroke-miterlimit="10" stroke-linecap="round" stroke-linejoin="round"></path> <path d="M232.121 146.295C234.252 144.122 237.897 144.54 240.729 145.654C243.588 146.769 246.42 148.412 249.448 148.134C254.411 147.716 257.467 142.562 261.869 140.221C265.261 138.411 269.355 138.355 273.14 139.051C275.299 139.441 277.766 139.971 279.448 138.578C280.205 137.965 280.654 137.045 281.13 136.21C282 134.705 283.121 133.284 284.663 132.476C286.205 131.668 288.252 131.64 289.57 132.755" stroke="#FFC701" stroke-width="2" stroke-miterlimit="10" stroke-linecap="round" stroke-linejoin="round"></path> <path d="M262.654 63.5776C262.542 70.3198 265.15 77.0899 269.748 82.0212C274.374 87.0082 280.907 90.24 284.58 95.9514C289.318 103.334 287.888 113.587 282.505 120.552" stroke="#FFC701" stroke-width="2" stroke-miterlimit="10" stroke-linecap="round" stroke-linejoin="round"></path> <path d="M276 100.938C278.383 105.229 278.607 110.467 277.402 115.231C276.224 119.995 273.757 124.341 271.009 128.409" stroke="#FFC701" stroke-width="2" stroke-miterlimit="10" stroke-linecap="round" stroke-linejoin="round"></path> <path d="M251.355 68.8433C250.262 73.691 250.57 78.8173 252.28 83.4978C253.43 86.6461 255.168 89.5714 256.318 92.7196C257.467 95.8678 257.972 99.4618 256.57 102.526C254.411 107.291 247.991 110.439 248.776 115.621C249.28 118.992 252.813 121.165 253.766 124.425C254.804 128.074 252.392 131.724 250.093 134.733" stroke="#FFC701" stroke-width="2" stroke-miterlimit="10" stroke-linecap="round" stroke-linejoin="round"></path> <path d="M62.4111 14.209C67.2336 9.6678 72.2523 5.32158 77.4392 1.19824" stroke="#FFC701" stroke-width="2" stroke-miterlimit="10" stroke-linecap="round" stroke-linejoin="round"></path> <path d="M73.3735 35.3273C78.0558 33.6835 82.738 32.0398 87.3922 30.3682" stroke="#FFC701" stroke-width="2" stroke-miterlimit="10" stroke-linecap="round" stroke-linejoin="round"></path> <path d="M76.3735 59.7051C83.0464 60.6523 89.6913 62.0175 96.224 63.717" stroke="#FFC701" stroke-width="2" stroke-miterlimit="10" stroke-linecap="round" stroke-linejoin="round"></path> <path d="M222.393 27.6097C235.935 23.1242 251.58 28.1112 261.533 38.2802C271.486 48.4493 276.056 63.0202 275.888 77.2012" stroke="#FFC701" stroke-width="2" stroke-miterlimit="10" stroke-linecap="round" stroke-linejoin="round"></path> <path d="M278.86 77.0342C282.673 82.5505 288.533 86.3117 292.598 91.6609C300.729 102.331 299.972 118.128 292.71 129.412" stroke="#FFC701" stroke-width="2" stroke-miterlimit="10" stroke-linecap="round" stroke-linejoin="round"></path> </svg>
