<svg xmlns="http://www.w3.org/2000/svg" width="200" height="200" viewBox="0 0 200 200" fill="none"> <circle cx="100" cy="100" r="100" fill="#F2F7FF"></circle> <g clip-path="url(#clip0)"> <path d="M140 127.5C139.725 126.113 137.994 125.131 135.8 123.894C134.456 123.131 132.931 122.269 132.412 121.6C131.344 120.225 130.912 116.563 131.012 114.45C131.062 113.406 132.512 109.731 133.906 106.175C136.056 100.713 138.487 94.525 138.775 91.0938C139.4 83.425 137.275 72.9688 129.3 66.6063C125.625 63.75 118.994 60.475 111.25 60.0438C105.081 59.7063 96.2499 61.1188 89.0374 69.8125C85.5811 73.9625 83.7499 77.1938 83.6561 79.4125C83.6561 79.5375 83.0874 91.9125 84.0936 93.2938C84.2186 93.4688 84.3686 93.6625 84.5311 93.8625C84.8893 94.2611 85.1843 94.7122 85.4061 95.2C85.2874 95.6125 84.6436 97.1438 81.4499 102.838L81.2186 103.244C80.8641 103.996 80.7519 104.839 80.8974 105.657C81.043 106.476 81.4391 107.229 82.0311 107.813C82.6753 108.246 83.3902 108.563 84.1436 108.75C84.5061 108.869 85.0436 109.044 85.3936 109.188C85.3415 109.817 85.1917 110.435 84.9499 111.019C84.0624 112.575 85.9561 113.725 87.6311 114.769L87.9686 114.975C87.8061 115.238 87.5936 115.544 87.4436 115.769C86.952 116.398 86.5618 117.1 86.2874 117.85C86.0249 118.825 86.8249 119.375 87.3499 119.725C87.6482 119.918 87.9267 120.14 88.1811 120.388V120.388C88.1565 120.509 88.1231 120.628 88.0811 120.744C87.821 121.558 87.641 122.395 87.5436 123.244C87.2061 125.881 90.0436 127.844 91.9749 128.519C92.9436 128.85 97.5249 128.244 99.8499 127.506C101.517 131.21 102.823 135.065 103.75 139.019C103.812 139.302 103.971 139.555 104.199 139.734C104.427 139.913 104.71 140.007 105 140C105.089 140.009 105.179 140.009 105.269 140C105.592 139.928 105.873 139.731 106.051 139.453C106.229 139.174 106.289 138.836 106.219 138.513C105.554 135.673 104.704 132.879 103.675 130.15C101.8 125.15 101.175 124.981 100.669 124.825C100.469 124.767 100.258 124.756 100.053 124.793C99.8482 124.83 99.6546 124.913 99.4874 125.038C97.2923 125.667 95.0311 126.038 92.7499 126.144C91.3624 125.65 89.9186 124.481 90.0374 123.563C90.1154 122.868 90.264 122.183 90.4811 121.519C90.5436 121.306 90.6124 121.094 90.6561 120.894L90.9936 120.763C91.1513 120.707 91.2962 120.62 91.4198 120.507C91.5433 120.395 91.643 120.258 91.7129 120.107C91.7829 119.955 91.8216 119.79 91.8269 119.623C91.8322 119.456 91.8038 119.29 91.7436 119.134C91.6834 118.978 91.5925 118.835 91.4763 118.715C91.3601 118.595 91.2209 118.499 91.0671 118.434C90.9132 118.368 90.7478 118.334 90.5806 118.334C90.4134 118.333 90.2478 118.367 90.0936 118.431L89.8311 118.531C89.5858 118.305 89.3248 118.096 89.0499 117.906L89.5186 117.213C90.3561 115.963 91.2999 114.606 90.2624 113.569C89.8554 113.219 89.411 112.915 88.9374 112.663C88.5499 112.425 87.8311 111.994 87.4249 111.675C87.4624 111.575 87.4936 111.475 87.5249 111.369C87.5602 111.371 87.5958 111.371 87.6311 111.369L88.8311 111.1C89.0002 111.075 89.1623 111.015 89.3073 110.924C89.4523 110.833 89.5771 110.714 89.6742 110.573C89.7712 110.432 89.8383 110.273 89.8713 110.105C89.9043 109.938 89.9026 109.765 89.8662 109.598C89.8297 109.431 89.7594 109.273 89.6596 109.134C89.5598 108.995 89.4325 108.878 89.2857 108.791C89.1389 108.703 88.9756 108.646 88.8061 108.624C88.6365 108.602 88.4642 108.615 88.2999 108.663L87.9061 108.744C87.9133 108.646 87.9133 108.548 87.9061 108.45C87.7249 107.344 86.5624 106.969 84.9561 106.444C84.5319 106.316 84.1147 106.165 83.7061 105.994C83.5655 105.785 83.472 105.549 83.432 105.3C83.3921 105.052 83.4067 104.798 83.4749 104.556L83.6999 104.156C87.6561 97.1063 87.9811 95.9688 87.9811 95.35C87.9811 94.1875 87.1936 93.2 86.5561 92.4L86.2499 91.9625C85.9499 90.5813 86.0124 82.625 86.1811 79.55C86.2686 77.95 88.0186 74.9813 90.9686 71.425C102.937 56.9125 121.25 63.4 127.719 68.5875C137.012 76.0063 136.469 88.4813 136.262 90.9063C136 93.975 133.537 100.244 131.556 105.281C129.644 110.15 128.556 112.969 128.494 114.356C128.412 116.013 128.6 120.831 130.412 123.156C131.237 124.219 132.844 125.131 134.544 126.094C135.562 126.669 137.25 127.625 137.537 128.088C137.612 128.411 137.812 128.691 138.093 128.867C138.375 129.043 138.714 129.1 139.037 129.025C139.361 128.95 139.641 128.75 139.817 128.469C139.993 128.188 140.049 127.848 139.975 127.525L140 127.5ZM101.131 126.875C101.016 126.987 100.88 127.077 100.731 127.138C100.868 127.069 100.995 126.98 101.106 126.875H101.131Z" fill="#003188"></path> <path d="M124 125.737C123.65 125 123.287 124.25 122.912 123.5C122.842 123.348 122.743 123.211 122.619 123.098C122.495 122.985 122.35 122.899 122.193 122.843C122.035 122.787 121.867 122.764 121.7 122.774C121.533 122.784 121.37 122.828 121.22 122.902C121.07 122.977 120.937 123.081 120.828 123.208C120.719 123.335 120.636 123.482 120.585 123.642C120.535 123.801 120.516 123.969 120.532 124.136C120.547 124.303 120.596 124.465 120.675 124.612C121.037 125.35 121.4 126.087 121.744 126.812C121.845 127.025 122.004 127.205 122.203 127.331C122.402 127.457 122.633 127.524 122.869 127.525C123.055 127.524 123.238 127.481 123.406 127.4C123.705 127.258 123.935 127.003 124.047 126.691C124.158 126.38 124.141 126.036 124 125.737V125.737Z" fill="#003188"></path> <path d="M127.037 132.544C126.737 131.825 126.412 131.063 126.062 130.263C125.998 130.111 125.903 129.973 125.785 129.858C125.667 129.742 125.528 129.651 125.375 129.59C125.221 129.528 125.058 129.497 124.893 129.499C124.727 129.501 124.564 129.535 124.412 129.6C124.261 129.665 124.123 129.759 124.008 129.877C123.892 129.995 123.801 130.135 123.739 130.288C123.678 130.441 123.647 130.605 123.649 130.77C123.651 130.935 123.685 131.098 123.75 131.25C124.094 132.038 124.419 132.788 124.712 133.5C124.809 133.727 124.97 133.92 125.175 134.056C125.381 134.192 125.622 134.264 125.869 134.263C126.034 134.262 126.197 134.23 126.35 134.169C126.656 134.044 126.9 133.803 127.029 133.498C127.158 133.194 127.161 132.85 127.037 132.544Z" fill="#003188"></path> <path d="M109.331 109.075C109.475 109.144 109.619 109.219 109.756 109.3C109.898 109.403 110.059 109.475 110.23 109.512C110.401 109.548 110.578 109.548 110.749 109.512C110.921 109.476 111.082 109.405 111.224 109.302C111.366 109.2 111.484 109.069 111.572 108.918C111.66 108.766 111.715 108.598 111.734 108.424C111.753 108.251 111.735 108.075 111.682 107.908C111.629 107.742 111.541 107.588 111.425 107.457C111.308 107.327 111.166 107.222 111.006 107.15C110.805 107.029 110.596 106.921 110.381 106.825C109.689 106.512 108.95 106.314 108.194 106.238C108.03 106.217 107.863 106.228 107.703 106.272C107.544 106.315 107.394 106.39 107.263 106.491C107.132 106.592 107.023 106.718 106.941 106.862C106.859 107.006 106.805 107.164 106.785 107.328C106.764 107.492 106.775 107.659 106.819 107.819C106.862 107.978 106.937 108.128 107.038 108.259C107.139 108.39 107.265 108.499 107.409 108.582C107.553 108.664 107.711 108.717 107.875 108.738C108.375 108.773 108.867 108.887 109.331 109.075Z" fill="#003188"></path> <path d="M120.588 119.087C120.181 118.35 119.763 117.625 119.338 116.919C119.258 116.77 119.148 116.639 119.016 116.533C118.884 116.428 118.732 116.351 118.569 116.306C118.407 116.261 118.236 116.249 118.069 116.272C117.902 116.295 117.741 116.351 117.596 116.438C117.451 116.524 117.325 116.64 117.225 116.776C117.126 116.913 117.056 117.068 117.018 117.233C116.981 117.398 116.977 117.568 117.007 117.734C117.037 117.901 117.101 118.059 117.194 118.2C117.606 118.887 118.006 119.587 118.406 120.3C118.48 120.453 118.585 120.59 118.713 120.702C118.842 120.814 118.992 120.898 119.154 120.95C119.317 121.001 119.488 121.019 119.658 121.002C119.827 120.985 119.991 120.934 120.14 120.851C120.289 120.768 120.42 120.656 120.524 120.521C120.628 120.386 120.703 120.231 120.745 120.066C120.787 119.9 120.794 119.728 120.767 119.56C120.74 119.392 120.679 119.231 120.588 119.087Z" fill="#003188"></path> <path d="M114.55 114.175C114.746 114.443 115.039 114.622 115.367 114.673C115.695 114.724 116.029 114.642 116.297 114.447C116.565 114.251 116.744 113.957 116.795 113.63C116.846 113.302 116.764 112.968 116.569 112.7C116.037 111.975 115.506 111.294 114.994 110.694C114.767 110.494 114.476 110.383 114.173 110.381C113.871 110.379 113.578 110.487 113.35 110.685C113.121 110.882 112.971 111.156 112.929 111.455C112.886 111.755 112.954 112.059 113.119 112.312C113.562 112.869 114.056 113.494 114.55 114.175Z" fill="#003188"></path> <path d="M104.375 107.375C104.343 107.054 104.188 106.757 103.942 106.547C103.696 106.337 103.379 106.231 103.056 106.25C102.281 106.313 101.437 106.388 100.556 106.494C100.392 106.503 100.231 106.544 100.083 106.615C99.9349 106.687 99.8021 106.786 99.6924 106.909C99.4709 107.156 99.3567 107.481 99.3749 107.813C99.3932 108.144 99.5424 108.455 99.7897 108.677C100.037 108.898 100.362 109.012 100.694 108.994H100.837C101.687 108.894 102.5 108.819 103.237 108.763C103.404 108.749 103.566 108.701 103.715 108.624C103.863 108.546 103.994 108.439 104.1 108.31C104.206 108.18 104.285 108.031 104.332 107.87C104.379 107.71 104.394 107.542 104.375 107.375V107.375Z" fill="#003188"></path> <path d="M97.056 108.193C97.0023 107.867 96.8216 107.576 96.5534 107.382C96.2851 107.189 95.9512 107.11 95.6248 107.162C94.7748 107.3 93.9498 107.443 93.1748 107.587C93.0106 107.602 92.851 107.649 92.705 107.725C92.559 107.802 92.4295 107.906 92.3238 108.033C92.1105 108.288 92.0074 108.618 92.0373 108.95C92.0671 109.281 92.2274 109.587 92.4829 109.801C92.7385 110.014 93.0683 110.117 93.3998 110.087C93.4747 110.093 93.5499 110.093 93.6248 110.087C94.3935 109.943 95.1998 109.806 96.031 109.668C96.1964 109.641 96.3547 109.582 96.4964 109.492C96.6381 109.403 96.7604 109.286 96.856 109.148C96.9517 109.011 97.0186 108.855 97.053 108.691C97.0874 108.527 97.0884 108.358 97.056 108.193Z" fill="#003188"></path> <path d="M128.875 137.138C128.817 136.984 128.73 136.843 128.618 136.722C128.506 136.602 128.372 136.505 128.222 136.437C128.073 136.369 127.911 136.331 127.747 136.325C127.583 136.319 127.419 136.346 127.266 136.403C127.112 136.461 126.971 136.548 126.85 136.66C126.73 136.772 126.633 136.906 126.565 137.056C126.497 137.205 126.459 137.367 126.453 137.531C126.447 137.695 126.474 137.859 126.531 138.013C126.775 138.638 126.9 139.019 126.925 139.113C127.003 139.37 127.162 139.595 127.378 139.755C127.594 139.915 127.856 140.001 128.125 140C128.32 140 128.512 139.954 128.686 139.866C128.86 139.778 129.011 139.651 129.127 139.494C129.243 139.337 129.321 139.156 129.354 138.963C129.387 138.771 129.375 138.574 129.319 138.388C129.237 138.125 128.981 137.419 128.875 137.138Z" fill="#003188"></path> <path d="M111 119.25C110.558 118.518 110.076 117.81 109.556 117.131C109.347 116.885 109.051 116.729 108.73 116.696C108.409 116.663 108.088 116.756 107.833 116.954C107.579 117.153 107.411 117.442 107.365 117.762C107.319 118.081 107.399 118.406 107.587 118.669C107.981 119.181 108.412 119.812 108.837 120.544C108.945 120.731 109.1 120.887 109.286 120.996C109.472 121.106 109.684 121.165 109.9 121.169C110.12 121.164 110.336 121.102 110.525 120.987C110.672 120.907 110.802 120.797 110.907 120.665C111.011 120.533 111.087 120.382 111.132 120.22C111.176 120.057 111.187 119.888 111.165 119.721C111.142 119.555 111.086 119.394 111 119.25Z" fill="#003188"></path> <path d="M114.375 125.831C114.031 125.081 113.681 124.337 113.331 123.612C113.186 123.314 112.928 123.085 112.615 122.977C112.301 122.868 111.957 122.889 111.659 123.034C111.361 123.179 111.132 123.437 111.024 123.75C110.915 124.064 110.936 124.408 111.081 124.706C111.425 125.412 111.762 126.137 112.1 126.862C112.198 127.082 112.358 127.268 112.56 127.399C112.762 127.529 112.997 127.599 113.237 127.6C113.447 127.6 113.652 127.547 113.836 127.447C114.02 127.347 114.176 127.202 114.289 127.026C114.402 126.85 114.469 126.648 114.484 126.439C114.499 126.231 114.462 126.021 114.375 125.831V125.831Z" fill="#003188"></path> <path d="M102.094 117.312H102.306C103.039 117.18 103.781 117.1 104.525 117.075C104.689 117.071 104.851 117.034 105.001 116.968C105.151 116.901 105.286 116.805 105.4 116.686C105.513 116.567 105.601 116.427 105.66 116.274C105.72 116.121 105.748 115.958 105.744 115.793C105.74 115.629 105.703 115.467 105.637 115.317C105.57 115.167 105.474 115.032 105.355 114.919C105.236 114.805 105.096 114.717 104.943 114.658C104.79 114.599 104.627 114.571 104.462 114.575C103.596 114.604 102.734 114.695 101.881 114.85C101.55 114.878 101.243 115.037 101.028 115.291C100.814 115.545 100.709 115.874 100.737 116.206C100.766 116.537 100.924 116.844 101.179 117.059C101.433 117.273 101.762 117.378 102.094 117.35V117.312Z" fill="#003188"></path> <path d="M95.0875 119.169C95.2213 119.169 95.3542 119.148 95.4813 119.106C96.2063 118.863 96.975 118.625 97.75 118.4C98.0683 118.306 98.3363 118.09 98.4951 117.799C98.654 117.508 98.6906 117.165 98.5969 116.847C98.5033 116.529 98.287 116.261 97.9957 116.102C97.7045 115.943 97.362 115.906 97.0438 116C96.2438 116.231 95.4563 116.481 94.7 116.731C94.4179 116.824 94.1779 117.014 94.0232 117.268C93.8685 117.521 93.8092 117.822 93.8558 118.115C93.9025 118.408 94.052 118.676 94.2777 118.869C94.5034 119.062 94.7905 119.168 95.0875 119.169V119.169Z" fill="#003188"></path> <path d="M117.225 132.588C116.944 131.863 116.644 131.106 116.319 130.319C116.193 130.012 115.95 129.768 115.644 129.64C115.338 129.513 114.994 129.512 114.688 129.638C114.381 129.764 114.137 130.006 114.009 130.312C113.881 130.618 113.88 130.962 114.006 131.269C114.325 132.038 114.631 132.788 114.894 133.494C115.014 133.803 115.252 134.052 115.556 134.185C115.859 134.319 116.203 134.327 116.513 134.206C116.822 134.086 117.07 133.848 117.204 133.545C117.338 133.241 117.345 132.897 117.225 132.588Z" fill="#003188"></path> <path d="M118.919 137.15C118.865 136.995 118.781 136.852 118.672 136.729C118.563 136.607 118.431 136.507 118.283 136.435C118.136 136.363 117.975 136.321 117.811 136.312C117.647 136.302 117.483 136.325 117.328 136.378C117.173 136.432 117.03 136.516 116.907 136.625C116.784 136.734 116.684 136.866 116.613 137.014C116.541 137.162 116.499 137.322 116.489 137.486C116.48 137.65 116.502 137.814 116.556 137.969C116.8 138.663 116.894 138.982 116.912 139.057C116.981 139.326 117.137 139.566 117.357 139.737C117.576 139.908 117.847 140.001 118.125 140C118.228 140 118.331 139.987 118.431 139.963C118.59 139.923 118.74 139.852 118.872 139.754C119.004 139.655 119.115 139.532 119.199 139.391C119.283 139.25 119.339 139.094 119.363 138.931C119.386 138.769 119.378 138.603 119.337 138.444C119.287 138.238 119.144 137.807 118.919 137.15Z" fill="#003188"></path> <path d="M86.575 137.569C87.4438 135.225 88.7563 131.688 88.0563 128.881C87.4313 126.5 85.175 124.731 82.75 122.856C81.4033 121.878 80.1482 120.78 79 119.575C76.6125 116.875 76.1125 112.656 76.1125 109.619C76.1125 106.581 75.7313 103.525 72.95 100.744C72.0563 99.8502 70.1875 97.9814 64.8813 97.9814C64.5498 97.9814 64.2318 98.1131 63.9974 98.3476C63.763 98.582 63.6313 98.8999 63.6313 99.2314C63.6313 99.563 63.763 99.8809 63.9974 100.115C64.2318 100.35 64.5498 100.481 64.8813 100.481H65.1813C64.743 102.147 64.196 103.782 63.5438 105.375C61.825 109.919 59.6875 115.569 60.0375 120.488C60.3875 125.406 63.8688 130.625 63.9 130.625C64.2554 131.13 64.7933 131.478 65.4 131.594V138.75C65.4 139.082 65.5317 139.4 65.7661 139.634C66.0006 139.868 66.3185 140 66.65 140C66.9815 140 67.2995 139.868 67.5339 139.634C67.7683 139.4 67.9 139.082 67.9 138.75V131.875L70.2563 132.05V138.75C70.2563 139.082 70.388 139.4 70.6224 139.634C70.8568 139.868 71.1748 140 71.5063 140C71.8378 140 72.1557 139.868 72.3902 139.634C72.6246 139.4 72.7563 139.082 72.7563 138.75V132.219L74.1375 132.325L74.175 132.463L74.9563 134.963C75.1333 135.894 75.6474 136.728 76.4003 137.304C77.1532 137.881 78.092 138.16 79.0375 138.088C80.5781 137.948 82.1313 138.094 83.6188 138.519C83.5668 138.828 83.633 139.146 83.8044 139.409C83.9757 139.672 84.2397 139.86 84.5438 139.938C84.6419 139.962 84.7426 139.975 84.8438 139.975C85.1229 139.975 85.394 139.881 85.6137 139.709C85.8335 139.537 85.9893 139.296 86.0563 139.025C86.1 138.869 86.1688 138.65 86.2563 138.4C86.2735 138.368 86.2881 138.335 86.3 138.3C86.3813 138.088 86.4688 137.838 86.575 137.569ZM78.7813 135.625C78.436 135.624 78.1032 135.496 77.8462 135.266C77.5891 135.035 77.4259 134.718 77.3875 134.375C77.3875 134.375 77.3875 134.313 77.3563 134.281L76.5938 131.781C76.497 131.264 76.2342 130.791 75.8452 130.436C75.4561 130.081 74.962 129.862 74.4375 129.813L65.9313 129.188C65.2375 128.163 62.8063 123.931 62.5313 120.306C62.2188 115.931 64.25 110.575 65.8813 106.256C66.6425 104.47 67.2408 102.619 67.6688 100.725C69.0057 100.906 70.243 101.531 71.1813 102.5C73.2 104.519 73.6125 106.8 73.6125 109.606C73.6125 113.069 74.2375 117.9 77.1188 121.206C78.3777 122.543 79.761 123.757 81.25 124.831C83.2313 126.363 85.275 127.956 85.6625 129.488C86.1313 131.363 85.1625 134.244 84.45 136.188C82.6137 135.64 80.6894 135.449 78.7813 135.625V135.625Z" fill="#003188"></path> <path d="M73.0812 121.076C72.2437 118.776 69.9562 117.494 67.9437 118.219C65.9312 118.944 64.9999 121.413 65.8562 123.713C66.2275 124.752 66.9417 125.634 67.8812 126.213C68.4685 126.572 69.1427 126.765 69.8312 126.769C70.2278 126.77 70.6214 126.7 70.9937 126.563C72.9874 125.838 73.9249 123.369 73.0812 121.069V121.076ZM70.1374 124.201C69.9741 124.248 69.8025 124.26 69.6342 124.235C69.4659 124.21 69.305 124.15 69.1624 124.057C68.7122 123.76 68.3754 123.319 68.2062 122.807C67.8437 121.819 68.1187 120.769 68.8312 120.519C68.9332 120.481 69.0411 120.462 69.1499 120.463C69.5264 120.52 69.8785 120.684 70.1643 120.936C70.4502 121.187 70.6578 121.516 70.7624 121.882C71.0937 122.926 70.8249 123.969 70.1374 124.219V124.201Z" fill="#003188"></path> <path d="M69.8938 93.6994C69.5623 93.6994 69.2443 93.5677 69.0099 93.3333C68.7755 93.0989 68.6438 92.7809 68.6438 92.4494C68.6104 90.8257 68.8906 89.2108 69.4688 87.6932C69.9544 86.4364 70.188 85.0964 70.1563 83.7494C70.1907 82.4043 69.957 81.0658 69.4688 79.8119C68.897 78.2927 68.6192 76.6786 68.65 75.0557C68.6206 73.4322 68.9006 71.8181 69.475 70.2994C69.9634 69.0478 70.1971 67.7113 70.1625 66.3682C70.1625 66.0366 70.2942 65.7187 70.5286 65.4843C70.7631 65.2499 71.081 65.1182 71.4125 65.1182V65.1182C71.744 65.1182 72.062 65.2499 72.2964 65.4843C72.5308 65.7187 72.6625 66.0366 72.6625 66.3682C72.696 67.9899 72.4158 69.6027 71.8375 71.1182C71.3523 72.3729 71.1187 73.7108 71.15 75.0557C71.1166 76.4001 71.3481 77.7381 71.8313 78.9932C72.4086 80.5111 72.6887 82.1258 72.6563 83.7494C72.6826 85.3726 72.4027 86.9862 71.8313 88.5057C71.3424 89.7594 71.1087 91.098 71.1438 92.4432C71.1446 92.6078 71.1129 92.7711 71.0504 92.9234C70.988 93.0758 70.896 93.2144 70.7799 93.3311C70.6637 93.4478 70.5256 93.5405 70.3736 93.6037C70.2215 93.6669 70.0585 93.6994 69.8938 93.6994V93.6994Z" fill="#003188"></path> <path d="M76.7688 97.4494C76.4373 97.4494 76.1193 97.3177 75.8849 97.0833C75.6505 96.8489 75.5188 96.5309 75.5188 96.1994C75.4854 94.5757 75.7656 92.9608 76.3438 91.4432C76.8294 90.1864 77.063 88.8464 77.0313 87.4994C77.0657 86.1543 76.832 84.8158 76.3438 83.5619C75.772 82.0427 75.4942 80.4286 75.525 78.8057C75.4956 77.1822 75.7756 75.5681 76.35 74.0494C76.8384 72.7978 77.0721 71.4613 77.0375 70.1182C77.0375 69.7866 77.1692 69.4687 77.4036 69.2343C77.6381 68.9999 77.956 68.8682 78.2875 68.8682V68.8682C78.619 68.8682 78.937 68.9999 79.1714 69.2343C79.4058 69.4687 79.5375 69.7866 79.5375 70.1182C79.571 71.7399 79.2908 73.3527 78.7125 74.8682C78.2273 76.1229 77.9937 77.4608 78.025 78.8057C77.9916 80.1501 78.2231 81.4881 78.7063 82.7432C79.2836 84.2611 79.5637 85.8758 79.5313 87.4994C79.5576 89.1226 79.2777 90.7362 78.7063 92.2557C78.2174 93.5094 77.9837 94.848 78.0188 96.1932C78.0196 96.3578 77.9879 96.5211 77.9254 96.6734C77.863 96.8258 77.771 96.9644 77.6549 97.0811C77.5387 97.1978 77.4006 97.2905 77.2486 97.3537C77.0965 97.4169 76.9335 97.4494 76.7688 97.4494V97.4494Z" fill="#003188"></path> </g> <defs> <clipPath id="clip0"> <rect x="60" y="60" width="80" height="80" fill="white"></rect> </clipPath> </defs> </svg>
