<svg xmlns="http://www.w3.org/2000/svg" width="200" height="200" viewBox="0 0 200 200" fill="none"> <circle cx="100" cy="100" r="100" fill="#F2F7FF"></circle> <g clip-path="url(#clip0)"> <path d="M93.75 99.375C93.0083 99.375 92.2833 99.5949 91.6666 100.007C91.0499 100.419 90.5693 101.005 90.2855 101.69C90.0016 102.375 89.9274 103.129 90.0721 103.857C90.2168 104.584 90.5739 105.252 91.0984 105.777C91.6228 106.301 92.291 106.658 93.0184 106.803C93.7458 106.948 94.4998 106.873 95.1851 106.59C95.8703 106.306 96.456 105.825 96.868 105.208C97.2801 104.592 97.5 103.867 97.5 103.125C97.5 102.13 97.1049 101.177 96.4017 100.473C95.6984 99.7701 94.7446 99.375 93.75 99.375ZM93.75 104.375C93.5028 104.375 93.2611 104.302 93.0555 104.164C92.85 104.027 92.6898 103.832 92.5952 103.603C92.5005 103.375 92.4758 103.124 92.524 102.881C92.5723 102.639 92.6913 102.416 92.8661 102.241C93.0409 102.066 93.2637 101.947 93.5061 101.899C93.7486 101.851 93.9999 101.876 94.2284 101.97C94.4568 102.065 94.652 102.225 94.7893 102.431C94.9267 102.636 95 102.878 95 103.125C95 103.457 94.8683 103.774 94.6339 104.009C94.3995 104.243 94.0815 104.375 93.75 104.375Z" fill="#003188"></path> <path d="M106.994 94.0059C106.994 93.1406 106.737 92.2947 106.256 91.5752C105.776 90.8558 105.092 90.295 104.293 89.9639C103.493 89.6328 102.614 89.5461 101.765 89.7149C100.916 89.8837 100.137 90.3004 99.5251 90.9123C98.9132 91.5241 98.4965 92.3037 98.3277 93.1523C98.1589 94.001 98.2455 94.8807 98.5767 95.6801C98.9078 96.4795 99.4686 97.1628 100.188 97.6435C100.908 98.1243 101.753 98.3809 102.619 98.3809C103.779 98.3809 104.892 97.9199 105.712 97.0995C106.533 96.279 106.994 95.1662 106.994 94.0059V94.0059ZM100.744 94.0059C100.744 93.635 100.854 93.2725 101.06 92.9642C101.266 92.6558 101.559 92.4155 101.901 92.2736C102.244 92.1317 102.621 92.0945 102.984 92.1669C103.348 92.2392 103.682 92.4178 103.944 92.68C104.207 92.9423 104.385 93.2764 104.458 93.6401C104.53 94.0038 104.493 94.3808 104.351 94.7234C104.209 95.066 103.969 95.3588 103.66 95.5649C103.352 95.7709 102.989 95.8809 102.619 95.8809C102.121 95.8809 101.644 95.6833 101.293 95.3317C100.941 94.9801 100.744 94.5031 100.744 94.0059V94.0059Z" fill="#003188"></path> <path d="M104.563 102.263C103.821 102.263 103.096 102.483 102.479 102.895C101.862 103.307 101.382 103.892 101.098 104.578C100.814 105.263 100.74 106.017 100.885 106.744C101.029 107.472 101.386 108.14 101.911 108.664C102.435 109.189 103.103 109.546 103.831 109.691C104.558 109.835 105.312 109.761 105.998 109.477C106.683 109.193 107.268 108.713 107.681 108.096C108.093 107.479 108.313 106.754 108.313 106.013C108.313 105.018 107.917 104.064 107.214 103.361C106.511 102.658 105.557 102.263 104.563 102.263ZM104.563 107.263C104.315 107.263 104.074 107.189 103.868 107.052C103.662 106.915 103.502 106.719 103.408 106.491C103.313 106.263 103.288 106.011 103.337 105.769C103.385 105.526 103.504 105.304 103.679 105.129C103.853 104.954 104.076 104.835 104.319 104.787C104.561 104.738 104.812 104.763 105.041 104.858C105.269 104.952 105.464 105.113 105.602 105.318C105.739 105.524 105.813 105.765 105.813 106.013C105.813 106.344 105.681 106.662 105.446 106.897C105.212 107.131 104.894 107.263 104.563 107.263Z" fill="#003188"></path> <path d="M130.312 73.75C127.744 73.7516 125.281 74.7728 123.464 76.5892C121.648 78.4056 120.627 80.8687 120.625 83.4375C120.632 84.5784 120.844 85.7087 121.25 86.775L115.681 89.8687C115.106 89.3267 114.455 88.8699 113.75 88.5125C113.254 88.2797 112.791 87.9812 112.375 87.625C112.024 87.2179 111.726 86.7686 111.487 86.2875C111.034 85.2607 110.303 84.3816 109.375 83.75C108.376 83.2698 107.265 83.073 106.162 83.1812C105.779 83.2006 105.396 83.2006 105.012 83.1812L106.062 76.875C106.941 76.775 107.757 76.3676 108.364 75.7247C108.972 75.0818 109.332 74.2449 109.383 73.3618C109.433 72.4786 109.169 71.6062 108.638 70.8986C108.108 70.1911 107.344 69.6939 106.482 69.495C105.62 69.2961 104.716 69.4083 103.928 69.8117C103.141 70.2151 102.522 70.8838 102.18 71.6996C101.838 72.5154 101.796 73.4258 102.06 74.2699C102.324 75.114 102.879 75.8375 103.625 76.3125L102.65 82.1312C101.861 81.6064 100.946 81.3021 100 81.25C98.8724 81.3342 97.7905 81.7302 96.875 82.3937C96.4379 82.6941 95.9656 82.9397 95.4687 83.125C94.9316 83.2288 94.3832 83.2624 93.8375 83.225C92.7388 83.1029 91.6276 83.2844 90.625 83.75C89.7034 84.3721 88.9722 85.2375 88.5125 86.25C88.4562 86.3562 88.4 86.45 88.3437 86.55L82.175 80.375C84.2042 77.8919 85.2016 74.7239 84.9608 71.5261C84.72 68.3284 83.2594 65.3455 80.8811 63.1944C78.5028 61.0432 75.3887 59.8884 72.1829 59.9688C68.9771 60.0491 65.9248 61.3585 63.6573 63.626C61.3897 65.8936 60.0804 68.9459 60 72.1517C59.9197 75.3575 61.0745 78.4716 63.2256 80.8498C65.3767 83.2281 68.3596 84.6887 71.5574 84.9296C74.7551 85.1704 77.9231 84.173 80.4062 82.1437L86.5812 88.3125L86.2875 88.4812C85.2567 88.9427 84.3772 89.6858 83.75 90.625C83.2698 91.6235 83.073 92.7347 83.1812 93.8375C83.2333 94.3813 83.2144 94.9297 83.125 95.4687C82.9397 95.9656 82.6941 96.4379 82.3937 96.875C81.7302 97.7905 81.3342 98.8724 81.25 100C81.3342 101.127 81.7302 102.209 82.3937 103.125C82.6941 103.562 82.9397 104.034 83.125 104.531C83.229 105.068 83.2627 105.617 83.225 106.162C83.225 106.5 83.225 106.85 83.225 107.206L75.625 111.087C74.6801 109.743 73.2848 108.781 71.692 108.377C70.0992 107.972 68.4142 108.152 66.9423 108.883C65.4704 109.614 64.3091 110.848 63.6686 112.361C63.0282 113.875 62.9511 115.567 63.4512 117.133C63.9513 118.698 64.9956 120.033 66.3949 120.894C67.7942 121.756 69.4559 122.088 71.0789 121.83C72.7019 121.572 74.1788 120.742 75.2421 119.489C76.3054 118.236 76.8846 116.643 76.875 115C76.8734 114.45 76.8041 113.902 76.6687 113.369L83.9375 109.619C84.5689 110.403 85.3703 111.033 86.2812 111.462C86.7678 111.705 87.2197 112.012 87.625 112.375C87.9754 112.782 88.2736 113.231 88.5125 113.712C88.9655 114.739 89.6973 115.618 90.625 116.25C91.6234 116.73 92.7347 116.927 93.8375 116.819C94.3832 116.784 94.9312 116.818 95.4687 116.919C95.9636 117.09 96.4359 117.321 96.875 117.606L96.3312 125C94.4559 125.133 92.6991 125.966 91.4089 127.334C90.1186 128.701 89.3889 130.503 89.3643 132.383C89.3398 134.263 90.0221 136.083 91.2762 137.484C92.5303 138.885 94.2647 139.763 96.1359 139.946C98.007 140.128 99.8785 139.601 101.38 138.469C102.881 137.337 103.902 135.683 104.241 133.833C104.58 131.984 104.212 130.075 103.21 128.484C102.208 126.893 100.645 125.737 98.8312 125.244L99.3 118.65C99.5296 118.705 99.764 118.739 100 118.75C101.127 118.666 102.209 118.27 103.125 117.606C103.562 117.317 104.032 117.082 104.525 116.906C105.062 116.802 105.61 116.769 106.156 116.806C107.26 116.919 108.373 116.727 109.375 116.25C110.297 115.628 111.028 114.762 111.487 113.75C111.701 113.338 111.95 112.945 112.231 112.575L120.981 120.356C120.54 121.115 120.309 121.978 120.312 122.856C120.312 123.845 120.606 124.812 121.155 125.634C121.705 126.456 122.485 127.097 123.399 127.476C124.313 127.854 125.318 127.953 126.288 127.76C127.258 127.567 128.149 127.091 128.848 126.392C129.547 125.692 130.023 124.802 130.216 123.832C130.409 122.862 130.31 121.856 129.932 120.943C129.553 120.029 128.913 119.248 128.09 118.699C127.268 118.149 126.301 117.856 125.312 117.856C124.404 117.857 123.513 118.107 122.737 118.581L114.375 111.106C115.14 110.703 115.787 110.106 116.25 109.375C116.73 108.376 116.927 107.265 116.819 106.162C116.781 105.617 116.815 105.068 116.919 104.531C117.09 104.036 117.321 103.564 117.606 103.125C118.27 102.209 118.666 101.127 118.75 100C118.666 98.8724 118.27 97.7905 117.606 96.875C117.317 96.4383 117.082 95.9682 116.906 95.475C116.802 94.9379 116.768 94.3895 116.806 93.8437C116.827 93.2739 116.802 92.7033 116.731 92.1375L122.356 89.0125C123.313 90.369 124.603 91.4566 126.102 92.1708C127.601 92.885 129.258 93.2017 130.914 93.0906C132.571 92.9796 134.171 92.4444 135.561 91.5365C136.951 90.6286 138.084 89.3785 138.851 87.9063C139.619 86.4341 139.995 84.7893 139.943 83.1299C139.892 81.4705 139.414 79.8523 138.557 78.4307C137.699 77.0091 136.49 75.8319 135.047 75.0122C133.603 74.1925 131.973 73.7578 130.312 73.75V73.75ZM70 119.375C69.1347 119.375 68.2888 119.118 67.5693 118.638C66.8499 118.157 66.2891 117.474 65.958 116.674C65.6268 115.875 65.5402 114.995 65.709 114.146C65.8778 113.298 66.2945 112.518 66.9064 111.906C67.5182 111.295 68.2978 110.878 69.1464 110.709C69.9951 110.54 70.8748 110.627 71.6742 110.958C72.4736 111.289 73.1569 111.85 73.6376 112.569C74.1184 113.289 74.375 114.135 74.375 115C74.375 116.16 73.914 117.273 73.0935 118.094C72.2731 118.914 71.1603 119.375 70 119.375V119.375ZM105.625 71.875C105.872 71.875 106.114 71.9483 106.319 72.0856C106.525 72.223 106.685 72.4182 106.78 72.6466C106.874 72.875 106.899 73.1263 106.851 73.3688C106.803 73.6113 106.684 73.834 106.509 74.0088C106.334 74.1837 106.111 74.3027 105.869 74.3509C105.626 74.3992 105.375 74.3744 105.147 74.2798C104.918 74.1852 104.723 74.025 104.586 73.8194C104.448 73.6139 104.375 73.3722 104.375 73.125C104.375 72.7934 104.507 72.4755 104.741 72.2411C104.975 72.0066 105.293 71.875 105.625 71.875ZM62.5 72.5C62.5 70.5221 63.0864 68.5887 64.1853 66.9443C65.2841 65.2998 66.8459 64.018 68.6731 63.2612C70.5004 62.5043 72.511 62.3062 74.4509 62.6921C76.3907 63.078 78.1725 64.0304 79.571 65.4289C80.9695 66.8274 81.922 68.6092 82.3078 70.5491C82.6937 72.4889 82.4956 74.4995 81.7387 76.3268C80.9819 78.154 79.7001 79.7158 78.0557 80.8146C76.4112 81.9135 74.4778 82.5 72.5 82.5C69.8478 82.5 67.3042 81.4464 65.4289 79.571C63.5535 77.6957 62.5 75.1521 62.5 72.5V72.5ZM101.875 132.5C101.875 133.489 101.582 134.456 101.032 135.278C100.483 136.1 99.702 136.741 98.7884 137.119C97.8747 137.498 96.8694 137.597 95.8995 137.404C94.9296 137.211 94.0387 136.735 93.3394 136.035C92.6402 135.336 92.164 134.445 91.971 133.475C91.7781 132.505 91.8771 131.5 92.2556 130.587C92.634 129.673 93.2749 128.892 94.0971 128.343C94.9193 127.793 95.886 127.5 96.875 127.5C98.201 127.5 99.4728 128.027 100.41 128.964C101.348 129.902 101.875 131.174 101.875 132.5ZM127.812 122.812C127.812 123.307 127.666 123.79 127.391 124.201C127.116 124.613 126.726 124.933 126.269 125.122C125.812 125.311 125.31 125.361 124.825 125.264C124.34 125.168 123.894 124.93 123.545 124.58C123.195 124.231 122.957 123.785 122.86 123.3C122.764 122.815 122.814 122.313 123.003 121.856C123.192 121.399 123.512 121.008 123.924 120.734C124.335 120.459 124.818 120.312 125.312 120.312C125.975 120.312 126.611 120.576 127.08 121.045C127.549 121.514 127.812 122.149 127.812 122.812ZM115.462 101.875C115.046 102.506 114.72 103.192 114.494 103.912C114.324 104.671 114.26 105.449 114.306 106.225C114.375 106.868 114.295 107.517 114.075 108.125C113.649 108.635 113.109 109.04 112.5 109.306C111.076 109.938 109.938 111.076 109.306 112.5C109.042 113.11 108.637 113.65 108.125 114.075C107.51 114.299 106.851 114.378 106.2 114.306C105.424 114.26 104.646 114.324 103.887 114.494C103.175 114.722 102.498 115.048 101.875 115.462C101.323 115.874 100.68 116.144 100 116.25C99.3202 116.144 98.6765 115.874 98.125 115.462C97.4941 115.046 96.8084 114.72 96.0875 114.494C95.4902 114.349 94.8767 114.284 94.2625 114.3H93.775C93.1328 114.37 92.483 114.293 91.875 114.075C91.3645 113.649 90.9602 113.109 90.6937 112.5C90.3449 111.816 89.9009 111.184 89.375 110.625C88.8142 110.106 88.183 109.668 87.5 109.325C86.8876 109.055 86.3478 108.644 85.925 108.125C85.7006 107.51 85.6214 106.851 85.6937 106.2C85.7394 105.424 85.6763 104.646 85.5062 103.887C85.2775 103.175 84.9515 102.498 84.5375 101.875C84.1262 101.323 83.8559 100.68 83.75 100C83.8559 99.3202 84.1262 98.6765 84.5375 98.125C84.9535 97.4941 85.2796 96.8084 85.5062 96.0875C85.6763 95.3292 85.7394 94.5508 85.6937 93.775C85.6253 93.1323 85.7044 92.4825 85.925 91.875C86.3514 91.3645 86.8906 90.9602 87.5 90.6937C88.1841 90.3449 88.8154 89.9009 89.375 89.375C89.8943 88.8142 90.332 88.183 90.675 87.5C90.945 86.8876 91.3562 86.3478 91.875 85.925C92.4902 85.7006 93.149 85.6214 93.8 85.6937C94.5758 85.7394 95.3541 85.6763 96.1125 85.5062C96.8247 85.2775 97.5019 84.9515 98.125 84.5375C98.6765 84.1262 99.3202 83.8559 100 83.75C100.68 83.8559 101.323 84.1262 101.875 84.5375C102.506 84.9535 103.192 85.2796 103.912 85.5062C104.671 85.6763 105.449 85.7394 106.225 85.6937C106.876 85.6214 107.535 85.7006 108.15 85.925C108.651 86.3541 109.047 86.8931 109.306 87.5C109.655 88.1841 110.099 88.8154 110.625 89.375C111.186 89.8943 111.817 90.332 112.5 90.675C113.112 90.945 113.652 91.3562 114.075 91.875C114.299 92.4902 114.378 93.149 114.306 93.8C114.26 94.5758 114.324 95.3541 114.494 96.1125C114.722 96.8247 115.048 97.5019 115.462 98.125C115.874 98.6765 116.144 99.3202 116.25 100C116.144 100.68 115.874 101.323 115.462 101.875V101.875ZM130.312 90.625C128.891 90.625 127.501 90.2034 126.319 89.4136C125.137 88.6239 124.216 87.5013 123.672 86.188C123.128 84.8746 122.986 83.4295 123.263 82.0352C123.54 80.641 124.225 79.3603 125.23 78.3551C126.235 77.3499 127.516 76.6654 128.91 76.3881C130.304 76.1107 131.75 76.2531 133.063 76.7971C134.376 77.3411 135.499 78.2623 136.289 79.4443C137.078 80.6263 137.5 82.0159 137.5 83.4375C137.498 85.3432 136.741 87.1704 135.393 88.518C134.045 89.8655 132.218 90.6233 130.312 90.625Z" fill="#003188"></path> </g> <defs> <clipPath id="clip0"> <rect x="60" y="60" width="80" height="80" fill="white"></rect> </clipPath> </defs> </svg>
