<svg width="180" height="180" viewBox="0 0 180 180" fill="none" xmlns="http://www.w3.org/2000/svg">
<path d="M90 180C139.706 180 180 139.706 180 90C180 40.2944 139.706 0 90 0C40.2944 0 0 40.2944 0 90C0 139.706 40.2944 180 90 180Z" fill="#F2F7FF"/>
<g clip-path="url(#clip0)">
<path fill-rule="evenodd" clip-rule="evenodd" d="M115.588 118.178C114.961 118.313 114.344 117.914 114.198 117.29C113.897 116.011 113.518 114.542 113.107 112.979C112.622 111.093 112.084 109.099 111.653 107.105C110.9 117.829 111.815 122.302 112.73 126.344C112.98 127.509 113.229 128.643 113.429 129.894C113.529 130.52 113.079 131.093 112.45 131.168C111.829 131.242 111.265 130.803 111.162 130.187C110.965 129.016 110.728 127.927 110.523 126.775C109.251 120.941 107.876 114.43 111.166 91.3726C111.255 90.7523 111.832 90.3096 112.453 90.3983C113.079 90.4879 113.511 91.0721 113.412 91.6974C112.966 94.5085 112.499 97.5101 112.784 100.261C113.107 103.71 114.291 108.345 115.368 112.386C115.783 114.006 116.166 115.498 116.467 116.812C116.61 117.433 116.211 118.045 115.588 118.178Z" fill="#003188"/>
<path fill-rule="evenodd" clip-rule="evenodd" d="M65.7163 118.122C65.0982 117.989 64.7015 117.386 64.8181 116.765C65.2782 114.312 65.8468 110.801 66.2167 107.051C66.4859 104.087 66.9704 99.6145 66.2167 96.7584C65.8235 95.1838 65.1465 93.6092 64.5313 92.0922C64.2975 91.516 64.5868 90.8653 65.1672 90.6419C65.7474 90.4185 66.3995 90.7064 66.633 91.2825C67.2854 92.8918 67.9818 94.5375 68.424 96.2195C71.2772 106.997 71.3849 117.182 70.039 128.284C69.9791 128.793 69.9192 129.303 69.8592 129.795C69.7828 130.421 69.2124 130.864 68.5855 130.789C67.9586 130.715 67.5071 130.15 67.5832 129.523C67.6481 128.989 67.713 128.501 67.778 128.014C68.5316 121.817 69.1777 116.751 68.3163 108.883C67.9557 112.132 67.4818 115.079 67.0844 117.217C66.9665 117.851 66.3468 118.257 65.7163 118.122Z" fill="#003188"/>
<path fill-rule="evenodd" clip-rule="evenodd" d="M57.1184 72.7776C58.3028 70.4604 59.7025 68.6282 62.1251 67.4965C64.3323 66.4726 67.3471 65.6104 70.2003 64.802C73.8611 63.7782 79.9982 62.3231 81.7209 58.497C82.2719 57.2101 82.4313 55.6879 82.3995 53.5961C82.3899 52.9665 81.8621 52.4732 81.2326 52.4878C80.5851 52.5029 80.0803 53.0482 80.0926 53.6958C80.1246 55.3815 80.0089 56.5991 79.5676 57.527C78.3294 60.3831 72.2999 61.7843 69.5543 62.5926C66.6472 63.4009 63.5786 64.317 61.1561 65.4487C58.3566 66.7959 57.0646 68.251 55.5572 70.8915C54.0499 73.4782 53.35 76.0649 53.027 78.5438C52.5963 81.8849 53.027 85.0105 53.4577 87.8127C53.2962 88.9983 53.027 90.3455 52.8117 91.7466C51.7183 97.9486 50.3228 105.965 51.3523 116.82C51.411 117.439 51.9636 117.889 52.583 117.83C53.2127 117.77 53.6714 117.207 53.6133 116.577C52.6388 106.007 53.9812 98.2113 55.0727 92.1239C55.2881 90.8844 55.7726 88.7827 55.7726 87.5972C55.2881 84.9566 54.9112 81.9927 55.2881 78.8132C55.5034 76.8732 56.0417 74.8254 57.1184 72.7776Z" fill="#003188"/>
<path fill-rule="evenodd" clip-rule="evenodd" d="M126.498 116.75C126.426 117.377 126.858 117.955 127.482 118.045C128.105 118.134 128.684 117.701 128.754 117.075C129.21 112.984 129.23 107.628 128.935 102.363C128.558 96.3812 127.804 90.5072 126.781 86.7889C126.727 82.2622 126.566 77.8972 125.382 74.071C123.605 68.3049 120.213 65.7182 114.991 63.8321C113.376 63.2393 111.761 62.7543 110.146 62.2693C107.455 61.461 102.071 60.491 100.941 57.5809C100.587 56.6077 100.379 55.3076 100.375 53.5615C100.373 52.8989 99.8572 52.3413 99.1948 52.3262C98.5504 52.3116 98.0101 52.8169 98.0071 53.4615C97.9974 55.6085 98.2283 57.2022 98.7334 58.4432C100.295 62.431 105.678 63.401 109.446 64.4788C111.062 64.9638 112.623 65.4488 114.184 65.9877C118.652 67.6043 121.613 69.706 123.174 74.7716C124.305 78.3283 124.413 82.5855 124.52 87.0044V87.1661L124.574 87.2739C125.597 90.8845 126.351 96.5967 126.727 102.525C126.972 107.624 126.95 112.812 126.498 116.75Z" fill="#003188"/>
</g>
<path d="M49.4314 73.843C49.2416 73.8925 49.0422 73.8938 48.8517 73.8467C48.6611 73.7994 48.4854 73.7054 48.3405 73.5729L43.3799 69.0443L42.5754 72.2914C42.5246 72.4902 42.4227 72.6723 42.2797 72.8195C42.1368 72.9668 41.9578 73.0741 41.7606 73.1308C41.5633 73.1875 41.3548 73.1916 41.1554 73.1427C40.9562 73.0939 40.773 72.9937 40.6244 72.8521L33.778 66.2544C33.6546 66.1507 33.5539 66.0228 33.482 65.8786C33.41 65.7344 33.3685 65.577 33.3599 65.4161C33.3514 65.2551 33.376 65.0943 33.4322 64.9432C33.4884 64.7922 33.5751 64.6544 33.6868 64.5382C33.7984 64.422 33.9328 64.3301 34.0815 64.268C34.2301 64.2059 34.3901 64.175 34.5512 64.1773C34.7123 64.1795 34.8712 64.2149 35.0182 64.2811C35.165 64.3473 35.2968 64.443 35.4051 64.5623L40.7866 69.7292L41.5746 66.5593C41.6244 66.362 41.7245 66.1812 41.8651 66.0342C42.0058 65.8872 42.1821 65.7793 42.3769 65.7208C42.5716 65.6623 42.7783 65.6552 42.9766 65.7004C43.1749 65.7456 43.3582 65.8415 43.5084 65.9786L49.8918 71.8458C50.121 72.0557 50.2578 72.3479 50.2722 72.6584C50.2868 72.9689 50.1778 73.2725 49.9692 73.5029C49.8246 73.6635 49.6385 73.7811 49.4314 73.843Z" fill="#003188"/>
<path d="M129.777 81.833C129.85 81.651 129.968 81.4902 130.119 81.3653C130.271 81.2404 130.451 81.1554 130.644 81.118L137.237 79.8339L135.109 77.2526C134.979 77.0933 134.894 76.9029 134.861 76.7004C134.828 76.4978 134.848 76.2902 134.92 76.098C134.992 75.9058 135.113 75.7359 135.271 75.605C135.429 75.4741 135.619 75.3868 135.821 75.3518L145.2 73.7866C145.356 73.7494 145.519 73.7447 145.678 73.7729C145.836 73.8011 145.988 73.8616 146.122 73.9506C146.256 74.0397 146.371 74.1553 146.459 74.2905C146.546 74.4256 146.605 74.5773 146.632 74.7363C146.659 74.8951 146.653 75.0578 146.614 75.2142C146.575 75.3706 146.505 75.5174 146.407 75.6455C146.309 75.7735 146.186 75.88 146.045 75.9586C145.904 76.037 145.749 76.0858 145.589 76.1017L138.232 77.3433L140.308 79.8654C140.437 80.023 140.522 80.2111 140.556 80.4116C140.591 80.6122 140.572 80.8181 140.503 81.0094C140.434 81.2006 140.316 81.3707 140.162 81.503C140.007 81.6353 139.821 81.7253 139.622 81.7642L131.106 83.393C130.801 83.4519 130.485 83.3876 130.227 83.2142C129.969 83.0408 129.79 82.7723 129.729 82.4675C129.686 82.2556 129.703 82.0362 129.777 81.833Z" fill="#003188"/>
<path d="M54.9765 63.5689C54.7132 63.6434 54.4321 63.624 54.1817 63.5136C53.9312 63.4034 53.7271 63.2093 53.6044 62.9647L52.0649 59.8881L51.3012 60.9734C51.1814 61.1462 51.0176 61.2837 50.8267 61.3718C50.6358 61.4597 50.4248 61.495 50.2157 61.4738C50.0108 61.4564 49.814 61.3856 49.645 61.2684C49.476 61.1512 49.3406 60.9918 49.2525 60.806L46.7812 55.4493C46.7114 55.3091 46.6704 55.1563 46.6605 55C46.6506 54.8437 46.6719 54.6869 46.7233 54.539C46.7748 54.391 46.8553 54.2549 46.96 54.1385C47.0649 54.022 47.1918 53.9277 47.3335 53.861C47.4752 53.7943 47.6288 53.7565 47.7853 53.75C47.9418 53.7434 48.0981 53.7682 48.2449 53.8229C48.3917 53.8775 48.5261 53.9608 48.6401 54.0681C48.7543 54.1754 48.8459 54.3044 48.9095 54.4476L50.5612 57.9569L51.2882 56.9175C51.4051 56.7512 51.563 56.6179 51.7467 56.5308C51.9303 56.4437 52.1334 56.4057 52.3361 56.4204C52.5389 56.4352 52.7343 56.5021 52.9034 56.6149C53.0725 56.7277 53.2095 56.8823 53.3011 57.0638L55.735 61.9015C55.8148 62.0603 55.8575 62.2351 55.8601 62.4128C55.8626 62.5904 55.8249 62.7665 55.7497 62.9275C55.6746 63.0884 55.5639 63.2304 55.426 63.3425C55.2881 63.4546 55.1266 63.534 54.9537 63.5748L54.9765 63.5689Z" fill="#003188"/>
<path d="M134.721 92.4088C134.818 92.1529 135.001 91.9388 135.239 91.8035C135.477 91.6681 135.754 91.6199 136.024 91.6671L139.412 92.2647L138.996 91.0046C138.928 90.8055 138.915 90.5919 138.959 90.3862C139.002 90.1804 139.099 89.99 139.241 89.8347C139.377 89.6806 139.551 89.5648 139.746 89.4989C139.941 89.433 140.149 89.4194 140.351 89.4593L146.125 90.6676C146.28 90.6952 146.427 90.7533 146.558 90.8385C146.69 90.9237 146.803 91.0343 146.891 91.1637C146.979 91.2932 147.04 91.439 147.071 91.5925C147.102 91.7461 147.102 91.9042 147.072 92.0578C147.041 92.2113 146.979 92.3572 146.891 92.4867C146.803 92.6163 146.69 92.727 146.559 92.8123C146.428 92.8976 146.281 92.9559 146.126 92.9835C145.972 93.0112 145.814 93.0079 145.661 92.9736L141.859 92.2083L142.26 93.4115C142.324 93.6045 142.337 93.8108 142.297 94.0101C142.258 94.2095 142.167 94.3952 142.035 94.5493C141.902 94.7033 141.732 94.8203 141.54 94.8889C141.349 94.9574 141.143 94.9753 140.943 94.9407L135.608 94.0116C135.433 93.9811 135.267 93.9112 135.123 93.8074C134.979 93.7035 134.86 93.5683 134.775 93.412C134.691 93.2557 134.643 93.0822 134.635 92.9046C134.627 92.7271 134.66 92.5501 134.73 92.387L134.721 92.4088Z" fill="#003188"/>
<defs>
<clipPath id="clip0">
<rect x="50.9814" y="52.2998" width="78.1143" height="79.0554" fill="white"/>
</clipPath>
</defs>
</svg>
