<svg xmlns="http://www.w3.org/2000/svg" width="200" height="200" viewBox="0 0 200 200" fill="none"> <circle cx="100" cy="100" r="100" fill="#F2F7FF"></circle> <g clip-path="url(#clip0)"> <path d="M105 140C104.71 140.007 104.427 139.912 104.199 139.733C103.971 139.554 103.812 139.302 103.75 139.019C102.821 135.038 101.502 131.159 99.8123 127.437C97.256 128.062 92.0435 128.112 91.3373 127.869C89.3748 127.194 86.5685 125.237 86.906 122.594L87.0498 121.481C87.2248 120.169 87.4435 118.531 87.3185 118.125C87.1802 117.769 86.9998 117.431 86.781 117.119C86.5715 116.877 86.4167 116.592 86.3271 116.285C86.2376 115.977 86.2155 115.654 86.2623 115.337C86.3678 114.99 86.5351 114.664 86.756 114.375C85.706 113.65 84.1248 112.5 84.956 111.025C85.2008 110.442 85.3506 109.824 85.3998 109.194C85.0435 109.05 84.506 108.875 84.1498 108.756C83.3991 108.574 82.6848 108.265 82.0373 107.844C81.4444 107.254 81.0499 106.494 80.9088 105.669C80.7677 104.845 80.8868 103.997 81.2498 103.244L81.4873 102.831C84.6748 97.1436 85.3185 95.6124 85.4373 95.1999C85.2168 94.7132 84.9216 94.2641 84.5623 93.8686C84.3998 93.6624 84.2498 93.4686 84.1248 93.2936C83.1185 91.8874 83.681 79.5436 83.6873 79.4124C83.806 77.1936 85.6123 73.9686 89.0435 69.8186C96.206 61.1249 105.062 59.7061 111.25 60.0436C118.987 60.4749 125.625 63.7499 129.275 66.6311C137.25 72.9936 139.375 83.4561 138.75 91.1186C138.462 94.5499 136.031 100.737 133.881 106.2C132.487 109.756 131.037 113.431 130.987 114.475C130.887 116.587 131.319 120.25 132.387 121.625C132.906 122.294 134.431 123.156 135.775 123.919C137.969 125.169 139.694 126.137 139.975 127.525C140.049 127.848 139.993 128.188 139.817 128.469C139.641 128.75 139.361 128.95 139.037 129.025C138.714 129.099 138.374 129.043 138.093 128.867C137.812 128.691 137.612 128.411 137.537 128.087C137.25 127.625 135.562 126.669 134.544 126.094C132.844 125.131 131.237 124.219 130.412 123.156C128.6 120.831 128.412 116.012 128.494 114.356C128.556 112.969 129.644 110.15 131.556 105.281C133.537 100.244 136 93.9749 136.262 90.9061C136.469 88.4811 137.012 76.0061 127.719 68.5874C121.25 63.3999 102.937 56.9124 90.9373 71.4124C87.9873 74.9999 86.2498 77.9499 86.1498 79.5561C85.981 82.6249 85.9185 90.5811 86.2185 91.9624C86.2998 92.0749 86.3935 92.1874 86.4873 92.3061C87.1123 93.1061 87.9123 94.0936 87.9123 95.2561C87.9123 95.8811 87.5873 97.0124 83.6373 104.05L83.406 104.462C83.3379 104.704 83.3233 104.958 83.3632 105.207C83.4031 105.455 83.4967 105.691 83.6373 105.9C84.0459 106.071 84.4631 106.222 84.8873 106.35C86.4935 106.875 87.656 107.25 87.8373 108.362C87.9159 109.497 87.7475 110.636 87.3435 111.7C87.6123 111.925 88.0373 112.219 88.2685 112.381C88.6111 112.6 88.9332 112.849 89.231 113.125C89.3904 113.275 89.5171 113.456 89.6031 113.657C89.6892 113.858 89.7327 114.075 89.731 114.294C89.7138 114.549 89.6418 114.798 89.52 115.024C89.3981 115.249 89.2292 115.445 89.0248 115.6L88.8748 115.744L88.9123 115.812C89.2402 116.295 89.5088 116.815 89.7123 117.362C90.0185 118.281 89.831 119.7 89.5498 121.844L89.406 122.937C89.2873 123.869 90.7685 125.056 92.1685 125.537C94.6368 125.616 97.1065 125.436 99.5373 125C99.7007 124.891 99.8861 124.818 100.08 124.788C100.275 124.758 100.473 124.77 100.662 124.825C101.2 124.981 101.812 125.162 103.669 130.15C104.698 132.879 105.547 135.672 106.212 138.512C106.283 138.836 106.223 139.174 106.045 139.452C105.867 139.731 105.585 139.928 105.262 140C105.175 140.008 105.087 140.008 105 140V140ZM101.106 126.875C100.972 126.995 100.817 127.09 100.65 127.156C100.822 127.099 100.978 127.003 101.106 126.875V126.875Z" fill="#003188"></path> <path d="M71.25 69.375H66.25C65.9185 69.375 65.6005 69.5067 65.3661 69.7411C65.1317 69.9755 65 70.2935 65 70.625V86.875C65 87.2065 65.1317 87.5245 65.3661 87.7589C65.6005 87.9933 65.9185 88.125 66.25 88.125H71.25C71.5815 88.125 71.8995 87.9933 72.1339 87.7589C72.3683 87.5245 72.5 87.2065 72.5 86.875V70.625C72.5 70.2935 72.3683 69.9755 72.1339 69.7411C71.8995 69.5067 71.5815 69.375 71.25 69.375ZM67.5 85.625V71.875H70V85.625H67.5Z" fill="#003188"></path> <path d="M68.75 60C66.4294 60 64.2038 60.9219 62.5628 62.5628C60.9219 64.2038 60 66.4294 60 68.75V107.5C60 109.213 60.85 112.419 62.5 117.031C63.3228 119.265 63.7459 121.626 63.75 124.006V135C63.75 136.326 64.2768 137.598 65.2145 138.536C66.1521 139.473 67.4239 140 68.75 140C70.0761 140 71.3479 139.473 72.2855 138.536C73.2232 137.598 73.75 136.326 73.75 135V124.006C73.7571 121.626 74.1801 119.266 75 117.031C76.65 112.419 77.5 109.213 77.5 107.5V68.75C77.5 66.4294 76.5781 64.2038 74.9372 62.5628C73.2962 60.9219 71.0706 60 68.75 60V60ZM68.75 137.5C68.087 137.5 67.4511 137.237 66.9822 136.768C66.5134 136.299 66.25 135.663 66.25 135V130.625H71.25V135C71.25 135.663 70.9866 136.299 70.5178 136.768C70.0489 137.237 69.413 137.5 68.75 137.5ZM75 107.5C75 108.863 74.1313 112.025 72.625 116.175C71.7111 118.685 71.2457 121.335 71.25 124.006V128.125H66.25V124.006C66.2543 121.335 65.7889 118.685 64.875 116.175C63.3688 112.025 62.5 108.863 62.5 107.5V68.75C62.5 67.0924 63.1585 65.5027 64.3306 64.3306C65.5027 63.1585 67.0924 62.5 68.75 62.5C70.4076 62.5 71.9973 63.1585 73.1694 64.3306C74.3415 65.5027 75 67.0924 75 68.75V107.5Z" fill="#003188"></path> <path d="M100.625 94.375C100.294 94.375 99.9757 94.2433 99.7413 94.0089C99.5069 93.7745 99.3752 93.4565 99.3752 93.125C99.3446 91.6694 99.6415 90.2255 100.244 88.9C100.72 87.8754 100.951 86.7542 100.919 85.625C100.951 84.4958 100.72 83.3747 100.244 82.35C99.6419 81.0244 99.3451 79.5806 99.3752 78.125C99.3446 76.6694 99.6415 75.2255 100.244 73.9C100.719 72.875 100.95 71.7541 100.919 70.625C100.919 70.2935 101.051 69.9755 101.285 69.7411C101.519 69.5067 101.837 69.375 102.169 69.375C102.5 69.375 102.818 69.5067 103.053 69.7411C103.287 69.9755 103.419 70.2935 103.419 70.625C103.451 72.0808 103.154 73.525 102.55 74.85C102.076 75.8752 101.845 76.9959 101.875 78.125C101.844 79.2542 102.075 80.3753 102.55 81.4C103.152 82.7256 103.449 84.1694 103.419 85.625C103.45 87.0787 103.154 88.5208 102.55 89.8438C102.075 90.8708 101.844 91.9938 101.875 93.125C101.875 93.4565 101.743 93.7745 101.509 94.0089C101.275 94.2433 100.957 94.375 100.625 94.375Z" fill="#003188"></path> <path d="M108.6 94.375C108.269 94.375 107.951 94.2433 107.716 94.0089C107.482 93.7745 107.35 93.4565 107.35 93.125C107.32 91.6694 107.617 90.2255 108.219 88.9C108.697 87.8761 108.931 86.7548 108.9 85.625C108.93 84.4953 108.697 83.3741 108.219 82.35C107.617 81.0244 107.32 79.5806 107.35 78.125C107.32 76.6694 107.617 75.2255 108.219 73.9C108.696 72.8757 108.93 71.7547 108.9 70.625C108.9 70.2935 109.032 69.9755 109.266 69.7411C109.501 69.5067 109.819 69.375 110.15 69.375C110.482 69.375 110.8 69.5067 111.034 69.7411C111.269 69.9755 111.4 70.2935 111.4 70.625C111.432 72.0808 111.135 73.525 110.532 74.85C110.055 75.8745 109.822 76.9954 109.85 78.125C109.82 79.2547 110.054 80.3759 110.532 81.4C111.134 82.7256 111.43 84.1694 111.4 85.625C111.432 87.0787 111.135 88.5208 110.532 89.8438C110.054 90.8702 109.821 91.9933 109.85 93.125C109.85 93.4565 109.719 93.7745 109.484 94.0089C109.25 94.2433 108.932 94.375 108.6 94.375Z" fill="#003188"></path> <path d="M116.581 94.375C116.25 94.375 115.932 94.2433 115.697 94.0089C115.463 93.7745 115.331 93.4565 115.331 93.125C115.301 91.6694 115.598 90.2255 116.2 88.9C116.676 87.8754 116.907 86.7542 116.875 85.625C116.907 84.4958 116.676 83.3747 116.2 82.35C115.598 81.0244 115.301 79.5806 115.331 78.125C115.301 76.6694 115.598 75.2255 116.2 73.9C116.675 72.875 116.906 71.7541 116.875 70.625C116.875 70.2935 117.007 69.9755 117.241 69.7411C117.476 69.5067 117.793 69.375 118.125 69.375C118.457 69.375 118.774 69.5067 119.009 69.7411C119.243 69.9755 119.375 70.2935 119.375 70.625C119.407 72.0808 119.11 73.525 118.506 74.85C118.032 75.8752 117.801 76.9959 117.831 78.125C117.8 79.2542 118.031 80.3753 118.506 81.4C119.108 82.7256 119.405 84.1694 119.375 85.625C119.407 87.0787 119.11 88.5208 118.506 89.8438C118.031 90.8708 117.8 91.9938 117.831 93.125C117.831 93.4565 117.7 93.7745 117.465 94.0089C117.231 94.2433 116.913 94.375 116.581 94.375Z" fill="#003188"></path> </g> <defs> <clipPath id="clip0"> <rect x="60" y="60" width="80" height="80" fill="white"></rect> </clipPath> </defs> </svg>
