<svg xmlns="http://www.w3.org/2000/svg" width="260" height="100" viewBox="0 0 260 100" fill="none"> <g clip-path="url(#clip0)"> <path d="M64.2933 30.9848C65.5947 32.5357 67.8705 33.4494 69.2023 35.0037C68.2481 30.4082 64.7013 26.6557 60.5071 25.7589C62.5536 27.2997 62.9953 29.4406 64.2933 30.9848ZM13.882 42.6335C16.7714 36.3455 21.0836 37.6773 22.9076 31.6861C21.8962 33.5235 17.176 34.299 14.9811 39.009C16.0971 36.2107 15.5374 31.9288 17.4255 29.6193C11.7815 33.7832 14.1854 40.5195 13.882 42.6335ZM19.1146 57.7144C19.6338 60.1621 18.1032 63.6955 20.5307 67.0738C18.0223 64.2619 12.7087 63.5471 10.5442 59.272C13.2414 69.7238 20.3216 67.566 23.4875 69.8351C20.8712 66.0758 23.0121 63.5775 19.1146 57.7144ZM18.3021 64.272C16.7546 58.4359 19.5125 56.413 17.4053 50.8162C17.1861 53.972 15.0823 55.5094 16.5017 61.268C13.9966 56.3927 10.1227 54.5721 9 51.2208C9.07755 60.3846 16.441 61.7434 18.3021 64.272ZM29.6102 74.0495C27.4423 71.0488 28.9359 69.3529 22.8334 63.9045C24.1214 65.8937 22.793 68.3954 26.8995 72.2862C22.8806 69.9261 17.3378 70.9376 14.6642 67.7649C19.2562 76.5546 27.3243 72.9672 29.6102 74.0596V74.0495ZM59.0843 72.2862C63.1908 68.3954 61.8624 65.8803 63.1504 63.9045C57.0614 69.3529 58.5415 71.0488 56.3736 74.0495C58.6595 72.9571 66.7276 76.5444 71.3162 67.7649C68.646 70.9409 63.1032 69.9261 59.0843 72.2963V72.2862ZM65.4531 67.0637C67.8705 63.6921 66.35 60.152 66.8692 57.7043C62.9717 63.5674 65.1126 66.0657 62.4862 69.8418C65.6689 67.5728 72.7222 69.7238 75.4295 59.2788C73.2684 63.5471 67.9616 64.2619 65.4531 67.0738V67.0637ZM55.7229 74.4642C53.5481 73.8788 51.3145 73.5395 49.0641 73.4527C46.9936 73.4031 44.933 73.7534 42.9953 74.4844C41.0575 73.7536 38.9969 73.4033 36.9265 73.4527C34.676 73.5395 32.4424 73.8788 30.2677 74.4642C26.6028 75.4386 23.4369 76.1938 20.6757 74.8014C23.3223 77.1614 26.4073 77.9875 30.8678 77.4986C34.5765 77.1007 37.5806 75.243 41.0802 75.27H41.2185C39.0179 76.3715 37.0564 77.8965 35.4464 79.7575L37.1322 79.9834C37.1322 79.9834 38.909 76.413 42.9953 75.4824C47.0816 76.413 48.8584 79.9834 48.8584 79.9834L50.5442 79.7575C48.9309 77.906 46.9698 76.3894 44.7721 75.2936H44.9103C48.41 75.2666 51.4073 77.1244 55.1193 77.5222C59.5799 78.0043 62.6682 77.1648 65.3149 74.825C62.5536 76.2039 59.3877 75.4487 55.7229 74.4743V74.4642ZM17.6548 44.4878C16.1443 47.3873 13.7977 48.0515 14.0573 54.0529C12.7829 48.7191 9.75523 46.7434 9.79231 43.3415C7.68847 52.2086 13.3122 53.2606 14.7552 56.976C14.5428 51.6523 17.9413 50.5768 17.6548 44.4878ZM19.7653 37.6436C19.2394 38.3786 18.8719 38.6921 17.4693 39.8486C15.3631 41.5184 13.9156 43.8796 13.383 46.5141C13.528 43.2639 11.5185 38.5943 12.8537 35.1891C7.6851 42.4885 13.1504 46.8614 13.3425 49.5047C14.6844 44.417 17.766 44.3765 19.7653 37.6436ZM72.5974 46.5141C72.0643 43.8806 70.6183 41.52 68.5145 39.8486C67.1119 38.6921 66.7444 38.3786 66.2185 37.6436C68.2178 44.3867 71.2994 44.417 72.6244 49.5047C72.8166 46.8614 78.2818 42.4885 73.1099 35.1891C74.4585 38.5943 72.4525 43.2639 72.5974 46.5141ZM76.9804 51.2343C75.8577 54.5856 71.9838 56.4062 69.4788 61.295C70.8982 55.5229 68.8044 53.9854 68.5752 50.8432C66.468 56.4467 69.2495 58.4595 67.6783 64.299C69.5428 61.7434 76.9063 60.3846 76.9838 51.2208L76.9804 51.2343ZM68.3392 44.4878C68.0526 50.5768 71.4545 51.6523 71.2387 56.9625C72.6851 53.2538 78.3189 52.1952 76.2016 43.328C76.2421 46.7299 73.2144 48.7225 71.9501 54.0225C72.1861 48.0515 69.8395 47.3873 68.3392 44.4878ZM21.6972 31.0016C23.002 29.4507 23.4437 27.3165 25.4868 25.7757C21.2926 26.6726 17.7323 30.4251 16.7916 35.0205C18.1032 33.4494 20.3823 32.5357 21.6837 30.9848L21.6972 31.0016ZM63.0897 31.7029C64.9137 37.6941 69.2259 36.3624 72.1119 42.6503C71.8119 40.5364 74.2158 33.8 68.5718 29.6362C70.4599 31.949 69.9002 36.2275 71.0162 39.0259C68.8146 34.299 64.1045 33.5235 63.0762 31.6861L63.0897 31.7029ZM48.4471 35.0879C47.3412 34.6343 46.1822 34.3227 44.998 34.1608C44.998 34.4136 44.998 34.6732 44.998 34.9295C46.0859 35.0891 47.1502 35.3813 48.1672 35.7993C48.3049 35.5821 48.3998 35.3407 48.4471 35.0879V35.0879ZM47.5738 27.6705L47.8031 27.4649L47.3648 27.2794L46.2117 27.2558L45.9117 27.4649L45.2374 27.4076V27.5728C45.6348 27.5942 46.0309 27.6358 46.4241 27.6975L46.9872 27.6469L47.5738 27.6705ZM45.3385 52.5357C45.3385 52.3401 45.0789 52.148 44.6945 51.9659H44.6237C44.6237 52.1244 44.6237 52.9066 44.6001 53.2875C45.0755 53.0751 45.3385 52.8459 45.3385 52.5357ZM31.9804 37.8695C32.0047 37.7272 32.0374 37.5865 32.0782 37.448C31.9234 37.4829 31.7649 37.4987 31.6062 37.4952L31.9804 37.8695ZM43.0155 71.7872C49.0308 71.7655 54.8092 69.4398 59.1624 65.2884C63.5157 61.137 66.1128 55.4754 66.4198 49.4678C66.7268 43.4603 64.7203 37.5635 60.813 32.9899C56.9057 28.4163 51.3945 25.5137 45.4127 24.8789C45.4127 24.9227 45.4127 24.9699 45.3857 25.0138C45.3385 25.243 45.2947 25.4487 45.261 25.6308C50.4249 26.1382 55.2594 28.399 58.9595 32.0367L56.3634 34.6328L56.4612 34.1743L56.1241 34.0259L55.6588 33.9989L55.7566 33.6989L55.443 32.6368L54.7957 31.9254L52.7728 30.8567L52.5974 31.0421L52.2299 31.15C52.9219 32.1538 53.2955 33.3428 53.3021 34.562C53.3021 34.7171 53.3021 34.8688 53.3021 35.0205L54.3135 36.2848L53.8415 36.3927L54.1551 36.8647L53.2684 37.7515L52.911 37.0772C52.7416 37.5449 52.5151 37.9899 52.2367 38.4022L52.4356 38.5842L49.7013 41.3186C49.5361 41.1601 49.3641 41.0084 49.1888 40.8634C48.9258 40.9848 48.6595 41.096 48.3864 41.2006L48.619 41.3826L48.4808 41.5208L48.1436 41.6995L48.0256 42.0367L47.8267 41.8378L47.2502 42.0299L47.4086 42.2828L47.8065 42.1783L48.0661 42.1985L48.0863 42.0569L48.2852 41.9558L48.3459 41.8378L48.7033 41.7366H48.9831C49.0371 41.7838 49.0944 41.8344 49.145 41.885L48.0458 42.9268L47.9649 42.8121L46.8321 42.9976L46.5792 43.2504L46.3331 43.2808L47.0344 42.6065L46.7849 42.4817L46.1274 43.3583L46.3196 43.3381V43.6753L46.559 43.7697L46.6062 44.1068L46.2117 44.0293L45.8004 44.1034L44.7889 43.5943C44.7889 43.5943 44.735 46.2646 44.708 47.6065C47.0681 48.3954 49.5462 49.535 49.5462 52.5289C49.5553 53.1556 49.4054 53.7743 49.1106 54.3273C48.8158 54.8804 48.3857 55.3497 47.8604 55.6914L47.8098 55.7252L47.7357 55.7757C46.7849 56.4028 45.5644 56.74 44.5057 57.0704L44.4754 59.1675C46.1612 60.0036 48.2009 61.2208 48.0121 64.7036C47.9885 65.56 47.6547 65.796 47.3682 65.8735C46.3723 66.1202 45.3571 66.2815 44.3338 66.3556C44.3338 66.6254 44.3338 66.8816 44.3338 67.121C48.7282 66.8204 52.8779 64.9878 56.06 61.9423L58.791 64.6732C54.5694 68.7415 48.9383 71.0199 43.0756 71.0318C37.2128 71.0438 31.5725 68.7883 27.3345 64.7373L30.0654 62.0063C33.2152 64.9906 37.2992 66.795 41.6264 67.1142C41.6264 66.8782 41.6264 66.622 41.6264 66.3489C37.4989 66.0344 33.6045 64.3122 30.5947 61.4703L31.323 60.7386L32.3345 60.8533L32.8672 60.2801L34.263 60.3273L34.4686 59.8452L34.4181 59.6395C36.4823 61.222 38.9424 62.2053 41.5287 62.4817C41.5287 62.185 41.5287 61.9254 41.5287 61.713C38.6651 61.3919 35.9801 60.1605 33.8685 58.1999L36.6028 55.4656C37.2694 56.0606 38.0148 56.5609 38.8179 56.9524C38.8738 56.7006 38.9669 56.4585 39.0944 56.2343C38.3882 55.886 37.7317 55.4449 37.1423 54.9227L39.8833 52.185C40.3221 52.536 40.8167 52.8107 41.3466 52.9976C41.3466 52.7279 41.3466 52.4413 41.3466 52.1749C41.0242 52.0347 40.7206 51.8546 40.443 51.6388L41.2151 50.8668C40.9454 50.7859 40.6689 50.6982 40.3992 50.6038L39.88 51.123C39.6172 50.8306 39.397 50.5026 39.2259 50.1486C38.7573 49.9456 38.3062 49.7043 37.8773 49.4271C37.0795 48.9465 36.4227 48.2638 35.9734 47.448C35.5241 46.6322 35.2981 45.7123 35.3183 44.7811C35.2722 43.5095 35.6624 42.2603 36.4241 41.241L33.6999 38.5168C35.7039 36.5973 38.2522 35.3443 40.9959 34.9295C40.9959 34.6665 40.9959 34.4069 40.9791 34.1608C38.0374 34.5868 35.3031 35.9239 33.1605 37.9841L32.6986 37.5323C32.5941 37.7177 32.4727 37.9504 32.3311 38.2437L32.621 38.537C30.194 41.1131 28.8161 44.5026 28.7572 48.0414H24.8901C24.952 43.4704 26.7434 39.0925 29.9036 35.7892L31.1308 37.0198C31.1892 37.0231 31.2477 37.0231 31.3061 37.0198C31.5498 36.9991 31.787 36.9303 32.004 36.8175L30.443 35.2565C31.2727 34.4565 32.1757 33.7363 33.1403 33.1055C33.1931 32.9131 33.2573 32.7239 33.3324 32.5391C33.5146 32.2644 33.7115 31.9999 33.9224 31.7467C32.4575 32.5523 31.1061 33.5489 29.9036 34.7103L27.1726 31.9794C30.8335 28.3995 35.5991 26.1653 40.6925 25.6409C40.6723 25.5465 40.6588 25.4723 40.6588 25.4723C40.6251 25.2936 40.5846 25.0947 40.5475 24.8856C34.5602 25.5213 29.0446 28.4287 25.1365 33.0089C21.2284 37.5892 19.2254 43.4937 19.54 49.5064C19.8545 55.5192 22.4627 61.1824 26.8274 65.3299C31.1921 69.4773 36.981 71.7932 43.002 71.8007L43.0155 71.7872ZM48.1099 55.5532V55.533V55.5532ZM59.499 32.5863C63.4829 36.7517 65.7312 42.2778 65.7869 48.0414H61.9063C61.8718 45.1718 61.1798 42.3482 59.8833 39.7879L59.9171 39.7204L60.1834 39.862L60.2475 39.6564L59.5732 38.446L58.7539 37.3132L57.7829 36.5208C57.4457 36.1095 57.1086 35.7117 56.7478 35.3273L59.499 32.5863ZM54.5597 37.5323L55.4868 37.5728L55.7094 37.8391L55.5981 38.2336L56.8759 39.0428L57.1288 39.0124L58.7808 40.9005L59.4551 40.6645C60.5333 42.9763 61.1079 45.4908 61.1409 48.0414H57.2771C57.2605 47.0515 57.1396 46.066 56.9164 45.1014L57.0951 44.862L57.3344 43.6517L57.1524 42.3502L56.6871 40.8533L55.6082 39.2754L55.8712 39.4136L56.0027 39.2821L55.1362 38.6955L55.0789 38.8877L55.9454 40.125L56.4342 41.1365L56.7714 42.148L56.8827 42.8223L57.0614 43.9618L56.7242 43.9854C56.7242 43.9854 56.35 43.2875 56.2353 43.001L56.4073 42.7413L56.0701 42.2693V41.7973L55.8341 41.5006L55.5408 41.5377C55.4363 41.3422 55.325 41.15 55.2036 40.9612L55.4127 41.0691L55.4666 41.0117L55.3554 40.769L55.6082 40.6274L55.4936 40.4858L55.1193 40.6274L55.2576 40.0407L55.0351 39.9126L54.8361 40.3813C54.4154 39.7494 53.9453 39.1519 53.4302 38.5943L54.5597 37.5323ZM53.7842 46.5916L54.4788 46.214L55.1868 46.1061L55.3419 45.769L55.7363 45.533L55.8881 45.1958L56.0094 44.626C56.0667 44.825 56.1173 45.0306 56.1645 45.2363L55.7903 46.3523V46.7299L56.3331 46.005C56.4496 46.6733 56.5139 47.3496 56.5253 48.0279H53.1537L53.0762 47.7346L53.4707 47.421L53.5482 47.2322L53.7202 47.1041L54.1787 47.0569L54.2259 46.8546L53.7842 46.5916ZM49.145 43.9382L49.4821 43.8573V43.7764L49.145 43.5438L49.263 42.8155L49.6777 42.4042C49.9376 42.698 50.1775 43.0088 50.3958 43.3347L50.2508 43.7832L49.8732 43.5134L49.5866 43.591L49.7282 43.8573H49.8699L49.7114 44.2518L49.6035 44.0967L49.145 43.9382ZM50.6251 56.7737L49.7889 56.5377L49.5394 56.6287L49.0674 56.268L48.6224 56.1095C48.8415 55.9511 49.0539 55.7724 49.2596 55.6105L49.9339 56.096L50.4599 56.3725L50.7195 56.6321L50.6251 56.7737ZM50.2003 41.8647L52.9346 39.1304C53.5738 39.8274 54.1388 40.5889 54.6204 41.4028L54.2832 41.4972L54.3001 42.1075L55.3115 42.7548C55.5649 43.3146 55.779 43.8915 55.9521 44.4811L55.7734 44.744L55.4026 44.98L55.3115 45.5465L55.0587 45.6881L54.8462 45.9376L54.6338 45.86H54.2562L54.4754 45.5633L54.6338 44.7912L54.8833 44.6362L54.1787 43.9113L53.6291 44.1001L53.5044 44.6126L53.1672 44.9868L52.8065 44.6901L52.6783 44.3732L52.884 44.2451L52.9986 44.4541L53.1672 44.39L53.093 44.0529H52.8537L52.8368 44.1945L52.6783 44.2248L51.8186 43.2167L51.5287 42.9976L51.6399 42.8762L51.8962 42.7885L51.6601 42.6941C51.6601 42.6941 51.3601 42.7616 51.323 42.7616L51.4949 42.9774H51.0634C50.8041 42.5853 50.5155 42.2134 50.2003 41.8647ZM51.5927 56.413L51.2218 56.0421L51.505 55.6746L51.8624 54.9463L51.7242 54.744L51.9602 54.2046L51.9332 53.7191L51.7916 53.2167L51.4545 53.0987L51.3297 53.3819L51.1274 53.328C51.4385 52.882 51.7093 52.4093 51.9366 51.9153L52.2738 51.767L52.4693 51.504L52.5637 51.6119L52.7997 51.3287L52.6109 51.0927L52.7829 51.0455L53.0998 51.1736H53.6966L54.0573 50.9848L55.0013 50.7353L54.8227 50.4217L54.762 50.0407L55.2677 50.2633L55.4565 50.152L55.3621 49.7609L54.7518 50.007L54.0775 49.8654L53.5583 48.8034H56.5152C56.388 52.0921 55.0602 55.2203 52.7829 57.5964L52.3783 57.1884L52.5536 56.6456L52.2367 55.4487L51.5927 56.413ZM52.1153 63.9551L52.4794 63.1729L52.3378 62.8357L52.8739 62.3637V62.0805L52.4154 61.7939L52.793 61.0421L53.3594 60.3003L52.793 59.6901H52.3682L52.1052 59.2619C52.3311 59.0731 52.557 58.8809 52.7795 58.6786L55.5138 61.413C54.4834 62.3902 53.3429 63.2445 52.1153 63.9585V63.9551ZM55.5273 60.3475L55.8307 60.0104L55.5442 58.5134L55.3486 58.4359L55.47 58.183L54.8227 57.9807L54.6979 58.5134L54.6338 59.1877L54.499 59.3125L53.3189 58.1324C55.7394 55.6145 57.1484 52.2937 57.2771 48.8034H61.1443C61.0165 53.3199 59.2 57.6243 56.0533 60.8668L55.5273 60.3475ZM56.5927 61.4096C59.8824 58.0238 61.7801 53.5257 61.9096 48.8068H65.7734C65.6439 54.5509 63.3401 60.0321 59.327 64.1439L56.5927 61.4096ZM33.3291 57.6638C33.0492 57.3738 32.7829 57.0738 32.5266 56.7602L32.6446 55.7825L32.2367 54.8452L32.1355 53.3786L31.677 52.4885L31.7714 51.9355L31.2185 50.8735L30.7363 50.6308L30.9319 50.0677L30.733 49.6227L30.9319 49.1136H31.4612L31.6467 48.8068H32.5502L32.6885 49.0731L32.5199 50.007L32.412 50.1655L32.7492 50.9039L32.5266 51.0286L32.3715 50.8297L32.3041 50.9039L32.4592 51.3422L32.7256 51.8546H32.8503L32.938 51.3556L32.8098 51.1871V50.8769L32.7694 50.2363L32.938 49.1102L32.7559 48.8068H33.4032C33.5283 51.1013 34.4722 53.2749 36.0634 54.9328L33.3291 57.6638ZM30.7667 50.1082L30.4026 50.6813H29.7755L29.7249 50.6442C29.6185 50.0368 29.5532 49.4229 29.5293 48.8068H30.6925L30.4127 49.7373L30.7667 50.1082ZM32.0378 47.4548L32.1086 46.6861L32.5671 46.4197L33.3864 46.5647L33.5111 46.713C33.4371 47.1522 33.3954 47.5962 33.3864 48.0414H32.4592L32.0378 47.4548ZM35.9723 50.3442L36.1645 50.2464L36.6467 50.6274L36.4275 50.8061L36.9973 51.1837L36.9838 50.7791L37.2873 50.2767L37.6042 50.6139L37.9413 51.0792L37.321 51.2073L37.5873 51.74L37.9953 51.5242L37.9548 51.3556L38.2583 51.15L38.4369 50.3071C38.658 50.8015 38.9574 51.2569 39.3237 51.6557L36.5927 54.3867C35.2535 52.985 34.4124 51.1819 34.1989 49.2552L34.7586 49.8519H35.2846L35.9723 50.3442ZM33.1605 39.063L35.8914 41.7973C35.3192 42.4267 34.8318 43.1284 34.4417 43.8843H34.2529L33.8685 44.0023H33.7336L33.3257 44.3833L33.8415 44.2754L34.3068 44.1574L34.2259 44.3361L33.8179 44.589H33.6123L33.0121 45.0441L32.4322 44.9969L31.5927 46.5613L31.7579 46.8749L31.3028 47.3806L31.232 48.0549H29.5192C29.573 44.7092 30.8712 41.5034 33.1605 39.063ZM29.6305 59.68L30.497 60.1891L30.6757 60.3105L30.0485 60.9376C29.7563 60.6341 29.4731 60.3206 29.1989 59.9969L29.6305 59.68ZM28.764 48.8068C28.764 49.181 28.8112 49.5552 28.8516 49.9227L28.3796 50.0306L28.2819 50.5094L27.2974 51.7636L27.321 53.4865L26.3095 53.8236H25.7566C25.233 52.1994 24.9424 50.5092 24.8935 48.8034L28.764 48.8068ZM24.9474 53.8034L24.7215 53.7595L24.5091 53.5202L23.4235 53.4258L23.7606 53.8809L22.7492 53.6921L23.0121 53.4494L22.766 53.2066L22.0411 53.5235L21.7815 54.0023L21.8827 55.1048L22.7188 57.0873L23.12 57.7144L23.3493 57.7987L22.7188 56.6018L22.5806 55.9915L22.7222 55.8432L22.6345 55.506L23.0155 55.5566L23.5988 56.4399L23.7438 56.4972V55.8533L23.9798 55.9915L24.0303 56.3287L24.644 56.4905L24.9002 56.3084L24.9879 56.3691V56.8378L25.2576 57.1749L25.5947 57.2491L26.3095 58.4595L26.7444 58.5809L26.8793 58.0144C27.6325 59.259 28.5262 60.4129 29.5428 61.4534L26.8119 64.1844C22.7528 60.0779 20.4114 54.5788 20.2643 48.8068H24.1315C24.1772 50.5014 24.4517 52.1822 24.9474 53.8034V53.8034ZM26.6332 32.5188L29.3641 35.2498C26.0609 38.6964 24.1884 43.2679 24.1247 48.0414H20.261C20.3183 42.2453 22.5924 36.691 26.6163 32.5188H26.6332ZM54.617 31.1095L54.3843 30.7319L53.8786 30.479L53.4841 30.7791L53.9899 31.0488L54.5327 31.4635L54.617 31.1095ZM52.2535 42.0165V42.3165L52.9278 42.1142L53.1335 41.7063L52.6716 41.0994L52.9177 40.7285L53.5415 41.1736L53.6561 41.0825L53.5313 40.9949L53.3897 40.7252L53.646 40.5768L53.3965 40.2397L52.8098 40.5364L52.6143 40.9039L52.4963 41.2242L52.7559 41.6591L52.6615 41.8614L52.2535 42.0165ZM24.3034 59.3529L24.354 59.1776L24.0169 58.4224L23.6055 58.2707L24.3034 59.3529ZM40.1092 44.8283C40.1092 45.4757 40.5037 45.9342 41.2218 46.3287C41.2218 46.3287 41.2218 46.2174 41.2218 46.0387L40.7701 45.5869L41.0094 45.152L41.205 45.0981C41.205 44.3428 41.1746 43.4966 41.1713 43.3752H41.1376C40.47 43.7461 40.1092 44.1911 40.1092 44.8283Z" fill="#0093D5"></path> <path d="M44.4248 61.5776C45.6386 62.1913 46.7579 63.0409 47.2265 64.6491C47.4322 61.9856 45.9386 60.8325 44.4585 60.0537C44.4585 60.0571 44.4248 61.581 44.4248 61.5776Z" fill="#0093D5"></path> <path d="M52.4932 34.5689C52.4932 32.1481 50.74 29.4644 46.4413 28.517C46.0078 28.4385 45.5697 28.3878 45.1297 28.3652C45.1297 28.7294 45.1028 29.5655 45.1028 29.5655C45.1028 29.8285 45.0758 30.7961 45.069 31.0052C45.3467 31.0244 45.6227 31.0627 45.8951 31.1198C48.3934 31.7165 49.2868 33.1427 49.2868 34.5689C49.2868 36.8615 47.3246 37.728 44.9038 38.3821L44.1048 38.5911C43.3731 38.7732 42.6213 38.9485 41.8762 39.1474C41.6098 39.2182 41.3469 39.2958 41.0839 39.3733C38.4102 40.1892 36.1108 41.4772 36.1108 44.7678C36.1108 48.0584 38.7339 49.2654 41.2929 50.0544C41.2772 49.1126 41.2592 48.1663 41.239 47.2155C40.1095 46.6862 39.3138 45.9883 39.3138 44.815C39.3138 43.6417 40.0387 42.9741 41.1479 42.4549C41.3941 42.3437 41.657 42.2425 41.9369 42.1481C42.5741 41.9323 43.2855 41.7469 44.0441 41.5648L44.8431 41.3727C48.4473 40.5298 52.4932 39.4003 52.4932 34.5689Z" fill="#0093D5"></path> <path d="M39.5327 57.6503C39.5327 58.9719 40.5105 59.6732 41.4848 60.2362C41.4848 60.0137 41.4444 57.9672 41.4444 57.9335C41.4646 57.5255 41.8591 57.2794 42.1794 57.1277C42.6846 56.9042 43.2012 56.7072 43.7269 56.5376C44.0169 56.4365 44.263 56.3387 44.5395 56.2544C46.495 55.6678 48.7573 54.9058 48.7573 52.5457C48.7573 50.1857 46.8186 49.1742 44.7114 48.4561C44.7114 49.2147 44.6743 50.3239 44.6575 51.0892C45.5543 51.4264 46.1477 51.8681 46.1477 52.5457C46.1477 53.3987 45.2374 53.8944 44.5934 54.1371C44.3237 54.2416 43.9191 54.3799 43.8011 54.4136C43.2819 54.5754 42.7222 54.7507 42.1996 54.953C41.9294 55.0505 41.6649 55.1631 41.4073 55.2902C40.4768 55.7588 39.5294 56.4432 39.5327 57.6503Z" fill="#0093D5"></path> <path d="M40.8576 28.7422C40.046 28.9974 39.2567 29.3188 38.4975 29.7031C37.6547 29.9829 36.4746 30.0402 35.2373 31.3686C34.8369 31.8287 34.4621 32.3105 34.1145 32.8116C33.7437 33.3443 33.7268 34.2007 33.4402 34.6626C33.0491 35.3369 33.1435 35.7112 33.1435 35.7112V35.7314C33.071 36.0457 32.9149 36.3346 32.6917 36.5675C32.5059 36.7984 32.2637 36.9774 31.9884 37.0872C31.7132 37.1971 31.4143 37.2341 31.1206 37.1946C31.6803 37.4711 32.4692 37.08 32.4692 37.08C32.3497 37.4451 32.2506 37.8165 32.1725 38.1926C32.7996 36.7732 33.3762 36.254 33.5549 36.109C33.8246 36.1697 34.3843 36.1461 35.4227 35.5493C36.596 34.875 38.3593 33.7793 38.8583 33.0847C39.3845 32.3724 40.1059 31.8279 40.9352 31.517C40.8981 30.4516 40.8779 29.5278 40.8576 28.7422ZM35.9082 33.1758L35.3047 33.3106L36.0262 32.1373L36.8758 32.1643L35.9082 33.1758Z" fill="#0093D5"></path> <path d="M43.2821 57.4848C43.1675 57.5253 42.8741 57.65 42.6887 57.7141C42.5033 57.7781 42.2437 57.886 42.2437 57.9535C42.2437 58.0209 42.4325 68.2063 42.4325 68.4322C42.4325 70.5394 43.5046 70.5529 43.5046 68.4322C43.5046 68.2805 43.7204 57.3398 43.7204 57.3398C43.7204 57.3398 43.4641 57.4241 43.2821 57.4848Z" fill="#0093D5"></path> <path d="M42.1694 54.1067C42.5065 53.992 42.8437 53.8909 43.1471 53.7931L43.7978 53.5908C43.7978 52.9469 43.9934 44.0392 44.0271 42.4209C43.3259 42.5832 42.6338 42.7824 41.9536 43.0177C41.9772 44.2314 42.1525 53.1357 42.1694 54.1067Z" fill="#0093D5"></path> <path d="M43.0527 20C40.0385 20 41.3197 24.4707 41.5591 25.9272C41.5591 25.998 41.8018 36.0418 41.849 38.3311C42.3076 38.2097 42.7627 38.0984 43.1976 37.9939L44.108 37.7647C44.1518 35.5496 44.3743 25.9643 44.3811 25.9137C44.58 24.3527 46.1579 20 43.0527 20Z" fill="#0093D5"></path> <path d="M86.7983 31.8477C89.2426 31.8477 89.6843 34.0223 89.6843 35.6406C89.6843 37.3702 89.0437 38.2873 88.1469 38.756V38.7796C88.8684 39.0122 90.1395 39.845 90.1395 42.5961C90.1395 46.2003 88.2312 46.7769 86.5623 46.7769H82.1118V31.8477H86.7983ZM84.3134 37.7344H86.3364C87.2197 37.7344 87.4321 36.7735 87.4321 36.1969C87.4321 35.6204 87.2197 34.7472 86.242 34.7472H84.3067L84.3134 37.7344ZM84.3134 43.8773H86.596C86.9837 43.8773 87.8131 43.557 87.8131 42.1916C87.8131 40.8261 87.1186 40.4856 86.3161 40.4856H84.2932L84.3134 43.8773Z" fill="#0093D5"></path> <path d="M98.2883 42.6799C98.2074 44.3657 97.5297 47.1775 94.937 47.1809C92.7185 47.1809 91.3159 45.1344 91.3159 41.3785C91.3159 38.7993 92.0341 35.5356 95.055 35.5322C97.378 35.5322 98.0894 37.8148 98.2209 39.7972H96.2721C96.1237 38.0508 95.5742 37.7069 94.974 37.7069C94.5324 37.7069 93.4231 37.9024 93.4265 41.1425C93.4265 44.7467 94.5357 45.0029 94.9504 45.0029C96.0327 45.0029 96.2721 43.425 96.2991 42.6799H98.2883Z" fill="#0093D5"></path> <path d="M106.438 43.6341C105.905 46.7055 104.169 47.1775 102.911 47.1775C102.018 47.1775 99.2666 46.8404 99.2632 41.3347C99.2632 37.5788 100.851 35.5322 103.07 35.5322C106.367 35.5322 106.542 40.222 106.573 41.5437V42.1438H101.381C101.381 43.189 101.691 44.9995 103.012 44.9995C103.599 44.9995 104.213 44.5949 104.388 43.6341H106.438ZM104.472 40.3299C104.445 38.0036 103.538 37.7069 103.043 37.7069C102.776 37.7069 101.573 37.663 101.374 40.3299H104.472Z" fill="#0093D5"></path> <path d="M109.951 39.3051H109.91L109.951 39.8581V46.7697H107.928V35.9336H110.625L112.473 43.5465L114.313 35.9336H117.011V46.7664H114.988V39.8547L115.028 39.3018H114.988L113.147 46.7664H111.798L109.951 39.3051Z" fill="#0093D5"></path> <path d="M123.508 35.9307H125.655V46.7634H123.632V39.727L120.868 46.7668H118.707V35.9307H120.729V42.9704L123.508 35.9307Z" fill="#0093D5"></path> <path d="M129.253 35.927V37.2285H129.293C130.069 35.6708 131.003 35.5225 131.481 35.5225C133.393 35.5225 134.57 37.7814 134.57 41.3653C134.57 44.8009 133.383 47.1678 131.444 47.1678C131.178 47.1678 130.069 47.0599 129.388 45.6539V50.7113H127.365V35.927H129.253ZM130.871 44.9931C132.034 44.9931 132.446 43.1995 132.446 41.3215C132.446 38.2871 131.468 37.6971 130.868 37.6971C130.268 37.6971 129.28 38.2939 129.28 41.3249C129.28 43.2028 129.681 44.9931 130.871 44.9931Z" fill="#0093D5"></path> <path d="M137.924 46.76H135.901V35.9238H137.924V40H140.369V35.9238H142.392V46.76H140.369V42.1747H137.924V46.76Z" fill="#0093D5"></path> <path d="M144.216 39.4208C144.307 35.6481 146.671 35.5166 147.406 35.5166C150.467 35.5166 150.531 38.3116 150.521 39.5625L150.484 44.5119C150.484 45.6852 150.484 46.4101 150.882 46.5584V46.7506H148.747L148.582 45.6919H148.542C148.345 46.1291 148.026 46.5002 147.624 46.7609C147.221 47.0216 146.752 47.1608 146.273 47.1619C144.108 47.1619 143.913 44.9266 143.913 44.0297C143.913 41.555 145.207 40.9583 146.438 40.638C147.932 40.2738 148.461 40.4863 148.508 39.4208V39.1208C148.478 37.7148 147.638 37.6912 147.412 37.6912C147.052 37.6912 146.168 37.8227 146.168 39.4208H144.216ZM148.505 41.5955C147.891 42.0237 147.955 41.9596 147.156 42.172C146.728 42.2799 145.966 42.5092 145.966 43.7297C145.966 44.7411 146.64 44.9873 147.011 44.9873C147.503 44.9873 148.491 44.4546 148.491 42.29L148.505 41.5955Z" fill="#0093D5"></path> <path d="M154.276 46.757H151.977L153.7 42.8528C152.206 42.4684 151.869 40.8063 151.869 39.4813C151.869 35.9007 153.966 35.9209 154.378 35.9209H158.359V46.757H156.336V43.0011H155.642L154.276 46.757ZM155.247 38.0955C154.782 38.0955 153.98 38.2237 153.98 39.4442C153.98 40.4556 154.489 40.8096 155.21 40.8096H156.316V38.0787L155.247 38.0955Z" fill="#0093D5"></path> <path d="M164.998 41.4258C164.998 37.1574 166.802 35.6167 168.707 35.6133C170.831 35.6133 172.415 37.4575 172.436 41.4056C172.456 45.3537 170.848 47.2518 168.727 47.2586C166.606 47.2653 165.008 45.4144 164.998 41.4258ZM170.315 41.4258C170.315 37.9734 169.212 37.8048 168.703 37.8048C168.248 37.8048 167.102 37.9801 167.109 41.4359C167.109 42.8216 167.281 45.1042 168.72 45.1008C170.16 45.0974 170.318 42.7744 170.315 41.409V41.4258Z" fill="#0093D5"></path> <path d="M175.554 35.9438V37.2924C176.326 35.7347 177.26 35.583 177.742 35.583C179.651 35.583 180.831 37.8352 180.841 41.4191C180.841 44.8514 179.668 47.2216 177.732 47.2283C177.463 47.2283 176.353 47.1272 175.669 45.7179V50.7752H173.646L173.609 35.9404L175.554 35.9438ZM177.196 45.0469C178.359 45.0469 178.767 43.2499 178.761 41.3753C178.761 38.3409 177.776 37.7509 177.176 37.7509C176.576 37.7509 175.588 38.3544 175.595 41.3821C175.585 43.2634 175.989 45.0638 177.179 45.0604L177.196 45.0469Z" fill="#0093D5"></path> <path d="M184.114 46.8107H182.091L182.064 35.9678H187.233V38.1357H184.094L184.114 46.8107Z" fill="#0093D5"></path> <path d="M188.252 39.4637C188.336 35.6876 190.699 35.5527 191.434 35.5527C194.492 35.5527 194.567 38.3376 194.556 39.5986L194.53 44.548C194.53 45.7213 194.55 46.4462 194.934 46.5945V46.7867H192.797L192.618 45.7213H192.581C192.384 46.1592 192.066 46.5313 191.663 46.7931C191.261 47.055 190.792 47.1955 190.312 47.198C188.147 47.198 187.952 44.9627 187.952 44.0659C187.952 41.5945 189.24 40.9944 190.467 40.6707C191.964 40.3032 192.49 40.5156 192.537 39.4469V39.1502C192.503 37.7409 191.664 37.724 191.438 37.724C191.077 37.724 190.194 37.8555 190.2 39.4536L188.252 39.4637ZM192.544 41.6283C191.93 42.0564 191.997 41.9924 191.212 42.2082C190.784 42.3161 190.022 42.5453 190.025 43.7658C190.025 44.7773 190.699 45.0234 191.07 45.0234C191.566 45.0234 192.554 44.484 192.547 42.3262L192.544 41.6283Z" fill="#0093D5"></path> <path d="M198.144 46.7736H196.121L196.094 35.9375H198.117V40.0137H200.561V35.9409H202.584L202.611 46.777H200.588V42.1917H198.144V46.7736Z" fill="#0093D5"></path> <path d="M208.977 35.9573H211.128L211.155 46.7462H209.132V39.7098L206.384 46.7563H204.219L204.192 35.9404H206.239V42.9566L208.977 35.9573Z" fill="#0093D5"></path> <path d="M214.108 43.1051C214.151 43.8502 214.381 44.9594 215.53 44.9561C216.185 44.9561 216.933 44.6189 216.93 43.567C216.93 42.8927 216.751 42.1577 215.709 42.1611H214.924V40.1381H215.763C216.326 40.1381 216.775 39.801 216.775 38.9851C216.775 37.9736 216.1 37.6634 215.46 37.6668C215.122 37.6668 214.273 37.8185 214.249 39.3762H212.381C212.344 35.836 214.468 35.4888 215.615 35.4854C216.761 35.482 218.848 35.6675 218.858 38.6142C218.858 39.892 218.42 40.6203 217.553 40.9743V41.0383C218.663 41.3755 219 42.4611 219.003 43.6985C219.003 46.3013 217.624 47.1172 215.605 47.124C213.71 47.124 212.263 46.1125 212.176 43.0983L214.108 43.1051Z" fill="#0093D5"></path> <path d="M220.311 39.3768C220.396 35.6007 222.759 35.4692 223.494 35.4658C226.552 35.4658 226.626 38.2507 226.616 39.5117L226.589 44.4611C226.589 45.6344 226.609 46.3593 226.997 46.5076V46.6998H224.86L224.684 45.6243H224.644C224.447 46.0622 224.129 46.4343 223.726 46.6961C223.324 46.9579 222.855 47.0985 222.375 47.101C220.21 47.101 220.015 44.8691 220.015 43.9722C220.015 41.4975 221.303 40.8974 222.533 40.5737C224.027 40.2062 224.556 40.4186 224.6 39.3532V39.0531C224.57 37.6472 223.727 37.627 223.501 37.627C223.14 37.627 222.257 37.7585 222.26 39.36L220.311 39.3768ZM224.607 41.5413C223.993 41.9695 224.057 41.9055 223.258 42.1212C222.83 42.2291 222.068 42.4584 222.071 43.6823C222.071 44.6937 222.746 44.9365 223.116 44.9365C223.612 44.9365 224.6 44.4004 224.593 42.2392L224.607 41.5413Z" fill="#0093D5"></path> <path d="M232.749 44.5045L232.726 35.9543H234.748L234.769 44.5045H235.905L235.797 49.4944H234.074V46.6825H228.208L228.15 35.9307H230.173L230.197 44.518L232.749 44.5045Z" fill="#0093D5"></path> <path d="M241.502 35.9639H243.66L243.69 46.6517H241.667L241.637 39.6187L238.889 46.6618H236.724L236.697 35.9336H238.72L238.74 42.8621L241.502 35.9639Z" fill="#0093D5"></path> <path d="M247.327 46.6352H245.031L246.744 42.7276C245.247 42.3466 244.903 40.6844 244.903 39.3561C244.903 36.2138 247.024 35.9238 247.439 35.9238L251.377 35.9609L251.414 46.6352H249.391V42.8827H248.696L247.327 46.6352ZM248.282 37.9737C247.813 37.9737 247.011 38.1052 247.017 39.3426C247.017 40.354 247.526 40.6912 248.248 40.6912H249.357V37.9602L248.282 37.9737Z" fill="#0093D5"></path> <path d="M83.4002 63.0411C83.444 63.7862 83.6732 64.8954 84.8229 64.8921C85.477 64.8921 86.2221 64.5549 86.2221 63.503C86.2221 62.8287 86.0434 62.0937 85.0016 62.097H84.2127V60.0741H85.0556C85.6153 60.0741 86.067 59.737 86.067 58.9177C86.067 57.9062 85.3927 57.5994 84.7521 57.5994C84.415 57.5994 83.5654 57.7511 83.5418 59.3088H81.6706C81.6368 55.7687 83.7575 55.4214 84.9072 55.418C86.0569 55.4146 88.1405 55.6001 88.1473 58.5434C88.1473 59.8246 87.7124 60.5664 86.8459 60.9035V60.9709C87.9551 61.3081 88.2923 62.3937 88.2956 63.6311C88.2956 66.2339 86.9133 67.0465 84.8971 67.0532C83.0023 67.0532 81.5559 66.0417 81.4683 63.031L83.4002 63.0411Z" fill="#0093D5"></path> <path d="M89.5801 64.4737C90.2848 62.7644 90.6253 60.6942 90.6186 57.8149V55.792H96.4311L96.4547 64.4501H97.5741L97.483 69.4434H95.7467V66.6281H90.5511V69.4434H88.8148L88.6968 64.4535L89.5801 64.4737ZM92.4898 57.9801V59.1096C92.5303 60.9268 92.2601 62.7375 91.6907 64.4636H94.4149V57.9801H92.4898Z" fill="#0093D5"></path> <path d="M107.476 59.2889C107.56 55.5128 109.924 55.3779 110.659 55.3779C113.717 55.3779 113.791 58.1628 113.784 59.4238L113.754 64.3732C113.754 65.5465 113.774 66.2714 114.162 66.4197V66.6119H112.024L111.849 65.5465H111.808C111.613 65.9852 111.294 66.3579 110.892 66.6199C110.489 66.8819 110.02 67.022 109.539 67.0232C107.375 67.0232 107.179 64.7913 107.179 63.8945C107.179 61.4231 108.467 60.8196 109.698 60.4993C111.191 60.1318 111.721 60.3442 111.765 59.2754V58.9787C111.731 57.5694 110.891 57.5526 110.665 57.5526C110.305 57.5526 109.425 57.6841 109.428 59.2822L107.476 59.2889ZM111.768 61.4501C111.158 61.8783 111.225 61.8142 110.436 62.0334C110.008 62.1379 109.249 62.3705 109.249 63.591C109.249 64.6025 109.924 64.8486 110.295 64.8452C110.79 64.8452 111.778 64.3092 111.771 62.148L111.768 61.4501Z" fill="#0093D5"></path> <path d="M119.371 55.7549C119.998 55.7549 121.599 55.7549 121.606 58.3746C121.606 59.8479 120.972 60.7347 120.237 60.9167V60.9808C121.36 61.3618 121.859 62.1069 121.862 63.8129C121.862 66.0314 120.851 66.5877 119.384 66.591H115.338L115.308 55.7549H119.371ZM117.365 60.0064H118.42C118.757 60.0064 119.526 59.9828 119.526 58.9949C119.526 58.1015 119.027 57.9295 118.454 57.9329H117.358L117.365 60.0064ZM117.365 64.4231H118.632C119.644 64.4231 119.769 63.7792 119.769 63.3105C119.769 62.5856 119.563 62.0293 118.602 62.0327H117.358L117.365 64.4231Z" fill="#0093D5"></path> <path d="M122.708 61.1324C122.708 56.8674 124.512 55.3266 126.417 55.3232C128.541 55.3232 130.126 57.1675 130.146 61.1156C130.166 65.0636 128.558 66.9618 126.437 66.9685C124.317 66.9753 122.719 65.1311 122.708 61.1324ZM128.015 61.1324C128.015 57.68 126.913 57.5114 126.404 57.5114C125.949 57.5114 124.802 57.6867 124.809 61.1425C124.809 62.5282 124.978 64.8108 126.424 64.8074C127.87 64.804 128.015 62.481 128.015 61.1324Z" fill="#0093D5"></path> <path d="M131.05 61.1329C131.05 56.8679 132.85 55.3271 134.759 55.3203C136.883 55.3203 138.467 57.1679 138.487 61.1126C138.508 65.0573 136.899 66.9589 134.779 66.9656C132.658 66.9724 131.05 65.1113 131.05 61.1329ZM136.367 61.1329C136.367 57.677 135.261 57.5084 134.752 57.5084C134.3 57.5084 133.15 57.6838 133.16 61.1396C133.16 62.5253 133.329 64.8078 134.772 64.8045C136.215 64.8011 136.353 62.4815 136.35 61.1093L136.367 61.1329Z" fill="#0093D5"></path> <path d="M143.814 55.6914H146.154L143.76 60.924L146.303 66.5276H143.966L142.577 62.9908L141.211 66.5276H138.875L141.397 60.9106L138.966 55.6914H141.326L142.577 59.063L143.814 55.6914Z" fill="#0093D5"></path> <path d="M148.879 55.6779V56.9793H148.919C149.691 55.4183 150.625 55.2666 151.104 55.2666C153.015 55.2666 154.196 57.5188 154.206 61.1027C154.206 64.5383 153.032 66.9085 151.094 66.9119C150.827 66.9119 149.718 66.8107 149.034 65.4048V70.4621H147.011L146.974 55.6813L148.879 55.6779ZM150.517 64.7373C151.68 64.7373 152.088 62.9436 152.085 61.0656C152.085 58.0313 151.1 57.4412 150.5 57.4446C149.9 57.448 148.919 58.0447 148.919 61.0758C148.919 62.9503 149.33 64.7406 150.517 64.7373Z" fill="#0093D5"></path> <path d="M100.928 55.6779V56.9793H100.965C101.737 55.4183 102.671 55.2666 103.154 55.2666C105.062 55.2666 106.245 57.5188 106.255 61.1027C106.255 64.5383 105.082 66.9085 103.143 66.9119C102.877 66.9119 101.768 66.8107 101.083 65.4048V70.4621H99.0605L99.02 55.6847L100.928 55.6779ZM102.57 64.7373C103.733 64.7373 104.141 62.9436 104.138 61.0656C104.138 58.0313 103.15 57.4412 102.55 57.4446C101.95 57.448 100.962 58.0447 100.969 61.0758C100.976 62.9503 101.38 64.7406 102.57 64.7373V64.7373Z" fill="#0093D5"></path> <path d="M155.541 59.1571C155.625 55.381 157.989 55.2461 158.724 55.2461C161.782 55.2461 161.856 58.031 161.846 59.292L161.819 64.2414C161.819 65.4147 161.836 66.1396 162.227 66.2879V66.4801H160.089L159.914 65.4113H159.87C159.675 65.8498 159.357 66.2227 158.955 66.4852C158.553 66.7478 158.084 66.8888 157.604 66.8914C155.44 66.8914 155.244 64.6595 155.244 63.7626C155.244 61.2879 156.532 60.6878 157.763 60.3641C159.256 59.9966 159.786 60.209 159.826 59.1436V58.8435C159.799 57.4342 158.956 57.4174 158.727 57.4174C158.37 57.4174 157.486 57.5489 157.49 59.1503L155.541 59.1571ZM159.833 61.3216C159.219 61.7498 159.287 61.6857 158.484 61.9015C158.059 62.0094 157.297 62.2387 157.301 63.4626C157.301 64.474 157.975 64.7168 158.346 64.7168C158.842 64.7168 159.826 64.1807 159.823 62.0195L159.833 61.3216Z" fill="#0093D5"></path> <path d="M165.44 66.466H163.417L163.39 55.6299H165.413V59.7027H167.857V55.6299H169.88L169.91 66.466H167.887V61.8774H165.443L165.44 66.466Z" fill="#0093D5"></path> <path d="M178.329 63.2972C177.8 66.3721 176.067 66.8441 174.809 66.8475C173.916 66.8475 171.161 66.5373 171.147 61.0147C171.147 57.2588 172.722 55.2089 174.94 55.2021C178.238 55.2021 178.427 59.8852 178.454 61.2069V61.8036H173.245C173.261 62.8488 173.558 64.6627 174.883 64.6593C175.47 64.6593 176.083 64.2514 176.255 63.2905L178.329 63.2972ZM176.357 59.9965C176.323 57.6735 175.412 57.3768 174.917 57.3768C174.65 57.3768 173.447 57.3397 173.255 60.0066L176.357 59.9965Z" fill="#0093D5"></path> <path d="M181.728 66.423H179.705L179.678 55.5869H181.701V59.6597H184.145V55.5869H186.168L186.195 66.423H184.172V61.8377H181.728V66.423Z" fill="#0093D5"></path> <path d="M192.547 55.5596H194.698L194.728 66.3957H192.705L192.688 59.3593L189.941 66.4058H187.776L187.749 55.5697H189.772L189.792 62.6095L192.547 55.5596Z" fill="#0093D5"></path> <path d="M198.373 66.3796H196.077L197.806 62.482C196.309 62.1011 195.969 60.4389 195.965 59.1105C195.965 55.5266 198.056 55.5434 198.47 55.54H202.435L202.466 66.3762H200.443V62.6237H199.748L198.373 66.3796ZM199.327 57.7181C198.858 57.7181 198.056 57.8495 198.062 59.0869C198.062 60.0984 198.572 60.4355 199.293 60.4355H200.402V57.7046L199.327 57.7181Z" fill="#0093D5"></path> </g> <defs> <clipPath id="clip0"> <rect x="9" y="20" width="242.404" height="60" fill="white"></rect> </clipPath> </defs> </svg>
