<svg width="100" height="100" viewBox="0 0 100 100" fill="none" xmlns="http://www.w3.org/2000/svg">
<g clip-path="url(#clip0)">
<path d="M78.2708 32.2039C78.6179 32.5896 78.965 32.9754 79.3121 33.3796C81.2852 35.731 82.8929 38.3028 84.1352 40.9665C84.1352 40.9665 84.9755 42.3994 85.2313 43.6486C88.0995 51.5847 87.8986 60.3106 84.7929 68.0446C84.7929 68.0446 83.9159 70.2123 83.5871 70.7083C81.7967 74.2354 79.3852 77.5053 76.316 80.316C76.316 80.316 75.6035 81.1243 74.2151 82.098C65.9392 88.5827 55.4894 90.5851 45.8799 88.3623C44.4183 88.1418 43.1943 87.6091 43.1943 87.6091C37.7684 85.8639 32.7079 82.7225 28.6156 78.2402C27.0811 76.8073 26.8436 76.1276 26.8436 76.1276C20.6869 68.1915 18.3667 58.0694 20.4859 48.1494L17.8004 47.5615C16.6494 52.9257 16.7225 58.5838 18.0014 63.9112C19.335 69.4958 21.8927 74.5661 25.6013 78.9934C38.5905 94.4613 61.6826 96.4085 77.0651 83.3471C92.4476 70.2858 94.3841 47.0655 81.3948 31.5976C72.8997 21.4571 59.5816 16.7359 46.6289 19.216C45.8981 17.2687 44.8203 15.4133 43.4135 13.7416C36.6723 5.73206 24.6878 4.70331 16.7043 11.482C8.72069 18.2607 7.7159 30.3117 14.4572 38.3212C17.435 41.8667 21.4177 44.0344 25.6378 44.7692C25.6378 44.7692 27.7935 45.155 29.4743 45.0448C33.1829 44.9346 36.9098 43.7405 40.0886 41.4074C41.0568 40.6175 42.1895 39.6255 42.1895 39.6255C46.9943 34.9043 48.8212 28.1256 47.4327 21.8429C57.9009 19.9324 68.5882 23.0921 76.3343 30.2015C76.316 30.2566 77.0833 30.9547 78.2708 32.2039ZM16.5581 36.5576C10.8034 29.6871 11.662 19.3997 18.4763 13.5946C25.2907 7.78955 35.5396 8.67133 41.3126 15.5235C47.0856 22.3757 46.2087 32.6815 39.3944 38.4865C32.58 44.2916 22.3311 43.4098 16.5581 36.5576Z" fill="black"/>
<path d="M27.0999 33.1777L26.7163 37.8071L29.4566 38.0459L29.8403 33.4165C30.7903 33.3063 31.7403 33.0124 32.5989 32.5347L35.5768 36.0802L37.6777 34.2983L34.6998 30.7528C35.321 29.9813 35.7594 29.0995 36.0335 28.1626L40.6373 28.5484L40.8748 25.7928L36.271 25.407C36.1614 24.4518 35.8691 23.4965 35.3941 22.6331L38.92 19.6387L37.1479 17.5261L33.622 20.5205C32.8547 19.8959 31.9778 19.455 31.046 19.1794L31.4297 14.5501L28.6893 14.3113L28.3057 18.9406C27.3557 19.0509 26.4057 19.3448 25.5471 19.8224L22.5509 16.2953L20.45 18.0772L23.4279 21.6227C22.8067 22.3943 22.3683 23.2761 22.0942 24.2129L17.4904 23.8272L17.2529 26.5827L21.8567 26.9685C21.9663 27.9238 22.2586 28.879 22.7336 29.7424L19.2077 32.7368L20.9798 34.8494L24.5057 31.855C25.2913 32.4613 26.1682 32.9205 27.0999 33.1777ZM26.1682 22.7433C28.0499 21.1451 30.8999 21.3839 32.4893 23.2761C34.0787 25.1682 33.8412 28.034 31.9595 29.6322C30.0778 31.2304 27.2278 30.9916 25.6384 29.0995C24.049 27.2073 24.2682 24.3415 26.1682 22.7433Z" fill="black"/>
<path fill-rule="evenodd" clip-rule="evenodd" d="M45.3606 33.6711C45.0899 33.1242 44.822 33.0095 44.5857 32.9416L45.4144 30.0583C46.3911 30.3391 47.3732 30.9744 48.0493 32.3403C48.673 33.6005 49 35.4093 49 38C49 39.1079 48.4887 40.5553 47.7734 41.7449C47.0673 42.9191 45.9012 44.2774 44.282 44.6847C44.1575 44.716 43.9053 44.8446 43.4764 45.2688C43.1213 45.6201 42.7649 46.048 42.3326 46.567C42.2503 46.6657 42.1654 46.7677 42.0771 46.8732C41.0663 48.0807 39.65 49.7293 37.6347 50.4051C36.8328 50.6741 36.0675 50.9083 35.3686 51.1208C35.3203 51.1356 35.2723 51.1501 35.2247 51.1646C34.5763 51.3617 33.9975 51.5377 33.4758 51.7126C32.2781 52.1143 31.7006 52.4168 31.4634 52.6554C31.2833 52.8366 31.189 52.953 31.1418 53.0184C31.1509 53.0426 31.1634 53.073 31.1803 53.1103C31.2606 53.2871 31.4036 53.5356 31.6499 53.9074C31.7339 54.0341 31.7898 54.0833 31.8099 54.0978C31.8208 54.1007 31.8655 54.1098 32.0234 54.1293C32.029 54.13 32.0371 54.1308 32.0474 54.1318C32.2034 54.1473 32.8733 54.2141 33.3817 54.7254C33.6515 54.9967 33.8048 55.3097 33.8913 55.6134C33.9066 55.6109 33.9224 55.6083 33.9385 55.6057C34.0269 55.591 34.1277 55.5732 34.2375 55.5537C34.611 55.4876 35.0879 55.4032 35.5266 55.3639C36.091 55.3134 36.8765 55.3018 37.6121 55.6306C38.4059 55.9854 39.1314 56.3999 39.6514 56.697C39.8703 56.8221 40.0528 56.9264 40.1887 56.9966C40.695 57.2585 41.121 57.408 41.8808 57.408C42.2618 57.408 42.5118 57.3628 42.7563 57.3181C42.7658 57.3163 42.7787 57.3136 42.7948 57.3103C42.9824 57.2715 43.5961 57.1445 44.1954 57.3857C44.8708 57.6575 45.2353 58.2427 45.4381 58.5854C45.6694 58.9764 45.9496 59.5401 46.3105 60.2665L46.3433 60.3324C46.9317 61.5162 47.1474 62.4239 47.2225 63.1064C47.305 63.0949 47.3931 63.0821 47.4876 63.0684L47.5526 63.0589C47.9082 63.0072 48.4646 62.9263 48.9682 62.979C49.2479 63.0083 49.6354 63.0882 50.0081 63.3305C50.4195 63.5978 50.7095 63.9963 50.8455 64.4688C51.0732 65.2604 50.8229 66.1049 50.5529 66.7842C49.6976 68.9352 48.7809 70.2016 47.9829 71.304C47.7392 71.6406 47.5066 71.962 47.2902 72.2886C47.14 72.5151 47.0244 72.7907 46.8817 73.2029C46.8587 73.2692 46.8342 73.3421 46.808 73.42C46.6895 73.7717 46.536 74.227 46.3354 74.6538C45.7648 75.8676 44.7912 76.9446 42.8334 77.6011C42.0174 77.8748 41.403 78.0465 40.9595 78.1704L40.9569 78.1711C40.8751 78.194 40.8025 78.2143 40.7373 78.2328C40.7373 78.2452 40.7373 78.2579 40.7373 78.271C40.7373 78.3862 40.7863 78.6342 40.9433 79.0766C41.009 79.2616 41.0809 79.4476 41.1596 79.6508L41.1847 79.7159C41.2688 79.9333 41.3628 80.1783 41.441 80.4142C41.5167 80.6426 41.5999 80.9275 41.6385 81.2226C41.6732 81.4883 41.7031 81.9754 41.4578 82.4688C41.1586 83.0709 40.6125 83.3771 40.0893 83.4673C39.6448 83.544 39.2118 83.4722 38.8715 83.3867C37.3362 83.0005 36.0341 81.7575 35.1754 80.6057C34.7236 79.9997 34.3381 79.3447 34.0602 78.7057C33.7928 78.0908 33.5784 77.3844 33.5784 76.702V70.949C33.5784 70.3098 33.6862 69.7849 33.7904 69.3875C33.6446 69.3566 33.4728 69.3242 33.2707 69.2903C31.6331 69.0157 30.2394 68.565 29.2628 67.6808C28.198 66.7167 27.8598 65.4611 27.8598 64.15V60.085C27.8448 60.059 27.8212 60.0215 27.7852 59.9718C27.6455 59.779 27.4032 59.5188 27.0361 59.1949C26.3049 58.5497 25.2654 57.8131 24.0815 57.0359C23.2375 56.4818 22.359 55.932 21.5024 55.3958C21.1613 55.1824 20.8237 54.971 20.4932 54.7625C19.3659 54.0514 18.2879 53.3527 17.5596 52.7665L19.4405 50.4294C20.0118 50.8892 20.9412 51.4981 22.0938 52.2252C22.4055 52.4218 22.7315 52.6259 23.0659 52.8352C23.9324 53.3775 24.8549 53.9549 25.7279 54.528C26.934 55.3198 28.122 56.1522 29.0209 56.9453C29.4688 57.3406 29.8922 57.7668 30.2144 58.2114C30.5157 58.6272 30.8598 59.2366 30.8598 59.966V64.15C30.8598 64.9308 31.0415 65.2443 31.2763 65.4569C31.5994 65.7494 32.2852 66.0832 33.7668 66.3316C34.5478 66.4626 35.2531 66.6222 35.7818 66.9029C36.0721 67.057 36.3962 67.2917 36.6375 67.6598C36.8909 68.0465 36.9683 68.4502 36.9683 68.7916C36.9683 69.0998 36.9048 69.3744 36.86 69.5486C36.8345 69.6474 36.7929 69.7918 36.7595 69.9078C36.7429 69.9654 36.7283 70.016 36.7187 70.0506C36.6377 70.3426 36.5784 70.6195 36.5784 70.949V76.702C36.5784 76.804 36.6238 77.0782 36.8113 77.5093C36.9883 77.9163 37.2527 78.3728 37.5806 78.8127C37.6657 78.9268 37.752 79.0358 37.8388 79.1394C37.7784 78.8613 37.7373 78.5664 37.7373 78.271C37.7373 78.2451 37.7372 78.2177 37.7371 78.189C37.7361 77.8864 37.7346 77.4362 37.8341 77.0527C37.9033 76.7857 38.0297 76.4929 38.26 76.2225C38.4829 75.9609 38.7383 75.7969 38.9532 75.6888C39.2839 75.5224 39.7101 75.404 40.0628 75.306C40.0923 75.2978 40.1212 75.2897 40.1495 75.2818C40.5832 75.1606 41.1377 75.0056 41.8796 74.7568C43.0411 74.3673 43.3893 73.8693 43.6205 73.3774C43.7412 73.1205 43.8263 72.8697 43.9394 72.5359C43.9723 72.4388 44.0076 72.3347 44.0468 72.2214C44.2048 71.7651 44.4197 71.1893 44.7894 70.6314C45.0974 70.1665 45.3844 69.7694 45.6579 69.3909C46.3495 68.4337 46.955 67.5956 47.5975 66.0836C47.2755 66.1283 46.889 66.173 46.5155 66.173C46.2999 66.173 46.0379 66.1656 45.7846 66.1171C45.5317 66.0687 45.1033 65.9462 44.7477 65.5683C44.3818 65.1795 44.297 64.7379 44.271 64.5036C44.25 64.3144 44.255 64.111 44.2574 64.0096C44.2577 63.9992 44.2579 63.9899 44.2581 63.9817C44.2583 63.9713 44.2586 63.9606 44.2588 63.9497C44.267 63.5873 44.2821 62.9257 43.6568 61.6676C43.3412 61.0327 43.1319 60.6128 42.9753 60.3243C42.6984 60.3672 42.3359 60.408 41.8808 60.408C40.5612 60.408 39.6654 60.1034 38.8105 59.6613C38.4654 59.4829 38.1922 59.3245 37.9244 59.1692C37.4918 58.9184 37.0731 58.6757 36.3879 58.3694C36.3879 58.3694 36.3476 58.3527 36.2417 58.3434C36.1321 58.3337 35.9857 58.3348 35.794 58.352C35.4953 58.3787 35.2062 58.4298 34.8654 58.4899C34.7297 58.5139 34.5858 58.5393 34.4298 58.5652C34.0094 58.635 33.2992 58.7506 32.6648 58.6093C32.2986 58.5277 31.8309 58.3356 31.4695 57.8928C31.2385 57.6098 31.1116 57.2989 31.0497 56.999C30.8877 56.9561 30.708 56.8955 30.5243 56.8085C29.9975 56.559 29.5377 56.1509 29.1492 55.5646C28.6548 54.8186 28.1197 53.94 28.1197 52.9708C28.1197 51.8648 28.7878 51.0917 29.3357 50.5405C30.1382 49.7331 31.3802 49.2512 32.522 48.8683C33.0861 48.6791 33.705 48.491 34.341 48.2977C34.3924 48.2821 34.444 48.2664 34.4957 48.2507C35.1939 48.0383 35.9232 47.8149 36.6809 47.5608C37.7848 47.1906 38.708 46.2242 39.7767 44.9475C39.851 44.8587 39.9268 44.7676 40.0039 44.6749C40.4321 44.16 40.8987 43.5989 41.3666 43.1361C41.9125 42.596 42.6351 42.0055 43.5503 41.7753C44.0106 41.6595 44.6364 41.1403 45.2024 40.1989C45.7592 39.273 46 38.3669 46 38C46 35.5906 45.6836 34.3238 45.3606 33.6711ZM30.9928 56.3705C30.9932 56.37 30.9948 56.378 30.9964 56.3961C30.9932 56.3801 30.9924 56.371 30.9928 56.3705ZM48.6558 65.9627C48.6588 65.963 48.6578 65.9631 48.6534 65.9625ZM31.8099 54.0978C31.8096 54.0977 31.8087 54.0974 31.8084 54.0972C31.8078 54.097 31.8073 54.0968 31.807 54.0968M31.8099 54.0978C31.8152 54.1005 31.8183 54.1027 31.8182 54.1029C31.8182 54.1032 31.815 54.1015 31.8099 54.0978Z" fill="black"/>
<path fill-rule="evenodd" clip-rule="evenodd" d="M67.905 26.2095C69.8129 25.8005 71.5298 25.2195 72.5 24.822L73.6374 27.598C72.5113 28.0594 70.6244 28.6947 68.5338 29.1428C66.4667 29.586 64.0591 29.8778 61.9533 29.547C57.7693 28.8897 56.2283 30.7091 56.0485 31.8539C55.8948 32.8322 55.9916 33.857 56.5061 34.5705C56.9566 35.1953 58.0084 35.9589 60.6636 35.8434C61.4823 35.8078 62.2612 35.7588 63.0077 35.7119C64.8105 35.5984 66.4238 35.497 67.95 35.6252C70.2524 35.8186 72.435 36.5154 75.281 38.2201C77.8414 39.7537 79.5734 40.2465 80.8618 40.3294C82.1482 40.4122 83.1408 40.1043 84.3864 39.7029L85.3064 42.5584L85.2489 42.5769C84.0267 42.9709 82.5568 43.4447 80.669 43.3232C78.7536 43.1999 76.5571 42.4815 73.7395 40.7938C71.2076 39.2772 69.4617 38.7628 67.6989 38.6147C66.4012 38.5056 65.1208 38.5866 63.4493 38.6924C62.6645 38.742 61.7935 38.7971 60.7939 38.8406C57.5247 38.9827 55.3132 38.0454 54.0728 36.3252C52.8962 34.6936 52.8742 32.7292 53.0848 31.3883C53.6337 27.8947 57.4152 25.7973 62.4189 26.5833C63.9882 26.8298 65.9737 26.6235 67.905 26.2095Z" fill="black"/>
<path fill-rule="evenodd" clip-rule="evenodd" d="M61.7579 41.3934C62.7606 40.9133 63.853 40.8642 64.9088 40.9878C65.9623 41.1112 67.3021 41.4448 68.6104 42.0326C69.9131 42.618 71.2804 43.4987 72.2774 44.7731C72.8691 45.5294 73.3137 45.7538 73.9229 45.9312C74.214 46.016 74.518 46.0817 74.9172 46.168C75.0407 46.1947 75.1734 46.2234 75.3175 46.2552C75.8997 46.3837 76.5866 46.5475 77.3908 46.8103C77.6274 46.8876 78.2151 46.9215 79.2023 46.7782C80.1245 46.6444 81.1966 46.3879 82.2644 46.0768C83.3271 45.7672 84.3534 45.413 85.175 45.0964C86.0434 44.7618 86.5642 44.5142 86.6993 44.4289L88.3006 46.9659C87.8844 47.2285 87.1028 47.5686 86.2537 47.8958C85.3579 48.2409 84.2518 48.6226 83.1035 48.9571C81.9604 49.2901 80.7429 49.586 79.6333 49.7471C78.5886 49.8988 77.4023 49.9702 76.4588 49.6619C75.788 49.4426 75.2085 49.3034 74.671 49.1847C74.566 49.1616 74.4585 49.1384 74.3494 49.1149C73.9293 49.0243 73.4871 48.9289 73.0842 48.8116C71.9162 48.4715 70.9215 47.9087 69.9146 46.6217C69.3131 45.8528 68.4061 45.2298 67.3808 44.7691C66.3612 44.3109 65.3194 44.0564 64.5599 43.9674C63.8028 43.8788 63.3487 43.9579 63.0534 44.0993C62.7891 44.2257 62.4823 44.4828 62.1827 45.127C61.8198 45.9071 61.6391 46.4955 61.5643 47.1335C61.4869 47.7953 61.5141 48.5891 61.6674 49.7989C61.837 51.1367 61.9511 51.9577 62.2724 52.5958C62.5261 53.0997 62.9662 53.5875 64.1256 53.9664C65.1682 54.3071 66.0656 54.158 67.1714 53.8468C67.3144 53.8066 67.4676 53.7607 67.6297 53.7122C68.6077 53.4193 69.9101 53.0293 71.2705 53.1886C71.6322 53.231 71.9093 53.2504 72.1992 53.2707C72.3946 53.2844 72.5958 53.2985 72.8326 53.3204C73.3305 53.3662 73.9346 53.4455 74.5201 53.7011C75.8667 54.2889 76.5547 55.5283 77.0189 57.2695C77.57 59.3369 77.0584 60.8329 76.5563 61.9461C76.4615 62.1562 76.3807 62.3271 76.3103 62.4758C76.1811 62.7486 76.0873 62.9469 76.0075 63.1767C75.9097 63.458 75.9062 63.6084 75.9317 63.7331C75.9942 64.038 76.0661 64.1495 76.1 64.1966C76.1576 64.2768 76.2231 64.3379 76.484 64.5673C76.7281 64.7818 77.0711 65.0884 77.4143 65.5554C77.757 66.0217 78.0656 66.5988 78.3374 67.3597C78.9126 68.9699 78.7939 70.0385 78.535 70.9048C78.3434 71.5464 78.316 71.5928 78.3232 71.5989C78.3256 71.601 78.3321 71.5983 78.3374 71.6132C78.4292 71.8703 78.5422 72.2329 78.6623 72.6182C78.7092 72.7685 78.7571 72.9223 78.8053 73.0745C78.9871 73.6497 79.1958 74.2824 79.4339 74.8952C79.6743 75.5141 79.9294 76.0722 80.1937 76.5098C80.4752 76.9758 80.6817 77.1605 80.7637 77.209L79.2362 79.791C78.5186 79.3664 77.9987 78.6783 77.6257 78.0607C77.2356 77.4147 76.9083 76.6787 76.6375 75.9817C76.3644 75.2787 76.133 74.5739 75.9449 73.9791C75.8815 73.7786 75.8249 73.597 75.7739 73.4335C75.6655 73.0854 75.5823 72.8186 75.5122 72.6225C75.1264 71.5424 75.4622 70.6057 75.6111 70.1902C75.6322 70.1313 75.6496 70.0828 75.6606 70.046C75.7478 69.7541 75.8598 69.3417 75.5122 68.369C75.3227 67.8384 75.1415 67.5288 74.9969 67.3319C74.8528 67.1359 74.711 67.003 74.5034 66.8206C74.4872 66.8063 74.4698 66.7911 74.4514 66.7751C74.2532 66.6023 73.9349 66.3247 73.6636 65.9471C73.3434 65.5014 73.1253 64.9816 72.9929 64.3356C72.8235 63.5094 72.9673 62.7862 73.1736 62.1922C73.3083 61.8044 73.5114 61.3741 73.6737 61.03C73.7292 60.9125 73.7799 60.805 73.8216 60.7127C74.1834 59.9105 74.4203 59.1682 74.1201 58.0423C73.7435 56.6297 73.4114 56.4893 73.3265 56.4534C73.3241 56.4524 73.3219 56.4515 73.3199 56.4506C73.1956 56.3963 72.9921 56.3477 72.5575 56.3077C72.4433 56.2972 72.2912 56.2861 72.1168 56.2733C71.7657 56.2477 71.3245 56.2155 70.9216 56.1683C70.2231 56.0865 69.592 56.2697 68.5957 56.559C68.406 56.6141 68.2031 56.673 67.984 56.7347C66.7134 57.0922 65.1013 57.4414 63.1937 56.818C61.403 56.2328 60.2622 55.2743 59.5929 53.9449C59.0224 52.8119 58.857 51.4955 58.7146 50.3611C58.7067 50.2989 58.699 50.2372 58.6913 50.1762C58.5262 48.8739 58.4657 47.8012 58.5847 46.7846C58.7065 45.7441 59.0066 44.842 59.4625 43.8618C59.9816 42.7458 60.7242 41.8883 61.7579 41.3934Z" fill="black"/>
</g>
<defs>
<clipPath id="clip0">
<rect x="10" y="7" width="80" height="85" fill="white"/>
</clipPath>
</defs>
</svg>
