<svg width="25" height="25" viewBox="0 0 25 25" fill="none" xmlns="http://www.w3.org/2000/svg">
<path d="M12.5041 1C7.90263 0.999329 3.74395 3.74213 1.93284 7.97216L1.7895 8.01968L1.84507 8.18639C-0.53953 14.0677 2.29506 20.7686 8.17637 23.1532C9.55 23.7101 11.0184 23.9961 12.5007 23.9952C18.8506 23.9962 23.999 18.8493 24 12.4993C24.001 6.1494 18.8541 1.00091 12.5041 1ZM21.5226 18.2945L20.9322 17.7045V16.3302C20.9329 16.2709 20.9198 16.2122 20.8939 16.1588L19.3992 13.1737V11.7311C19.3992 11.603 19.3353 11.4833 19.2287 11.4122L18.0789 10.6457C17.9888 10.5856 17.8774 10.5664 17.7723 10.5928L16.3642 10.9447L13.9992 9.92982L13.6738 7.65022L14.5756 6.74881H16.5114L17.1629 7.72802C17.2218 7.81608 17.3145 7.87591 17.419 7.89321L19.7185 8.27646C19.7801 8.28681 19.8432 8.28178 19.9024 8.2619L22.0203 7.55594C23.7966 10.9647 23.6066 15.0647 21.5226 18.2945ZM19.9419 4.77658L19.3187 5.19203L17.5815 4.84442L16.4543 4.46922C16.3853 4.44579 16.3111 4.44282 16.2405 4.46078L14.8155 4.81683L14.1908 4.60872L14.6538 3.68278H15.95C16.0094 3.68283 16.068 3.66908 16.1213 3.64254L17.4473 2.97951C18.3605 3.45618 19.2006 4.06134 19.9419 4.77658ZM8.30289 2.62231L9.2227 3.23552C9.26793 3.26561 9.319 3.28573 9.37255 3.29454L11.2298 3.60421L11.0485 4.14652L10.0808 4.4696C9.99414 4.49844 9.92061 4.55727 9.87347 4.63555L8.77276 6.4698L7.00482 7.53065L4.39869 7.90279C4.2098 7.92947 4.06933 8.09106 4.06909 8.28183V9.43159C4.06909 9.53325 4.10953 9.63069 4.18139 9.70255L4.8356 10.3568V11.0152L3.24127 9.95205L2.66294 8.21706C3.76326 5.70291 5.77998 3.70232 8.30289 2.62231ZM7.21177 15.1881L5.47947 14.8412L4.8356 13.5569V12.6563L6.2636 11.2283L6.79211 12.2857C6.85702 12.4156 6.98987 12.4977 7.13512 12.4976H9.60097L10.6392 14.228C10.7085 14.3433 10.8331 14.4138 10.9677 14.4139H12.0331L11.7648 15.758L10.3138 17.209C10.2418 17.2808 10.2013 17.3782 10.2011 17.4799V18.4381L8.82144 19.4728C8.72495 19.5452 8.66813 19.6588 8.66813 19.7794V21.1638L8.19137 21.0059L7.51837 19.3226V15.5637C7.51842 15.3815 7.39022 15.2245 7.21177 15.1881ZM6.05971 21.0797C2.44616 18.3687 0.917983 13.6846 2.23752 9.36413L2.55601 10.3192C2.58284 10.4 2.63582 10.4696 2.70663 10.517L4.61715 11.7905L4.18139 12.2267C4.10953 12.2985 4.06909 12.396 4.06909 12.4976V13.6474C4.06905 13.7068 4.08279 13.7655 4.10933 13.8187L4.87584 15.3517C4.92892 15.4576 5.02795 15.533 5.14412 15.556L6.75378 15.8775V19.3962C6.75374 19.4449 6.76298 19.4932 6.78099 19.5384L7.5475 21.4546C7.58947 21.5593 7.67541 21.6402 7.78244 21.6758L8.9322 22.059C8.97062 22.0721 9.01086 22.0788 9.05139 22.079C9.26304 22.079 9.43464 21.9074 9.43464 21.6957V19.9711L10.8144 18.9363C10.9108 18.8639 10.9677 18.7503 10.9677 18.6297V17.6386L12.3884 16.2179C12.4418 16.1644 12.4782 16.0962 12.493 16.022L12.8763 14.1058C12.9177 13.8982 12.7831 13.6963 12.5755 13.6548C12.5509 13.6499 12.5258 13.6474 12.5007 13.6474H11.1846L10.1463 11.917C10.0771 11.8017 9.95242 11.7312 9.81789 11.7311H7.37197L6.71354 10.41C6.6584 10.2998 6.55358 10.2227 6.43185 10.2031C6.31017 10.182 6.18595 10.2222 6.09957 10.3104L5.60211 10.8059V10.1981C5.60211 10.0964 5.56167 9.99899 5.48981 9.92713L4.8356 9.27292V8.61411L7.18954 8.27799C7.24008 8.27066 7.28871 8.25332 7.3325 8.22702L9.24876 7.07726C9.30252 7.04497 9.34755 6.99994 9.37984 6.94619L10.4568 5.15141L11.472 4.81261C11.5867 4.775 11.6766 4.68508 11.7142 4.57039L12.0975 3.42063C12.1639 3.21966 12.0548 3.00289 11.8538 2.93649C11.8353 2.93035 11.8163 2.92566 11.797 2.9224L9.57875 2.55256L9.18898 2.29272C11.6007 1.50772 14.2129 1.60487 16.5597 2.56674L15.8595 2.91627H14.4169C14.271 2.91546 14.1373 2.99766 14.072 3.12821L13.3055 4.66123C13.2111 4.85065 13.2881 5.08079 13.4775 5.17522C13.4936 5.18327 13.5103 5.19016 13.5274 5.19586L14.6772 5.57912C14.7462 5.60255 14.8204 5.60552 14.891 5.58755L16.316 5.23151L17.3599 5.57912C17.3749 5.58448 17.3903 5.5886 17.4059 5.59138L19.3222 5.97464C19.4218 5.99495 19.5255 5.97454 19.61 5.91792L20.4823 5.33614C20.9116 5.81429 21.2974 6.32977 21.6351 6.87643L19.7495 7.50497L17.7079 7.16464L17.0334 6.15285C16.9627 6.04683 16.8439 5.98292 16.7165 5.9823H14.4169C14.3153 5.9823 14.2178 6.02274 14.146 6.09459L12.9962 7.24436C12.9108 7.32968 12.8707 7.45026 12.8878 7.56974L13.271 10.2525C13.2903 10.3852 13.3775 10.4981 13.501 10.5503L16.1837 11.7001C16.2606 11.7334 16.3463 11.7402 16.4275 11.7196L17.7961 11.3774L18.6327 11.9362V13.2641C18.6321 13.3234 18.6452 13.3821 18.6711 13.4354L20.1657 16.4206V17.8632C20.1657 17.9648 20.2062 18.0623 20.278 18.1341L21.0798 18.9363C17.524 23.6758 10.7993 24.6355 6.05971 21.0797Z" fill="#3E66F6" stroke="#3E66F6" stroke-width="0.5"/>
</svg>
