<svg width="52" height="48" viewBox="0 0 52 48" fill="none" xmlns="http://www.w3.org/2000/svg">
<g opacity="0.5">
<g clip-path="url(#clip0)">
<path d="M12.0965 19.5754H10.9722V22.7719H12.0965V19.5754Z" fill="#003188"/>
<path d="M14.035 19.5754H12.9106V22.7719H14.035V19.5754Z" fill="#003188"/>
<path d="M15.9734 19.5754H14.8491V22.7719H15.9734V19.5754Z" fill="#003188"/>
<path d="M17.9505 19.5754H16.8262V22.7719H17.9505V19.5754Z" fill="#003188"/>
<path d="M19.8889 19.5754H18.687V22.7719H19.8889V19.5754Z" fill="#003188"/>
<path d="M21.8274 19.5754H20.6255V22.7719H21.8274V19.5754Z" fill="#003188"/>
<path d="M23.7274 19.5754H22.603V22.7719H23.7274V19.5754Z" fill="#003188"/>
<path d="M25.6658 19.5754H24.5415V22.7719H25.6658V19.5754Z" fill="#003188"/>
<path d="M27.6043 19.5754H26.48V22.7719H27.6043V19.5754Z" fill="#003188"/>
<path d="M29.5814 19.5754H28.457V22.7719H29.5814V19.5754Z" fill="#003188"/>
<path d="M31.5202 19.5754H30.3184V22.7719H31.5202V19.5754Z" fill="#003188"/>
<path d="M33.4587 19.5754H32.2568V22.7719H33.4587V19.5754Z" fill="#003188"/>
<path d="M35.3582 19.5754H34.2339V22.7719H35.3582V19.5754Z" fill="#003188"/>
<path d="M37.2967 19.5754H36.1724V22.7719H37.2967V19.5754Z" fill="#003188"/>
<path d="M39.2352 19.5754H38.1108V22.7719H39.2352V19.5754Z" fill="#003188"/>
<path d="M41.2127 19.5754H40.0884V22.7719H41.2127V19.5754Z" fill="#003188"/>
<path d="M12.0965 23.136H10.9722V24.3903H12.0965V23.136Z" fill="#003188"/>
<path d="M14.035 23.136H12.9106V24.3903H14.035V23.136Z" fill="#003188"/>
<path d="M15.9734 23.136H14.8491V24.3903H15.9734V23.136Z" fill="#003188"/>
<path d="M17.9505 23.136H16.8262V24.3903H17.9505V23.136Z" fill="#003188"/>
<path d="M18.687 23.136H19.8889V24.4308H18.687V23.136Z" fill="#003188"/>
<path d="M20.6255 23.1764L21.8274 23.136V24.4308H20.6255V23.1764Z" fill="#003188"/>
<path d="M23.7274 23.136H22.603V24.3903H23.7274V23.136Z" fill="#003188"/>
<path d="M25.6658 23.136H24.5415V24.3903H25.6658V23.136Z" fill="#003188"/>
<path d="M27.6043 23.136H26.48V24.3903H27.6043V23.136Z" fill="#003188"/>
<path d="M29.5814 23.136H28.457V24.3903H29.5814V23.136Z" fill="#003188"/>
<path d="M30.3184 23.136L31.5202 23.1764V24.4308H30.3184V23.136Z" fill="#003188"/>
<path d="M32.2568 23.1764L33.4587 23.136V24.4308H32.2568V23.1764Z" fill="#003188"/>
<path d="M35.3582 23.136H34.2339V24.3903H35.3582V23.136Z" fill="#003188"/>
<path d="M37.2967 23.136H36.1724V24.3903H37.2967V23.136Z" fill="#003188"/>
<path d="M39.2352 23.136H38.1108V24.3903H39.2352V23.136Z" fill="#003188"/>
<path d="M41.2127 23.136H40.0884V24.3903H41.2127V23.136Z" fill="#003188"/>
<path d="M14.7326 17.0667H13.7246V17.5119H14.7326V17.0667Z" fill="#003188"/>
<path d="M16.3221 17.0667H15.1978V17.5119H16.3221V17.0667Z" fill="#003188"/>
<path d="M17.9119 17.0667H16.7876V17.5119H17.9119V17.0667Z" fill="#003188"/>
<path d="M19.385 17.0667H18.377V17.5119H19.385V17.0667Z" fill="#003188"/>
<path d="M27.2166 17.0667H26.0923V17.5119H27.2166V17.0667Z" fill="#003188"/>
<path d="M25.6268 17.0667H24.5024V17.5119H25.6268V17.0667Z" fill="#003188"/>
<path d="M24.0373 17.0667H23.0293V17.5119H24.0373V17.0667Z" fill="#003188"/>
<path d="M20.9744 17.0667H19.8501V17.5119H20.9744V17.0667Z" fill="#003188"/>
<path d="M22.5643 17.0667H21.4399V17.5119H22.5643V17.0667Z" fill="#003188"/>
<path d="M36.5213 17.0667H35.397V17.5119H36.5213V17.0667Z" fill="#003188"/>
<path d="M34.932 17.0667H33.8076V17.5119H34.932V17.0667Z" fill="#003188"/>
<path d="M33.3425 17.0667H32.3345V17.5119H33.3425V17.0667Z" fill="#003188"/>
<path d="M31.869 17.0667H30.7446V17.5119H31.869V17.0667Z" fill="#003188"/>
<path d="M30.2796 17.0667H29.1553V17.5119H30.2796V17.0667Z" fill="#003188"/>
<path d="M28.7284 17.0667H27.6816V17.5119H28.7284V17.0667Z" fill="#003188"/>
<path d="M14.7326 15.5293H13.7246V16.4194H14.7326V15.5293Z" fill="#003188"/>
<path d="M37.9948 17.0667H36.9868V17.5119H37.9948V17.0667Z" fill="#003188"/>
<path d="M16.3221 15.5293H15.1978V16.4194H16.3221V15.5293Z" fill="#003188"/>
<path d="M17.9119 15.5293H16.7876V16.4194H17.9119V15.5293Z" fill="#003188"/>
<path d="M19.4238 15.5293H18.377V16.4194H19.4238V15.5293Z" fill="#003188"/>
<path d="M20.9744 15.5293H19.8501V16.4194H20.9744V15.5293Z" fill="#003188"/>
<path d="M22.5643 15.5293H21.4399V16.4194H22.5643V15.5293Z" fill="#003188"/>
<path d="M24.0373 15.5293H23.0293V16.4194H24.0373V15.5293Z" fill="#003188"/>
<path d="M25.6268 15.5293H24.5024V16.4194H25.6268V15.5293Z" fill="#003188"/>
<path d="M33.3425 15.5293H32.3345V16.4194H33.3425V15.5293Z" fill="#003188"/>
<path d="M31.869 15.5293H30.7446V16.4194H31.869V15.5293Z" fill="#003188"/>
<path d="M30.2796 15.5293H29.1553V16.4194H30.2796V15.5293Z" fill="#003188"/>
<path d="M28.7284 15.5293H27.6816V16.4194H28.7284V15.5293Z" fill="#003188"/>
<path d="M27.2166 15.5293H26.0923V16.4194H27.2166V15.5293Z" fill="#003188"/>
<path d="M37.9948 15.5293H36.9868V16.4194H37.9948V15.5293Z" fill="#003188"/>
<path d="M36.5213 15.5293H35.397V16.4194H36.5213V15.5293Z" fill="#003188"/>
<path d="M34.932 15.5293H33.8076V16.4194H34.932V15.5293Z" fill="#003188"/>
<path d="M14.7326 13.8704H13.7246V14.7605H14.7326V13.8704Z" fill="#003188"/>
<path d="M16.3221 13.8704H15.1978V14.7605H16.3221V13.8704Z" fill="#003188"/>
<path d="M17.9119 13.8704H16.7876V14.7605H17.9119V13.8704Z" fill="#003188"/>
<path d="M19.4238 13.8704H18.377V14.7605H19.4238V13.8704Z" fill="#003188"/>
<path d="M20.9744 13.8704H19.8501V14.7605H20.9744V13.8704Z" fill="#003188"/>
<path d="M22.5643 13.8704H21.4399V14.7605H22.5643V13.8704Z" fill="#003188"/>
<path d="M24.0373 13.8704H23.0293V14.7605H24.0373V13.8704Z" fill="#003188"/>
<path d="M25.6268 13.8704H24.5024V14.7605H25.6268V13.8704Z" fill="#003188"/>
<path d="M33.3425 13.8704H32.3345V14.7605H33.3425V13.8704Z" fill="#003188"/>
<path d="M31.869 13.8704H30.7446V14.7605H31.869V13.8704Z" fill="#003188"/>
<path d="M30.2796 13.8704H29.1553V14.7605H30.2796V13.8704Z" fill="#003188"/>
<path d="M28.7284 13.8704H27.6816V14.7605H28.7284V13.8704Z" fill="#003188"/>
<path d="M27.2166 13.8704H26.0923V14.7605H27.2166V13.8704Z" fill="#003188"/>
<path d="M37.9948 13.8704H36.9868V14.7605H37.9948V13.8704Z" fill="#003188"/>
<path d="M36.5213 13.8704H35.397V14.7605H36.5213V13.8704Z" fill="#003188"/>
<path d="M34.932 13.8704H33.8076V14.7605H34.932V13.8704Z" fill="#003188"/>
<path d="M14.7326 12.2922H13.7246V13.1824H14.7326V12.2922Z" fill="#003188"/>
<path d="M16.3221 12.2922H15.1978V13.1824H16.3221V12.2922Z" fill="#003188"/>
<path d="M17.9119 12.2922H16.7876V13.1824H17.9119V12.2922Z" fill="#003188"/>
<path d="M19.4238 12.2922H18.377V13.1824H19.4238V12.2922Z" fill="#003188"/>
<path d="M20.9744 12.2922H19.8501V13.1824H20.9744V12.2922Z" fill="#003188"/>
<path d="M22.5643 12.2922H21.4399V13.1824H22.5643V12.2922Z" fill="#003188"/>
<path d="M24.0373 12.2922H23.0293V13.1824H24.0373V12.2922Z" fill="#003188"/>
<path d="M25.6268 12.2922H24.5024V13.1824H25.6268V12.2922Z" fill="#003188"/>
<path d="M33.3425 12.2922H32.3345V13.1824H33.3425V12.2922Z" fill="#003188"/>
<path d="M31.869 12.2922H30.7446V13.1824H31.869V12.2922Z" fill="#003188"/>
<path d="M30.2796 12.2922H29.1553V13.1824H30.2796V12.2922Z" fill="#003188"/>
<path d="M28.7284 12.2922H27.6816V13.1824H28.7284V12.2922Z" fill="#003188"/>
<path d="M27.2166 12.2922H26.0923V13.1824H27.2166V12.2922Z" fill="#003188"/>
<path d="M37.9948 12.2922H36.9868V13.1824H37.9948V12.2922Z" fill="#003188"/>
<path d="M36.5213 12.2922H35.397V13.1824H36.5213V12.2922Z" fill="#003188"/>
<path d="M34.932 12.2922H33.8076V13.1824H34.932V12.2922Z" fill="#003188"/>
<path d="M14.7326 10.6738H13.7246V11.564H14.7326V10.6738Z" fill="#003188"/>
<path d="M16.3221 10.6738H15.1978V11.564H16.3221V10.6738Z" fill="#003188"/>
<path d="M17.9119 10.6738H16.7876V11.564H17.9119V10.6738Z" fill="#003188"/>
<path d="M19.4238 10.6738H18.377V11.564H19.4238V10.6738Z" fill="#003188"/>
<path d="M20.9744 10.6738H19.8501V11.564H20.9744V10.6738Z" fill="#003188"/>
<path d="M22.5643 10.6738H21.4399V11.564H22.5643V10.6738Z" fill="#003188"/>
<path d="M24.0373 10.6738H23.0293V11.564H24.0373V10.6738Z" fill="#003188"/>
<path d="M25.6268 10.6738H24.5024V11.564H25.6268V10.6738Z" fill="#003188"/>
<path d="M33.3425 10.6738H32.3345V11.564H33.3425V10.6738Z" fill="#003188"/>
<path d="M31.869 10.6738H30.7446V11.564H31.869V10.6738Z" fill="#003188"/>
<path d="M30.2796 10.6738H29.1553V11.564H30.2796V10.6738Z" fill="#003188"/>
<path d="M28.7284 10.6738H27.6816V11.564H28.7284V10.6738Z" fill="#003188"/>
<path d="M27.2166 10.6738H26.0923V11.564H27.2166V10.6738Z" fill="#003188"/>
<path d="M37.9948 10.6738H36.9868V11.564H37.9948V10.6738Z" fill="#003188"/>
<path d="M36.5213 10.6738H35.397V11.564H36.5213V10.6738Z" fill="#003188"/>
<path d="M34.932 10.6738H33.8076V11.564H34.932V10.6738Z" fill="#003188"/>
<path d="M14.7326 9.01514H13.7246V9.90528H14.7326V9.01514Z" fill="#003188"/>
<path d="M16.3221 9.01514H15.1978V9.90528H16.3221V9.01514Z" fill="#003188"/>
<path d="M17.9119 9.01514H16.7876V9.90528H17.9119V9.01514Z" fill="#003188"/>
<path d="M19.4238 9.01514H18.377V9.90528H19.4238V9.01514Z" fill="#003188"/>
<path d="M20.9744 9.01514H19.8501V9.90528H20.9744V9.01514Z" fill="#003188"/>
<path d="M22.5643 9.01514H21.4399V9.90528H22.5643V9.01514Z" fill="#003188"/>
<path d="M24.0373 9.01514H23.0293V9.90528H24.0373V9.01514Z" fill="#003188"/>
<path d="M25.6268 9.01514H24.5024V9.90528H25.6268V9.01514Z" fill="#003188"/>
<path d="M33.3425 9.01514H32.3345V9.90528H33.3425V9.01514Z" fill="#003188"/>
<path d="M31.869 9.01514H30.7446V9.90528H31.869V9.01514Z" fill="#003188"/>
<path d="M30.2796 9.01514H29.1553V9.90528H30.2796V9.01514Z" fill="#003188"/>
<path d="M28.7284 9.01514H27.6816V9.90528H28.7284V9.01514Z" fill="#003188"/>
<path d="M27.2166 9.01514H26.0923V9.90528H27.2166V9.01514Z" fill="#003188"/>
<path d="M37.9948 9.01514H36.9868V9.90528H37.9948V9.01514Z" fill="#003188"/>
<path d="M36.5213 9.01514H35.397V9.90528H36.5213V9.01514Z" fill="#003188"/>
<path d="M34.932 9.01514H33.8076V9.90528H34.932V9.01514Z" fill="#003188"/>
<path d="M49.3543 24.7949V17.1072H48.8891V17.4714H47.4158V17.0668H45.0896V17.4714H43.5V17.1072H43.1511V17.876L41.9492 18.6448H39.2353V8.5294H39.623V6.10172H39.2353V5.6971H34.1952V5.29249H32.9933V5.6971H26.48V3.26942H25.627V1.6105H27.5655V0.356201H25.2393V3.35034H24.5027V5.77803H17.9118V5.37341H16.7099V5.77803H12.5227L12.135 6.18264V8.73171H12.5227V7.07279H12.8717V8.32709H13.2594V7.07279H13.6471V8.32709H14.1123V7.07279H14.3837V8.32709H14.8489V7.07279H15.1203V8.32709H15.5856V7.07279H15.9733V8.32709H16.4385V7.07279H16.7099V8.32709H17.1751V7.07279H17.4465V8.32709H17.9118V7.07279H18.2995V8.32709H18.7647V7.07279H19.0361V8.32709H19.5013V7.07279H19.7727V8.32709H20.238V7.07279H20.6257V8.32709H21.0909V7.07279H21.3623V8.32709H21.8276V7.07279H22.0989V8.32709H22.5642V7.07279H22.9519V8.32709H23.4171V7.07279H23.6885V8.32709H24.1538V7.07279H24.4252V8.32709H24.8904V7.07279H25.2781V8.32709H25.7433V7.07279H26.0147V8.32709H26.48V7.07279H26.7514V8.32709H27.2166V7.07279H27.5655V8.32709H28.0308V7.07279H28.3022V8.32709H28.7674V7.07279H29.0388V8.32709H29.504V7.07279H29.8917V8.32709H30.357V7.07279H30.6284V8.32709H31.0936V7.07279H31.4038V8.32709H31.869V7.07279H32.2567V8.32709H32.722V7.07279H32.9933V8.32709H33.4586V7.07279H33.73V8.32709H34.1952V7.07279H34.5441V8.32709H35.0094V7.07279H35.2808V8.32709H35.7072V7.07279H36.0174V8.32709H36.4826V7.07279H36.8703V8.32709H37.3356V7.07279H37.607V8.32709H38.0722V7.07279H38.3436V8.32709H38.8089V7.07279H39.1966V8.61032H38.8476V18.8066H37.9947V17.9569H36.9867V18.8066H36.5214V17.9569H35.3971V18.8066H34.9318V17.9569H33.8075V18.8066H33.3423V17.9569H32.3342V18.8066H31.869V17.9569H30.7447V18.8066H30.2794V17.9569H29.1551V18.8066H28.6899V17.9569H27.6818V18.8066H27.2166V17.9569H26.0923V18.8066H25.627V17.9569H24.5027V18.8066H24.0375V17.9569H23.0294V18.8066H22.5642V17.9569H21.4399V18.8066H20.9746V17.9569H19.8503V18.8066H19.385V17.9569H18.377V18.8066H17.9118V17.9569H16.7874V18.8066H16.3222V17.9569H15.1979V18.8066H14.7326V17.9569H13.7246V18.8066H12.8717V8.65079H12.5227L12.484 18.8066H10.0802L8.91712 17.5523V17.1477H8.56819V17.5118H6.97862V17.1477H4.65241V17.5523H3.17914V17.1881H2.71391V24.8758H0V25.6446H51.1765V24.8758L49.3543 24.7949ZM13.2594 6.70864H12.7941V6.18264H13.2594V6.70864ZM14.0735 6.70864H13.6083V6.18264H14.0735V6.70864ZM14.8489 6.70864H14.3837V6.18264H14.8489V6.70864ZM15.5856 6.70864H15.1203V6.18264H15.5856V6.70864ZM16.3997 6.70864H15.9345V6.18264H16.3997V6.70864ZM17.1751 6.70864H16.7099V6.18264H17.1751V6.70864ZM17.9118 6.70864H17.4465V6.18264H17.9118V6.70864ZM18.7259 6.70864H18.2607V6.18264H18.7259V6.70864ZM19.0361 6.70864V6.18264H19.5013V6.70864H19.0361ZM20.238 6.70864H19.7727V6.18264H20.238V6.70864ZM21.0522 6.70864H20.5869V6.18264H21.0522V6.70864ZM21.3623 6.70864V6.18264H21.8276V6.70864H21.3623ZM22.0989 6.70864V6.18264H22.5642V6.70864H22.0989ZM23.3784 6.70864H22.9131V6.18264H23.3784V6.70864ZM24.115 6.70864H23.6498V6.18264H24.115V6.70864ZM24.8904 6.70864H24.4252V6.18264H24.8904V6.70864ZM25.7046 6.70864H25.2393V6.18264H25.7046V6.70864ZM24.8904 5.41388V4.92833H26.0147V5.41388H24.8904ZM26.4412 6.70864H25.976V6.18264H26.4412V6.70864ZM26.7514 6.70864V6.18264H27.2166V6.70864H26.7514ZM28.0308 6.70864H27.5655V6.18264H28.0308V6.70864ZM28.7674 6.70864H28.3022V6.18264H28.7674V6.70864ZM29.5428 6.70864H29.0776V6.18264H29.5428V6.70864ZM30.357 6.70864H29.8917V6.18264H30.357V6.70864ZM31.0936 6.70864H30.6284V6.18264H31.0936V6.70864ZM31.869 6.70864H31.4038V6.18264H31.869V6.70864ZM32.6832 6.70864H32.2179V6.18264H32.6832V6.70864ZM33.4198 6.70864H32.9546V6.18264H33.4198V6.70864ZM34.1952 6.70864H33.73V6.18264H34.1952V6.70864ZM35.0094 6.70864H34.5441V6.18264H35.0094V6.70864ZM35.746 6.70864H35.2808V6.18264H35.746V6.70864ZM36.5214 6.70864H36.0562V6.18264H36.5214V6.70864ZM37.3356 6.70864H36.8703V6.18264H37.3356V6.70864ZM38.0722 6.70864H37.607V6.18264H38.0722V6.70864ZM38.8476 6.70864H38.3824V6.18264H38.8476V6.70864ZM7.87032 24.7949V19.1707H7.48262V24.7949H6.62969V18.6852H6.97862V18.3211H4.65241V18.7257H5.11764V24.8353H4.30348V19.2112H3.91578V24.8353H3.21791V17.9569H8.60695V24.8353L7.87032 24.7949ZM41.9105 24.7949H10.1965V19.1707H41.9105V24.7949ZM48.1524 24.7949V19.1707H47.6872V24.7949H46.9506V18.6852H47.4158V18.2806H45.0896V18.6852H45.4773V24.7949H44.7407V19.1707H44.2367V24.7949H43.5V17.9164H48.8891V24.7949H48.1524Z" fill="#003188"/>
<path d="M0.116211 29.7717H3.41167V34.1011H2.59749V30.5H0.969158V34.1011H0.116211V29.7717Z" fill="#003188"/>
<path d="M4.30371 34.1416V29.7717H5.66066C6.16467 29.7717 6.5136 29.8122 6.66868 29.8527C6.9013 29.9336 7.09515 30.055 7.25023 30.2977C7.40531 30.5 7.48285 30.7833 7.48285 31.1474C7.48285 31.4306 7.44408 31.6329 7.32777 31.8353C7.21146 32.0376 7.13392 32.1589 6.97884 32.2803C6.82376 32.4017 6.70745 32.4422 6.55237 32.4826C6.35852 32.5231 6.04835 32.5636 5.69942 32.5636H5.15665V34.2225H4.30371V34.1416ZM5.11787 30.5405V31.7543H5.58312C5.93205 31.7543 6.1259 31.7139 6.24221 31.6734C6.35853 31.633 6.43606 31.552 6.5136 31.4711C6.59114 31.3902 6.59114 31.2688 6.59114 31.1474C6.59114 30.9856 6.55237 30.8642 6.47483 30.7428C6.39729 30.6214 6.28098 30.581 6.1259 30.5405C6.00959 30.5405 5.81573 30.5 5.50557 30.5H5.11787V30.5405Z" fill="#003188"/>
<path d="M11.3986 34.1416H10.5069L10.1192 33.13H8.45206L8.10313 34.1011H7.21143L8.83976 29.7717H9.73148L11.3986 34.1416ZM9.88656 32.4017L9.30501 30.7833L8.72346 32.4017H9.88656Z" fill="#003188"/>
<path d="M11.8635 29.7717H13.5306C13.8408 29.7717 14.1121 29.7717 14.2672 29.8122C14.4223 29.8526 14.5774 29.8931 14.6937 29.974C14.81 30.055 14.9263 30.1763 15.0039 30.3382C15.0814 30.5 15.1202 30.6619 15.1202 30.8642C15.1202 31.0665 15.0814 31.2688 14.9651 31.4306C14.8488 31.5925 14.7325 31.7139 14.5386 31.7948C14.81 31.8757 15.0039 31.9971 15.1202 32.1994C15.2365 32.4017 15.314 32.604 15.314 32.8468C15.314 33.0491 15.2752 33.2514 15.1977 33.4132C15.1202 33.6156 15.0039 33.7369 14.8488 33.8583C14.6937 33.9797 14.4998 34.0202 14.2672 34.0606C14.1121 34.0606 13.802 34.1011 13.2592 34.1011H11.8247V29.7717H11.8635ZM12.7164 30.5V31.5116H13.8795C14.0346 31.5116 14.1509 31.4306 14.2284 31.3497C14.306 31.2688 14.3448 31.1474 14.3448 31.026C14.3448 30.9046 14.306 30.7833 14.2284 30.7023C14.1509 30.6214 14.0346 30.581 13.9183 30.5405H12.7164V30.5ZM12.7164 32.2399V33.4132H13.4918C13.802 33.4132 13.9958 33.4132 14.0734 33.3728C14.1897 33.3323 14.306 33.2919 14.3835 33.2109C14.4611 33.13 14.4998 33.0086 14.4998 32.8468C14.4998 32.7254 14.4611 32.604 14.4223 32.5231C14.3835 32.4422 14.2672 32.3613 14.1509 32.3208C14.0346 32.2803 13.802 32.2399 13.4143 32.2399H12.7164Z" fill="#003188"/>
<path d="M16.0894 29.7717H16.8648V32.6445L18.5706 29.7717H19.4236V34.1011H18.6482V31.2688L16.9811 34.1011H16.1281V29.7717H16.0894Z" fill="#003188"/>
<path d="M21.1684 34.1414V30.5403H19.9277V29.812H23.2232V30.5403H21.9825V34.1414H21.1684Z" fill="#003188"/>
<path d="M23.8047 34.1416V29.7717H26.9063V30.5H24.6576V31.4711H26.7512V32.1994H24.6576V33.3728H26.9838V34.1011H23.8047V34.1416Z" fill="#003188"/>
<path d="M27.9533 29.7717H30.8611V34.1011H30.0081V30.5H28.7675V32.3613C28.7675 32.8873 28.7675 33.2514 28.7287 33.4942C28.69 33.6965 28.6124 33.8583 28.4961 33.9797C28.3798 34.1011 28.1472 34.1416 27.8758 34.1416C27.7595 34.1416 27.6044 34.1416 27.333 34.1011V33.4133H27.5269C27.7207 33.4133 27.837 33.3728 27.8758 33.3323C27.9146 33.2919 27.9533 33.1705 27.9533 32.9682V29.7717Z" fill="#003188"/>
<path d="M31.7526 29.7717H32.6056V31.5116H33.7299C34.2727 31.5116 34.6604 31.633 34.893 31.9162C35.1256 32.159 35.2419 32.4826 35.2419 32.8468C35.2419 33.13 35.1644 33.4133 35.0093 33.6156C34.8542 33.8179 34.6992 33.9797 34.5053 34.0202C34.3115 34.1011 34.0401 34.1416 33.6911 34.1416H31.7139V29.7717H31.7526ZM32.6056 33.4133H33.4198C33.6911 33.4133 33.885 33.4132 33.9625 33.3728C34.0788 33.3323 34.1564 33.2919 34.2339 33.1705C34.3115 33.0896 34.3502 32.9682 34.3502 32.8063C34.3502 32.604 34.2727 32.4422 34.1564 32.3613C34.0013 32.2803 33.7687 32.2399 33.4585 32.2399H32.6056V33.4133Z" fill="#003188"/>
<path d="M38.4601 32.523L39.2743 32.8062C39.158 33.2917 38.9253 33.6154 38.654 33.8582C38.3438 34.101 37.9949 34.2223 37.5296 34.2223C36.9868 34.2223 36.5216 34.02 36.1727 33.6154C35.8237 33.2108 35.6299 32.6848 35.6299 31.997C35.6299 31.2687 35.8237 30.7022 36.1727 30.2976C36.5216 29.893 36.9868 29.6907 37.5684 29.6907C38.0724 29.6907 38.4989 29.8525 38.809 30.1762C39.0029 30.3785 39.158 30.6213 39.2355 30.9854L38.4213 31.1877C38.3826 30.945 38.2662 30.7831 38.1112 30.6617C37.9561 30.5404 37.7622 30.4594 37.5296 30.4594C37.2195 30.4594 36.9868 30.5808 36.793 30.8236C36.5991 31.0664 36.5216 31.4305 36.5216 31.9565C36.5216 32.523 36.5991 32.8871 36.793 33.1299C36.9868 33.3727 37.2195 33.494 37.5296 33.494C37.7622 33.494 37.9561 33.4131 38.1112 33.2917C38.2662 33.0894 38.3826 32.8467 38.4601 32.523Z" fill="#003188"/>
<path d="M40.786 34.1414V30.5403H39.5454V29.812H42.8409V30.5403H41.6002V34.1414H40.786Z" fill="#003188"/>
<path d="M43.3835 29.7717H45.0506C45.3608 29.7717 45.6322 29.7717 45.7872 29.8122C45.9423 29.8526 46.0974 29.8931 46.2137 29.974C46.33 30.055 46.4463 30.1763 46.5239 30.3382C46.6014 30.5 46.6402 30.6619 46.6402 30.8642C46.6402 31.0665 46.6014 31.2688 46.4851 31.4306C46.3688 31.5925 46.2525 31.7139 46.0586 31.7948C46.33 31.8757 46.5239 31.9971 46.6402 32.1994C46.7565 32.4017 46.834 32.604 46.834 32.8468C46.834 33.0491 46.7953 33.2514 46.7177 33.4132C46.6402 33.6156 46.5239 33.7369 46.3688 33.8583C46.2137 33.9797 46.0199 34.0202 45.7872 34.0606C45.6322 34.0606 45.322 34.1011 44.7792 34.1011H43.3447V29.7717H43.3835ZM44.2364 30.5V31.5116H45.3995C45.5546 31.5116 45.6709 31.4306 45.7485 31.3497C45.826 31.2688 45.8648 31.1474 45.8648 31.026C45.8648 30.9046 45.826 30.7833 45.7485 30.7023C45.6709 30.6214 45.5546 30.581 45.4383 30.5405H44.2364V30.5ZM44.2364 32.2399V33.4132H45.0118C45.322 33.4132 45.5159 33.4132 45.5934 33.3728C45.7097 33.3323 45.826 33.2919 45.9036 33.2109C45.9811 33.13 46.0199 33.0086 46.0199 32.8468C46.0199 32.7254 45.9811 32.604 45.9423 32.5231C45.9036 32.4422 45.7872 32.3613 45.6709 32.3208C45.5546 32.2803 45.322 32.2399 44.9343 32.2399H44.2364Z" fill="#003188"/>
<path d="M47.2993 31.997C47.2993 31.5519 47.3769 31.1877 47.4932 30.8641C47.5707 30.6617 47.7258 30.4594 47.8809 30.2571C48.036 30.0953 48.2298 29.9334 48.4237 29.8525C48.695 29.7311 48.9664 29.6907 49.3154 29.6907C49.9357 29.6907 50.4009 29.893 50.7886 30.2976C51.1376 30.7022 51.3314 31.2282 51.3314 31.9565C51.3314 32.6443 51.1376 33.2108 50.7886 33.6154C50.4397 34.02 49.9357 34.2223 49.3154 34.2223C48.695 34.2223 48.191 34.02 47.8421 33.6154C47.4544 33.2108 47.2993 32.6848 47.2993 31.997ZM48.1523 31.9565C48.1523 32.442 48.2686 32.8062 48.4624 33.0894C48.695 33.3322 48.9664 33.4536 49.2766 33.4536C49.6255 33.4536 49.8969 33.3322 50.0908 33.0894C50.3234 32.8467 50.4009 32.442 50.4009 31.9565C50.4009 31.471 50.2846 31.1068 50.0908 30.8236C49.8969 30.5808 49.5868 30.4594 49.2766 30.4594C48.9277 30.4594 48.6563 30.5808 48.4237 30.8236C48.2686 31.0664 48.1523 31.471 48.1523 31.9565Z" fill="#003188"/>
<path d="M4.88525 40.413V36.0432H6.24221C6.74622 36.0432 7.09514 36.0837 7.25022 36.1241C7.48284 36.2051 7.67669 36.3264 7.83177 36.5692C7.98685 36.7715 8.06439 37.0547 8.06439 37.4189C8.06439 37.7021 8.02562 37.9044 7.90931 38.1067C7.793 38.309 7.71547 38.4304 7.56039 38.5518C7.4053 38.6732 7.28899 38.7137 7.13391 38.7541C6.94006 38.7946 6.6299 38.835 6.28097 38.835H5.73819V40.413H4.88525ZM5.73819 36.812V38.0258H6.20343C6.55236 38.0258 6.74621 37.9854 6.86252 37.9449C6.97883 37.9044 7.05637 37.8235 7.13391 37.7426C7.21145 37.6617 7.21146 37.5403 7.21146 37.4189C7.21146 37.2571 7.17268 37.1357 7.09514 37.0143C7.0176 36.8929 6.90129 36.8524 6.74621 36.812C6.6299 36.812 6.43605 36.7715 6.12589 36.7715H5.73819V36.812Z" fill="#003188"/>
<path d="M8.60693 38.2684C8.60693 37.8234 8.68447 37.4592 8.80078 37.1355C8.87832 36.9332 9.0334 36.7309 9.18848 36.5286C9.34357 36.3668 9.53743 36.2049 9.73128 36.124C10.0027 36.0026 10.2741 35.9622 10.623 35.9622C11.2433 35.9622 11.7085 36.1645 12.0962 36.5691C12.4452 36.9737 12.639 37.4997 12.639 38.228C12.639 38.9158 12.4452 39.4823 12.0962 39.8869C11.7473 40.2915 11.2433 40.4938 10.623 40.4938C10.0027 40.4938 9.49866 40.2915 9.14972 39.8869C8.80079 39.4823 8.60693 38.9563 8.60693 38.2684ZM9.45988 38.228C9.45988 38.7135 9.57619 39.0777 9.77004 39.3609C10.0027 39.6037 10.274 39.725 10.5842 39.725C10.9331 39.725 11.2045 39.6037 11.3984 39.3609C11.631 39.1181 11.7085 38.7135 11.7085 38.228C11.7085 37.7424 11.5922 37.3783 11.3984 37.0951C11.2045 36.8523 10.8944 36.7309 10.5842 36.7309C10.2353 36.7309 9.9639 36.8523 9.73128 37.0951C9.5762 37.3378 9.45988 37.7424 9.45988 38.228Z" fill="#003188"/>
<path d="M16.0509 38.7944L16.8651 39.0777C16.7488 39.5632 16.5162 39.8869 16.2448 40.1297C15.9346 40.3724 15.5857 40.4938 15.1204 40.4938C14.5777 40.4938 14.1124 40.2915 13.7635 39.8869C13.4146 39.4823 13.2207 38.9563 13.2207 38.2684C13.2207 37.5401 13.4146 36.9737 13.7635 36.5691C14.1124 36.1645 14.5777 35.9622 15.1592 35.9622C15.6632 35.9622 16.0897 36.124 16.3998 36.4477C16.5937 36.65 16.7488 36.8928 16.8263 37.2569L16.0121 37.4592C15.9734 37.2165 15.8571 37.0546 15.702 36.9332C15.5469 36.8118 15.3531 36.7309 15.1204 36.7309C14.8103 36.7309 14.5777 36.8523 14.3838 37.0951C14.19 37.3378 14.1124 37.702 14.1124 38.228C14.1124 38.7944 14.19 39.1586 14.3838 39.4014C14.5777 39.6441 14.8103 39.7655 15.1204 39.7655C15.3531 39.7655 15.5469 39.6846 15.702 39.5632C15.8571 39.3609 15.9734 39.1181 16.0509 38.7944Z" fill="#003188"/>
<path d="M20.3156 38.7944L21.1297 39.0777C21.0134 39.5632 20.7808 39.8869 20.5094 40.1297C20.1992 40.3724 19.8503 40.4938 19.3851 40.4938C18.8423 40.4938 18.3771 40.2915 18.0281 39.8869C17.6792 39.4823 17.4854 38.9563 17.4854 38.2684C17.4854 37.5401 17.6792 36.9737 18.0281 36.5691C18.3771 36.1645 18.8423 35.9622 19.4239 35.9622C19.9279 35.9622 20.3543 36.124 20.6645 36.4477C20.8583 36.65 21.0134 36.8928 21.091 37.2569L20.2768 37.4592C20.238 37.2165 20.1217 37.0546 19.9666 36.9332C19.8116 36.8118 19.6177 36.7309 19.3851 36.7309C19.0749 36.7309 18.8423 36.8523 18.6485 37.0951C18.4546 37.3378 18.3771 37.702 18.3771 38.228C18.3771 38.7944 18.4546 39.1586 18.6485 39.4014C18.8423 39.6441 19.0749 39.7655 19.3851 39.7655C19.6177 39.7655 19.8116 39.6846 19.9666 39.5632C20.1605 39.3609 20.2768 39.1181 20.3156 38.7944Z" fill="#003188"/>
<path d="M21.9824 36.0432H22.7578V38.916L24.4637 36.0432H25.3166V40.413H24.5412V37.5807L22.8741 40.413H22.0212V36.0432H21.9824Z" fill="#003188"/>
<path d="M26.2476 36.0432H27.023V38.916L28.7289 36.0432H29.5818V40.413H28.8064V37.5807L27.1393 40.413H26.2863V36.0432H26.2476ZM28.3799 34.9912H28.7676C28.7289 35.2744 28.6513 35.4767 28.4962 35.6386C28.3412 35.8004 28.1473 35.8814 27.8759 35.8814C27.6045 35.8814 27.4107 35.8004 27.2556 35.6386C27.1005 35.4767 27.023 35.2744 26.9842 34.9912H27.3719C27.3719 35.1126 27.4494 35.234 27.527 35.3149C27.6045 35.3958 27.7208 35.4363 27.8759 35.4363C28.031 35.4363 28.1473 35.3958 28.2248 35.3149C28.3411 35.234 28.3799 35.1126 28.3799 34.9912Z" fill="#003188"/>
<path d="M33.1486 38.7944L33.9627 39.0777C33.8464 39.5632 33.6138 39.8869 33.3424 40.1297C33.0323 40.3724 32.6833 40.4938 32.2181 40.4938C31.6753 40.4938 31.2101 40.2915 30.8611 39.8869C30.5122 39.4823 30.3184 38.9563 30.3184 38.2684C30.3184 37.5401 30.5122 36.9737 30.8611 36.5691C31.2101 36.1645 31.6753 35.9622 32.2569 35.9622C32.7609 35.9622 33.1873 36.124 33.4975 36.4477C33.6914 36.65 33.8464 36.8928 33.924 37.2569L33.1098 37.4592C33.071 37.2165 32.9547 37.0546 32.7996 36.9332C32.6446 36.8118 32.4507 36.7309 32.2181 36.7309C31.9079 36.7309 31.6753 36.8523 31.4815 37.0951C31.2876 37.3378 31.2101 37.702 31.2101 38.228C31.2101 38.7944 31.2876 39.1586 31.4815 39.4014C31.6753 39.6441 31.9079 39.7655 32.2181 39.7655C32.4507 39.7655 32.6446 39.6846 32.7996 39.5632C32.9547 39.3609 33.071 39.1181 33.1486 38.7944Z" fill="#003188"/>
<path d="M34.7769 36.0431H35.6298V37.9044C35.8237 37.9044 35.94 37.8235 36.0175 37.7425C36.095 37.6616 36.1726 37.4188 36.3277 37.0547C36.4827 36.5691 36.6766 36.2859 36.8704 36.1645C37.0255 36.0432 37.3357 36.0027 37.7234 36.0027H37.8397V36.6501H37.7234C37.5683 36.6501 37.4132 36.6905 37.3357 36.731C37.2581 36.7715 37.1806 36.8524 37.1418 36.9333C37.1031 37.0142 37.0255 37.2165 36.9092 37.4998C36.8704 37.6616 36.7929 37.783 36.7541 37.8639C36.6766 37.9448 36.5991 38.0662 36.444 38.1471C36.6378 38.1876 36.7929 38.309 36.9092 38.4708C37.0255 38.6327 37.1806 38.8755 37.2969 39.1991L37.8785 40.3725H36.8704L36.3664 39.2396C36.3664 39.2396 36.3277 39.1991 36.3277 39.1587C36.3277 39.1587 36.2889 39.0778 36.2114 38.9564C36.095 38.7541 36.0175 38.5922 35.94 38.5518C35.8624 38.5113 35.7461 38.4708 35.6298 38.4708V40.413H34.7769V36.0431Z" fill="#003188"/>
<path d="M38.2275 38.2684C38.2275 37.8234 38.3051 37.4592 38.4214 37.1355C38.4989 36.9332 38.654 36.7309 38.8091 36.5286C38.9642 36.3668 39.158 36.2049 39.3519 36.124C39.6233 36.0026 39.8946 35.9622 40.2436 35.9622C40.8639 35.9622 41.3291 36.1645 41.7168 36.5691C42.0658 36.9737 42.2596 37.4997 42.2596 38.228C42.2596 38.9158 42.0658 39.4823 41.7168 39.8869C41.3679 40.2915 40.8639 40.4938 40.2436 40.4938C39.6233 40.4938 39.1193 40.2915 38.7703 39.8869C38.4214 39.4823 38.2275 38.9563 38.2275 38.2684ZM39.1193 38.228C39.1193 38.7135 39.2356 39.0777 39.4294 39.3609C39.662 39.6037 39.9334 39.725 40.2436 39.725C40.5925 39.725 40.8639 39.6037 41.0578 39.3609C41.2904 39.1181 41.3679 38.7135 41.3679 38.228C41.3679 37.7424 41.2516 37.3783 41.0578 37.0951C40.8639 36.8523 40.5537 36.7309 40.2436 36.7309C39.8946 36.7309 39.6233 36.8523 39.3906 37.0951C39.2356 37.3378 39.1193 37.7424 39.1193 38.228Z" fill="#003188"/>
<path d="M43.0347 36.0432H43.8101V38.916L45.5159 36.0432H46.3689V40.413H45.5935V37.5807L43.9264 40.413H43.0734V36.0432H43.0347ZM45.2058 34.9912H45.5935C45.5547 35.2744 45.4772 35.4767 45.3221 35.6386C45.167 35.8004 44.9732 35.8814 44.7018 35.8814C44.4304 35.8814 44.2365 35.8004 44.0815 35.6386C43.9264 35.4767 43.8488 35.2744 43.8101 34.9912H44.1978C44.1978 35.1126 44.2753 35.234 44.3528 35.3149C44.4304 35.3958 44.5467 35.4363 44.7018 35.4363C44.8569 35.4363 44.9732 35.3958 45.0507 35.3149C45.1282 35.234 45.167 35.1126 45.2058 34.9912Z" fill="#003188"/>
<path d="M9.65394 46.1585V46.6845H8.83977V46.1585C8.18067 46.1181 7.71543 45.9562 7.44404 45.6325C7.17265 45.3088 7.01758 44.9042 7.01758 44.4591C7.01758 43.9736 7.17265 43.569 7.44404 43.2453C7.71543 42.9216 8.18067 42.7598 8.83977 42.7598V42.3147H9.65394V42.7598C10.313 42.8002 10.7783 42.9621 11.0497 43.2858C11.3211 43.6095 11.4761 44.0141 11.4761 44.4996C11.4761 44.9851 11.3211 45.3898 11.0497 45.673C10.7783 45.9562 10.313 46.1585 9.65394 46.1585ZM8.83977 45.4302V43.4881C8.49083 43.4881 8.21944 43.569 8.06436 43.7308C7.90928 43.8927 7.83174 44.1355 7.83174 44.4591C7.83174 45.1065 8.1419 45.4302 8.83977 45.4302ZM9.65394 45.4302C9.88656 45.4302 10.0804 45.3898 10.2355 45.3088C10.3906 45.2279 10.5069 45.147 10.5844 44.9851C10.662 44.8638 10.7007 44.6615 10.7007 44.4187C10.7007 43.7713 10.3518 43.4881 9.69271 43.4881V45.4302H9.65394Z" fill="#003188"/>
<path d="M12.2124 46.6846V42.3552H15.314V43.0835H13.0653V44.0546H15.1589V44.7829H13.0653V45.9563H15.3915V46.6846H12.2124Z" fill="#003188"/>
<path d="M16.5158 42.3147H19.3848V45.9158H19.7337V47.5747H19.0359V46.6441H16.3995V47.5747H15.7017V45.9158H16.0506C16.2057 45.5516 16.322 45.1065 16.3995 44.621C16.4383 44.1355 16.4771 43.5285 16.4771 42.7598V42.3147H16.5158ZM17.33 43.043C17.33 44.3782 17.2137 45.3088 16.9811 45.9158H18.5706V43.043H17.33Z" fill="#003188"/>
<path d="M20.4316 46.6846V42.3552H23.5332V43.0835H21.2846V44.0546H23.3782V44.7829H21.2846V45.9563H23.6108V46.6846H20.4316Z" fill="#003188"/>
<path d="M24.3862 46.6846V42.3552H25.7432C26.2472 42.3552 26.5961 42.3957 26.7512 42.4361C26.9838 42.5171 27.1777 42.6385 27.3328 42.8812C27.4878 43.0835 27.5654 43.3668 27.5654 43.7309C27.5654 44.0141 27.5266 44.2164 27.4103 44.4188C27.294 44.6211 27.2164 44.7424 27.0614 44.8638C26.9063 44.9852 26.79 45.0257 26.6349 45.0661C26.441 45.1066 26.1309 45.1471 25.782 45.1471H25.2392V46.806H24.3862V46.6846ZM25.2392 43.0835V44.2974H25.7044C26.0533 44.2974 26.2472 44.2569 26.3635 44.2164C26.4798 44.176 26.5574 44.0951 26.6349 44.0141C26.7124 43.9332 26.7124 43.8118 26.7124 43.6904C26.7124 43.5286 26.6737 43.4072 26.5961 43.2858C26.5186 43.1645 26.4023 43.124 26.2472 43.0835C26.1309 43.0835 25.937 43.0431 25.6269 43.0431H25.2392V43.0835Z" fill="#003188"/>
<path d="M31.5978 46.6846H30.6673L30.3184 45.7135H28.6513L28.3024 46.6846H27.4106L29.039 42.3552H29.9307L31.5978 46.6846ZM30.047 44.9448L29.4655 43.3263L28.8839 44.9448H30.047Z" fill="#003188"/>
<path d="M32.1401 42.3147H32.9931V45.9158H34.6214V42.3147H35.4744V45.9158H35.8233V47.5747H35.1254V46.6441H32.1789V42.3147H32.1401Z" fill="#003188"/>
<path d="M36.4824 42.3147H37.2578V45.1875L38.9637 42.3147H39.8167V46.6441H39.0412V43.8118L37.3741 46.6441H36.4824V42.3147Z" fill="#003188"/>
<path d="M40.7476 42.3147H41.523V45.1875L43.2288 42.3147H44.0818V46.6441H43.3064V43.8118L41.6393 46.6441H40.7476V42.3147Z" fill="#003188"/>
</g>
</g>
<defs>
<clipPath id="clip0">
<rect y="0.356201" width="51.1765" height="47.3398" fill="white"/>
</clipPath>
</defs>
</svg>
