<svg xmlns="http://www.w3.org/2000/svg" width="520" height="383" viewBox="0 0 520 383" fill="none"> <path d="M189.667 84.7055C197.716 92.6016 210.394 88.5093 199.373 77.6489C193.192 71.5628 180.566 75.7863 189.667 84.7055Z" fill="#EBF2FF"></path> <path d="M238.037 84.4697C242.246 86.306 246.191 74.9209 240.931 73.9765C235.17 72.9272 232.146 81.8988 238.037 84.4697Z" fill="#EBF2FF"></path> <path d="M220.914 108.184C221.809 108.158 222.545 108.079 222.94 107.974C226.227 107.03 227.516 103.2 223.124 103.016C221.151 102.938 216.285 103.043 215.338 105.404C214.418 107.712 218.258 108.237 220.914 108.184Z" fill="#EBF2FF"></path> <path d="M196.584 170.146C212.287 175.183 234.933 167.392 242.456 152.072C249.189 138.352 239.484 143.756 232.224 147.297C223.755 151.442 214.47 154.197 205.001 154.406C195.48 154.616 185.932 152.203 178.094 146.668C174.701 144.254 170.019 135.991 165.679 140.87C158.972 148.478 189.193 167.759 196.584 170.146Z" fill="#EBF2FF"></path> <path d="M77.7502 214.244C97.9768 218.231 117.388 208.551 130.513 193.52C135.458 187.853 159.735 153.856 148.82 147.665C146.978 146.615 119.413 159.233 101.791 173.137C97.7927 176.285 69.9121 212.696 77.7502 214.244Z" fill="#EBF2FF"></path> <path d="M107.446 234.942C99.7652 240.057 110.023 271.222 118.65 265.503C127.041 259.942 116.835 228.699 107.446 234.942Z" fill="#EBF2FF"></path> <path d="M110.628 317.995C108.84 303.777 92.0587 325.392 88.6394 328.462C81.0643 335.282 63.652 350.524 68.5706 362.617C73.8837 375.707 84.8255 362.774 88.8761 356.426C95.3202 346.379 112.259 330.77 110.628 317.995Z" fill="#EBF2FF"></path> <path d="M130.802 264.138C131.328 260.335 138.009 231.557 131.354 231.636C125.515 231.715 125.226 258.761 124.647 262.879C121.202 287.381 116.862 311.777 111.654 335.964C110.234 342.548 102.132 363.141 106.525 367.365C111.864 372.48 115.626 347.27 116.467 343.467C122.28 317.208 127.067 290.739 130.802 264.138Z" fill="#EBF2FF"></path> <path d="M161.313 357.737C153.501 355.534 127.067 346.247 121.859 355.429C116.389 365.056 133.932 374.736 140.298 378.068C148.241 382.213 159.63 385.413 168.047 380.324C181.066 372.506 172.308 360.807 161.313 357.737Z" fill="#EBF2FF"></path> <path d="M234.276 306.688C224.36 306.688 214.26 308.577 204.554 309.469C196.19 310.23 187.168 311.017 179.357 314.322C175.543 315.949 171.282 319.018 174.017 323.53C178.278 330.508 197.9 329.852 204.975 330.482C218.679 331.662 245.376 334.6 257.028 325.025C268.075 315.949 254.135 309.286 245.534 307.659C241.799 306.951 238.064 306.688 234.276 306.688Z" fill="#EBF2FF"></path> <path d="M318.576 334.128C289.722 318.625 300.532 285.466 301.61 259.076C301.926 251.285 301.716 225.76 291.852 222.534C281.726 219.202 289.301 246.537 289.432 251.259C289.906 266.579 287.223 281.794 285.25 296.904C283.725 308.682 279.201 326.337 285.855 337.302C291.195 346.091 310.79 354.826 321.022 355.639C339.486 357.161 327.229 338.798 318.576 334.128Z" fill="#EBF2FF"></path> <path d="M341.38 272.691C331.99 259.207 319.076 294.359 321.916 302.413C328.387 320.644 349.429 284.233 341.38 272.691Z" fill="#EBF2FF"></path> <path d="M426.389 247.743C413.369 236.699 401.349 224.449 390.644 211.148C386.646 206.19 378.887 189.926 373.6 187.329C367.813 184.496 368.129 187.959 369.602 192.759C373.626 205.876 390.065 220.776 399.271 230.639C404.979 236.725 410.871 243.126 417.42 248.294C418.735 249.317 422.049 253.593 424.18 253.095C426.152 252.623 428.914 249.894 426.389 247.743Z" fill="#EBF2FF"></path> <path d="M458.689 145.304C451.587 138.798 443.591 128.226 433.044 134.679C427.415 138.116 414.501 156.033 415.974 162.827C419.051 176.94 431.676 161.148 438.278 158.813C442.881 157.161 472.392 157.895 458.689 145.304Z" fill="#EBF2FF"></path> <path d="M499.326 120.514C497.275 112.906 481.861 106.086 474.996 109.837C464.423 115.582 477.311 122.534 479.547 128.934C481.23 133.788 475.496 150.996 485.254 149.842C491.251 149.134 500.773 125.918 499.326 120.514Z" fill="#EBF2FF"></path> <path d="M0.525689 280.429C0.0259421 280.429 0.0259421 281.216 0.525689 281.216C1.05174 281.216 1.05174 280.429 0.525689 280.429Z" fill="#EBF2FF"></path> <path d="M298.218 170.855C293.588 165.32 271.889 142.444 263.498 146.301C260.947 145.828 260.447 147.875 261.105 151.101C261.368 158.84 270.442 172.691 273.283 176.285C281.779 187.04 293.878 201.285 307.292 198.111C319.838 195.173 300.033 173.032 298.218 170.855Z" fill="#EBF2FF"></path> <path d="M424.181 61.6212C421.708 62.1721 421.261 58.2634 423.733 57.7125C429.967 56.3222 436.253 55.1679 442.54 54.1449C464.476 50.5247 508.138 41.0809 508.217 40.9759C504.298 40.53 411.661 24.9214 402.902 23.6885C405.348 27.4922 417.684 44.0977 413.844 50.4985C410.871 58.5257 409.214 62.8804 407.084 69.255C404.533 76.8888 423.155 69.3862 428.626 70.7503C428.652 70.7503 428.652 70.7503 428.678 70.7503C433.123 77.7544 437.647 84.6799 443.039 91.0283C443.907 92.0251 445.459 91.789 446.38 91.0283C464.502 76.0755 506.849 47.5604 510.716 45.1732C510.216 45.2519 446.459 56.6632 424.181 61.6212Z" fill="#CFF1FF"></path> <path d="M185.959 49.0556C204.371 43.2844 261.184 48.0063 246.06 16.4482C243.772 11.6476 229.463 -0.70813 225.912 3.5416C226.149 3.27927 226.754 8.73571 226.544 9.47023C224.439 16.1858 219.863 18.232 212.998 19.4912C200.11 21.8784 185.564 18.1533 174.386 26.7839C168.362 31.4271 156.132 52.8332 161.234 61.6212C163.733 65.9234 169.23 61.2277 172.15 63.0902C175.99 65.5561 173.754 68.6254 175.832 70.724C178.384 73.321 178.778 75.4721 180.882 70.0944C185.512 58.2371 180.777 50.6821 185.959 49.0556Z" fill="#CFF1FF"></path> <path d="M174.596 64.769C170.887 62.4343 165.785 62.6179 162.234 65.1887C158.709 67.7595 156.973 72.5602 158.078 76.7836C158.841 79.7217 160.813 82.2401 163.233 84.0764C165.89 86.0701 169.125 87.303 172.439 87.5654" stroke="#003188" stroke-width="2" stroke-miterlimit="10" stroke-linecap="round" stroke-linejoin="round"></path> <path d="M165.18 72.1406C166.916 73.1112 168.678 74.0818 170.414 75.0525" stroke="#003188" stroke-width="2" stroke-miterlimit="10" stroke-linecap="round" stroke-linejoin="round"></path> <path d="M206.501 70.5138C206.343 72.1927 206.448 73.8978 206.816 75.5505C207.579 73.8978 207.553 71.8779 206.737 70.2515" stroke="#003188" stroke-width="2" stroke-miterlimit="10" stroke-linecap="round" stroke-linejoin="round"></path> <path d="M198.268 61.8047C204.644 62.6832 209.011 61.1845 211.84 58.6567" stroke="#003188" stroke-width="2" stroke-miterlimit="10" stroke-linecap="round" stroke-linejoin="round"></path> <path d="M235.092 55.5876C231.436 55.4827 227.753 56.4795 224.676 58.4207C224.229 58.6831 223.808 58.9979 223.545 59.4438C223.229 59.9947 223.203 60.6505 223.177 61.2801C223.124 63.3787 223.071 65.5036 223.492 67.5498C224.308 71.7733 226.964 75.4459 228.122 79.5907C228.306 80.2727 228.463 81.0335 228.2 81.6893C227.99 82.2664 227.49 82.6862 227.017 83.0796C225.465 84.4175 223.887 85.7816 222.335 87.1195" stroke="#003188" stroke-width="2" stroke-miterlimit="10" stroke-linecap="round" stroke-linejoin="round"></path> <path d="M231.383 68.8351C231.278 70.3041 231.33 71.7994 231.593 73.2422C232.067 71.642 232.067 69.8844 231.567 68.2842" stroke="#003188" stroke-width="2" stroke-miterlimit="10" stroke-linecap="round" stroke-linejoin="round"></path> <path d="M212.735 94.4121C217.093 94.7442 221.704 94.976 225.991 95.0417" stroke="#003188" stroke-width="2" stroke-miterlimit="10" stroke-linecap="round" stroke-linejoin="round"></path> <path d="M240.984 42.812C241.51 55.6924 242.062 68.5727 242.588 81.453C242.851 87.8539 243.114 94.3596 241.746 100.629C240.379 106.899 237.196 113.037 231.857 116.631C226.096 120.514 218.521 120.934 211.788 119.202C205.054 117.471 198.978 113.824 193.192 109.994" stroke="#003188" stroke-width="2" stroke-miterlimit="10" stroke-linecap="round" stroke-linejoin="round"></path> <path d="M235.697 114.271C235.223 123.321 235.592 132.424 236.828 141.395" stroke="#003188" stroke-width="2" stroke-miterlimit="10" stroke-linecap="round" stroke-linejoin="round"></path> <path d="M171.65 90.5557C173.254 106.584 173.886 122.717 173.544 138.824" stroke="#003188" stroke-width="2" stroke-miterlimit="10" stroke-linecap="round" stroke-linejoin="round"></path> <path d="M194.559 111.726C197.821 117.051 201.766 122.14 207.105 125.419C212.418 128.698 219.336 129.905 225.017 127.282C226.885 126.416 228.568 125.183 230.225 123.924C231.672 122.848 233.119 121.694 234.065 120.173C235.012 118.651 235.354 116.605 234.46 115.057C229.489 120.094 221.861 121.983 214.838 121.012C207.816 120.068 201.345 116.605 195.716 112.276" fill="#003188"></path> <path d="M194.559 111.726C197.821 117.051 201.766 122.14 207.105 125.419C212.418 128.698 219.336 129.905 225.017 127.282C226.885 126.416 228.568 125.183 230.225 123.924C231.672 122.848 233.119 121.694 234.065 120.173C235.012 118.651 235.354 116.605 234.46 115.057C229.489 120.094 221.861 121.983 214.838 121.012C207.816 120.068 201.345 116.605 195.716 112.276" stroke="#003188" stroke-width="2" stroke-miterlimit="10" stroke-linecap="round" stroke-linejoin="round"></path> <path d="M169.914 139.034C155.185 145.855 139.009 150.419 123.753 158.263C102.922 168.992 86.956 187.591 75.8827 208.21C64.8094 228.829 58.2074 251.495 52.3946 274.16C43.4518 308.866 36.1397 343.965 28.8013 379.039" stroke="#003188" stroke-width="2" stroke-miterlimit="10" stroke-linecap="round" stroke-linejoin="round"></path> <path d="M108.866 238.378C112.969 245.671 116.126 253.488 118.256 261.594" stroke="#003188" stroke-width="2" stroke-miterlimit="10" stroke-linecap="round" stroke-linejoin="round"></path> <path d="M128.645 235.938C120.807 278.751 112.732 321.51 104.473 364.243" stroke="#003188" stroke-width="2" stroke-miterlimit="10" stroke-linecap="round" stroke-linejoin="round"></path> <path d="M104.263 319.307C96.5561 335.309 78.2233 344.884 72.5156 361.725" stroke="#003188" stroke-width="2" stroke-miterlimit="10" stroke-linecap="round" stroke-linejoin="round"></path> <path d="M88.6921 347.375C86.1145 351.52 84.0103 355.954 82.4321 360.571" stroke="#003188" stroke-width="2" stroke-miterlimit="10" stroke-linecap="round" stroke-linejoin="round"></path> <path d="M173.57 142.759C183.066 148.478 193.639 152.78 204.712 153.725C215.786 154.669 227.385 152.019 236.065 145.146" stroke="#003188" stroke-width="2" stroke-miterlimit="10" stroke-linecap="round" stroke-linejoin="round"></path> <path d="M183.276 153.62C193.955 162.329 209.184 165.188 222.282 160.912" stroke="#003188" stroke-width="2" stroke-miterlimit="10" stroke-linecap="round" stroke-linejoin="round"></path> <path d="M289.17 223.163C295.614 274.501 279.332 325.602 272.73 376.914" stroke="#003188" stroke-width="2" stroke-miterlimit="10" stroke-linecap="round" stroke-linejoin="round"></path> <path d="M180.514 318.572C202.635 313.326 225.491 311.253 248.19 312.434" stroke="#003188" stroke-width="2" stroke-miterlimit="10" stroke-linecap="round" stroke-linejoin="round"></path> <path d="M198.558 325.288C207.448 323.504 216.759 323.871 225.491 326.337" stroke="#003188" stroke-width="2" stroke-miterlimit="10" stroke-linecap="round" stroke-linejoin="round"></path> <path d="M126.226 356.243C141.244 356.951 156.815 357.817 170.124 364.795C170.598 365.031 171.124 365.372 171.15 365.896C171.203 366.526 170.572 366.946 170.019 367.234C161.813 371.458 152.475 372.874 143.322 374.212C147.61 376.494 152.16 378.2 156.894 379.301" stroke="#003188" stroke-width="2" stroke-miterlimit="10" stroke-linecap="round" stroke-linejoin="round"></path> <path d="M241.246 141.71C267.838 143.363 291.721 160.466 306.739 182.397C321.732 204.354 328.886 230.692 333.094 256.925" stroke="#003188" stroke-width="2" stroke-miterlimit="10" stroke-linecap="round" stroke-linejoin="round"></path> <path d="M310.869 299.055C331.464 267.155 352.059 235.282 372.68 203.383" stroke="#003188" stroke-width="2" stroke-miterlimit="10" stroke-linecap="round" stroke-linejoin="round"></path> <path d="M374.653 187.145C389.724 207.318 406.058 226.547 423.575 244.647" stroke="#003188" stroke-width="2" stroke-miterlimit="10" stroke-linecap="round" stroke-linejoin="round"></path> <path d="M370.208 198.373C382.727 218.441 397.957 236.804 415.369 252.859" stroke="#003188" stroke-width="2" stroke-miterlimit="10" stroke-linecap="round" stroke-linejoin="round"></path> <path d="M408.267 249.344C396.852 277.124 385.358 305.062 369.445 330.561C363.816 339.585 357.214 348.661 347.614 353.305C337.514 358.184 325.388 357.397 314.815 353.619C304.241 349.868 294.877 343.389 285.671 337.014" stroke="#003188" stroke-width="2" stroke-miterlimit="10" stroke-linecap="round" stroke-linejoin="round"></path> <path d="M331.411 276.206C325.861 284.836 322.836 295.041 322.784 305.298" stroke="#003188" stroke-width="2" stroke-miterlimit="10" stroke-linecap="round" stroke-linejoin="round"></path> <path d="M120.36 165.136C116.809 167.261 113.6 169.989 110.917 173.137" stroke="#003188" stroke-width="2" stroke-miterlimit="10" stroke-linecap="round" stroke-linejoin="round"></path> <path d="M383.201 190.923C387.068 186.358 391.145 181.977 395.406 177.806" stroke="#003188" stroke-width="2" stroke-miterlimit="10" stroke-linecap="round" stroke-linejoin="round"></path> <path d="M397.062 178.121C390.828 163.614 394.59 145.409 406.084 134.575C408.925 131.899 412.133 129.669 415.342 127.466C422.181 122.717 429.02 117.995 435.858 113.247C437.568 112.067 440.014 110.886 441.566 112.277C442.329 112.959 442.565 114.087 442.565 115.11C442.565 117.55 441.461 119.832 440.277 121.957C436.121 129.328 430.44 135.86 423.707 141.002" stroke="#003188" stroke-width="2" stroke-miterlimit="10" stroke-linecap="round" stroke-linejoin="round"></path> <path d="M421.734 149.029C423.128 146.406 424.022 143.52 424.338 140.556" stroke="#003188" stroke-width="2" stroke-miterlimit="10" stroke-linecap="round" stroke-linejoin="round"></path> <path d="M435.464 133.079C448.299 124.422 461.924 116.894 476.101 110.65C477.679 109.942 479.336 109.26 481.072 109.181C482.808 109.102 484.676 109.758 485.57 111.253C486.859 113.352 485.702 116.107 484.176 118.048C481.651 121.248 478.153 123.53 474.707 125.76C467.264 130.587 459.82 135.414 452.376 140.241" stroke="#003188" stroke-width="2" stroke-miterlimit="10" stroke-linecap="round" stroke-linejoin="round"></path> <path d="M494.618 114.874C496.381 114.559 498.117 115.871 498.722 117.55C499.327 119.229 498.906 121.117 498.038 122.665C497.196 124.213 495.934 125.498 494.697 126.784C494.355 127.125 494.013 127.545 494.04 128.043C494.066 128.436 494.382 128.751 494.645 129.066C495.828 130.561 495.855 132.765 495.144 134.522C494.434 136.306 493.093 137.749 491.699 139.061" stroke="#003188" stroke-width="2" stroke-miterlimit="10" stroke-linecap="round" stroke-linejoin="round"></path> <path d="M489.832 128.436C480.126 136.175 470.105 143.546 459.847 150.524" stroke="#003188" stroke-width="2" stroke-miterlimit="10" stroke-linecap="round" stroke-linejoin="round"></path> <path d="M464.712 156.873C471.13 152.544 477.653 148.426 484.281 144.464" stroke="#003188" stroke-width="2" stroke-miterlimit="10" stroke-linecap="round" stroke-linejoin="round"></path> <path d="M489.016 145.094C489.568 147.744 487.99 150.367 486.149 152.387C481.52 157.476 475.102 160.545 469.499 164.559C462.24 169.727 456.296 176.495 449.694 182.502C443.092 188.483 435.438 193.861 426.626 195.304" stroke="#003188" stroke-width="2" stroke-miterlimit="10" stroke-linecap="round" stroke-linejoin="round"></path> <path d="M434.359 198.373C428.73 210.23 422.681 221.852 416.158 233.237" stroke="#003188" stroke-width="2" stroke-miterlimit="10" stroke-linecap="round" stroke-linejoin="round"></path> <path d="M421.339 168.363C427.52 163.09 435.359 159.785 443.46 158.998" stroke="#003188" stroke-width="2" stroke-miterlimit="10" stroke-linecap="round" stroke-linejoin="round"></path> <path d="M448.221 137.303C454.56 143.808 460.057 151.154 464.528 159.076" stroke="#003188" stroke-width="2" stroke-miterlimit="10" stroke-linecap="round" stroke-linejoin="round"></path> <path d="M101.844 137.591C101.475 138.064 101.87 138.903 102.475 138.929C103.08 138.982 103.553 138.221 103.264 137.696" stroke="#003188" stroke-width="2" stroke-miterlimit="10" stroke-linecap="round" stroke-linejoin="round"></path> <path d="M256.738 129.748C256.318 130.01 256.528 130.823 257.028 130.823C257.527 130.823 257.738 130.01 257.317 129.748" stroke="#003188" stroke-width="2" stroke-miterlimit="10" stroke-linecap="round" stroke-linejoin="round"></path> <path d="M350.217 163.982C349.533 163.562 348.534 164.349 348.744 165.11C348.981 165.871 350.244 165.949 350.586 165.241" stroke="#003188" stroke-width="2" stroke-miterlimit="10" stroke-linecap="round" stroke-linejoin="round"></path> <path d="M299.506 366.237C298.77 366.394 299.822 367.601 300.348 367.05C300.874 366.499 300.532 365.607 300.19 364.925" stroke="#003188" stroke-width="2" stroke-miterlimit="10" stroke-linecap="round" stroke-linejoin="round"></path> <path d="M449.141 227.124C448.352 227.439 449.904 228.541 449.957 227.701" stroke="#003188" stroke-width="2" stroke-miterlimit="10" stroke-linecap="round" stroke-linejoin="round"></path> <path d="M287.223 215.031C287.012 215.791 287.197 216.631 287.723 217.234" stroke="#003188" stroke-width="2" stroke-miterlimit="10" stroke-linecap="round" stroke-linejoin="round"></path> <path d="M226.859 159.784C227.411 159.417 227.964 159.05 228.516 158.683" stroke="#003188" stroke-width="2" stroke-miterlimit="10" stroke-linecap="round" stroke-linejoin="round"></path> <path d="M253.188 312.407C253.556 312.407 253.924 312.407 254.292 312.407" stroke="#003188" stroke-width="2" stroke-miterlimit="10" stroke-linecap="round" stroke-linejoin="round"></path> <path d="M106.209 234.076C106.209 233.866 106.209 233.656 106.209 233.473" stroke="#003188" stroke-width="2" stroke-miterlimit="10" stroke-linecap="round" stroke-linejoin="round"></path> <path d="M48.3965 328.541C47.7915 330.193 47.2129 331.82 46.6079 333.472" stroke="#003188" stroke-width="2" stroke-miterlimit="10" stroke-linecap="round" stroke-linejoin="round"></path> <path d="M176.253 68.2578C176.227 70.2515 176.569 72.219 177.227 74.1077C177.305 74.3176 177.411 74.5799 177.621 74.6324C177.91 74.7373 178.2 74.475 178.41 74.2127C180.409 71.5894 180.935 68.1267 181.198 64.8475C181.619 59.8895 181.619 54.9053 181.251 49.9473" stroke="#24BDFF" stroke-width="2" stroke-miterlimit="10" stroke-linecap="round" stroke-linejoin="round"></path> <path d="M160.235 62.2244C158.92 53.279 159.762 43.9139 163.47 35.6768C167.179 27.4396 173.886 20.383 182.303 17.0514C187.984 14.7954 194.218 14.2707 200.32 14.4019C208.816 14.5855 218.206 15.7398 224.965 10.5981" stroke="#24BDFF" stroke-width="2" stroke-miterlimit="10" stroke-linecap="round" stroke-linejoin="round"></path> <path d="M185.88 49.1342C197.479 44.8845 210.183 45.4616 222.44 43.9138C227.885 43.2318 233.356 42.0775 238.09 39.2968C242.825 36.5424 246.718 31.9254 247.48 26.5214C248.322 20.6715 245.376 14.7953 241.168 10.6243C236.959 6.45329 231.567 3.72507 226.307 1.04932" stroke="#24BDFF" stroke-width="2" stroke-miterlimit="10" stroke-linecap="round" stroke-linejoin="round"></path> <path d="M225.675 1.23291C226.859 2.62325 227.306 4.59072 226.859 6.34832" stroke="#24BDFF" stroke-width="2" stroke-miterlimit="10" stroke-linecap="round" stroke-linejoin="round"></path> <path d="M217.732 19.3862C217.101 22.8227 214.76 25.7084 212.104 27.9906C203.371 35.4932 191.351 37.5131 180.225 40.5299" stroke="#24BDFF" stroke-width="2" stroke-miterlimit="10" stroke-linecap="round" stroke-linejoin="round"></path> <path d="M226.99 17.2349C227.306 18.94 226.359 20.5927 225.36 22.0092C220.757 28.515 214.155 33.5779 206.659 36.3324" stroke="#24BDFF" stroke-width="2" stroke-miterlimit="10" stroke-linecap="round" stroke-linejoin="round"></path> <path d="M233.356 20.9863C231.778 24.3966 229.227 27.3609 226.097 29.4595" stroke="#24BDFF" stroke-width="2" stroke-miterlimit="10" stroke-linecap="round" stroke-linejoin="round"></path> <path d="M174.307 49.8687C175.332 52.3083 175.569 55.0628 174.938 57.6336" stroke="#24BDFF" stroke-width="2" stroke-miterlimit="10" stroke-linecap="round" stroke-linejoin="round"></path> <path d="M317.366 109.47C328.86 110.781 340.591 110.152 351.901 107.581C363.501 104.958 375.205 99.8685 382.202 90.2673C383.438 88.5621 384.569 86.516 384.175 84.4436C383.517 80.9546 379.177 79.6167 375.6 79.643C372.996 79.6692 370.313 80.0627 368.13 81.453C365.947 82.8434 364.369 85.4404 364.79 88.0112C365.421 91.7625 369.734 93.7038 373.548 94.0448C383.359 94.9367 392.775 89.7164 400.219 83.2631" stroke="#24BDFF" stroke-width="2" stroke-miterlimit="10" stroke-linecap="round" stroke-linejoin="round"></path> <path d="M342.958 113.063C330.886 117.654 317.892 119.805 305.004 119.307" stroke="#24BDFF" stroke-width="2" stroke-miterlimit="10" stroke-linecap="round" stroke-linejoin="round"></path> <path d="M421.761 57.6599L518.817 39.2969L442.54 92.8119L428.678 69.3598L421.761 57.6599ZM421.761 57.6599L406.242 73.1373L428.599 69.4647" stroke="#24BDFF" stroke-width="2" stroke-miterlimit="10" stroke-linecap="round" stroke-linejoin="round"></path> <path d="M406.242 73.1371L415.448 45.068L518.816 39.2967L399.14 17.5234L415.448 45.068" stroke="#24BDFF" stroke-width="2" stroke-miterlimit="10" stroke-linecap="round" stroke-linejoin="round"></path> </svg>
