<svg xmlns="http://www.w3.org/2000/svg" width="260" height="100" viewBox="0 0 260 100" fill="none"> <g clip-path="url(#clip0)"> <path d="M94.4899 63.2579C94.4899 62.455 94.4638 60.9652 94.2453 60.5773C94.1533 60.4195 93.9201 60.3296 93.596 60.3034L93.273 60.2783C93.1956 60.1863 93.2197 60.0191 93.297 59.9668C93.7915 59.9929 94.2693 60.0055 94.7753 60.0055C95.319 60.0055 95.6681 59.9929 96.1354 59.9668C96.24 60.0316 96.2254 60.1989 96.1626 60.2783L95.85 60.3034C95.527 60.3296 95.2803 60.4467 95.2029 60.616C95.0231 61.0426 95.0231 62.5313 95.0231 63.2579V64.7236C95.0231 65.8496 94.8412 67.0414 94.1146 67.8171C93.5563 68.4277 92.5966 68.7653 91.639 68.7653C90.7451 68.7653 89.8523 68.5949 89.2177 68.0523C88.5319 67.4826 88.2067 66.5375 88.2067 64.9954V61.9364C88.2067 60.5888 88.1806 60.3683 87.4289 60.3034L87.1069 60.2783C87.0285 60.2261 87.0536 60.0055 87.131 59.9668C87.7781 59.9929 88.2193 60.0055 88.7378 60.0055C89.2689 60.0055 89.6975 59.9929 90.33 59.9668C90.4084 60.0055 90.4346 60.2261 90.3572 60.2783L90.0467 60.3034C89.295 60.3683 89.2689 60.5888 89.2689 61.9364V64.7362C89.2689 66.8208 89.916 68.1935 91.8982 68.1935C93.7769 68.1935 94.4899 66.7194 94.4899 64.7487V63.2579Z" fill="#040404"></path> <path d="M111.42 66.3556C111.42 66.7434 111.42 68.2855 111.459 68.6221C111.435 68.6995 111.356 68.7653 111.214 68.7653C111.058 68.5448 110.683 68.091 109.556 66.8093L106.55 63.3886C106.199 62.9861 105.319 61.9249 105.047 61.6385H105.021C104.97 61.7943 104.955 62.0943 104.955 62.4801V65.3038C104.955 65.9144 104.97 67.5986 105.19 67.9875C105.268 68.1297 105.527 68.2071 105.852 68.2322L106.252 68.2729C106.33 68.3754 106.317 68.5301 106.225 68.596C105.644 68.5709 105.19 68.5563 104.71 68.5563C104.166 68.5563 103.816 68.5709 103.363 68.596C103.271 68.5301 103.258 68.3503 103.337 68.2729L103.686 68.2322C103.986 68.1935 104.192 68.1161 104.257 67.9729C104.439 67.5098 104.425 65.9269 104.425 65.3038V61.5611C104.425 61.1973 104.412 60.9265 104.141 60.6275C103.959 60.4467 103.646 60.3568 103.337 60.3181L103.118 60.2909C103.04 60.2135 103.04 60.0191 103.142 59.9668C103.686 60.0055 104.374 60.0055 104.606 60.0055C104.815 60.0055 105.033 59.9929 105.203 59.9668C105.462 60.6275 106.992 62.3389 107.418 62.8167L108.674 64.2302C109.569 65.2265 110.203 65.9531 110.814 66.5762H110.838C110.891 66.5103 110.891 66.3023 110.891 66.0304V63.2579C110.891 62.6494 110.876 60.9652 110.632 60.5773C110.554 60.4582 110.346 60.3808 109.828 60.3181L109.607 60.2909C109.517 60.2135 109.529 60.0055 109.633 59.9668C110.229 59.9929 110.67 60.0055 111.163 60.0055C111.718 60.0055 112.057 59.9929 112.496 59.9668C112.6 60.0316 112.6 60.2135 112.523 60.2909L112.341 60.3181C111.926 60.3808 111.667 60.4853 111.616 60.5888C111.396 61.0572 111.42 62.662 111.42 63.2579V66.3556V66.3556Z" fill="#040404"></path> <path d="M121.07 61.9752C121.07 60.6015 121.044 60.3809 120.279 60.3171L119.955 60.291C119.877 60.2376 119.904 60.0045 119.981 59.9658C120.628 59.993 121.07 60.0045 121.614 60.0045C122.132 60.0045 122.572 59.993 123.22 59.9658C123.298 60.0045 123.324 60.2376 123.246 60.291L122.923 60.3171C122.158 60.3809 122.132 60.6015 122.132 61.9752V66.5877C122.132 67.9604 122.158 68.1413 122.923 68.2312L123.246 68.272C123.324 68.3232 123.298 68.5563 123.22 68.595C122.572 68.571 122.132 68.5563 121.614 68.5563C121.07 68.5563 120.628 68.571 119.981 68.595C119.904 68.5563 119.877 68.3504 119.955 68.272L120.279 68.2312C121.044 68.1413 121.07 67.9604 121.07 66.5877V61.9752Z" fill="#040404"></path> <path d="M131.563 61.3793C131.265 60.6548 131.07 60.3809 130.513 60.3171L130.278 60.291C130.189 60.2136 130.201 60.0317 130.305 59.9658C130.68 59.993 131.095 60.0055 131.653 60.0055C132.222 60.0055 132.675 59.993 133.221 59.9658C133.311 60.0191 133.337 60.2136 133.247 60.291L133.052 60.3171C132.559 60.3809 132.457 60.4582 132.443 60.5628C132.469 60.6935 132.688 61.3939 133.09 62.3777C133.686 63.881 134.283 65.3687 134.932 66.847C135.332 65.9918 135.877 64.6589 136.175 63.971C136.55 63.0907 137.16 61.626 137.38 61.0688C137.484 60.797 137.497 60.6548 137.497 60.5628C137.497 60.4729 137.366 60.3683 136.912 60.3171L136.68 60.291C136.588 60.2136 136.614 60.0191 136.706 59.9658C137.068 59.993 137.562 60.0055 138.052 60.0055C138.481 60.0055 138.883 59.993 139.31 59.9658C139.4 60.0191 139.4 60.2251 139.337 60.291L138.948 60.3171C138.636 60.3422 138.442 60.499 138.273 60.7708C137.911 61.3793 137.405 62.431 136.822 63.7504L136.122 65.3426C135.603 66.5376 134.995 68.0378 134.774 68.7257C134.736 68.7508 134.685 68.7644 134.634 68.7644C134.568 68.7644 134.504 68.7508 134.438 68.7257C134.295 68.181 134.062 67.5475 133.842 67.0028L131.563 61.3793Z" fill="#040404"></path> <path d="M147.159 61.9511C147.159 60.6014 147.133 60.4069 146.368 60.3181L146.16 60.2909C146.083 60.2376 146.109 60.0055 146.186 59.9668C146.745 59.9929 147.185 60.0055 147.716 60.0055H150.152C150.981 60.0055 151.745 60.0055 151.9 59.9668C151.977 60.1874 152.056 61.1199 152.108 61.6918C152.056 61.7692 151.849 61.7943 151.784 61.7158C151.589 61.1074 151.473 60.6547 150.799 60.4853C150.528 60.4195 150.113 60.4069 149.541 60.4069H148.609C148.223 60.4069 148.223 60.4341 148.223 60.9265V63.5172C148.223 63.881 148.262 63.881 148.647 63.881H149.401C149.944 63.881 150.346 63.8538 150.501 63.8026C150.659 63.7503 150.749 63.6719 150.814 63.3478L150.918 62.8167C150.981 62.7393 151.199 62.7393 151.253 62.8293C151.253 63.1418 151.199 63.6478 151.199 64.1403C151.199 64.6055 151.253 65.1 151.253 65.3812C151.199 65.4732 150.981 65.4732 150.918 65.3958L150.799 64.8919C150.749 64.6588 150.659 64.4643 150.4 64.3995C150.218 64.3462 149.905 64.3337 149.401 64.3337H148.647C148.262 64.3337 148.223 64.3462 148.223 64.6849V66.5103C148.223 67.1972 148.262 67.6373 148.466 67.8558C148.622 68.0116 148.894 68.1548 150.036 68.1548C151.034 68.1548 151.407 68.1036 151.694 67.9603C151.927 67.8318 152.276 67.378 152.613 66.7048C152.705 66.6389 152.887 66.6776 152.937 66.7968C152.847 67.2494 152.523 68.2458 152.354 68.5949C151.188 68.5709 150.036 68.5563 148.882 68.5563H147.716C147.159 68.5563 146.718 68.5709 145.952 68.5949C145.874 68.5563 145.85 68.3503 145.927 68.2729L146.354 68.2322C147.094 68.1684 147.159 67.9729 147.159 66.6148V61.9511V61.9511Z" fill="#040404"></path> <path d="M161.198 61.9637C161.198 60.7321 161.159 60.5115 160.629 60.4457L160.214 60.3955C160.124 60.3296 160.124 60.1216 160.229 60.0704C160.951 60.0045 161.848 59.9658 163.115 59.9658C163.92 59.9658 164.684 60.0317 165.281 60.3558C165.901 60.6788 166.354 61.2632 166.354 62.1717C166.354 63.4012 165.384 64.0745 164.737 64.3337C164.672 64.4111 164.737 64.5418 164.801 64.6463C165.836 66.317 166.524 67.3541 167.406 68.0911C167.627 68.2845 167.951 68.4277 168.3 68.4528C168.366 68.479 168.376 68.5835 168.312 68.6337C168.196 68.6724 167.988 68.6996 167.743 68.6996C166.64 68.6996 165.979 68.3744 165.062 67.0676C164.723 66.5877 164.192 65.6939 163.79 65.1116C163.595 64.8261 163.387 64.6976 162.871 64.6976C162.286 64.6976 162.262 64.7091 162.262 64.983V66.6149C162.262 67.973 162.286 68.1298 163.04 68.2322L163.31 68.273C163.387 68.3357 163.363 68.5563 163.286 68.595C162.704 68.571 162.262 68.5563 161.744 68.5563C161.198 68.5563 160.731 68.571 160.124 68.595C160.047 68.5563 160.02 68.3629 160.098 68.273L160.42 68.2322C161.172 68.1423 161.198 67.973 161.198 66.6149V61.9637ZM162.262 63.8152C162.262 64.0483 162.262 64.1905 162.301 64.2438C162.34 64.2825 162.534 64.3076 163.194 64.3076C163.661 64.3076 164.154 64.2564 164.529 63.9699C164.878 63.6991 165.176 63.2454 165.176 62.3651C165.176 61.3406 164.544 60.3683 163.102 60.3683C162.301 60.3683 162.262 60.4196 162.262 60.7834V63.8152Z" fill="#040404"></path> <path d="M176.856 68.7646C175.77 68.7646 175.082 68.428 174.834 68.2848C174.679 67.9994 174.512 67.0804 174.485 66.472C174.551 66.38 174.744 66.3549 174.797 66.4333C174.992 67.094 175.523 68.3621 177.025 68.3621C178.114 68.3621 178.647 67.6523 178.647 66.8734C178.647 66.3026 178.529 65.667 177.583 65.0606L176.354 64.2566C175.704 63.827 174.953 63.0899 174.953 62.0288C174.953 60.7972 175.913 59.7988 177.595 59.7988C177.998 59.7988 178.463 59.8762 178.802 59.9661C178.969 60.0194 179.149 60.0435 179.253 60.0435C179.369 60.3561 179.486 61.0806 179.486 61.6263C179.435 61.7036 179.227 61.7423 179.163 61.665C178.996 61.0419 178.647 60.1992 177.401 60.1992C176.134 60.1992 175.86 61.0419 175.86 61.6388C175.86 62.3916 176.481 62.9331 176.96 63.2311L177.998 63.8803C178.814 64.3852 179.617 65.1359 179.617 66.3674C179.617 67.7924 178.542 68.7646 176.856 68.7646Z" fill="#040404"></path> <path d="M188.424 61.9752C188.424 60.6015 188.4 60.3809 187.634 60.3171L187.31 60.291C187.231 60.2376 187.258 60.0045 187.336 59.9658C187.985 59.993 188.424 60.0045 188.969 60.0045C189.488 60.0045 189.927 59.993 190.577 59.9658C190.654 60.0045 190.68 60.2376 190.601 60.291L190.276 60.3171C189.515 60.3809 189.488 60.6015 189.488 61.9752V66.5877C189.488 67.9604 189.515 68.1413 190.276 68.2312L190.601 68.272C190.68 68.3232 190.654 68.5563 190.577 68.595C189.927 68.571 189.488 68.5563 188.969 68.5563C188.424 68.5563 187.985 68.571 187.336 68.595C187.258 68.5563 187.231 68.3504 187.31 68.272L187.634 68.2312C188.4 68.1413 188.424 67.9604 188.424 66.5877V61.9752Z" fill="#040404"></path> <path d="M202.809 66.615C202.809 67.973 202.833 68.1685 203.583 68.2323L204 68.2731C204.078 68.3243 204.05 68.5564 203.973 68.5961C203.234 68.571 202.795 68.5564 202.276 68.5564C201.758 68.5564 201.305 68.571 200.474 68.5961C200.395 68.5564 200.371 68.3358 200.474 68.2731L200.941 68.2323C201.68 68.1685 201.745 67.973 201.745 66.615V60.8221C201.745 60.4196 201.745 60.4081 201.355 60.4081H200.643C200.087 60.4081 199.375 60.4343 199.05 60.7322C198.739 61.0176 198.609 61.302 198.467 61.6271C198.364 61.7045 198.18 61.6386 198.129 61.5372C198.338 60.9528 198.531 60.1217 198.621 59.6052C198.662 59.5801 198.829 59.5666 198.868 59.6052C198.946 60.0192 199.375 60.0056 199.971 60.0056H205.219C205.918 60.0056 206.034 59.9805 206.228 59.6439C206.293 59.6199 206.436 59.6314 206.46 59.6826C206.317 60.2137 206.228 61.2633 206.267 61.6533C206.215 61.7557 205.995 61.7557 205.929 61.6773C205.89 61.3553 205.798 60.8755 205.607 60.7322C205.309 60.5116 204.817 60.4081 204.102 60.4081H203.183C202.795 60.4081 202.809 60.4196 202.809 60.8483V66.615V66.615Z" fill="#040404"></path> <path d="M217.574 66.5877C217.574 67.9719 217.652 68.18 218.352 68.2312L218.847 68.272C218.922 68.3504 218.898 68.5563 218.819 68.595C218.016 68.5699 217.574 68.5563 217.056 68.5563C216.51 68.5563 216.047 68.5699 215.359 68.595C215.282 68.5563 215.254 68.3504 215.332 68.272L215.736 68.2312C216.486 68.1538 216.51 67.9719 216.51 66.5877V65.926C216.51 65.214 216.471 65.0457 216.098 64.3212L214.569 61.3396C214.127 60.4844 213.934 60.4195 213.545 60.3558L213.182 60.291C213.105 60.199 213.119 60.0191 213.209 59.9658C213.621 59.992 214.089 60.0045 214.712 60.0045C215.308 60.0045 215.773 59.992 216.098 59.9658C216.214 60.0045 216.214 60.2126 216.137 60.291L215.97 60.3171C215.516 60.3809 215.424 60.4457 215.424 60.5502C215.424 60.6788 215.762 61.418 215.826 61.5486C216.304 62.5063 216.784 63.5287 217.291 64.4257C217.69 63.7368 218.119 62.9861 218.508 62.2345C218.871 61.5601 219.348 60.6788 219.348 60.5231C219.348 60.4457 219.116 60.3558 218.806 60.3171L218.573 60.291C218.483 60.199 218.495 60.0191 218.599 59.9658C219.063 59.992 219.44 60.0045 219.841 60.0045C220.243 60.0045 220.606 59.992 221.047 59.9658C221.152 60.0317 221.164 60.2126 221.074 60.291L220.711 60.3558C220.036 60.4718 219.646 61.2894 218.999 62.4038L218.185 63.8152C217.613 64.801 217.574 64.9171 217.574 65.9134V66.5877V66.5877Z" fill="#040404"></path> <path d="M44.0739 32.0476C44.0404 31.9838 42.03 30.9885 42.03 30.9885C39.4739 30.4522 35.2617 30.6874 32.3251 31.7674H32.3146C29.3758 30.6874 25.1679 30.4522 22.6107 30.9885C22.6107 30.9885 20.5992 31.9838 20.5689 32.0476L17.4535 38.9225C17.3521 39.1138 17.512 39.2769 17.6887 39.2413C22.4246 38.3422 27.8631 38.0652 32.3177 38.0652H32.3219C36.7756 38.0652 42.2151 38.3422 46.9499 39.2413C47.1287 39.2769 47.2866 39.1138 47.1862 38.9225L44.0739 32.0476ZM31.5838 36.9967C28.2081 36.8629 22.3828 36.8629 19.4618 37.9084L21.5381 32.7125L22.9526 31.9556L21.4502 36.2357C24.4936 35.6607 27.8599 35.4463 31.5922 36.6674L31.5838 36.9967ZM33.0077 36.9967V36.6674C36.7379 35.4463 40.1064 35.6607 43.1487 36.2357L41.639 31.9556L43.0556 32.7125L45.1319 37.9084C42.3604 36.864 36.5341 36.864 33.0077 36.9967Z" fill="#040404"></path> <path d="M51.6304 29.4765L51.6095 29.4682L51.4767 29.4379C45.206 28.0965 38.7608 27.417 32.3198 27.417C25.8756 27.417 19.422 28.0986 13.1399 29.442L13.0782 29.4546L13.0196 29.4734C12.0149 29.7212 11.2769 30.6642 11.2769 31.7546L11.2789 35.168C11.2789 59.7864 26.5123 69.7736 31.1813 72.2482C31.5545 72.4468 31.9424 72.5482 32.3271 72.5482C32.7139 72.5482 33.0976 72.4468 33.4677 72.245C38.1241 69.7767 53.3616 59.7864 53.3616 35.168V31.7546C53.3616 30.6903 52.6444 29.7557 51.6304 29.4765ZM31.4614 70.8316C26.3136 67.9911 15.9751 59.9338 13.3019 43.4156L13.4274 43.3894C19.3133 42.1464 25.3769 41.494 31.4614 41.4365V70.8316V70.8316ZM47.7475 54.9992C47.7444 55.0034 47.7413 55.0118 47.7381 55.017C46.6446 57.2825 45.4078 59.2908 44.1052 61.0524C44.102 61.0555 44.102 61.0566 44.101 61.0566C42.9155 62.6593 41.6849 64.0696 40.4607 65.2854V58.6259L36.8184 56.2025V68.45C35.4645 69.4714 34.2173 70.2597 33.1791 70.8316V53.7781L36.8184 56.2025V47.727L40.4607 50.1483V41.7909C41.6776 41.8986 42.8925 42.0241 44.101 42.1799V52.5717L47.7381 54.9929V42.7298C48.9028 42.9284 50.0622 43.1406 51.2153 43.3842L51.3397 43.4114C50.6184 47.8713 49.3366 51.7092 47.7475 54.9992ZM33.1791 45.3016V41.4365C34.3939 41.447 35.6077 41.4784 36.8184 41.5379V47.726L33.1791 45.3016ZM51.9848 35.168C51.9848 37.4105 51.8489 39.5265 51.6053 41.5285C38.9741 38.8605 25.6853 38.8605 13.0364 41.5348C12.7917 39.5296 12.6558 37.4115 12.6558 35.168L12.6537 31.7535C12.6537 31.2904 12.9726 30.9025 13.4044 30.7949L13.4274 30.7875C19.5203 29.4839 25.84 28.7928 32.3198 28.7928C38.7922 28.7928 45.1036 29.4828 51.186 30.7823L51.2007 30.7875C51.6513 30.8795 51.9869 31.2779 51.9869 31.7535L51.9848 35.168Z" fill="#040404"></path> <path d="M44.1012 52.5717L40.4609 50.1494V58.626L44.1012 61.0483V52.5717Z" fill="#040404"></path> <path d="M23.6739 57.9114C27.3476 57.9114 30.3376 54.9224 30.3376 51.2487C30.3376 47.5739 27.3476 44.585 23.6739 44.585C20.0002 44.585 17.0112 47.5739 17.0112 51.2487C17.0112 54.9235 20.0002 57.9114 23.6739 57.9114ZM24.8866 56.9433C25.4 56.3881 26.0126 55.5769 26.4757 54.5231C27.1176 54.6611 27.6675 54.8325 28.1181 55.0029C27.2985 55.9731 26.1705 56.6704 24.8866 56.9433ZM28.622 54.3014C28.1296 54.1017 27.5128 53.8937 26.7726 53.7275C26.9692 53.1075 27.104 52.4227 27.1427 51.669H29.4762C29.4061 52.6308 29.104 53.5246 28.622 54.3014ZM28.622 48.197C29.104 48.9748 29.4061 49.8676 29.4762 50.8295H27.1427C27.104 50.0778 26.9692 49.3899 26.7726 48.772C27.516 48.6037 28.1296 48.3967 28.622 48.197ZM28.1181 47.4945C27.6675 47.6659 27.1176 47.8374 26.4757 47.9764C26.0126 46.9195 25.4 46.1113 24.8866 45.5551C26.1705 45.828 27.2985 46.5264 28.1181 47.4945ZM24.0931 45.9441C24.5469 46.4103 25.149 47.1463 25.6143 48.127C25.1449 48.1949 24.6378 48.2388 24.0931 48.2545V45.9441ZM24.0931 49.0961C24.757 49.0773 25.3749 49.0187 25.9363 48.9299C26.1265 49.4996 26.2593 50.1332 26.3011 50.8295H24.0931V49.0961V49.0961ZM24.0931 51.6679H26.3011C26.2593 52.3631 26.1265 52.9967 25.9321 53.5675C25.3738 53.4766 24.757 53.4211 24.0931 53.4013V51.6679ZM24.0931 54.2439C24.6368 54.2606 25.1417 54.3046 25.609 54.3715C25.1459 55.349 24.5458 56.085 24.0931 56.5491V54.2439ZM19.2297 55.0029C19.6803 54.8325 20.2323 54.661 20.8742 54.522C21.3384 55.5779 21.9531 56.3902 22.4675 56.9454C21.1784 56.6725 20.0504 55.9741 19.2297 55.0029ZM23.2526 56.5439C22.7999 56.0745 22.204 55.3406 21.7409 54.3694C22.2082 54.3035 22.7121 54.2596 23.2526 54.2429V56.5439ZM23.2526 53.4023C22.5898 53.4222 21.9771 53.4776 21.4189 53.5665C21.2244 52.9977 21.0906 52.3642 21.0509 51.669H23.2526V53.4023V53.4023ZM23.2526 50.8295H21.0509C21.0906 50.1342 21.2244 49.5007 21.4189 48.9299C21.9771 49.0187 22.5898 49.0773 23.2526 49.0961V50.8295V50.8295ZM23.2526 48.2545C22.7121 48.2388 22.2082 48.1949 21.7409 48.128C22.204 47.1557 22.7999 46.4208 23.2526 45.9535V48.2545ZM22.4675 45.5531C21.9531 46.1092 21.3384 46.9184 20.8742 47.9764C20.2323 47.8374 19.6803 47.6638 19.2307 47.4934C20.0514 46.5243 21.1795 45.8259 22.4675 45.5531ZM18.7247 48.197C19.2182 48.3967 19.834 48.6037 20.5794 48.772C20.3807 49.3899 20.2469 50.0778 20.2082 50.8295H17.8716C17.9396 49.8676 18.2438 48.9738 18.7247 48.197ZM17.8716 51.6679H20.2082C20.2469 52.4206 20.3807 53.1065 20.5773 53.7254C19.834 53.8926 19.2182 54.1007 18.7247 54.3004C18.2428 53.5246 17.9396 52.6308 17.8716 51.6679Z" fill="#040404"></path> <path d="M65.3879 36.7521C65.3879 33.4495 65.092 33.093 63.3356 32.9435L62.5934 32.8849C62.4146 32.7657 62.4742 32.2305 62.6529 32.1416C64.3769 32.2001 65.3879 32.2305 66.6372 32.2305C67.828 32.2305 68.8389 32.2001 70.0286 32.1416C70.2064 32.2305 70.2659 32.7657 70.0882 32.8849L69.6418 32.9435C67.8875 33.1829 67.828 33.5969 67.828 36.7521V47.7868C67.828 50.1349 67.7077 52.1871 67.1442 53.5546C66.1615 55.9361 64.0507 57.8389 61.2834 57.8389C60.928 57.8389 60.0059 57.8086 60.0059 57.2137C60.0059 56.7077 60.4502 55.8441 61.0754 55.8441C61.4329 55.8441 61.7905 55.9027 62.1773 56.024C62.5934 56.1421 63.0095 56.232 63.4255 56.232C64.0507 56.232 64.4083 55.8745 64.6163 55.4584C65.3 54.0596 65.3879 49.5996 65.3879 47.9928V36.7521V36.7521Z" fill="#040404"></path> <path d="M70.0254 43.7555C70.0254 38.7384 73.7901 34.8984 78.9578 34.8984C84.7538 34.8984 87.6643 39.0886 87.6643 43.5046C87.6643 48.573 83.8003 52.2603 78.9578 52.2603C73.3886 52.2603 70.0254 48.2719 70.0254 43.7555ZM85.1552 44.2824C85.1552 40.1435 83.3246 35.6763 78.5323 35.6763C75.9218 35.6763 72.5355 37.4588 72.5355 42.9537C72.5355 46.665 74.3421 51.4846 79.2839 51.4846C82.2959 51.4846 85.1552 49.2264 85.1552 44.2824Z" fill="#040404"></path> <path d="M93.3644 43.7555C92.16 43.7555 92.1099 43.8067 92.1099 44.5605V48.0962C92.1099 50.7308 92.2353 51.0821 93.6404 51.2326L94.367 51.3089C94.5186 51.4082 94.4674 51.8599 94.3179 51.9352C92.9619 51.8839 92.1099 51.8599 91.1303 51.8599C90.0524 51.8599 89.1993 51.9111 88.2208 51.9352C88.0702 51.8599 88.0211 51.4574 88.1695 51.3089L88.5961 51.2326C90.0012 50.9817 90.0524 50.7308 90.0524 48.0962V39.0635C90.0524 36.429 89.8768 36.0035 88.572 35.9021L87.9186 35.8519C87.7681 35.7515 87.8193 35.2999 87.9699 35.2246C89.1993 35.2487 90.0524 35.2999 91.1303 35.2999C92.1099 35.2999 92.9619 35.2758 94.0408 35.2246C94.1914 35.2999 94.2426 35.7515 94.091 35.8519L93.6143 35.9021C92.16 36.0526 92.1099 36.429 92.1099 39.0635V41.95C92.1099 42.7268 92.16 42.7529 93.3644 42.7529H100.54C101.745 42.7529 101.796 42.7268 101.796 41.95V39.0635C101.796 36.429 101.745 36.0526 100.264 35.9021L99.7887 35.8519C99.6371 35.7515 99.6863 35.2999 99.8378 35.2246C100.991 35.2758 101.845 35.2999 102.874 35.2999C103.852 35.2999 104.705 35.2758 105.835 35.2246C105.983 35.2999 106.034 35.7515 105.886 35.8519L105.357 35.9021C103.904 36.0526 103.852 36.429 103.852 39.0635V48.0962C103.852 50.7308 103.904 51.057 105.357 51.2326L105.959 51.3089C106.11 51.4082 106.059 51.8599 105.908 51.9352C104.705 51.8839 103.852 51.8599 102.874 51.8599C101.845 51.8599 100.943 51.8839 99.8378 51.9352C99.6863 51.8599 99.6371 51.4574 99.7887 51.3089L100.264 51.2326C101.796 50.9817 101.796 50.7308 101.796 48.0962V44.5605C101.796 43.8067 101.745 43.7555 100.54 43.7555H93.3644Z" fill="#040404"></path> <path d="M123.099 47.5944C123.099 48.3482 123.099 51.333 123.172 51.9843C123.123 52.1359 122.973 52.2603 122.697 52.2603C122.397 51.8358 121.668 50.9577 119.485 48.4726L113.664 41.8486C112.988 41.0708 111.28 39.0133 110.753 38.4634H110.705C110.603 38.7635 110.578 39.3395 110.578 40.0922V45.5631C110.578 46.7413 110.603 50.0042 111.029 50.7548C111.181 51.0329 111.683 51.1824 112.31 51.2326L113.088 51.3089C113.239 51.5086 113.212 51.8107 113.037 51.9352C111.908 51.885 111.029 51.8599 110.102 51.8599C109.047 51.8599 108.371 51.885 107.493 51.9352C107.317 51.8107 107.293 51.4574 107.441 51.3089L108.12 51.2326C108.696 51.1573 109.097 51.0068 109.225 50.7308C109.573 49.8286 109.549 46.7675 109.549 45.5631V38.3118C109.549 37.6082 109.525 37.0803 108.998 36.5053C108.647 36.154 108.045 35.9773 107.441 35.9021L107.015 35.8529C106.864 35.7024 106.864 35.3271 107.066 35.2246C108.12 35.2999 109.449 35.2999 109.9 35.2999C110.303 35.2999 110.729 35.2758 111.056 35.2246C111.556 36.5053 114.517 39.8173 115.346 40.7457L117.78 43.4795C119.509 45.4115 120.739 46.8166 121.919 48.021H121.97C122.071 47.8966 122.071 47.4941 122.071 46.9672V41.5977C122.071 40.4184 122.045 37.1577 121.568 36.4039C121.417 36.1781 121.017 36.0275 120.012 35.9021L119.585 35.8529C119.41 35.7024 119.436 35.2999 119.636 35.2246C120.79 35.2758 121.643 35.2999 122.597 35.2999C123.675 35.2999 124.327 35.2758 125.18 35.2246C125.383 35.3511 125.383 35.7024 125.231 35.8529L124.88 35.9021C124.078 36.0275 123.575 36.2293 123.475 36.429C123.048 37.3322 123.099 40.4435 123.099 41.5977V47.5944Z" fill="#040404"></path> <path d="M129.73 52.2602C127.621 52.2602 126.292 51.6089 125.816 51.3329C125.514 50.7799 125.187 48.9995 125.138 47.8212C125.263 47.6435 125.641 47.5944 125.741 47.746C126.116 49.0235 127.145 51.4845 130.056 51.4845C132.162 51.4845 133.192 50.1035 133.192 48.599C133.192 47.494 132.967 46.2656 131.133 45.0853L128.751 43.5286C127.496 42.7016 126.041 41.2704 126.041 39.214C126.041 36.8304 127.899 34.8994 131.16 34.8994C131.937 34.8994 132.841 35.05 133.494 35.2246C133.818 35.327 134.169 35.3761 134.369 35.3761C134.596 35.9773 134.823 37.3834 134.823 38.4362C134.722 38.5878 134.321 38.662 134.194 38.5125C133.869 37.3071 133.192 35.6762 130.782 35.6762C128.323 35.6762 127.796 37.3071 127.796 38.4634C127.796 39.9166 129.002 40.9704 129.93 41.5485L131.937 42.802C133.518 43.7806 135.074 45.2358 135.074 47.6195C135.074 50.3795 132.991 52.2602 129.73 52.2602Z" fill="#040404"></path> <path d="M149.966 42.2544C148.539 42.2544 148.479 42.3119 148.479 43.2036V47.398C148.479 50.5197 148.627 50.9369 150.292 51.1167L151.157 51.2066C151.335 51.3247 151.275 51.86 151.095 51.9468C149.49 51.8882 148.479 51.86 147.32 51.86C146.039 51.86 145.028 51.9185 143.869 51.9468C143.689 51.86 143.63 51.3833 143.809 51.2066L144.314 51.1167C145.98 50.8177 146.039 50.5197 146.039 47.398V36.6904C146.039 33.5677 145.831 33.0617 144.285 32.9435L143.511 32.8839C143.334 32.7658 143.393 32.2295 143.571 32.1406C145.028 32.1699 146.039 32.2295 147.32 32.2295C148.479 32.2295 149.49 32.2002 150.769 32.1406C150.948 32.2295 151.007 32.7658 150.828 32.8839L150.262 32.9435C148.539 33.1234 148.479 33.5677 148.479 36.6904V40.1112C148.479 41.0333 148.539 41.0615 149.966 41.0615H158.473C159.9 41.0615 159.96 41.0333 159.96 40.1112V36.6904C159.96 33.5677 159.9 33.1234 158.144 32.9435L157.578 32.8839C157.4 32.7658 157.46 32.2295 157.64 32.1406C159.005 32.2002 160.018 32.2295 161.237 32.2295C162.398 32.2295 163.41 32.2002 164.748 32.1406C164.926 32.2295 164.986 32.7658 164.806 32.8839L164.182 32.9435C162.458 33.1234 162.398 33.5677 162.398 36.6904V47.398C162.398 50.5197 162.458 50.9076 164.182 51.1167L164.896 51.2066C165.074 51.3247 165.015 51.86 164.836 51.9468C163.41 51.8882 162.398 51.86 161.237 51.86C160.018 51.86 158.949 51.8882 157.64 51.9468C157.46 51.86 157.4 51.3833 157.578 51.2066L158.144 51.1167C159.96 50.8177 159.96 50.5197 159.96 47.398V43.2036C159.96 42.3119 159.9 42.2544 158.473 42.2544H149.966V42.2544Z" fill="#040404"></path> <path d="M164.708 43.7555C164.708 38.7384 168.474 34.8984 173.639 34.8984C179.436 34.8984 182.346 39.0886 182.346 43.5046C182.346 48.573 178.483 52.2603 173.639 52.2603C168.071 52.2603 164.708 48.2719 164.708 43.7555ZM179.837 44.2824C179.837 40.1435 178.007 35.6763 173.213 35.6763C170.605 35.6763 167.218 37.4588 167.218 42.9537C167.218 46.665 169.025 51.4846 173.967 51.4846C176.979 51.4846 179.837 49.2264 179.837 44.2824Z" fill="#040404"></path> <path d="M186.888 48.0963C186.888 50.7309 186.939 51.057 188.544 51.2327L189.221 51.3079C189.373 51.4324 189.323 51.8599 189.171 51.9352C187.741 51.884 186.914 51.8599 185.909 51.8599C184.856 51.8599 183.953 51.884 182.849 51.9352C182.697 51.8599 182.648 51.4574 182.8 51.3079L183.327 51.2327C184.78 51.033 184.831 50.7309 184.831 48.0963V38.8388C184.831 36.705 184.78 36.2785 183.651 36.153L182.749 36.0516C182.573 35.9021 182.597 35.5258 182.8 35.4254C184.129 35.2487 185.685 35.2236 187.766 35.2236C189.848 35.2236 191.404 35.4996 192.584 36.2283C193.738 36.9559 194.591 38.2607 194.591 39.9909C194.591 42.2993 193.162 43.4555 192.082 43.9814C190.977 44.5083 189.649 44.7331 188.619 44.7331C188.443 44.6599 188.443 44.2825 188.595 44.2334C191.305 43.7305 192.282 42.1989 192.282 40.017C192.282 37.5822 190.853 36.0035 188.243 36.0035C186.914 36.0035 186.888 36.1018 186.888 36.9068V48.0963Z" fill="#040404"></path> <path d="M197.328 39.0635C197.328 36.429 197.277 36.0275 195.824 35.9031L195.195 35.8529C195.045 35.7515 195.096 35.2999 195.246 35.2246C196.475 35.2758 197.277 35.2999 198.406 35.2999C199.385 35.2999 200.238 35.2758 201.318 35.2246C201.467 35.2999 201.519 35.7515 201.367 35.8529L200.891 35.9031C199.436 36.0526 199.385 36.429 199.385 39.0635V41.9511C199.385 42.4267 199.436 42.9024 199.713 42.9024C199.938 42.9024 200.238 42.7529 200.414 42.6264C200.765 42.3264 201.418 41.673 201.694 41.4221L204.404 38.7384C204.88 38.2857 206.11 37.0061 206.36 36.6558C206.487 36.4792 206.538 36.3537 206.538 36.2533C206.538 36.154 206.438 36.0787 206.11 36.0035L205.433 35.8529C205.257 35.6762 205.281 35.3511 205.482 35.2246C206.36 35.2758 207.365 35.2999 208.242 35.2999C209.12 35.2999 209.974 35.2758 210.725 35.2246C210.903 35.3511 210.928 35.7024 210.776 35.8529C210.125 35.9031 209.147 36.154 208.445 36.5555C207.742 36.9559 206.335 38.1352 204.93 39.466L202.672 41.5977C202.321 41.9511 202.095 42.1758 202.095 42.3755C202.095 42.5532 202.245 42.7529 202.572 43.1533C204.955 45.8872 206.887 48.1464 208.845 50.2039C209.447 50.8061 209.904 51.1333 210.756 51.2337L211.24 51.3089C211.418 51.4333 211.367 51.8599 211.189 51.9362C210.538 51.885 209.85 51.8599 208.67 51.8599C207.642 51.8599 206.762 51.885 205.609 51.9362C205.433 51.885 205.358 51.4574 205.508 51.3089L206.084 51.2065C206.438 51.1573 206.686 51.0821 206.686 50.9577C206.686 50.8061 206.511 50.6064 206.335 50.3795C205.857 49.7773 205.206 49.0999 204.253 48.021L202.245 45.7628C200.816 44.158 200.414 43.6562 199.811 43.6562C199.436 43.6562 199.385 43.9824 199.385 44.8606V48.0973C199.385 50.7308 199.436 51.0821 200.84 51.2337L201.519 51.3089C201.667 51.4093 201.619 51.8599 201.467 51.9362C200.238 51.885 199.385 51.8599 198.406 51.8599C197.378 51.8599 196.526 51.885 195.497 51.9362C195.346 51.8599 195.295 51.4846 195.446 51.3089L195.948 51.2337C197.277 51.0329 197.328 50.7308 197.328 48.0973V39.0635V39.0635Z" fill="#040404"></path> <path d="M214.549 39.1138C214.549 36.4541 214.5 36.0265 213.018 35.9021L212.393 35.8519C212.242 35.7505 212.291 35.3 212.442 35.2236C213.696 35.2749 214.549 35.2999 215.603 35.2999C216.608 35.2999 217.461 35.2749 218.714 35.2236C218.866 35.3 218.915 35.7505 218.766 35.8519L218.137 35.9021C216.657 36.0265 216.608 36.4541 216.608 39.1138V48.0451C216.608 50.7058 216.657 51.057 218.137 51.2327L218.766 51.3079C218.915 51.4083 218.866 51.8589 218.714 51.9352C217.461 51.884 216.608 51.8589 215.603 51.8589C214.549 51.8589 213.791 51.884 212.538 51.9352C212.387 51.8589 212.338 51.4574 212.489 51.3079L213.018 51.2327C214.5 51.057 214.549 50.7058 214.549 48.0451V39.1138Z" fill="#040404"></path> <path d="M236.253 47.5944C236.253 48.3482 236.253 51.333 236.33 51.9843C236.279 52.1359 236.128 52.2603 235.852 52.2603C235.552 51.8358 234.824 50.9577 232.641 48.4726L226.82 41.8486C226.143 41.0708 224.436 39.0133 223.909 38.4634H223.86C223.759 38.7635 223.734 39.3395 223.734 40.0922V45.5631C223.734 46.7413 223.759 50.0042 224.185 50.7548C224.337 51.0329 224.839 51.1824 225.466 51.2326L226.244 51.3089C226.392 51.5086 226.368 51.8107 226.192 51.9352C225.063 51.885 224.185 51.8599 223.258 51.8599C222.204 51.8599 221.527 51.885 220.648 51.9352C220.473 51.8107 220.447 51.4574 220.597 51.3089L221.276 51.2326C221.852 51.1573 222.253 51.0068 222.38 50.7308C222.731 49.8286 222.705 46.7675 222.705 45.5631V38.3118C222.705 37.6082 222.681 37.0803 222.154 36.5053C221.803 36.154 221.2 35.9773 220.597 35.9021L220.171 35.8529C220.02 35.7024 220.02 35.3271 220.222 35.2246C221.276 35.2999 222.604 35.2999 223.056 35.2999C223.459 35.2999 223.885 35.2758 224.211 35.2246C224.714 36.5053 227.673 39.8173 228.5 40.7457L230.936 43.4795C232.667 45.4115 233.894 46.8166 235.075 48.021H235.126C235.226 47.8966 235.226 47.4941 235.226 46.9672V41.5977C235.226 40.4184 235.201 37.1577 234.723 36.4039C234.573 36.1781 234.172 36.0275 233.17 35.9021L232.743 35.8529C232.566 35.7024 232.592 35.2999 232.791 35.2246C233.946 35.2758 234.799 35.2999 235.752 35.2999C236.833 35.2999 237.484 35.2758 238.335 35.2246C238.538 35.3511 238.538 35.7024 238.387 35.8529L238.035 35.9021C237.232 36.0275 236.731 36.2293 236.63 36.429C236.204 37.3322 236.253 40.4435 236.253 41.5977V47.5944V47.5944Z" fill="#040404"></path> <path d="M242.844 52.2602C240.735 52.2602 239.406 51.6089 238.928 51.3329C238.628 50.7799 238.301 48.9995 238.25 47.8212C238.377 47.6435 238.754 47.5944 238.853 47.746C239.23 49.0235 240.259 51.4845 243.169 51.4845C245.276 51.4845 246.306 50.1035 246.306 48.599C246.306 47.494 246.079 46.2656 244.247 45.0853L241.866 43.5286C240.61 42.7016 239.155 41.2704 239.155 39.214C239.155 36.8304 241.011 34.8994 244.273 34.8994C245.051 34.8994 245.955 35.05 246.608 35.2246C246.934 35.327 247.283 35.3761 247.483 35.3761C247.71 35.9773 247.937 37.3834 247.937 38.4362C247.834 38.5878 247.435 38.662 247.308 38.5125C246.983 37.3071 246.306 35.6762 243.898 35.6762C241.437 35.6762 240.91 37.3071 240.91 38.4634C240.91 39.9166 242.116 40.9704 243.042 41.5485L245.051 42.802C246.632 43.7806 248.188 45.2358 248.188 47.6195C248.188 50.3795 246.105 52.2602 242.844 52.2602Z" fill="#040404"></path> </g> <defs> <clipPath id="clip0"> <rect x="11" y="27" width="237.318" height="46" fill="white"></rect> </clipPath> </defs> </svg>
