<svg xmlns="http://www.w3.org/2000/svg" width="120" height="120" viewBox="0 0 120 120" fill="none"> <circle cx="60" cy="60" r="60" fill="#F2F7FF"></circle> <g clip-path="url(#clip0)"> <path d="M86.7188 48.1923C86.6971 48.0681 86.6505 47.9495 86.5818 47.8437C86.5131 47.738 86.4238 47.6471 86.3192 47.5767C86.2146 47.5062 86.0969 47.4576 85.973 47.4337C85.8492 47.4098 85.7218 47.4111 85.5985 47.4376L76.1063 49.3126C76.0535 49.3255 76.0017 49.3428 75.9517 49.3642C75.7007 49.3878 75.4517 49.4285 75.2063 49.486L72.6563 50.2501H72.3235C71.9673 50.2501 71.5782 49.9642 70.6501 49.261L70.1017 48.8438C68.8379 47.9665 67.5231 47.1651 66.1642 46.4438C65.3438 45.9751 64.5657 45.5438 64.1251 45.2532C62.6063 44.2407 59.8735 44.3157 58.5657 44.747C56.8126 45.4972 55.1906 46.5226 53.761 47.7845C52.3583 47.8773 50.9611 48.0416 49.5751 48.2767C45.961 49.0032 44.4517 48.6845 44.4517 48.6845L39.3985 47.5267L35.5688 45.6517C35.458 45.5975 35.3377 45.5657 35.2146 45.558C35.0915 45.5504 34.9681 45.5671 34.8514 45.6071C34.7348 45.6471 34.6271 45.7098 34.5347 45.7914C34.4422 45.8731 34.3668 45.9721 34.3126 46.0829C34.2584 46.1937 34.2266 46.3141 34.219 46.4372C34.2113 46.5603 34.228 46.6837 34.268 46.8003C34.3081 46.917 34.3707 47.0246 34.4524 47.1171C34.534 47.2095 34.633 47.285 34.7438 47.3392L37.9688 48.9188C36.1501 55.6454 32.9485 67.411 32.6532 68.297C32.5888 68.4915 32.5696 68.6983 32.5972 68.9014C32.6249 69.1045 32.6985 69.2986 32.8126 69.4688C33.5298 70.6407 36.4735 71.2548 38.1657 71.5126C38.2125 71.5172 38.2596 71.5172 38.3063 71.5126C38.4657 71.5129 38.6224 71.4726 38.7619 71.3955C38.9013 71.3184 39.0188 71.2071 39.1032 71.072L40.1438 69.4079C40.2584 69.5284 40.3822 69.6397 40.5142 69.7407C40.956 70.0642 41.4781 70.2602 42.0236 70.3073C42.5692 70.3544 43.1172 70.2509 43.6079 70.0079C43.6465 70.1978 43.7046 70.3831 43.7813 70.561C44.0763 71.2066 44.5182 71.7743 45.0716 72.2187C45.6251 72.6631 46.2748 72.9719 46.9688 73.1204C47.7078 73.2916 48.4818 73.226 49.1813 72.9329C49.3744 73.6505 49.764 74.2999 50.3063 74.8079C50.7932 75.3496 51.4246 75.741 52.1262 75.9361C52.8279 76.1312 53.5707 76.122 54.2673 75.9095C54.3985 76.2506 54.6017 76.5595 54.8629 76.8151C55.1242 77.0707 55.4374 77.267 55.7814 77.3907C56.2037 77.5362 56.6472 77.6107 57.0938 77.611C58.1019 77.5806 59.0747 77.2329 59.8735 76.6173C60.0921 76.9197 60.3798 77.1656 60.7126 77.3345C61.0772 77.5183 61.4808 77.6116 61.8892 77.6064C62.3014 77.6014 62.71 77.5286 63.0985 77.3907C63.5243 77.2301 63.9135 76.9855 64.2429 76.6715C64.5722 76.3574 64.8351 75.9803 65.0157 75.5626C66.0789 75.6831 67.1528 75.4614 68.0813 74.9298C68.7723 74.446 69.2703 73.7338 69.4876 72.9188C70.033 73.0239 70.5954 72.9994 71.1296 72.8471C71.6637 72.6948 72.1546 72.4191 72.5626 72.0423C72.9144 71.7363 73.1949 71.357 73.3844 70.9311C73.5739 70.5051 73.6678 70.0428 73.6595 69.5767C73.955 69.5423 74.2469 69.4811 74.5313 69.3938C75.1051 70.5935 76.0895 71.548 77.3063 72.0845C78.1548 72.4746 79.0772 72.6776 80.011 72.6798C80.7779 72.697 81.5383 72.5365 82.2329 72.211C86.1657 70.247 86.8407 64.8423 84.3001 55.697C83.5079 52.8376 82.1157 51.2392 80.6579 50.3579L85.9642 49.3126C86.0884 49.2908 86.2069 49.2442 86.3127 49.1755C86.4185 49.1069 86.5093 49.0176 86.5798 48.913C86.6503 48.8084 86.6989 48.6906 86.7228 48.5668C86.7467 48.443 86.7453 48.3156 86.7188 48.1923V48.1923ZM59.1564 46.5376C60.2064 46.186 62.2267 46.2517 63.0892 46.8235C63.5579 47.1517 64.3548 47.5876 65.2501 48.0892C66.542 48.7722 67.794 49.5281 69.0001 50.3532L69.5251 50.747C70.6501 51.6048 71.3345 52.1204 72.3376 52.1204C72.5298 52.1204 77.0532 52.1767 78.1501 56.9345C79.3407 62.0907 79.2001 66.5298 78.7267 67.2142C78.5732 67.4247 78.3769 67.6003 78.1507 67.7296C77.9245 67.8589 77.6735 67.9388 77.4142 67.9642C77.1467 67.9861 76.8775 67.964 76.6173 67.8985C77.0127 67.223 77.1805 66.4384 77.0961 65.6602C77.0117 64.8821 76.6795 64.1517 76.1485 63.5767C75.3282 62.761 64.2423 53.2642 62.597 52.0173C60.4688 50.4282 58.7814 51.1876 57.5485 51.9892C56.6439 52.5892 55.2329 54.7595 54.872 55.486C54.6142 55.8798 52.9688 57.0282 51.7454 56.9907C51.5011 56.9914 51.2615 56.9232 51.0542 56.7939C50.8469 56.6645 50.6803 56.4793 50.5735 56.2595C50.5735 56.0532 51.0423 55.4157 51.3798 54.9517C51.7964 54.4049 52.1845 53.837 52.5423 53.2501C52.9433 52.6381 53.2588 51.9742 53.4798 51.2767C53.5966 50.8661 53.8032 50.4867 54.0845 50.1657C55.111 48.7782 58.1251 46.8798 59.1564 46.5376ZM37.8282 69.5392C36.6944 69.3687 35.5899 69.0406 34.547 68.5642C35.2595 66.1548 38.8032 53.0954 39.7688 49.5329L43.2657 50.3392C43.1251 52.4532 42.7501 58.2704 42.136 60.422C41.6418 62.1049 41.0149 63.746 40.261 65.3298C39.9327 65.7809 39.6882 66.2874 39.5392 66.8251C39.5392 66.8532 39.497 66.8767 39.4782 66.9095L37.8282 69.5392ZM41.6204 68.236C41.5368 68.1848 41.4648 68.1166 41.4091 68.0359C41.3534 67.9551 41.3152 67.8637 41.297 67.7673C41.2881 67.438 41.3726 67.113 41.5407 66.8298C41.9482 66.895 42.3495 66.9938 42.7407 67.1251C43.0822 67.2875 43.3523 67.5693 43.5001 67.9173C43.0032 68.2548 42.1876 68.672 41.6204 68.236ZM47.4048 71.297C46.9856 71.2166 46.5916 71.0379 46.255 70.7755C45.9184 70.5131 45.649 70.1745 45.4688 69.7876C45.3766 69.4294 45.3766 69.0536 45.4688 68.6954L47.6767 66.4829C48.3704 65.7938 48.9892 65.4938 49.5517 65.5454C50.1497 65.6828 50.6863 66.0121 51.0798 66.4829C51.9189 67.3173 52.0923 67.6688 50.1704 69.9048L49.8188 70.3126C49.4392 70.6782 48.3188 71.5267 47.4048 71.297ZM51.6235 73.4673C50.6392 72.4782 51.0001 71.8313 51.1548 71.6392L51.2017 71.5829C51.4079 71.3517 51.6095 71.122 51.8064 70.8938C52.6595 69.9188 54.2017 68.1751 54.886 67.4907C55.5704 66.8063 56.9157 66.3798 58.2048 67.6735C59.072 68.536 58.711 69.3095 58.5423 69.5485L54.2954 73.7954C54.0423 73.997 52.8798 74.7376 51.6095 73.4673H51.6235ZM56.4001 75.6142C56.2617 75.5413 56.1437 75.4349 56.0569 75.3047C55.9701 75.1745 55.9173 75.0247 55.9032 74.8688L59.9251 70.8423C59.9883 70.7631 60.0686 70.6993 60.1599 70.6553C60.2511 70.6114 60.3511 70.5886 60.4524 70.5886C60.5537 70.5886 60.6537 70.6114 60.745 70.6553C60.8363 70.6993 60.9166 70.7631 60.9798 70.8423C61.7298 71.5876 61.3923 72.2485 61.2845 72.3938C60.8459 73.045 60.3552 73.6595 59.8173 74.2313C58.1251 75.9095 57.0985 75.8532 56.386 75.6142H56.4001ZM62.536 75.6142C61.6923 75.8954 61.4251 75.6142 61.3407 75.4032V75.3704C61.6724 75.0102 61.9853 74.6331 62.2782 74.2407L63.2579 74.9251C63.1041 75.2363 62.8426 75.4811 62.522 75.6142H62.536ZM72.4923 67.6735H72.4501L65.386 61.9313C65.1922 61.8153 64.963 61.7732 64.7406 61.8127C64.5181 61.8522 64.3175 61.9706 64.1754 62.1463C64.0334 62.322 63.9596 62.5431 63.9676 62.7688C63.9756 62.9946 64.0648 63.2099 64.2188 63.3751L71.747 69.5157H71.7751C71.7779 69.5265 71.7779 69.5378 71.7751 69.5485C71.7832 69.7676 71.7399 69.9856 71.6487 70.185C71.5576 70.3844 71.4211 70.5597 71.2501 70.697C70.6313 71.3204 69.4735 71.0063 69.1735 70.9126L62.1423 66.2251C61.9358 66.0875 61.6832 66.0373 61.4398 66.0857C61.1964 66.134 60.9821 66.2768 60.8439 66.4829C60.7752 66.5856 60.7275 66.7009 60.7036 66.822C60.6796 66.9432 60.6798 67.0679 60.7042 67.189C60.7286 67.3101 60.7767 67.4252 60.8457 67.5277C60.9147 67.6301 61.0033 67.7179 61.1064 67.786L67.7392 72.2063C67.6528 72.662 67.4006 73.0695 67.0313 73.3501C66.3423 73.8188 65.0298 73.6923 64.5938 73.6079L63.1876 72.6376C63.3412 72.0867 63.3379 71.5039 63.1781 70.9548C63.0182 70.4057 62.7082 69.9121 62.2829 69.5298C61.8454 69.0648 61.2506 68.7792 60.6142 68.7282C60.5667 67.8332 60.1714 66.9921 59.5126 66.3845C57.7032 64.5704 55.247 64.5095 53.5454 66.2017C53.4704 66.272 53.3907 66.3563 53.3017 66.4501C53.0783 65.9804 52.77 65.5561 52.3923 65.1985C51.7078 64.4291 50.7822 63.915 49.7673 63.7407C48.5954 63.5954 47.4235 64.0829 46.322 65.1985L44.8923 66.6048C44.5253 66.0211 43.972 65.5785 43.322 65.3485C43.0283 65.2483 42.7294 65.1638 42.4267 65.0954C43.0159 63.7497 43.517 62.3671 43.9267 60.9563C44.5829 58.6688 44.9673 52.9876 45.0985 50.6438C46.725 50.6579 48.3478 50.4881 49.936 50.1376C50.536 50.0157 51.3142 49.9173 52.036 49.8376C51.8807 50.1202 51.7566 50.4188 51.6657 50.7282C51.4926 51.2819 51.2433 51.8088 50.9251 52.2938C50.5971 52.8289 50.242 53.3467 49.861 53.8454C49.036 54.961 48.2626 56.011 48.9235 57.197C49.2078 57.7302 49.6386 58.1711 50.1651 58.4676C50.6917 58.7641 51.292 58.9039 51.8954 58.8704C53.9063 58.8048 56.1095 57.2017 56.5313 56.3438C56.9532 55.486 58.1673 53.822 58.5892 53.5313C59.611 52.8517 60.3376 52.6595 61.4626 53.5032C62.9954 54.6704 74.0626 64.1392 74.8126 64.9032C75.0704 65.2188 75.2112 65.6137 75.2112 66.0212C75.2112 66.4287 75.0704 66.8236 74.8126 67.1392C74.0017 67.9454 72.5063 67.6735 72.4923 67.6735ZM82.5001 56.1845C84.0329 61.7063 85.0876 68.6767 81.3985 70.5235C80.8719 70.7294 80.3081 70.8232 79.7431 70.799C79.1781 70.7748 78.6244 70.6331 78.1173 70.3829C77.8058 70.2393 77.513 70.0583 77.2454 69.8438C77.311 69.8438 77.3767 69.8438 77.447 69.8438C77.976 69.8063 78.491 69.6569 78.9581 69.4056C79.4251 69.1543 79.8335 68.8068 80.1563 68.386C81.3704 66.872 80.9907 61.0454 79.9454 56.5126C79.7319 55.3964 79.2701 54.3425 78.5942 53.4288C77.9183 52.5152 77.0456 51.7652 76.0407 51.2345C77.1892 51.0517 81.0095 50.8688 82.5001 56.1845Z" fill="#003188"></path> </g> <defs> <clipPath id="clip0"> <rect x="30" y="30" width="60" height="60" fill="white"></rect> </clipPath> </defs> </svg>
