<svg width="72" height="72" viewBox="0 0 72 72" fill="none" xmlns="http://www.w3.org/2000/svg">
<path fill-rule="evenodd" clip-rule="evenodd" d="M26.1995 7.83267C12.92 10.9683 4.6968 24.2755 7.83247 37.555C10.9681 50.8345 24.2753 59.0578 37.5548 55.9221C50.8343 52.7864 59.0576 39.4793 55.9219 26.1997C52.7862 12.9202 39.4791 4.697 26.1995 7.83267ZM6.08926 37.9666C2.72625 23.7244 11.5456 9.45246 25.7879 6.08945C40.0302 2.72645 54.3021 11.5458 57.6651 25.7881C61.0281 40.0304 52.2087 54.3023 37.9664 57.6653C23.7242 61.0283 9.45226 52.2089 6.08926 37.9666Z" fill="#003188"/>
<path fill-rule="evenodd" clip-rule="evenodd" d="M62.2152 32C62.7099 32 63.111 32.4011 63.111 32.8959C63.111 49.5823 49.5823 63.111 32.8959 63.111C32.4011 63.111 32 62.7099 32 62.2152C32 61.7204 32.4011 61.3193 32.8959 61.3193C48.5927 61.3193 61.3193 48.5927 61.3193 32.8959C61.3193 32.4011 61.7204 32 62.2152 32Z" fill="#003188"/>
<path fill-rule="evenodd" clip-rule="evenodd" d="M55.7365 50.9298C56.0876 50.5787 56.6568 50.5787 57.0079 50.9298L70.7386 64.6606C72.4192 66.3411 72.4215 69.0625 70.7379 70.7393C69.0573 72.4191 66.3366 72.4212 64.66 70.738C64.6597 70.7377 64.6594 70.7374 64.6591 70.7372L50.93 57.014C50.5788 56.663 50.5787 56.0938 50.9297 55.7426C51.2807 55.3914 51.8499 55.3913 52.2011 55.7423L65.9334 69.4686C66.9057 70.4454 68.487 70.4474 69.4672 69.4672L69.4686 69.4658C70.4454 68.4934 70.4474 66.9122 69.4672 65.9319L55.7365 52.2012C55.3854 51.8501 55.3854 51.2809 55.7365 50.9298Z" fill="#003188"/>
<path d="M33.0636 38.0842H29.7338V41.7777H27.8353V38.0842H25.7778V35.9621H27.8353V34.122H25.7778V32.0134H27.8353V22.2222H33.1729C34.7235 22.2222 35.9527 22.7549 36.8605 23.8205C37.7683 24.886 38.2222 26.3276 38.2222 28.1452C38.2222 30.0524 37.7849 31.5254 36.9102 32.564C36.0422 33.5937 34.8063 34.1131 33.2027 34.122H29.7338V35.9621H33.0636V38.0842ZM29.7338 32.0134H33.1729C34.2 32.0134 34.9819 31.6865 35.5187 31.0329C36.0554 30.3793 36.3238 29.4257 36.3238 28.1721C36.3238 27.0349 36.0455 26.1172 35.4889 25.4187C34.9322 24.7114 34.1801 24.3532 33.2326 24.3443H29.7338V32.0134Z" fill="#003188"/>
</svg>
