<svg width="72" height="60" viewBox="0 0 72 60" fill="none" xmlns="http://www.w3.org/2000/svg">
<g clip-path="url(#clip0)">
<path fill-rule="evenodd" clip-rule="evenodd" d="M1.76125 18.6147V55.6109C1.76125 57.05 2.91004 58.2146 4.32094 58.2146H67.6791C69.0939 58.2146 70.2387 57.0461 70.2387 55.6109V18.6147H72V55.6109C72 58.0335 70.0686 60.0062 67.6791 60.0062H4.32094C1.93928 60.0062 0 58.0415 0 55.6109V18.6147H1.76125Z" fill="#003188"/>
<path fill-rule="evenodd" clip-rule="evenodd" d="M13.2583 6.61824C13.705 6.81396 13.9111 7.34097 13.7187 7.79534C13.5994 8.07706 13.5322 8.38679 13.5322 8.70699C13.5322 10.0397 14.5939 11.1197 15.9041 11.1197C17.2142 11.1197 18.2759 10.0397 18.2759 8.70699C18.2759 8.38167 18.2091 8.07788 18.0894 7.79534C17.897 7.34097 18.1031 6.81396 18.5498 6.61824C18.9965 6.42251 19.5146 6.63218 19.707 7.08654C19.9161 7.58035 20.0371 8.12457 20.0371 8.70699C20.0371 11.0291 18.1869 12.9112 15.9041 12.9112C13.6212 12.9112 11.771 11.0291 11.771 8.70699C11.771 8.1314 11.8917 7.58117 12.1012 7.08654C12.2936 6.63218 12.8117 6.42251 13.2583 6.61824Z" fill="#003188"/>
<path fill-rule="evenodd" clip-rule="evenodd" d="M15.9099 0C16.3963 0 16.7905 0.401059 16.7905 0.89579V8.64736C16.7905 9.14209 16.3963 9.54315 15.9099 9.54315C15.4236 9.54315 15.0293 9.14209 15.0293 8.64736V0.89579C15.0293 0.401059 15.4236 0 15.9099 0Z" fill="#003188"/>
<path fill-rule="evenodd" clip-rule="evenodd" d="M53.4502 6.61824C53.8969 6.81396 54.103 7.34097 53.9106 7.79534C53.791 8.07787 53.7241 8.38167 53.7241 8.70699C53.7241 10.0397 54.7858 11.1197 56.096 11.1197C57.4061 11.1197 58.4678 10.0397 58.4678 8.70699C58.4678 8.38679 58.4006 8.07705 58.2813 7.79534C58.0889 7.34097 58.295 6.81396 58.7417 6.61824C59.1884 6.42251 59.7065 6.63218 59.8989 7.08654C60.1083 7.58118 60.229 8.1314 60.229 8.70699C60.229 11.0291 58.3788 12.9112 56.096 12.9112C53.8131 12.9112 51.9629 11.0291 51.9629 8.70699C51.9629 8.12458 52.0839 7.58036 52.2931 7.08654C52.4855 6.63218 53.0036 6.42251 53.4502 6.61824Z" fill="#003188"/>
<path fill-rule="evenodd" clip-rule="evenodd" d="M56.0901 0C56.5765 0 56.9707 0.401059 56.9707 0.89579V8.64736C56.9707 9.14209 56.5765 9.54315 56.0901 9.54315C55.6037 9.54315 55.2095 9.14209 55.2095 8.64736V0.89579C55.2095 0.401059 55.6037 0 56.0901 0Z" fill="#003188"/>
<path fill-rule="evenodd" clip-rule="evenodd" d="M18.6223 3.04569C18.6223 2.55096 19.0166 2.1499 19.5029 2.1499H52.4912C52.9776 2.1499 53.3718 2.55096 53.3718 3.04569C53.3718 3.54042 52.9776 3.94148 52.4912 3.94148H19.5029C19.0166 3.94148 18.6223 3.54042 18.6223 3.04569Z" fill="#003188"/>
<path fill-rule="evenodd" clip-rule="evenodd" d="M58.8082 3.03983C58.8082 2.5451 59.2025 2.14404 59.6888 2.14404H67.6791C70.0686 2.14404 72 4.11671 72 6.53938V19.5104H0V6.54536C0 4.11472 1.93928 2.15001 4.32094 2.15001H12.3112C12.7975 2.15001 13.1918 2.55107 13.1918 3.0458C13.1918 3.54054 12.7975 3.94159 12.3112 3.94159H4.32094C2.91004 3.94159 1.76125 5.10618 1.76125 6.54536V17.7188H70.2387V6.53938C70.2387 5.10419 69.0939 3.93562 67.6791 3.93562H59.6888C59.2025 3.93562 58.8082 3.53456 58.8082 3.03983Z" fill="#003188"/>
<path fill-rule="evenodd" clip-rule="evenodd" d="M20.7827 25.3867C21.2691 25.3867 21.6634 25.7878 21.6634 26.2825V33.5384C21.6634 34.0331 21.2691 34.4342 20.7827 34.4342C20.2964 34.4342 19.9021 34.0331 19.9021 33.5384V26.2825C19.9021 25.7878 20.2964 25.3867 20.7827 25.3867Z" fill="#003188"/>
<path fill-rule="evenodd" clip-rule="evenodd" d="M30.9275 25.3867C31.4139 25.3867 31.8081 25.7878 31.8081 26.2825V33.5384C31.8081 34.0331 31.4139 34.4342 30.9275 34.4342C30.4411 34.4342 30.0469 34.0331 30.0469 33.5384V26.2825C30.0469 25.7878 30.4411 25.3867 30.9275 25.3867Z" fill="#003188"/>
<path fill-rule="evenodd" clip-rule="evenodd" d="M41.0723 25.3867C41.5586 25.3867 41.9529 25.7878 41.9529 26.2825V33.5384C41.9529 34.0331 41.5586 34.4342 41.0723 34.4342C40.5859 34.4342 40.1917 34.0331 40.1917 33.5384V26.2825C40.1917 25.7878 40.5859 25.3867 41.0723 25.3867Z" fill="#003188"/>
<path fill-rule="evenodd" clip-rule="evenodd" d="M51.2171 25.3867C51.7034 25.3867 52.0977 25.7878 52.0977 26.2825V33.5384C52.0977 34.0331 51.7034 34.4342 51.2171 34.4342C50.7307 34.4342 50.3364 34.0331 50.3364 33.5384V26.2825C50.3364 25.7878 50.7307 25.3867 51.2171 25.3867Z" fill="#003188"/>
<path fill-rule="evenodd" clip-rule="evenodd" d="M20.7827 43.1592C21.2691 43.1592 21.6634 43.5602 21.6634 44.055V51.3168C21.6634 51.8116 21.2691 52.2126 20.7827 52.2126C20.2964 52.2126 19.9021 51.8116 19.9021 51.3168V44.055C19.9021 43.5602 20.2964 43.1592 20.7827 43.1592Z" fill="#003188"/>
<path fill-rule="evenodd" clip-rule="evenodd" d="M30.9275 43.1592C31.4139 43.1592 31.8081 43.5602 31.8081 44.055V51.3168C31.8081 51.8116 31.4139 52.2126 30.9275 52.2126C30.4411 52.2126 30.0469 51.8116 30.0469 51.3168V44.055C30.0469 43.5602 30.4411 43.1592 30.9275 43.1592Z" fill="#003188"/>
<path fill-rule="evenodd" clip-rule="evenodd" d="M41.0723 43.1592C41.5586 43.1592 41.9529 43.5602 41.9529 44.055V51.3168C41.9529 51.8116 41.5586 52.2126 41.0723 52.2126C40.5859 52.2126 40.1917 51.8116 40.1917 51.3168V44.055C40.1917 43.5602 40.5859 43.1592 41.0723 43.1592Z" fill="#003188"/>
<path fill-rule="evenodd" clip-rule="evenodd" d="M51.2171 43.1592C51.7034 43.1592 52.0977 43.5602 52.0977 44.055V51.3168C52.0977 51.8116 51.7034 52.2126 51.2171 52.2126C50.7307 52.2126 50.3364 51.8116 50.3364 51.3168V44.055C50.3364 43.5602 50.7307 43.1592 51.2171 43.1592Z" fill="#003188"/>
<path fill-rule="evenodd" clip-rule="evenodd" d="M14.1782 38.8592C14.1782 38.3644 14.5725 37.9634 15.0588 37.9634H56.9356C57.4219 37.9634 57.8162 38.3644 57.8162 38.8592C57.8162 39.3539 57.4219 39.755 56.9356 39.755H15.0588C14.5725 39.755 14.1782 39.3539 14.1782 38.8592Z" fill="#003188"/>
<path fill-rule="evenodd" clip-rule="evenodd" d="M23.0078 8.97587C23.0078 8.48114 23.4021 8.08008 23.8884 8.08008H48.1115C48.5979 8.08008 48.9922 8.48114 48.9922 8.97587C48.9922 9.4706 48.5979 9.87166 48.1115 9.87166H23.8884C23.4021 9.87166 23.0078 9.4706 23.0078 8.97587Z" fill="#003188"/>
</g>
<defs>
<clipPath id="clip0">
<rect width="72" height="60" fill="white"/>
</clipPath>
</defs>
</svg>
