<svg width="39" height="69" viewBox="0 0 39 69" fill="none" xmlns="http://www.w3.org/2000/svg">
<path fill-rule="evenodd" clip-rule="evenodd" d="M15.4744 30.274L15.4782 30.2763L15.5075 30.2943C15.5318 30.3094 15.5658 30.3308 15.6079 30.358C15.692 30.4123 15.8095 30.4904 15.9492 30.5896C16.227 30.7869 16.6009 31.0731 16.9787 31.4265C17.6799 32.0824 18.6225 33.1784 18.6225 34.4998C18.6225 35.8186 17.6794 36.9147 16.9791 37.5706C16.6015 37.9242 16.2277 38.2109 15.9501 38.4085C15.8104 38.5079 15.6931 38.5863 15.609 38.6408C15.5669 38.668 15.533 38.6894 15.5086 38.7045L15.4794 38.7226L15.4749 38.7253C6.90967 44.0911 4.3455 50.1066 3.8443 54.6962C3.59123 57.0136 3.86034 59.005 4.19223 60.4147C4.358 61.1188 4.53876 61.675 4.67591 62.0504C4.74444 62.238 4.80196 62.3801 4.84106 62.4727C4.86061 62.519 4.87554 62.5528 4.88493 62.5737L4.89473 62.5952L4.89593 62.5978C4.89573 62.5974 4.89551 62.5969 4.08014 62.9778C3.26477 63.3587 3.26449 63.3581 3.2642 63.3575L3.26347 63.356L3.26158 63.352L3.25603 63.34C3.25157 63.3304 3.24559 63.3173 3.23822 63.301C3.22349 63.2682 3.20318 63.222 3.17825 63.163C3.1284 63.0451 3.06003 62.8756 2.98084 62.6588C2.82252 62.2254 2.62043 61.6015 2.43663 60.8208C2.06938 59.2608 1.7725 57.0633 2.052 54.5039C2.61583 49.3407 5.51008 42.852 14.5175 37.2112L14.5249 37.2065L14.5314 37.2026L14.5321 37.2022L14.5341 37.201L14.5504 37.1909C14.5659 37.1813 14.5905 37.1658 14.6228 37.1448C14.6876 37.1029 14.7829 37.0394 14.8985 36.9571C15.1312 36.7914 15.438 36.5554 15.741 36.2717C16.4017 35.6529 16.8197 35.0156 16.8197 34.4998C16.8197 33.9807 16.4012 33.3433 15.7414 32.7261C15.4386 32.4428 15.132 32.2075 14.8994 32.0423C14.7839 31.9603 14.6886 31.8971 14.6239 31.8553C14.5916 31.8344 14.5671 31.819 14.5516 31.8094L14.5353 31.7994L14.5337 31.7984L14.533 31.798L14.5325 31.7977L14.5255 31.7935L14.5175 31.7885C5.51008 26.1476 2.61583 19.659 2.052 14.4958C1.7725 11.9363 2.06938 9.73881 2.43663 8.17887C2.62043 7.39815 2.82252 6.77425 2.98084 6.34087C3.06003 6.12406 3.1284 5.95459 3.17825 5.83662C3.20318 5.77763 3.22349 5.73148 3.23822 5.6987C3.24559 5.68231 3.25157 5.66926 3.25603 5.65961L3.26158 5.6477L3.26347 5.64367L3.2642 5.64214C3.26449 5.64151 3.26477 5.64094 4.08014 6.02184C4.89551 6.40274 4.89573 6.40227 4.89593 6.40185L4.8962 6.40129L4.89473 6.40445L4.88493 6.42599C4.87554 6.44687 4.86061 6.4807 4.84106 6.52696C4.80196 6.61951 4.74444 6.76164 4.67591 6.94925C4.53876 7.32469 4.358 7.88083 4.19223 8.58496C3.86034 9.99469 3.59123 11.9861 3.8443 14.3035C4.34549 18.893 6.90955 24.9083 15.4744 30.274ZM4.8962 6.40129C4.89633 6.40101 4.89627 6.40114 4.8962 6.40129V6.40129Z" fill="#003188"/>
<path fill-rule="evenodd" clip-rule="evenodd" d="M2.7282 1.78695C2.21647 1.78695 1.80277 2.19701 1.80277 2.70425V5.12854H37.1972V2.70425C37.1972 2.19701 36.7835 1.78695 36.2718 1.78695H2.7282ZM0 2.70425C0 1.2101 1.22082 0 2.7282 0H36.2718C37.7792 0 39 1.2101 39 2.70425V6.91549H0V2.70425Z" fill="#003188"/>
<path fill-rule="evenodd" clip-rule="evenodd" d="M0 62.0845H39V66.2957C39 67.7899 37.7792 69 36.2718 69H2.7282C1.22082 69 0 67.7899 0 66.2957V62.0845ZM1.80277 63.8714V66.2957C1.80277 66.8029 2.21646 67.213 2.7282 67.213H36.2718C36.7835 67.213 37.1972 66.8029 37.1972 66.2957V63.8714H1.80277Z" fill="#003188"/>
<path fill-rule="evenodd" clip-rule="evenodd" d="M36.948 14.4958C36.3841 19.659 33.4899 26.1476 24.4825 31.7885L24.4744 31.7935L24.4674 31.7978L24.4666 31.7982L24.4647 31.7994L24.4484 31.8094C24.4329 31.819 24.4083 31.8344 24.376 31.8553C24.3113 31.8971 24.2161 31.9603 24.1006 32.0423C23.868 32.2075 23.5614 32.4428 23.2586 32.7261C22.5987 33.3433 22.1802 33.9807 22.1802 34.4998C22.1802 35.0156 22.5982 35.6529 23.259 36.2717C23.5619 36.5554 23.8687 36.7914 24.1015 36.9571C24.217 37.0394 24.3123 37.1029 24.3771 37.1448C24.4094 37.1658 24.434 37.1813 24.4496 37.1909L24.4659 37.201L24.4675 37.202L24.4682 37.2024L24.475 37.2065L24.4825 37.2112C33.4899 42.852 36.3841 49.3407 36.948 54.5039C37.2275 57.0633 36.9306 59.2608 36.5633 60.8208C36.3795 61.6015 36.1774 62.2254 36.0191 62.6588C35.9399 62.8756 35.8716 63.0451 35.8217 63.163C35.7968 63.222 35.7765 63.2682 35.7617 63.301C35.7569 63.3117 35.7527 63.321 35.7491 63.3288C35.7472 63.333 35.7455 63.3367 35.7439 63.34L35.7384 63.352L35.7365 63.356L35.7358 63.3575C35.7355 63.3581 35.7352 63.3587 34.9198 62.9778C34.1044 62.5969 34.1042 62.5974 34.104 62.5978L34.1052 62.5952L34.115 62.5737C34.1244 62.5528 34.1393 62.519 34.1589 62.4727C34.198 62.3801 34.2555 62.238 34.324 62.0504C34.4612 61.675 34.642 61.1188 34.8077 60.4147C35.1396 59.005 35.4087 57.0136 35.1557 54.6962C34.6545 50.1066 32.0903 44.0911 23.525 38.7253L23.5205 38.7226L23.4913 38.7045C23.467 38.6894 23.4331 38.668 23.391 38.6408C23.3069 38.5863 23.1895 38.5079 23.0499 38.4085C22.7722 38.2109 22.3984 37.9242 22.0209 37.5706C21.3205 36.9147 20.3774 35.8186 20.3774 34.4998C20.3774 33.1784 21.32 32.0824 22.0213 31.4265C22.399 31.0731 22.773 30.7869 23.0508 30.5896C23.1905 30.4904 23.3079 30.4123 23.3921 30.358C23.4342 30.3308 23.4681 30.3094 23.4925 30.2943L23.5218 30.2763L23.5256 30.274C32.0904 24.9083 34.6545 18.893 35.1557 14.3035C35.4087 11.9861 35.1396 9.99469 34.8077 8.58496C34.642 7.88083 34.4612 7.32469 34.324 6.94925C34.2555 6.76164 34.198 6.61951 34.1589 6.52696C34.1393 6.4807 34.1244 6.44687 34.115 6.42599L34.1052 6.40445L34.104 6.40185C34.1042 6.40227 34.1044 6.40274 34.9198 6.02184C35.7352 5.64094 35.7355 5.64151 35.7358 5.64214L35.7365 5.64367L35.7384 5.6477L35.7439 5.65961C35.7484 5.66926 35.7544 5.68231 35.7617 5.6987C35.7765 5.73148 35.7968 5.77763 35.8217 5.83662C35.8716 5.95459 35.9399 6.12406 36.0191 6.34087C36.1774 6.77425 36.3795 7.39815 36.5633 8.17887C36.9306 9.73881 37.2275 11.9363 36.948 14.4958Z" fill="#003188"/>
<path fill-rule="evenodd" clip-rule="evenodd" d="M3.50858 5.12842H35.4912L35.735 5.64099L34.9196 6.02189C35.735 5.64099 35.7352 5.64157 35.7355 5.64219L35.7363 5.64372L35.7381 5.64775L35.7437 5.65967C35.7482 5.66931 35.7541 5.68237 35.7615 5.69876C35.7762 5.73154 35.7965 5.77768 35.8215 5.83668C35.8713 5.95464 35.9397 6.12412 36.0189 6.34092C36.1772 6.77431 36.3793 7.3982 36.5631 8.17892C36.9303 9.73887 37.2272 11.9364 36.9477 14.4959C36.3839 19.659 33.4896 26.1477 24.4822 31.7886L24.4742 31.7936L24.4672 31.7978L24.4667 31.7981L24.466 31.7985L24.4644 31.7994L24.4482 31.8094C24.4327 31.8191 24.4081 31.8345 24.3758 31.8553C24.3111 31.8971 24.2159 31.9604 24.1004 32.0424C23.8677 32.2076 23.5611 32.4429 23.2584 32.7261C22.5985 33.3434 22.18 33.9808 22.18 34.4999C22.18 35.0157 22.598 35.6529 23.2587 36.2718C23.5617 36.5555 23.8685 36.7915 24.1012 36.9572C24.2168 37.0394 24.3121 37.1029 24.3769 37.1449C24.4092 37.1658 24.4338 37.1813 24.4493 37.191L24.4656 37.201L24.4673 37.2021L24.4679 37.2024L24.4748 37.2066L24.4822 37.2112C33.4896 42.8521 36.3839 49.3407 36.9477 54.5039C37.2272 57.0634 36.9303 59.2609 36.5631 60.8209C36.3793 61.6016 36.1772 62.2255 36.0189 62.6589C35.9397 62.8757 35.8713 63.0451 35.8215 63.1631C35.7965 63.2221 35.7762 63.2682 35.7615 63.301C35.7541 63.3174 35.7482 63.3305 35.7437 63.3401L35.7381 63.352L35.7355 63.3576C35.7352 63.3582 35.735 63.3588 34.9196 62.9779L35.735 63.3588L35.4912 63.8714H3.50858L3.26483 63.3589L4.08014 62.9779C3.26483 63.3589 3.26456 63.3583 3.26426 63.3577L3.26353 63.3562L3.26164 63.3521L3.25609 63.3402C3.25163 63.3306 3.24565 63.3175 3.23828 63.3012C3.22354 63.2684 3.20323 63.2223 3.1783 63.1633C3.12845 63.0454 3.06007 62.8759 2.98087 62.6592C2.82255 62.2259 2.62045 61.6022 2.43664 60.8217C2.06938 59.2622 1.77249 57.0652 2.052 54.5061C2.61584 49.3437 5.51008 42.8551 14.5173 37.2113L14.5254 37.2062L14.5326 37.202L14.5333 37.2015L14.5353 37.2003L14.5516 37.1903C14.5671 37.1807 14.5916 37.1653 14.6239 37.1444C14.6886 37.1027 14.7839 37.0394 14.8994 36.9574C15.132 36.7922 15.4386 36.5569 15.7414 36.2736C16.4012 35.6564 16.8197 35.019 16.8197 34.4999C16.8197 33.9841 16.4017 33.3468 15.741 32.728C15.438 32.4443 15.1312 32.2083 14.8985 32.0426C14.7829 31.9603 14.6876 31.8968 14.6228 31.8549C14.5905 31.8339 14.5659 31.8185 14.5504 31.8088L14.5341 31.7987L14.5324 31.7977L14.5318 31.7973L14.5248 31.7931L14.5173 31.7884C5.51008 26.1446 2.61584 19.6561 2.052 14.4936C1.77249 11.9345 2.06938 9.73754 2.43664 8.17802C2.62045 7.39752 2.82255 6.77382 2.98087 6.34058C3.06007 6.12384 3.12845 5.95442 3.1783 5.83649C3.20323 5.77752 3.22354 5.73138 3.23828 5.69861C3.24565 5.68223 3.25163 5.66918 3.25609 5.65953L3.26164 5.64762L3.26353 5.64359L3.26426 5.64206C3.26456 5.64143 3.26483 5.64086 4.08014 6.02189L3.26483 5.64086L3.50858 5.12842ZM4.68828 6.91537C4.68419 6.92646 4.68005 6.93773 4.67587 6.94916C4.53873 7.32444 4.35798 7.88036 4.19222 8.58423C3.86034 9.99347 3.59123 11.9843 3.8443 14.3013C4.34549 18.8901 6.90965 24.9056 15.475 30.2745L15.4794 30.2772L15.5086 30.2952C15.533 30.3103 15.5669 30.3317 15.609 30.359C15.6931 30.4134 15.8104 30.4918 15.9501 30.5912C16.2277 30.7888 16.6015 31.0755 16.9791 31.4291C17.6794 32.085 18.6225 33.1811 18.6225 34.4999C18.6225 35.8214 17.6799 36.9173 16.9787 37.5732C16.6009 37.9266 16.227 38.2128 15.9492 38.4101C15.8095 38.5093 15.692 38.5874 15.6079 38.6418C15.5658 38.669 15.5318 38.6903 15.5075 38.7054L15.4782 38.7234L15.4745 38.7256C6.90954 44.0944 4.34548 50.1097 3.8443 54.6985C3.59123 57.0155 3.86034 59.0063 4.19222 60.4155C4.35798 61.1194 4.53873 61.6753 4.67587 62.0506C4.68005 62.062 4.68419 62.0733 4.68828 62.0844H34.3114C34.3155 62.0733 34.3196 62.062 34.3238 62.0505C34.461 61.675 34.6417 61.1189 34.8075 60.4148C35.1394 59.005 35.4085 57.0137 35.1554 54.6962C34.6542 50.1066 32.0901 44.0912 23.5248 38.7253L23.5203 38.7226L23.4911 38.7046C23.4668 38.6895 23.4329 38.6681 23.3908 38.6408C23.3067 38.5863 23.1893 38.508 23.0496 38.4086C22.772 38.2109 22.3982 37.9242 22.0207 37.5706C21.3203 36.9148 20.3772 35.8187 20.3772 34.4999C20.3772 33.1784 21.3198 32.0825 22.021 31.4265C22.3988 31.0732 22.7727 30.7869 23.0505 30.5897C23.1902 30.4905 23.3077 30.4124 23.3918 30.358C23.434 30.3308 23.4679 30.3095 23.4923 30.2944L23.5215 30.2764L23.5253 30.2741C32.0902 24.9083 34.6542 18.893 35.1554 14.3035C35.4085 11.9861 35.1394 9.99475 34.8075 8.58501C34.6417 7.88089 34.461 7.32475 34.3238 6.9493C34.3196 6.93782 34.3155 6.92651 34.3114 6.91537H4.68828Z" fill="#003188"/>
<path fill-rule="evenodd" clip-rule="evenodd" d="M6.06817 53.3816C10.3961 52.3772 14.8999 51.8511 19.5301 51.8511C24.1669 51.8511 28.6763 52.3833 33.0028 53.3813C33.4876 53.4932 33.7892 53.9734 33.6764 54.4541C33.5636 54.9347 33.079 55.2336 32.5942 55.1218C28.3996 54.1541 24.0273 53.638 19.5301 53.638C15.0382 53.638 10.6723 54.1483 6.47915 55.1215C5.99443 55.234 5.50949 54.9357 5.39601 54.4552C5.28252 53.9748 5.58346 53.4941 6.06817 53.3816Z" fill="#003188"/>
<path fill-rule="evenodd" clip-rule="evenodd" d="M29.2179 16.5439C29.7041 16.6498 30.0117 17.1263 29.905 17.6083C29.2283 20.6624 27.1426 24.2488 22.0249 27.4579L22.019 27.4616L22.0131 27.4652C21.7257 27.6393 20.8793 28.1939 20.2119 29.0273L19.5059 29.909L18.7999 29.0273C18.1325 28.1939 17.2862 27.6393 16.9988 27.4652L16.9926 27.4614L16.9865 27.4576C11.8752 24.2487 9.79022 20.6688 9.10726 17.616C8.99949 17.1342 9.30612 16.6571 9.79213 16.5503C10.2781 16.4435 10.7595 16.7474 10.8673 17.2291C11.434 19.7624 13.1937 22.9595 17.9453 25.9443C18.215 26.1081 18.8497 26.5193 19.5059 27.148C20.1623 26.5191 20.7972 26.1079 21.0668 25.9442C25.8241 22.9595 27.5831 19.757 28.1442 17.225C28.2509 16.743 28.7317 16.4381 29.2179 16.5439Z" fill="#003188"/>
</svg>
