<svg width="76" height="60" viewBox="0 0 76 60" fill="none" xmlns="http://www.w3.org/2000/svg">
<g clip-path="url(#clip0)">
<path fill-rule="evenodd" clip-rule="evenodd" d="M28.9613 4.18484C28.4449 4.3238 28.1572 4.51909 27.9959 4.68814C27.7899 4.90391 27.7007 5.17001 27.6903 5.48846C27.6796 5.82113 27.7587 6.17055 27.8561 6.45856C27.9032 6.59785 27.9509 6.712 27.9856 6.78898C28.0028 6.82724 28.0166 6.85563 28.025 6.87261C28.0293 6.88109 28.0321 6.88666 28.0334 6.88914L28.033 6.88833L28.0326 6.88771C28.268 7.32597 28.1075 7.87413 27.6739 8.11238C27.2401 8.35076 26.6971 8.18863 26.4612 7.75025L27.2467 7.31866C26.4612 7.75025 26.461 7.74986 26.4608 7.74946L26.4604 7.74859L26.4593 7.74659L26.4566 7.74157L26.4493 7.72755C26.4435 7.71645 26.4361 7.70186 26.4272 7.68399C26.4094 7.64829 26.3858 7.59926 26.3585 7.53857C26.3039 7.41767 26.2332 7.24787 26.1639 7.04288C26.0285 6.64233 25.8826 6.06188 25.9031 5.42929C25.924 4.78247 26.1224 4.04792 26.7088 3.43357C27.2872 2.82767 28.1482 2.43847 29.3014 2.27926L30.0049 2.18213L30.2546 2.84393C30.2568 2.84898 30.262 2.86091 30.2706 2.87888C30.2884 2.91607 30.3204 2.97862 30.3696 3.05916C30.468 3.22047 30.6332 3.45145 30.8876 3.69613C31.3861 4.17567 32.2633 4.74404 33.7515 4.90853M28.0334 6.88914C28.0339 6.89002 28.0341 6.89051 28.0342 6.89059L28.0341 6.89048L28.0335 6.88936L28.0334 6.88914ZM28.9613 4.18484C29.1252 4.4274 29.3512 4.71313 29.6546 5.00497C30.4272 5.74817 31.666 6.4959 33.5574 6.7049L33.5576 6.70492C34.8849 6.85124 35.6355 8.37816 34.9563 9.52217L34.9386 9.55193L34.9362 9.55689C34.9322 9.56333 34.9273 9.57143 34.9223 9.57996C34.9123 9.59708 34.8974 9.62322 34.8815 9.65524C34.6607 10.1016 34.8397 10.6443 35.2814 10.8674C35.712 11.085 36.2332 10.9185 36.4637 10.4965C36.468 10.4897 36.4748 10.4785 36.4819 10.4664C36.4873 10.4572 36.494 10.4455 36.5015 10.4318C37.8402 8.14522 36.3509 5.19524 33.7518 4.90856" fill="#003188"/>
<path fill-rule="evenodd" clip-rule="evenodd" d="M29.6333 2.71091C29.7056 3.16872 30.0867 3.93676 29.6333 4.05129C29.1549 4.17212 28.6702 3.87884 28.5496 3.39603L28.5491 3.39424M29.6333 2.71091C29.6665 2.45543 30.4806 2.41323 30.7336 2.13553C31.0001 1.84307 31.2434 1.78104 31.4699 1.84868L31.4707 1.84892C32.6619 2.20333 34.4473 2.47268 36.7111 2.02555M31.9758 0.11545C30.8914 -0.207955 29.9815 0.293133 29.4181 0.911583C28.873 1.5098 28.5179 2.34544 28.5046 3.09218L28.5022 3.22702L28.5389 3.35669C28.5433 3.37232 28.5463 3.38373 28.5481 3.39021L28.5496 3.39603L28.5494 3.39519L28.5491 3.39424M31.9758 0.11545C32.9306 0.399489 34.4237 0.636115 36.3681 0.252051C37.6325 0.0023731 38.9461 0.258562 40.0219 0.983342C41.4501 1.9455 43.5891 3.62291 45.4549 6.06148C45.757 6.45624 45.6852 7.0237 45.2945 7.32893C44.9039 7.63416 44.3423 7.56158 44.0403 7.16681C42.3297 4.93116 40.3557 3.37998 39.03 2.4869C38.3534 2.03108 37.5209 1.86565 36.7111 2.02555" fill="#003188"/>
<path fill-rule="evenodd" clip-rule="evenodd" d="M47.4528 7.80206C46.666 7.62187 45.8566 7.59087 45.066 7.71701L36.2424 9.10869C35.7545 9.18564 35.2973 8.84834 35.2211 8.35531C35.145 7.86228 35.4788 7.40021 35.9667 7.32326L44.7871 5.93208C44.7873 5.93204 44.7876 5.932 44.7878 5.93196C45.809 5.76913 46.847 5.81043 47.8482 6.03975L49.4211 6.40098C49.4213 6.40104 49.4216 6.40109 49.4218 6.40115C51.6398 6.90751 52.8515 9.3149 52.0302 11.3537C52.23 11.5241 52.4455 11.7411 52.6479 12.0115C53.2396 12.8017 53.6576 13.9667 53.3927 15.5551C53.6056 15.7675 53.86 16.0687 54.0746 16.4603C54.4963 17.2297 54.7248 18.2818 54.3159 19.5465C54.5123 19.7245 54.7341 19.9553 54.9434 20.2404C55.5262 21.0342 56.0031 22.2471 55.583 23.8124L55.5047 24.1043L55.2682 24.2897C51.4388 27.2927 47.3021 29.8739 42.9368 32.0033L40.9272 32.983L33.4846 33.7092C31.6385 33.8901 29.8303 34.3784 28.1426 35.1466L16.4807 42.8192C16.0669 43.0914 15.513 42.9731 15.2436 42.5549C14.9741 42.1368 15.0912 41.577 15.505 41.3048L27.2802 33.5577L27.3414 33.5295C29.2248 32.6633 31.2461 32.113 33.312 31.9106L40.4376 31.2153L42.1595 30.3759C42.1595 30.3759 42.1594 30.3759 42.1595 30.3759C46.3171 28.3478 50.2606 25.8998 53.9182 23.0601C54.0482 22.2835 53.8022 21.7188 53.5072 21.317C53.3358 21.0836 53.1458 20.9051 52.9978 20.7855C52.9248 20.7264 52.8646 20.6837 52.826 20.6578C52.8068 20.6449 52.7933 20.6363 52.7864 20.632C52.7849 20.6311 52.7838 20.6304 52.7829 20.6299L52.056 20.2119L52.4276 19.4485C52.923 18.4307 52.7402 17.7553 52.5103 17.3359C52.3839 17.1053 52.2271 16.9266 52.1 16.8055C52.0374 16.7458 51.9849 16.7029 51.9517 16.6772C51.9352 16.6645 51.9238 16.6563 51.9186 16.6527C51.9182 16.6524 51.9179 16.6521 51.9175 16.6519L51.3806 16.3031L51.5413 15.671C51.8856 14.3172 51.5486 13.5382 51.2219 13.1018C51.0457 12.8665 50.8499 12.7023 50.6996 12.5981C50.6252 12.5465 50.5644 12.5114 50.5268 12.4912C50.5179 12.4864 50.5103 12.4825 50.5043 12.4795C50.4976 12.4761 50.4928 12.4738 50.49 12.4724C50.4899 12.4724 50.4902 12.4725 50.49 12.4724L49.444 12.0258L50.1303 11.1012C50.1322 11.0987 50.134 11.0961 50.1418 11.0851C50.1477 11.0767 50.1578 11.0624 50.1702 11.0454C50.9082 9.99186 50.3297 8.46073 49.0274 8.16368L47.4528 7.80206C47.4528 7.80207 47.4527 7.80205 47.4528 7.80206Z" fill="#003188"/>
<path fill-rule="evenodd" clip-rule="evenodd" d="M25.0587 16.563C25.529 16.4212 25.7986 15.9222 25.6615 15.4451C25.5237 14.9659 25.0276 14.6903 24.5534 14.8296L24.8029 15.6972C24.5534 14.8296 24.553 14.8297 24.5527 14.8298L24.5519 14.83L24.5502 14.8305L24.5462 14.8317L24.5364 14.8347C24.529 14.837 24.5199 14.8399 24.5091 14.8434C24.4876 14.8504 24.4596 14.8598 24.426 14.872C24.359 14.8962 24.2687 14.9315 24.1632 14.9794C23.9551 15.0739 23.6725 15.2245 23.3899 15.4479C22.8147 15.9026 22.1892 16.7132 22.3097 17.9315C22.4406 19.2537 23.4278 20.2583 24.5995 20.5855C24.5999 20.5856 24.6004 20.5857 24.6009 20.5859L27.228 21.3263C28.834 21.7771 30.6915 20.8739 31.0712 19.0871C31.2306 18.3503 31.1147 17.5379 30.5942 16.7329C30.324 16.3152 29.77 16.1979 29.3566 16.4708C28.9432 16.7438 28.8271 17.3037 29.0972 17.7214C29.3629 18.1324 29.3785 18.4515 29.3241 18.702L29.323 18.7067C29.1891 19.3396 28.4608 19.7966 27.7071 19.5853C27.7073 19.5854 27.707 19.5853 27.7071 19.5853L25.0788 18.8446L25.0764 18.8439C24.5201 18.6888 24.137 18.236 24.0891 17.7517C24.0487 17.3436 24.2249 17.0821 24.4917 16.8712C24.6301 16.7618 24.7785 16.6811 24.8962 16.6277C24.9536 16.6016 24.9999 16.5837 25.0288 16.5733C25.0431 16.5681 25.0528 16.5649 25.0571 16.5635C25.0578 16.5633 25.0583 16.5631 25.0587 16.563Z" fill="#003188"/>
<path fill-rule="evenodd" clip-rule="evenodd" d="M25.3129 19.0931C25.6067 19.4942 25.5231 20.06 25.1261 20.3569L16.5247 26.79C16.1278 27.0868 15.5679 27.0023 15.2741 26.6012C14.9804 26.2001 15.064 25.6343 15.4609 25.3375L24.0623 18.9044C24.4592 18.6075 25.0191 18.692 25.3129 19.0931Z" fill="#003188"/>
<path fill-rule="evenodd" clip-rule="evenodd" d="M39.9024 31.6578C40.1438 31.2225 40.6887 31.0673 41.1194 31.3113L40.6824 32.0995L40.2453 32.8877C39.8145 32.6438 39.661 32.0931 39.9024 31.6578ZM40.6824 32.0995C40.2453 32.8877 40.2452 32.8876 40.2453 32.8877L40.3891 32.9689C40.483 33.0219 40.6215 33.0999 40.8001 33.2002C41.1573 33.4009 41.6748 33.6907 42.3169 34.0477C43.6009 34.7619 45.3839 35.7455 47.3795 36.8236C51.3625 38.9754 56.221 41.5188 59.6476 43.0401C60.0997 43.2409 60.6272 43.0332 60.8258 42.5764C61.0245 42.1195 60.819 41.5865 60.3669 41.3857C57.0101 39.8954 52.2061 37.382 48.2226 35.23C46.2349 34.1562 44.4585 33.1762 43.1791 32.4646C42.5394 32.1089 42.0241 31.8203 41.6689 31.6208C41.4913 31.521 41.3537 31.4435 41.2607 31.391L41.1194 31.3113C41.1194 31.3112 41.1194 31.3113 40.6824 32.0995Z" fill="#003188"/>
<path fill-rule="evenodd" clip-rule="evenodd" d="M53.9205 23.1599C54.148 22.717 54.6877 22.5443 55.126 22.7741L59.6741 25.1594C60.1124 25.3893 60.2833 25.9347 60.0558 26.3776C59.8283 26.8205 59.2886 26.9932 58.8503 26.7633L54.3022 24.378C53.864 24.1482 53.6931 23.6028 53.9205 23.1599Z" fill="#003188"/>
<path fill-rule="evenodd" clip-rule="evenodd" d="M51.7299 11.5614C51.7747 12.0584 51.4123 12.4979 50.9205 12.5431L45.222 13.0672C44.7303 13.1124 44.2953 12.7462 44.2506 12.2493C44.2058 11.7523 44.5682 11.3128 45.06 11.2676L50.7585 10.7435C51.2503 10.6983 51.6852 11.0645 51.7299 11.5614Z" fill="#003188"/>
<path fill-rule="evenodd" clip-rule="evenodd" d="M53.2748 15.677C53.3944 16.1611 53.103 16.6516 52.6239 16.7725L46.4665 18.3266C45.9874 18.4475 45.502 18.1531 45.3823 17.6689C45.2627 17.1848 45.554 16.6943 46.0331 16.5734L52.1906 15.0193C52.6697 14.8984 53.1551 15.1929 53.2748 15.677Z" fill="#003188"/>
<path fill-rule="evenodd" clip-rule="evenodd" d="M54.0125 19.4218C54.2451 19.862 54.0806 20.4094 53.6451 20.6445L48.4115 23.4695C47.976 23.7046 47.4343 23.5384 47.2016 23.0983C46.9689 22.6581 47.1334 22.1107 47.569 21.8756L52.8025 19.0506C53.2381 18.8155 53.7798 18.9817 54.0125 19.4218Z" fill="#003188"/>
<path fill-rule="evenodd" clip-rule="evenodd" d="M16.4573 23.2555C16.7241 23.4194 16.887 23.712 16.887 24.0275V44.5074C16.887 44.84 16.7062 45.1456 16.4164 45.3032L11.451 48.0017L10.604 46.4102L15.0987 43.9674V25.5139L11.4391 27.4318L10.6159 25.8276L15.5812 23.2255C15.8584 23.0802 16.1905 23.0916 16.4573 23.2555Z" fill="#003188"/>
<path fill-rule="evenodd" clip-rule="evenodd" d="M11.9216 22.062V53.4035L0 60.001V28.5603L11.9216 22.062ZM1.78824 29.6387V56.9511L10.1333 52.3329V25.0899L1.78824 29.6387Z" fill="#003188"/>
<path fill-rule="evenodd" clip-rule="evenodd" d="M59.5427 23.2555C59.8095 23.0916 60.1416 23.0802 60.4188 23.2255L65.3841 25.8276L64.5609 27.4318L60.9013 25.5139V43.9674L65.396 46.4102L64.549 48.0017L59.5836 45.3032C59.2938 45.1456 59.113 44.84 59.113 44.5074V24.0275C59.113 23.712 59.2759 23.4194 59.5427 23.2555Z" fill="#003188"/>
<path fill-rule="evenodd" clip-rule="evenodd" d="M64.0784 22.062L75.9999 28.5603V60.001L64.0784 53.4035V22.062ZM65.8666 25.0899V52.3329L74.2117 56.9511V29.6387L65.8666 25.0899Z" fill="#003188"/>
<path fill-rule="evenodd" clip-rule="evenodd" d="M25.3553 7.14022C26.3152 6.3558 27.5934 6.23553 28.6698 6.60071L35.3223 8.8596C36.966 9.41882 37.8737 11.1956 37.3785 12.8718C36.9426 14.3448 35.5658 15.2748 34.1064 15.1847L33.8538 15.9569L33.8535 15.9579C33.2614 17.7609 31.3214 18.7242 29.5482 18.0855L29.1783 17.9552L24.2842 16.4939L24.2523 16.4816C23.4057 16.1559 22.8739 15.4002 22.622 14.6589C22.3692 13.9149 22.3385 13.0208 22.6736 12.2542L22.6744 12.2524C22.957 11.6098 23.4646 11.0922 24.2222 10.7755C24.0858 10.3425 24.0408 9.87398 24.1085 9.39554L24.1086 9.39459C24.2575 8.34959 24.7708 7.61603 25.3566 7.13914L25.9175 7.84275L25.3553 7.14022ZM25.2901 12.3255C24.9979 12.3904 24.7979 12.4827 24.6612 12.5736C24.4795 12.6946 24.375 12.8357 24.3089 12.9854C24.1914 13.255 24.1758 13.6675 24.3133 14.072C24.4464 14.4637 24.6677 14.6961 24.8644 14.7828L29.7262 16.2345L30.1469 16.3826C30.9714 16.6807 31.878 16.235 32.1561 15.3894C32.1561 15.3892 32.1562 15.389 32.1563 15.3888L32.3486 14.801L26.2975 12.8664L26.2947 12.8655C25.9247 12.7459 25.5857 12.5609 25.2901 12.3255ZM35.665 12.3549C35.4413 13.1101 34.6621 13.5429 33.9105 13.3283L35.665 12.3549ZM33.9105 13.3283C33.9107 13.3284 33.9103 13.3283 33.9105 13.3283L31.5866 12.6599L31.586 12.6619L26.8398 11.1445C26.8393 11.1443 26.8389 11.1442 26.8385 11.1441C26.19 10.9337 25.7889 10.2886 25.8787 9.65163C25.9564 9.10667 26.206 8.76816 26.4784 8.54638L26.4797 8.54531C26.8908 8.2094 27.508 8.1128 28.1005 8.31372C28.1004 8.3137 28.1006 8.31375 28.1005 8.31372L34.7522 10.5724C35.4809 10.8203 35.8851 11.6098 35.665 12.3549" fill="#003188"/>
<path d="M29.5059 2.10822V2.71057L39.0431 2.10822C38.8631 1.80458 36.3012 1.2047 36.0627 1.2047C35.8243 1.2047 32.4863 2.55845e-09 31.5921 0C30.698 0 29.8039 0.903569 29.8039 0.903569L29.5059 2.10822Z" fill="#003188"/>
</g>
<defs>
<clipPath id="clip0">
<rect width="76" height="60" fill="white"/>
</clipPath>
</defs>
</svg>
