<svg xmlns="http://www.w3.org/2000/svg" width="200" height="200" viewBox="0 0 200 200" fill="none"> <circle cx="100" cy="100" r="100" fill="#F2F7FF"></circle> <g clip-path="url(#clip0)"> <path d="M105 140C104.71 140.007 104.427 139.912 104.199 139.733C103.971 139.554 103.812 139.302 103.75 139.019C102.819 135.04 101.502 131.161 99.8185 127.437C97.256 128.062 92.0435 128.112 91.3373 127.869C89.3748 127.194 86.5685 125.231 86.906 122.594L87.0498 121.481C87.2248 120.162 87.4435 118.531 87.3185 118.125C87.1802 117.769 86.9998 117.431 86.781 117.119C86.5704 116.877 86.4149 116.593 86.3253 116.285C86.2357 115.978 86.2142 115.654 86.2623 115.337C86.3678 114.99 86.5351 114.664 86.756 114.375C85.706 113.65 84.1248 112.5 84.956 111.025C85.1979 110.441 85.3476 109.823 85.3998 109.194C85.0435 109.05 84.506 108.875 84.1498 108.756C83.3991 108.574 82.6848 108.265 82.0373 107.844C81.4444 107.254 81.0499 106.494 80.9088 105.669C80.7677 104.845 80.8868 103.997 81.2498 103.244L81.481 102.837C84.6748 97.1436 85.3185 95.6124 85.4373 95.1999C85.2168 94.7132 84.9216 94.2641 84.5623 93.8686C84.3998 93.6624 84.2498 93.4686 84.1248 93.2936C83.1185 91.8874 83.681 79.5436 83.6873 79.4124C83.806 77.1936 85.6123 73.9624 89.0435 69.8186C96.206 61.1249 105.056 59.7061 111.25 60.0436C118.994 60.4749 125.625 63.7499 129.275 66.6311C137.25 72.9936 139.375 83.4561 138.75 91.1186C138.462 94.5499 136.031 100.737 133.881 106.2C132.487 109.756 131.037 113.431 130.987 114.475C130.887 116.587 131.319 120.25 132.387 121.625C132.906 122.294 134.431 123.156 135.775 123.919C137.969 125.169 139.7 126.137 139.975 127.531C140.049 127.854 139.991 128.194 139.814 128.474C139.638 128.755 139.357 128.954 139.034 129.028C138.711 129.102 138.372 129.044 138.091 128.868C137.81 128.691 137.611 128.411 137.537 128.087C137.25 127.625 135.562 126.669 134.544 126.094C132.844 125.131 131.237 124.219 130.412 123.156C128.6 120.831 128.412 116.012 128.494 114.356C128.556 112.969 129.644 110.15 131.556 105.281C133.537 100.244 136 93.9749 136.262 90.9061C136.462 88.4811 137.012 76.0061 127.719 68.5874C121.25 63.3999 102.937 56.9124 90.9373 71.4124C87.9873 74.9999 86.2498 77.9499 86.1498 79.5561C85.981 82.6249 85.9185 90.5811 86.2185 91.9624C86.2998 92.0749 86.3935 92.1874 86.4873 92.3061C87.1123 93.1061 87.9123 94.0936 87.9123 95.2561C87.9123 95.8811 87.5873 97.0124 83.631 104.062L83.406 104.462C83.3379 104.704 83.3233 104.958 83.3632 105.207C83.4031 105.455 83.4967 105.691 83.6373 105.9C84.0459 106.071 84.4631 106.222 84.8873 106.35C86.4935 106.875 87.656 107.25 87.8373 108.362C87.9159 109.497 87.7475 110.636 87.3435 111.7C87.6123 111.925 88.0373 112.219 88.2685 112.381C88.6111 112.6 88.9332 112.849 89.231 113.125C89.3904 113.275 89.5171 113.456 89.6031 113.657C89.6892 113.858 89.7327 114.075 89.731 114.294C89.7138 114.549 89.6418 114.798 89.52 115.024C89.3981 115.249 89.2292 115.445 89.0248 115.6L88.8748 115.744L88.9123 115.812C89.2402 116.295 89.5088 116.815 89.7123 117.362C90.0185 118.281 89.831 119.694 89.5498 121.837L89.406 122.937C89.2873 123.869 90.7685 125.056 92.1685 125.537C94.6368 125.616 97.1065 125.436 99.5373 125C99.7007 124.891 99.8861 124.818 100.08 124.788C100.275 124.758 100.473 124.77 100.662 124.825C101.2 124.981 101.812 125.162 103.669 130.15C104.698 132.879 105.547 135.672 106.212 138.512C106.283 138.836 106.223 139.174 106.045 139.452C105.867 139.731 105.585 139.928 105.262 140C105.175 140.008 105.087 140.008 105 140V140ZM101.106 126.875C100.972 126.995 100.817 127.09 100.65 127.156C100.822 127.101 100.979 127.004 101.106 126.875Z" fill="#003188"></path> <path d="M95.9875 120.075C95.7082 120.075 95.437 119.981 95.2172 119.809C94.9974 119.636 94.8416 119.395 94.7747 119.124C94.7078 118.853 94.7336 118.567 94.8481 118.312C94.9626 118.058 95.1591 117.849 95.4063 117.719C96.9377 116.923 98.2973 115.834 99.4072 114.512C100.517 113.191 101.356 111.664 101.875 110.018C102.394 108.372 102.583 106.64 102.432 104.921C102.281 103.202 101.792 101.53 100.994 99.9998C100.852 99.7067 100.83 99.3699 100.933 99.0609C101.035 98.7519 101.255 98.4951 101.544 98.3453C101.833 98.1955 102.169 98.1643 102.481 98.2586C102.792 98.3528 103.055 98.5649 103.213 98.8498C104.161 100.671 104.741 102.66 104.92 104.705C105.099 106.75 104.873 108.811 104.256 110.768C103.638 112.726 102.641 114.543 101.321 116.115C100.001 117.687 98.3839 118.984 96.5625 119.931C96.3858 120.026 96.1882 120.075 95.9875 120.075Z" fill="#003188"></path> <path d="M67.8998 113.057C67.6703 113.057 67.4451 112.995 67.2488 112.875C67.0526 112.756 66.8929 112.586 66.7873 112.382C64.878 108.707 64.5059 104.424 65.7529 100.474C66.9998 96.5247 69.7638 93.2319 73.4373 91.3193C73.5834 91.2327 73.7455 91.1768 73.9139 91.1549C74.0823 91.1331 74.2534 91.1458 74.4167 91.1922C74.58 91.2386 74.7321 91.3179 74.8638 91.425C74.9955 91.5322 75.104 91.6651 75.1826 91.8156C75.2613 91.9661 75.3084 92.131 75.3212 92.3003C75.334 92.4696 75.3122 92.6397 75.2571 92.8003C75.202 92.9609 75.1147 93.1086 75.0006 93.2344C74.8866 93.3601 74.7481 93.4613 74.5936 93.5318C73.0621 94.3271 71.7025 95.4166 70.5926 96.738C69.4827 98.0594 68.6443 99.5867 68.1253 101.232C67.6063 102.878 67.417 104.61 67.5681 106.329C67.7192 108.048 68.2079 109.721 69.0061 111.251C69.1577 111.544 69.1869 111.886 69.0874 112.201C68.9878 112.516 68.7676 112.779 68.4748 112.932C68.2967 113.021 68.0989 113.064 67.8998 113.057Z" fill="#003188"></path> <path d="M95.8314 113.588C95.5858 113.588 95.3457 113.516 95.1409 113.381C94.936 113.245 94.7756 113.052 94.6796 112.826C94.5836 112.6 94.5563 112.351 94.6011 112.11C94.6459 111.868 94.7607 111.646 94.9314 111.469C96.3586 109.987 97.1402 108 97.1051 105.943C97.0699 103.886 96.2209 101.926 94.7439 100.494C94.6171 100.382 94.5143 100.246 94.4418 100.093C94.3692 99.9404 94.3284 99.7746 94.3218 99.6057C94.3151 99.4367 94.3428 99.2682 94.4032 99.1103C94.4636 98.9524 94.5553 98.8084 94.673 98.6869C94.7906 98.5655 94.9316 98.4692 95.0875 98.4038C95.2434 98.3385 95.411 98.3054 95.58 98.3067C95.7491 98.3079 95.9161 98.3434 96.071 98.4111C96.226 98.4787 96.3655 98.5771 96.4814 98.7003C98.4358 100.592 99.5598 103.182 99.6067 105.902C99.6535 108.621 98.6195 111.248 96.7314 113.207C96.6147 113.327 96.4748 113.423 96.3202 113.489C96.1655 113.554 95.9993 113.588 95.8314 113.588Z" fill="#003188"></path> <path d="M74.3753 112.906C74.0504 112.904 73.7388 112.777 73.5065 112.55C72.5373 111.614 71.7619 110.496 71.2248 109.26C70.6877 108.025 70.3993 106.695 70.376 105.348C70.3528 104.001 70.5953 102.663 71.0895 101.409C71.5837 100.156 72.3201 99.012 73.2565 98.0433C73.3706 97.9251 73.5068 97.8305 73.6575 97.765C73.8081 97.6995 73.9702 97.6642 74.1344 97.6613C74.2987 97.6584 74.4619 97.6879 74.6147 97.7481C74.7676 97.8082 74.9071 97.8979 75.0253 98.012C75.1435 98.1261 75.238 98.2624 75.3035 98.413C75.3691 98.5636 75.4043 98.7257 75.4072 98.8899C75.4101 99.0542 75.3806 99.2174 75.3205 99.3702C75.2603 99.5231 75.1706 99.6626 75.0565 99.7808C74.3475 100.513 73.79 101.379 73.4156 102.327C73.0413 103.275 72.8576 104.288 72.875 105.307C72.8925 106.326 73.1106 107.332 73.5171 108.267C73.9236 109.202 74.5104 110.048 75.244 110.756C75.4235 110.929 75.5472 111.152 75.5991 111.395C75.6511 111.639 75.6289 111.893 75.5355 112.124C75.4421 112.355 75.2817 112.553 75.075 112.692C74.8682 112.832 74.6246 112.906 74.3753 112.906Z" fill="#003188"></path> <path d="M82.125 118.081C81.7381 117.566 81.2483 117.137 80.6866 116.822C80.1249 116.507 79.5036 116.312 78.8625 116.25C68.65 115.325 60.4937 130 60.15 130.625C60.0681 130.777 60.0186 130.944 60.0046 131.116C59.9906 131.289 60.0124 131.462 60.0687 131.625C60.1237 131.789 60.212 131.94 60.3282 132.068C60.4444 132.196 60.5859 132.298 60.7437 132.369L65.8312 134.631C65.7088 134.949 65.6391 135.285 65.625 135.625C65.625 136.725 66.35 137.775 67.6625 138.587C68.9341 139.356 70.3891 139.768 71.875 139.781C72.7265 139.797 73.5699 139.613 74.3375 139.244C75.8125 138.506 77.3125 134.975 78.0875 132.937C78.1561 132.782 78.1923 132.614 78.1937 132.443C78.1952 132.273 78.1618 132.105 78.0958 131.948C78.0297 131.791 77.9324 131.649 77.8096 131.531C77.6869 131.414 77.5414 131.322 77.382 131.262C77.2226 131.203 77.0527 131.176 76.8828 131.184C76.7128 131.193 76.5463 131.236 76.3935 131.311C76.2407 131.386 76.1048 131.491 75.9941 131.62C75.8835 131.749 75.8004 131.9 75.75 132.062C74.8875 134.356 73.7 136.675 73.25 137.006C72.2687 137.494 70.5312 137.306 69.2 136.562C68.3375 136.106 68.125 135.7 68.125 135.625C68.2312 134.6 71.3125 130 74.1187 126.362C74.3209 126.099 74.4102 125.766 74.3668 125.436C74.3234 125.107 74.151 124.808 73.8875 124.606C73.6239 124.404 73.2908 124.315 72.9614 124.358C72.6321 124.401 72.3334 124.574 72.1312 124.837C70.2487 127.247 68.5103 129.766 66.925 132.381L63.0437 130.656C65.1125 127.35 71.5375 118.125 78.6375 118.75C78.9439 118.784 79.2397 118.883 79.5057 119.039C79.7716 119.195 80.0018 119.405 80.1812 119.656C83.0312 123.187 82.3749 134.531 81.8812 138.606C81.8611 138.77 81.8735 138.935 81.9177 139.094C81.9618 139.253 82.0369 139.401 82.1385 139.53C82.2401 139.66 82.3663 139.768 82.5099 139.849C82.6534 139.929 82.8115 139.981 82.9749 140H83.1249C83.432 140.002 83.7292 139.891 83.9598 139.688C84.1903 139.485 84.3381 139.205 84.3749 138.9C84.5624 137.294 86.15 123.062 82.125 118.081Z" fill="#003188"></path> </g> <defs> <clipPath id="clip0"> <rect x="60" y="60" width="80" height="80" fill="white"></rect> </clipPath> </defs> </svg>
