<svg xmlns="http://www.w3.org/2000/svg" width="200" height="200" viewBox="0 0 200 200" fill="none"> <circle cx="100" cy="100" r="100" fill="#F2F7FF"></circle> <path d="M128.75 99.7312C128.75 95.4312 127.169 93.3375 125.844 92.3375C125.22 91.8529 124.493 91.5186 123.719 91.3603C122.945 91.2021 122.145 91.2242 121.381 91.4249C118.712 92.1874 117.006 95.175 116.244 96.9687H116.194C114.738 96.55 113.131 95.9249 111.425 95.2624C107.862 93.8499 103.794 92.2687 100 92.2687C95.8062 92.2687 90.9812 94.1437 87.1062 95.6874C85.8562 96.1749 84.7062 96.6312 83.7375 96.9374C82.95 95.1562 81.2375 92.1687 78.6063 91.4062C77.8423 91.2054 77.0424 91.1833 76.2685 91.3416C75.4946 91.4998 74.7676 91.8342 74.1437 92.3187C72.8062 93.3374 71.25 95.4312 71.25 99.7312C71.25 106.25 79.1687 118.75 79.5062 119.269V119.306C80.65 122.644 81.8687 125.506 82.5187 126.181C86.25 129.9 94.6875 132.5 100 132.5C105.312 132.5 113.794 129.9 117.444 126.162C118.181 125.406 119.456 122.456 120.613 119.106C121.588 117.537 128.75 105.919 128.75 99.7312ZM122.094 93.8312C122.485 93.7363 122.893 93.732 123.286 93.8186C123.679 93.9053 124.047 94.0806 124.363 94.3312C125.613 95.2624 126.275 97.1812 126.275 99.7312C126.275 102.281 124.794 105.981 123.113 109.444C123.146 109.156 123.165 108.894 123.169 108.656C123.25 105.156 121.294 100.494 118.469 98.1874C119.119 96.6874 120.45 94.2999 122.094 93.8312ZM73.75 99.7312C73.75 97.1812 74.4312 95.2624 75.6625 94.3312C75.9776 94.0806 76.3458 93.9053 76.739 93.8186C77.1322 93.732 77.54 93.7363 77.9313 93.8312C79.5875 94.3062 80.9063 96.6687 81.5625 98.2062C78.75 100.425 76.875 104.725 76.875 108.081C76.8842 108.621 76.9281 109.16 77.0062 109.694C75.25 106.069 73.75 102.212 73.75 99.7312ZM115.625 124.419C112.837 127.287 105.231 130 100 130C94.7688 130 87.1687 127.287 84.375 124.431C83.4375 123.356 79.375 112.237 79.375 108.081C79.375 104.594 81.95 100.181 84.4812 99.3312C85.5187 98.9874 86.725 98.5125 88 98.0062C91.6875 96.5687 96.25 94.7687 100 94.7687C103.338 94.7687 107.006 96.1937 110.556 97.5749C112.319 98.2624 113.981 98.9062 115.556 99.3499C115.803 99.4284 116.04 99.5354 116.262 99.6687C116.323 99.7135 116.388 99.7512 116.456 99.7812C118.688 101.212 120.769 105.356 120.694 108.6C120.625 110.625 119.506 114.606 118.306 118.081C118.276 118.152 118.251 118.225 118.231 118.3C117.187 121.3 116.106 123.875 115.625 124.419Z" fill="#003188"></path> <path d="M109.544 115.206C109.475 115.206 102.906 116.406 99.9998 116.406C97.0935 116.406 90.5248 115.219 90.456 115.206C90.292 115.169 90.1223 115.166 89.957 115.196C89.7917 115.227 89.6341 115.29 89.4938 115.382C89.3535 115.475 89.2334 115.595 89.1405 115.735C89.0475 115.875 88.9838 116.032 88.9532 116.198C88.9225 116.363 88.9254 116.533 88.9618 116.697C88.9982 116.861 89.0673 117.016 89.1651 117.153C89.2628 117.289 89.387 117.405 89.5305 117.493C89.6739 117.58 89.8335 117.638 89.9998 117.663C90.2748 117.713 96.8748 118.913 99.9998 118.913C103.125 118.913 109.712 117.719 110 117.663C110.169 117.642 110.331 117.587 110.478 117.501C110.625 117.415 110.753 117.3 110.854 117.163C110.955 117.026 111.027 116.87 111.065 116.705C111.103 116.539 111.108 116.367 111.077 116.2C111.047 116.032 110.983 115.873 110.889 115.731C110.795 115.589 110.673 115.468 110.531 115.375C110.388 115.282 110.228 115.219 110.061 115.19C109.893 115.161 109.721 115.167 109.556 115.206H109.544Z" fill="#003188"></path> <path d="M109.544 109.431C109.475 109.444 102.906 110.625 100 110.625C97.0938 110.625 90.5251 109.437 90.4563 109.425C90.1437 109.392 89.8302 109.478 89.5782 109.666C89.3262 109.854 89.1544 110.13 89.0968 110.439C89.0393 110.748 89.1003 111.068 89.2677 111.334C89.4351 111.6 89.6966 111.793 90.0001 111.875C90.2751 111.925 96.8751 113.125 100 113.125C103.125 113.125 109.713 111.937 110 111.875C110.327 111.816 110.616 111.63 110.806 111.357C110.995 111.085 111.068 110.748 111.009 110.422C110.951 110.095 110.764 109.805 110.492 109.616C110.219 109.427 109.883 109.354 109.556 109.412L109.544 109.431Z" fill="#003188"></path> <path d="M109.544 103.663C109.475 103.663 102.906 104.863 100 104.863C97.0939 104.863 90.5252 103.675 90.4564 103.663C90.2947 103.633 90.1287 103.635 89.9679 103.669C89.807 103.703 89.6545 103.769 89.519 103.862C89.3834 103.955 89.2676 104.074 89.1781 104.212C89.0885 104.35 89.027 104.504 88.997 104.666C88.9671 104.827 88.9693 104.993 89.0035 105.154C89.0377 105.315 89.1032 105.468 89.1963 105.603C89.2895 105.739 89.4084 105.854 89.5463 105.944C89.6843 106.034 89.8385 106.095 90.0002 106.125C90.2752 106.175 96.8752 107.375 100 107.375C103.125 107.375 109.713 106.188 110 106.125C110.162 106.096 110.316 106.035 110.454 105.946C110.593 105.858 110.712 105.742 110.806 105.608C110.9 105.473 110.966 105.321 111.001 105.16C111.036 104.999 111.039 104.834 111.01 104.672C110.98 104.51 110.92 104.356 110.831 104.218C110.742 104.079 110.627 103.96 110.492 103.866C110.357 103.773 110.205 103.706 110.044 103.671C109.884 103.636 109.718 103.633 109.556 103.663H109.544Z" fill="#003188"></path> <path d="M83.5373 88.5063C82.3222 88.503 81.1579 88.0184 80.2993 87.1586C79.4407 86.2989 78.9577 85.1339 78.9561 83.9188C78.9561 81.0251 82.2748 77.6188 82.6561 77.2438C82.8944 77.0165 83.2111 76.8896 83.5404 76.8896C83.8698 76.8896 84.1865 77.0165 84.4248 77.2438C84.7998 77.6188 88.1248 81.0251 88.1248 83.9188C88.1232 85.135 87.6393 86.3009 86.7793 87.1608C85.9194 88.0208 84.7535 88.5047 83.5373 88.5063V88.5063ZM83.5373 79.9876C82.5248 81.2063 81.4561 82.8376 81.4561 83.9188C81.4405 84.2021 81.4829 84.4857 81.5807 84.752C81.6784 85.0184 81.8294 85.2621 82.0245 85.4681C82.2196 85.6742 82.4546 85.8383 82.7153 85.9505C82.9759 86.0626 83.2567 86.1205 83.5404 86.1205C83.8242 86.1205 84.105 86.0626 84.3656 85.9505C84.6262 85.8383 84.8613 85.6742 85.0563 85.4681C85.2514 85.2621 85.4024 85.0184 85.5002 84.752C85.5979 84.4857 85.6403 84.2021 85.6248 83.9188C85.6248 82.8376 84.5561 81.2063 83.5373 80.0001V79.9876Z" fill="#003188"></path> <path d="M99.3748 82.4996C97.7724 82.498 96.2361 81.8607 95.1031 80.7276C93.97 79.5946 93.3327 78.0583 93.3311 76.4559C93.3311 72.5184 97.9623 67.7684 98.4936 67.2434C98.7278 67.0106 99.0446 66.8799 99.3748 66.8799C99.705 66.8799 100.022 67.0106 100.256 67.2434C100.787 67.7684 105.419 72.5184 105.419 76.4559C105.417 78.0583 104.78 79.5946 103.647 80.7276C102.513 81.8607 100.977 82.498 99.3748 82.4996V82.4996ZM99.3748 69.9621C97.9186 71.6246 95.8311 74.4621 95.8311 76.4559C95.8311 77.3957 96.2044 78.2971 96.869 78.9617C97.5336 79.6263 98.4349 79.9996 99.3748 79.9996C100.315 79.9996 101.216 79.6263 101.881 78.9617C102.545 78.2971 102.919 77.3957 102.919 76.4559C102.919 74.4746 100.8 71.6121 99.3748 69.9621V69.9621Z" fill="#003188"></path> </svg>
