<svg xmlns="http://www.w3.org/2000/svg" width="200" height="200" viewBox="0 0 200 200" fill="none"> <circle cx="100" cy="100" r="100" fill="#F2F7FF"></circle> <g clip-path="url(#clip0)"> <path d="M140 127.5C139.725 126.113 137.994 125.131 135.8 123.894C134.456 123.131 132.931 122.269 132.412 121.6C131.344 120.225 130.912 116.563 131.012 114.45C131.062 113.406 132.512 109.731 133.906 106.175C136.056 100.713 138.487 94.525 138.775 91.0938C139.4 83.425 137.275 72.9688 129.3 66.6063C125.625 63.75 118.994 60.475 111.25 60.0438C105.081 59.7063 96.2499 61.1188 89.0374 69.8125C85.5811 73.9625 83.7499 77.1938 83.6561 79.4125C83.6561 79.5375 83.0874 91.9125 84.0936 93.2938C84.2186 93.4688 84.3686 93.6625 84.5311 93.8625C84.8893 94.2611 85.1843 94.7122 85.4061 95.2C85.2874 95.6125 84.6436 97.1438 81.4499 102.838L81.2186 103.244C80.8641 103.996 80.7519 104.839 80.8974 105.657C81.043 106.476 81.4391 107.229 82.0311 107.813C82.6753 108.246 83.3902 108.563 84.1436 108.75C84.5061 108.869 85.0436 109.044 85.3936 109.188C85.3415 109.817 85.1917 110.435 84.9499 111.019C84.0624 112.575 85.9561 113.725 87.6311 114.769L87.9686 114.975C87.8061 115.238 87.5936 115.544 87.4436 115.769C86.952 116.398 86.5618 117.1 86.2874 117.85C86.0249 118.825 86.8249 119.375 87.3499 119.725C87.6538 119.917 87.9348 120.144 88.1874 120.4C88.1587 120.525 88.1232 120.648 88.0811 120.769C87.821 121.583 87.641 122.42 87.5436 123.269C87.2061 125.906 90.0436 127.869 91.9749 128.544C92.9436 128.875 97.5249 128.269 99.8499 127.531C101.515 131.227 102.821 135.073 103.75 139.019C103.812 139.302 103.971 139.555 104.199 139.734C104.427 139.913 104.71 140.007 105 140C105.089 140.009 105.179 140.009 105.269 140C105.592 139.928 105.873 139.731 106.051 139.453C106.229 139.174 106.289 138.836 106.219 138.513C105.554 135.673 104.704 132.879 103.675 130.15C101.8 125.15 101.175 124.981 100.669 124.825C100.469 124.766 100.258 124.755 100.053 124.792C99.848 124.829 99.6543 124.913 99.4874 125.038C97.2923 125.667 95.0311 126.038 92.7499 126.144C91.3624 125.65 89.9186 124.481 90.0374 123.563C90.1154 122.868 90.264 122.183 90.4811 121.519C90.7267 120.923 90.7576 120.26 90.5686 119.644C90.2602 118.906 89.7293 118.284 89.0499 117.863L89.5186 117.169C90.3561 115.919 91.2999 114.563 90.2624 113.525C89.8554 113.175 89.411 112.871 88.9374 112.619C88.5499 112.381 87.8311 111.95 87.4249 111.631C87.7973 110.595 87.9506 109.492 87.8749 108.394C87.6936 107.288 86.5311 106.913 84.9249 106.388C84.5007 106.259 84.0835 106.109 83.6749 105.938C83.5343 105.729 83.4407 105.492 83.4008 105.244C83.3609 104.996 83.3755 104.742 83.4436 104.5L83.6686 104.1C87.6249 97.05 87.9499 95.9125 87.9499 95.2938C87.9499 94.1313 87.1624 93.1438 86.5249 92.3438L86.2499 91.9625C85.9499 90.5813 86.0124 82.625 86.1811 79.55C86.2686 77.95 88.0186 74.9813 90.9686 71.425C102.937 56.9125 121.25 63.4 127.719 68.5875C137.012 76.0063 136.469 88.4813 136.262 90.9063C136 93.975 133.537 100.244 131.556 105.281C129.644 110.15 128.556 112.969 128.494 114.356C128.412 116.013 128.6 120.831 130.412 123.156C131.237 124.219 132.844 125.131 134.544 126.094C135.562 126.669 137.25 127.625 137.537 128.088C137.612 128.411 137.812 128.691 138.093 128.867C138.375 129.043 138.714 129.1 139.037 129.025C139.361 128.95 139.641 128.75 139.817 128.469C139.993 128.188 140.049 127.848 139.975 127.525L140 127.5ZM101.131 126.875C101.016 126.987 100.88 127.077 100.731 127.138C100.868 127.069 100.995 126.98 101.106 126.875H101.131Z" fill="#003188"></path> <path d="M83.1812 138.056C81.7439 136.041 79.9974 134.265 78.0062 132.794C77.4327 132.38 76.901 131.911 76.4187 131.394C75.5853 129.365 74.6293 127.388 73.5562 125.475C73.2562 124.919 72.9312 124.312 72.55 123.6C72.1045 122.743 71.5815 121.93 70.9875 121.169C71.4 119.919 71.7687 118.887 72.0875 117.975C73.1625 114.906 73.75 113.219 74.0062 110.756C74.2437 108.512 73.5312 106.65 72.1312 105.887C71.6043 105.609 71.0053 105.498 70.4137 105.568C69.822 105.639 69.2658 105.887 68.8187 106.281C67.55 107.294 64.7312 113.569 62.625 120.087C62.2661 120.561 62.0827 121.144 62.1062 121.737C60.4375 127.237 59.4125 132.612 60.3625 134.862C61.4812 137.512 62.2375 139.237 62.2375 139.237C62.3336 139.464 62.4946 139.658 62.7003 139.793C62.9061 139.929 63.1473 140.001 63.3937 140C63.5661 140.001 63.7366 139.964 63.8937 139.894C64.1934 139.757 64.4271 139.508 64.5442 139.2C64.6612 138.892 64.652 138.551 64.5187 138.25C64.5187 138.25 63.7562 136.519 62.6437 133.875C62.125 132.625 62.6437 129.5 63.5562 125.856C63.9062 126.481 64.2812 127.106 64.6625 127.731C65.1792 128.528 65.6326 129.364 66.0187 130.231C66.7202 132.278 67.3004 134.365 67.7562 136.481C67.8109 136.808 67.9934 137.101 68.2636 137.294C68.5338 137.486 68.8695 137.564 69.1969 137.509C69.5242 137.454 69.8165 137.272 70.0093 137.002C70.2021 136.732 70.2797 136.396 70.225 136.069C69.7551 133.838 69.1434 131.64 68.3937 129.487C67.9657 128.434 67.4317 127.427 66.8 126.481C66.175 125.456 64.8875 123.306 64.6062 122.181C64.6937 121.9 64.7812 121.612 64.875 121.325C65.065 121.156 65.2881 121.028 65.5302 120.949C65.7723 120.87 66.028 120.843 66.2812 120.869C67.6 121.006 69.0687 122.431 70.3125 124.787C70.6937 125.519 71.0312 126.131 71.3375 126.662C72.3697 128.5 73.2881 130.399 74.0875 132.35C74.4187 133.137 75.2125 133.775 76.4187 134.744C78.2036 136.059 79.7743 137.642 81.075 139.437C81.1895 139.609 81.3448 139.75 81.5269 139.847C81.709 139.944 81.9124 139.994 82.1187 139.994C82.3638 139.992 82.6028 139.918 82.8062 139.781C83.0843 139.602 83.28 139.319 83.3503 138.996C83.4206 138.673 83.3598 138.335 83.1812 138.056V138.056ZM66.5562 118.356C66.3294 118.34 66.1018 118.34 65.875 118.356C67.6062 113.356 69.5125 108.981 70.3812 108.25C70.6125 108.062 70.8 108.006 70.9375 108.081C71.2562 108.256 71.675 109.05 71.525 110.5C71.2937 112.675 70.7687 114.169 69.725 117.156C69.5062 117.781 69.2562 118.5 68.9875 119.281C68.266 118.776 67.4307 118.459 66.5562 118.356V118.356Z" fill="#003188"></path> <path d="M76.25 118.75C76.0028 118.75 75.7611 118.677 75.5555 118.539C75.35 118.402 75.1898 118.207 75.0952 117.978C75.0005 117.75 74.9758 117.499 75.024 117.256C75.0723 117.014 75.1913 116.791 75.3661 116.616C75.5409 116.441 75.7637 116.322 76.0061 116.274C76.2486 116.226 76.4999 116.251 76.7284 116.345C76.9568 116.44 77.152 116.6 77.2893 116.806C77.4267 117.011 77.5 117.253 77.5 117.5C77.5 117.832 77.3683 118.149 77.1339 118.384C76.8995 118.618 76.5815 118.75 76.25 118.75Z" fill="#003188"></path> <path d="M83.125 118.75C82.8778 118.75 82.6361 118.677 82.4305 118.539C82.225 118.402 82.0648 118.207 81.9702 117.978C81.8755 117.75 81.8508 117.499 81.899 117.256C81.9473 117.014 82.0663 116.791 82.2411 116.616C82.4159 116.441 82.6387 116.322 82.8811 116.274C83.1236 116.226 83.3749 116.251 83.6034 116.345C83.8318 116.44 84.027 116.6 84.1643 116.806C84.3017 117.011 84.375 117.253 84.375 117.5C84.375 117.832 84.2433 118.149 84.0089 118.384C83.7745 118.618 83.4565 118.75 83.125 118.75Z" fill="#003188"></path> <path d="M80 128.75C79.7528 128.75 79.5111 128.677 79.3055 128.539C79.1 128.402 78.9398 128.207 78.8452 127.978C78.7505 127.75 78.7258 127.499 78.774 127.256C78.8223 127.014 78.9413 126.791 79.1161 126.616C79.2909 126.441 79.5137 126.322 79.7561 126.274C79.9986 126.226 80.2499 126.251 80.4784 126.345C80.7068 126.44 80.902 126.6 81.0393 126.806C81.1767 127.011 81.25 127.253 81.25 127.5C81.25 127.832 81.1183 128.149 80.8839 128.384C80.6495 128.618 80.3315 128.75 80 128.75Z" fill="#003188"></path> <path d="M112.5 132.5C110.599 132.498 108.714 132.148 106.938 131.469C106.628 131.351 106.377 131.115 106.241 130.813C106.105 130.511 106.095 130.167 106.213 129.857C106.33 129.547 106.566 129.296 106.869 129.16C107.171 129.024 107.515 129.014 107.825 129.132C111.078 130.369 114.688 130.264 117.863 128.84C121.038 127.416 123.517 124.789 124.757 121.538C124.815 121.384 124.903 121.244 125.015 121.124C125.128 121.005 125.263 120.909 125.413 120.841C125.562 120.774 125.724 120.737 125.888 120.732C126.052 120.727 126.216 120.755 126.369 120.813C126.522 120.871 126.663 120.959 126.782 121.072C126.902 121.184 126.998 121.319 127.065 121.469C127.133 121.619 127.17 121.78 127.175 121.944C127.18 122.108 127.152 122.272 127.094 122.425C125.963 125.382 123.964 127.927 121.359 129.725C118.754 131.523 115.666 132.491 112.5 132.5V132.5Z" fill="#003188"></path> <path d="M99.0686 113.013C98.9169 113.014 98.7663 112.986 98.6248 112.932C98.4713 112.873 98.3308 112.785 98.2113 112.673C98.0918 112.56 97.9956 112.425 97.9283 112.276C97.861 112.126 97.8238 111.964 97.8189 111.8C97.814 111.636 97.8415 111.473 97.8998 111.319C99.3742 107.448 102.326 104.32 106.106 102.624C109.885 100.928 114.184 100.803 118.056 102.275C118.21 102.334 118.35 102.422 118.47 102.534C118.589 102.647 118.685 102.782 118.753 102.931C118.82 103.081 118.857 103.243 118.862 103.407C118.867 103.571 118.839 103.734 118.781 103.888C118.723 104.041 118.635 104.182 118.522 104.301C118.41 104.421 118.275 104.517 118.125 104.584C117.975 104.652 117.814 104.689 117.65 104.694C117.486 104.699 117.322 104.671 117.169 104.613C113.916 103.376 110.306 103.481 107.131 104.905C103.956 106.329 101.476 108.955 100.237 112.207C100.147 112.444 99.9873 112.648 99.7785 112.792C99.5698 112.936 99.3222 113.013 99.0686 113.013Z" fill="#003188"></path> <path d="M112.5 127.137H112.075C111.911 127.131 111.75 127.092 111.6 127.023C111.451 126.954 111.317 126.857 111.206 126.736C111.094 126.615 111.008 126.474 110.951 126.319C110.894 126.165 110.868 126.001 110.875 125.837C110.89 125.507 111.035 125.195 111.278 124.972C111.522 124.748 111.845 124.63 112.175 124.643C113.194 124.685 114.21 124.526 115.168 124.175C116.125 123.824 117.003 123.288 117.753 122.597C118.503 121.906 119.109 121.075 119.538 120.15C119.966 119.225 120.208 118.224 120.25 117.206C120.257 117.042 120.295 116.88 120.364 116.731C120.433 116.582 120.531 116.448 120.652 116.337C120.772 116.225 120.914 116.139 121.068 116.082C121.222 116.025 121.386 115.999 121.55 116.006C121.714 116.012 121.875 116.051 122.025 116.12C122.174 116.189 122.308 116.287 122.419 116.407C122.531 116.528 122.617 116.67 122.674 116.824C122.731 116.978 122.757 117.142 122.75 117.306C122.636 119.949 121.506 122.446 119.597 124.278C117.688 126.109 115.146 127.133 112.5 127.137V127.137Z" fill="#003188"></path> <path d="M103.5 117.756H103.444C103.113 117.742 102.802 117.597 102.578 117.353C102.355 117.109 102.237 116.787 102.25 116.456C102.365 113.739 103.553 111.179 105.553 109.336C107.553 107.493 110.202 106.518 112.919 106.625C113.25 106.638 113.563 106.783 113.788 107.027C114.013 107.27 114.132 107.594 114.119 107.925C114.106 108.257 113.961 108.569 113.717 108.794C113.474 109.019 113.15 109.138 112.819 109.125C110.763 109.044 108.758 109.781 107.244 111.175C105.731 112.569 104.832 114.507 104.744 116.563C104.729 116.883 104.592 117.186 104.361 117.408C104.129 117.63 103.821 117.755 103.5 117.756V117.756Z" fill="#003188"></path> <path d="M112.5 121.875H112.288C111.003 121.847 109.78 121.313 108.886 120.389C107.993 119.466 107.499 118.227 107.513 116.941C107.527 115.656 108.047 114.428 108.961 113.524C109.875 112.62 111.109 112.113 112.394 112.113C113.679 112.113 114.913 112.62 115.827 113.524C116.741 114.428 117.261 115.656 117.275 116.941C117.289 118.227 116.795 119.466 115.901 120.389C115.007 121.313 113.785 121.847 112.5 121.875V121.875ZM112.5 114.375C111.873 114.388 111.277 114.648 110.84 115.098C110.404 115.549 110.162 116.153 110.169 116.78C110.176 117.408 110.429 118.007 110.875 118.448C111.321 118.889 111.923 119.137 112.55 119.137C113.177 119.137 113.779 118.889 114.225 118.448C114.671 118.007 114.925 117.408 114.931 116.78C114.938 116.153 114.697 115.549 114.26 115.098C113.824 114.648 113.227 114.388 112.6 114.375H112.5Z" fill="#003188"></path> </g> <defs> <clipPath id="clip0"> <rect x="60" y="60" width="80" height="80" fill="white"></rect> </clipPath> </defs> </svg>
