<svg width="180" height="180" viewBox="0 0 180 180" fill="none" xmlns="http://www.w3.org/2000/svg">
<path d="M90 180C139.706 180 180 139.706 180 90C180 40.2944 139.706 0 90 0C40.2944 0 0 40.2944 0 90C0 139.706 40.2944 180 90 180Z" fill="#F2F7FF"/>
<path d="M118.865 114.75C118.618 113.502 117.06 112.618 115.085 111.504C113.876 110.818 112.503 110.042 112.036 109.44C111.075 108.202 110.686 104.907 110.776 103.005C110.821 102.065 112.126 98.7578 113.381 95.5574C115.316 90.6416 117.504 85.0724 117.763 81.9843C118.325 75.0824 116.413 65.6718 109.235 59.9455C105.928 57.3749 99.9599 54.4274 92.9903 54.0393C87.4382 53.7355 79.4902 55.0068 72.999 62.8311C69.8883 66.5661 68.2402 69.4743 68.1558 71.4711C68.1558 71.5836 67.644 82.7211 68.5495 83.9643C68.662 84.1218 68.797 84.2961 68.9433 84.4761C69.2657 84.8349 69.5312 85.2408 69.7308 85.6799C69.624 86.0511 69.0445 87.4293 66.1702 92.5541L65.962 92.9195C65.643 93.5963 65.542 94.355 65.673 95.0912C65.804 95.8283 66.1605 96.506 66.6933 97.0316C67.2731 97.4213 67.9165 97.7066 68.5945 97.8749C68.9208 97.982 69.4045 98.1395 69.7195 98.2691C69.6726 98.8352 69.5819 98.9743 69.3643 99.4999C68.5655 100.9 70.2258 102.352 71.7333 103.292L72.037 103.477C71.8908 103.714 71.6995 103.989 71.5645 104.192C71.1221 104.758 70.1112 105.825 69.8643 106.5C69.6262 107.151 70.3918 107.185 70.8643 107.5C71.1378 107.673 72.0066 108.129 72.234 108.36C72.2081 108.472 72.1762 108.583 72.1383 108.692C71.9042 109.425 71.7422 110.178 71.6545 110.942C71.3508 113.315 73.9045 115.082 75.6427 115.689C76.5145 115.987 80.6377 115.442 82.7302 114.778C84.2288 118.104 85.4042 121.566 86.2403 125.117C86.2961 125.372 86.4392 125.599 86.6444 125.76C86.8496 125.922 87.1043 126.006 87.3653 126C87.4454 126.008 87.5264 126.008 87.6074 126C87.8981 125.935 88.151 125.758 88.3112 125.508C88.4714 125.256 88.5254 124.952 88.4624 124.662C87.8639 122.106 87.0989 119.591 86.1728 117.135C84.4853 112.635 83.9228 112.483 83.4674 112.342C83.2874 112.289 83.0975 112.279 82.913 112.313C82.7285 112.346 82.5542 112.422 82.404 112.534C80.4284 113.1 78.3933 113.434 76.3402 113.529C75.0915 113.085 73.792 112.033 73.899 111.207C73.9692 110.581 74.1029 109.965 74.2983 109.367C74.5193 108.831 74.5471 108.234 74.377 107.679C74.0995 107.015 73.5539 106.503 72.9424 106.124L73.3643 105.5C74.118 104.375 75.0352 103.107 74.1015 102.172C73.7352 101.857 73.3352 101.584 72.909 101.357C72.5602 101.143 71.8458 100.461 71.4802 100.174C71.8154 99.2418 72.0208 98.5427 71.9527 97.5545C71.7895 96.5591 70.7433 96.2216 69.2977 95.7491C68.9159 95.633 68.5404 95.498 68.1727 95.3441C68.0462 95.156 67.9619 94.9427 67.926 94.7195C67.8901 94.4963 67.9032 94.2677 67.9645 94.0499L68.167 93.6899C71.7277 87.3449 72.0202 86.3211 72.0202 85.7643C72.0202 84.718 71.3115 83.8293 70.7377 83.1093L70.4902 82.7661C70.2202 81.523 70.2765 74.3624 70.4283 71.5949C70.507 70.1549 72.082 67.483 74.737 64.2824C85.5086 51.2211 101.99 57.0599 107.812 61.7286C116.176 68.4055 115.687 79.633 115.501 81.8155C115.265 84.5774 113.049 90.2195 111.266 94.7528C109.545 99.1349 108.566 101.672 108.51 102.92C108.436 104.412 108.605 108.748 110.236 110.84C110.979 111.797 112.425 112.618 113.955 113.484C114.871 114.002 116.39 114.862 116.649 115.279C116.716 115.57 116.896 115.822 117.149 115.98C117.403 116.139 117.708 116.19 117.999 116.122C118.29 116.055 118.542 115.875 118.701 115.622C118.859 115.369 118.909 115.063 118.843 114.772L118.865 114.75ZM83.8832 114.187C83.7797 114.288 83.6573 114.369 83.5232 114.424C83.6465 114.362 83.7608 114.282 83.8607 114.187H83.8832Z" fill="#003188"/>
<path d="M80.8643 75.4H78.3104L80.6989 72.2301C80.8762 72.0064 80.9143 71.6952 80.7966 71.4317L80.8879 71.391C80.8879 71.391 80.8879 71.3909 80.8879 71.3909C80.7551 71.0934 80.4685 70.9 80.15 70.9H75.8643C75.809 70.9 75.7643 70.9448 75.7643 71V72.5C75.7643 72.5552 75.809 72.6 75.8643 72.6H78.4181L75.9513 75.7077L75.9512 75.7078C75.6662 76.0676 75.712 76.6012 76.0562 76.9018L76.0562 76.9018C76.2022 77.0293 76.387 77.0999 76.5785 77.1H76.5785H80.8643C80.9195 77.1 80.9643 77.0552 80.9643 77V75.5C80.9643 75.4448 80.9195 75.4 80.8643 75.4Z" fill="#003188" stroke="#003188" stroke-width="0.2" stroke-linejoin="round"/>
<path d="M89.8855 66.311L89.8855 66.3111C90.0157 66.5652 89.9823 66.8679 89.8011 67.0901C89.8011 67.0901 89.8011 67.0901 89.8011 67.0901L86.1046 71.6273H89.8643C89.9195 71.6273 89.9643 71.6721 89.9643 71.7273V73C89.9643 73.0552 89.9195 73.1 89.8643 73.1H84.531C84.3615 73.1 84.1963 73.0461 84.0616 72.946L84.0616 72.946C83.7264 72.6968 83.6645 72.232 83.9274 71.9098L89.8855 66.311ZM89.8855 66.311C89.7556 66.0579 89.4879 65.9001 89.1975 65.9H89.1975H83.8643C83.809 65.9 83.7643 65.9448 83.7643 66V67.2727C83.7643 67.3279 83.809 67.3727 83.8643 67.3727H87.6238L83.9275 71.9098L89.8855 66.311Z" fill="#003188" stroke="#003188" stroke-width="0.2" stroke-linejoin="round"/>
<path d="M97.7563 62.3857L92.9113 68.9117C92.7443 69.1367 92.7174 69.4375 92.8417 69.689L92.8417 69.689C92.9663 69.9405 93.2211 70.1 93.5006 70.1H99.8642C99.9194 70.1 99.9642 70.0552 99.9642 70V68.7143C99.9642 68.6591 99.9194 68.6143 99.8642 68.6143H94.9721L99.817 62.0883C99.8171 62.0883 99.8171 62.0883 99.8171 62.0883C100.061 61.7606 99.9953 61.2955 99.6704 61.0491L99.61 61.1287L99.6704 61.0491C99.5429 60.9523 99.3876 60.9 99.2278 60.9H93.5006C93.4453 60.9 93.4006 60.9448 93.4006 61V62.2857C93.4006 62.3409 93.4453 62.3857 93.5006 62.3857H97.7563Z" fill="#003188" stroke="#003188" stroke-width="0.2" stroke-linejoin="round"/>
<path d="M82.9822 123.726C81.2474 122.329 79.3027 121.214 77.22 120.422C76.6225 120.203 76.0479 119.925 75.5044 119.594C74.2896 118.038 72.9812 116.557 71.5868 115.159C71.1919 114.75 70.7629 114.303 70.2597 113.779C69.6656 113.144 69.015 112.566 68.3154 112.051C68.3695 110.868 68.4385 109.884 68.4935 109.016C68.6801 106.095 68.7798 104.491 68.404 102.294C68.0651 100.291 66.9956 98.8507 65.5971 98.5293C65.073 98.4163 64.5269 98.4655 64.0312 98.6697C63.5357 98.8749 63.1138 99.2248 62.822 99.6748C61.9684 100.861 61.0486 106.983 60.8055 113.143C60.6095 113.641 60.592 114.191 60.7564 114.699C60.6452 119.871 61.0616 124.778 62.4311 126.497C64.0439 128.522 65.118 129.834 65.118 129.834C65.2564 130.007 65.4431 130.136 65.6541 130.203C65.8655 130.271 66.092 130.275 66.3053 130.214C66.4549 130.173 66.5937 130.1 66.7129 130.001C66.9393 129.809 67.0814 129.537 67.1082 129.242C67.1348 128.946 67.0441 128.653 66.8555 128.424C66.8555 128.424 65.7745 127.109 64.1685 125.088C63.4156 124.131 63.1065 121.296 63.0128 117.917C63.4679 118.374 63.9446 118.824 64.4267 119.273C65.068 119.839 65.6639 120.453 66.2089 121.111C67.3138 122.714 68.3232 124.382 69.2318 126.105C69.3586 126.376 69.5879 126.585 69.8689 126.687C70.1497 126.788 70.4596 126.774 70.7299 126.647C71.0003 126.52 71.2094 126.291 71.3109 126.01C71.4125 125.729 71.3982 125.419 71.2714 125.149C70.3226 123.33 69.259 121.573 68.0866 119.889C67.4601 119.081 66.7529 118.338 65.9758 117.671C65.1853 116.935 63.5476 115.384 63.0308 114.477C63.0384 114.212 63.0443 113.941 63.0559 113.67C63.1796 113.477 63.3418 113.312 63.5325 113.185C63.7231 113.058 63.9382 112.972 64.1639 112.933C65.3401 112.732 66.9589 113.61 68.6087 115.35C69.1167 115.892 69.5578 116.341 69.9521 116.727C71.2928 118.069 72.5497 119.492 73.7161 120.989C74.1942 121.59 75.037 121.95 76.3175 122.497C78.1836 123.204 79.9291 124.194 81.4921 125.434C81.6331 125.556 81.8019 125.64 81.9832 125.68C82.1646 125.72 82.353 125.714 82.5318 125.664C82.7437 125.602 82.9329 125.48 83.0759 125.312C83.2735 125.09 83.3744 124.797 83.3569 124.5C83.3394 124.203 83.2047 123.925 82.9822 123.726ZM63.7922 110.689C63.5918 110.73 63.3946 110.785 63.2019 110.854C63.4885 106.101 64.0787 101.846 64.6541 101.002C64.8089 100.783 64.9578 100.689 65.0952 100.72C65.4138 100.795 65.9695 101.381 66.1915 102.674C66.519 104.615 66.4267 106.038 66.2472 108.88C66.2093 109.474 66.1672 110.158 66.1239 110.9C65.376 110.638 64.5751 110.566 63.7922 110.689Z" fill="#003188"/>
</svg>
