<svg width="180" height="181" viewBox="0 0 180 181" fill="none" xmlns="http://www.w3.org/2000/svg">
<path d="M90 180C139.706 180 180 139.706 180 90C180 40.2944 139.706 0 90 0C40.2944 0 0 40.2944 0 90C0 139.706 40.2944 180 90 180Z" fill="#F2F7FF"/>
<path d="M80.0888 95.0627C77.7732 95.6938 75.8934 95.5794 74.6452 94.7268C73.7367 94.1067 73.4523 93.3094 73.4412 93.2762C73.4449 93.2836 73.4449 93.291 73.4449 93.291L73.36 93.3168C73.6739 92.0951 73.9841 90.9065 74.3165 89.7771C74.3239 89.7512 74.3312 89.7291 74.3386 89.7033C74.719 88.4298 75.1363 87.2376 75.6312 86.1709C76.0559 85.2592 76.5102 84.5026 77.0087 83.8935C77.0715 83.8234 77.1306 83.7533 77.1897 83.6795C77.1934 83.6758 77.1971 83.6684 77.2008 83.6647C77.8544 82.9265 78.5746 82.4245 79.3982 82.1329C79.9743 81.9262 80.2734 81.295 80.0703 80.7192C79.8635 80.1434 79.232 79.8445 78.6558 80.0475C77.4851 80.4646 76.4548 81.1769 75.5536 82.1957C75.5241 82.2252 75.4983 82.2547 75.4687 82.2879C73.9287 84.1888 71.4026 83.3399 70.0325 82.6644C69.4822 82.395 68.8212 82.6164 68.5479 83.1664C68.2783 83.7164 68.4999 84.3771 69.0501 84.6502C70.3981 85.3146 71.7424 85.6616 72.9648 85.6616C73.0497 85.6616 73.1384 85.6616 73.2233 85.6579C73.2972 85.6542 73.371 85.6505 73.4449 85.6431C72.9796 86.7061 72.5807 87.8651 72.2225 89.0684C71.6464 90.6519 70.8265 90.781 69.3382 91.0136C67.8757 91.2424 66.055 91.5303 64.5372 93.5309C64.1679 94.0181 64.2639 94.712 64.7514 95.0811C64.9508 95.2325 65.1872 95.3063 65.4198 95.3063C65.7559 95.3063 66.0846 95.1549 66.3025 94.867C67.2811 93.5789 68.3928 93.4017 69.6816 93.1987C70.1581 93.1249 70.6714 93.0437 71.181 92.8923C71.17 92.9403 71.1552 92.9883 71.1441 93.0326C69.8774 97.9675 68.5663 103.069 65.2389 104.855C64.6997 105.143 64.4966 105.815 64.7883 106.354C64.9877 106.726 65.3718 106.937 65.767 106.937C65.9442 106.937 66.1252 106.892 66.2914 106.804C69.8626 104.888 71.4285 100.544 72.6693 95.9596C72.8429 96.122 73.0313 96.2844 73.2455 96.4431C73.9435 96.9525 74.7522 97.3031 75.6607 97.4988C75.8048 97.7018 76.0116 98.0413 76.1482 98.4547C76.4326 99.3258 76.259 100.112 75.6201 100.854C75.2213 101.315 75.273 102.017 75.7346 102.415C75.9451 102.596 76.1999 102.685 76.4585 102.685C76.7687 102.685 77.0789 102.556 77.2968 102.301C77.932 101.566 78.3198 100.754 78.449 99.8906C78.5524 99.1966 78.486 98.4806 78.2533 97.7682C78.2385 97.7239 78.2237 97.6833 78.209 97.6427C78.9882 97.58 79.8081 97.4323 80.6723 97.1961C81.2632 97.0337 81.6103 96.4247 81.4478 95.8378C81.289 95.2472 80.6796 94.9003 80.0888 95.0627Z" fill="#003188"/>
<path d="M127.988 116.09C127.745 110.771 126.807 104.696 125.278 98.5246C123.808 92.6004 121.828 86.7095 119.553 81.4867C117.216 76.1199 114.627 71.6168 112.068 68.4684C109.12 64.8401 106.247 63.0019 103.522 63.0019C102.322 63.0019 101.177 63.3637 100.113 64.0723C99.0716 64.7699 98.1003 65.8182 97.225 67.1876C96.3202 68.6049 95.5447 70.9008 94.9095 74.0271C94.8319 73.8831 94.7581 73.7392 94.6879 73.5879C94.2152 72.5433 93.9714 71.2773 93.9308 69.6052C93.8791 67.6194 93.9493 57.2181 93.9493 57.1147C93.953 56.502 93.4618 56.0037 92.8487 56C92.2394 55.9963 91.7371 56.4872 91.7334 57.1C91.7297 57.5281 91.6633 67.6416 91.715 69.6643C91.7667 71.6427 92.0695 73.1782 92.6715 74.5032C93.0925 75.4334 93.6723 76.2602 94.3925 76.9615C94.2447 77.9175 94.1118 78.914 93.9973 79.9438C92.8229 79.1318 91.5488 78.7073 90.2599 78.7073C88.779 78.7073 87.3313 79.261 86.0202 80.3166C85.891 79.165 85.7432 78.0503 85.5771 76.9873C86.5483 76.0498 87.2389 74.9388 87.6821 73.5879C88.0514 72.4658 88.2435 71.2182 88.2841 69.6643C88.3358 67.6416 88.2693 57.5318 88.2656 57.1C88.2582 56.4909 87.7597 56 87.1466 56.0037C86.5336 56.0074 86.0424 56.5057 86.0461 57.1184C86.0461 57.2218 86.1162 67.6231 86.0645 69.6089C86.0165 71.5024 85.6952 72.9456 85.0526 74.0825C84.4211 71.03 83.6567 68.7858 82.7666 67.3906C81.8914 66.0212 80.9201 64.9693 79.8786 64.2753C78.8187 63.563 77.6702 63.2049 76.4699 63.2049C73.7481 63.2049 70.8712 65.0431 67.9241 68.6714C65.3722 71.8198 62.7833 76.3229 60.4456 81.6897C58.1707 86.9088 56.1912 92.7998 54.7213 98.7276C53.1924 104.899 52.2543 110.974 52.0106 116.293C51.9146 118.364 52.4722 120.091 53.6171 121.291C54.6918 122.413 56.2207 123.007 58.0414 123.007C60.7632 123.007 63.9577 121.712 67.2852 119.257C70.4502 116.921 73.5967 116.581 76.3776 116.279C79.3985 115.95 82.2496 115.64 83.7711 112.658C84.8791 110.487 85.6915 107.121 86.1827 102.659C86.6185 98.7017 86.7773 94.0695 86.637 89.2637C86.5742 87.1155 86.456 85.0117 86.2861 82.9963C86.4302 82.9373 86.5668 82.8487 86.6813 82.7269C87.8114 81.5347 89.0153 80.9294 90.2599 80.9294C91.3309 80.9294 92.3834 81.3834 93.3842 82.2803C93.4913 82.3762 93.6132 82.4501 93.7425 82.4944C93.5578 84.5983 93.4286 86.8055 93.3658 89.0607C93.2254 93.8665 93.3842 98.495 93.82 102.456C94.3112 106.918 95.1237 110.284 96.2316 112.455C97.7532 115.437 100.608 115.747 103.625 116.076C106.402 116.378 109.553 116.721 112.718 119.054C116.041 121.509 119.236 122.804 121.961 122.804C123.782 122.804 125.311 122.21 126.386 121.088C127.527 119.888 128.084 118.161 127.988 116.09ZM81.7953 111.646C80.861 113.477 79.2102 113.739 76.1338 114.071C73.2274 114.389 69.6118 114.78 65.9668 117.471C63.0677 119.612 60.2536 120.789 58.0414 120.789C56.8412 120.789 55.8625 120.431 55.2199 119.755C54.5034 119.006 54.16 117.844 54.2265 116.389C54.6955 106.136 57.8568 93.1762 62.4768 82.5719C64.7333 77.3896 67.215 73.0637 69.6525 70.0666C72.1231 67.0252 74.483 65.4196 76.4773 65.4196C78.0764 65.4196 79.5647 66.4826 80.9016 68.5828C82.7297 71.4507 84.1441 79.7851 84.4211 89.3228C84.7092 99.3551 83.7047 107.907 81.7953 111.646ZM124.779 119.556C124.133 120.232 123.158 120.586 121.958 120.586C119.745 120.586 116.931 119.409 114.032 117.268C110.387 114.577 106.772 114.186 103.865 113.868C100.789 113.532 99.1381 113.274 98.2037 111.443C96.2944 107.704 95.2899 99.1521 95.5779 89.1198C95.8549 79.5821 97.2694 71.2477 99.0974 68.3798C100.434 66.2796 101.926 65.2166 103.522 65.2166C105.516 65.2166 107.876 66.8222 110.347 69.8636C112.78 72.8607 115.262 77.1866 117.522 82.3689C122.142 92.9732 125.307 105.933 125.773 116.186C125.843 117.644 125.496 118.807 124.779 119.556Z" fill="#003188"/>
<path d="M110.664 90.8144C109.176 90.5818 108.356 90.4489 107.78 88.8692C107.418 87.6659 107.023 86.5069 106.557 85.4439C106.631 85.4513 106.705 85.4549 106.779 85.4586C106.864 85.4623 106.949 85.4623 107.037 85.4623C108.26 85.4623 109.608 85.1154 110.952 84.451C111.502 84.1815 111.724 83.5171 111.454 82.9672C111.185 82.4172 110.52 82.1957 109.97 82.4652C108.6 83.1407 106.074 83.9933 104.534 82.0887C104.508 82.0555 104.478 82.026 104.452 81.9964C103.551 80.9777 102.521 80.2653 101.35 79.8482C100.774 79.6415 100.139 79.9442 99.9356 80.52C99.7288 81.0958 100.032 81.7307 100.608 81.9337C101.428 82.2253 102.151 82.7273 102.805 83.4655C102.809 83.4729 102.813 83.4765 102.816 83.4839C102.875 83.5577 102.934 83.6279 102.997 83.698C103.492 84.307 103.946 85.0637 104.371 85.9754C104.87 87.0458 105.283 88.238 105.667 89.5114C105.675 89.5336 105.678 89.5557 105.689 89.5815C106.011 90.663 106.31 91.8036 106.609 92.9736C106.591 93.0142 106.576 93.0548 106.561 93.0954C106.557 93.1028 106.291 93.8558 105.453 94.4648C104.205 95.3765 102.288 95.5131 99.9135 94.8634C99.3226 94.701 98.7132 95.0517 98.5544 95.6386C98.3919 96.2291 98.7427 96.8382 99.33 96.9969C100.194 97.2331 101.018 97.3807 101.793 97.4435C101.778 97.4841 101.764 97.5284 101.749 97.569C101.516 98.2814 101.45 98.9974 101.553 99.6913C101.682 100.555 102.07 101.367 102.705 102.102C102.923 102.356 103.234 102.485 103.544 102.485C103.799 102.485 104.057 102.397 104.268 102.216C104.729 101.817 104.781 101.116 104.382 100.655C103.754 99.9276 103.577 99.1635 103.836 98.3146C103.968 97.8753 104.19 97.5173 104.341 97.3032C105.25 97.1076 106.059 96.757 106.757 96.2476C106.971 96.0926 107.163 95.9302 107.333 95.7641C108.577 100.348 110.143 104.689 113.711 106.608C113.877 106.697 114.058 106.741 114.235 106.741C114.63 106.741 115.011 106.531 115.214 106.158C115.502 105.619 115.303 104.947 114.763 104.659C111.436 102.873 110.125 97.772 108.858 92.8371C108.847 92.7891 108.832 92.7411 108.821 92.6968C109.331 92.8481 109.844 92.9293 110.321 93.0032C111.609 93.2062 112.725 93.3833 113.7 94.6715C113.918 94.9594 114.25 95.1107 114.582 95.1107C114.815 95.1107 115.051 95.0369 115.251 94.8856C115.738 94.5165 115.834 93.8226 115.465 93.3353C113.947 91.3348 112.127 91.0469 110.664 90.8144Z" fill="#003188"/>
</svg>
