<svg xmlns="http://www.w3.org/2000/svg" width="200" height="200" viewBox="0 0 200 200" fill="none"> <circle cx="100" cy="100" r="100" fill="#F2F7FF"></circle> <g clip-path="url(#clip0)"> <path d="M74.2624 81.1062C74.0539 81.1065 73.8485 81.0546 73.6651 80.9553C73.4817 80.8559 73.3261 80.7123 73.2124 80.5374L69.3187 74.5562L67.6249 77.6812C67.5196 77.8721 67.3662 78.0322 67.1799 78.1455C66.9936 78.2588 66.7809 78.3214 66.5629 78.3271C66.3449 78.3328 66.1293 78.2814 65.9373 78.1779C65.7454 78.0745 65.5838 77.9226 65.4687 77.7374L60.1874 69.1249C60.0882 68.9854 60.0187 68.827 59.9832 68.6595C59.9477 68.492 59.947 68.319 59.9811 68.1512C60.0153 67.9834 60.0835 67.8245 60.1816 67.6841C60.2797 67.5438 60.4056 67.4252 60.5515 67.3355C60.6973 67.2458 60.86 67.1871 61.0295 67.1629C61.199 67.1387 61.3717 67.1496 61.5368 67.1949C61.7019 67.2402 61.8559 67.319 61.9894 67.4263C62.1228 67.5336 62.2328 67.6671 62.3124 67.8187L66.4687 74.5687L68.1249 71.5187C68.2288 71.3291 68.38 71.1698 68.5638 71.0561C68.7477 70.9425 68.9578 70.8785 69.1738 70.8703C69.3897 70.8621 69.6041 70.91 69.796 71.0094C69.9879 71.1088 70.1508 71.2563 70.2687 71.4374L75.2687 79.1749C75.4484 79.452 75.5112 79.789 75.4432 80.1122C75.3753 80.4354 75.1822 80.7186 74.9062 80.8999C74.7146 81.0265 74.4919 81.0978 74.2624 81.1062V81.1062Z" fill="#003188"></path> <path d="M82.7064 72.019C82.4157 72.0254 82.1318 71.9304 81.9037 71.7501C81.6755 71.5699 81.5174 71.3158 81.4564 71.0315L80.6939 67.4565L79.6189 68.369C79.4496 68.5147 79.2444 68.6125 79.0246 68.6521C78.8047 68.6916 78.5783 68.6716 78.3689 68.594C78.1628 68.5214 77.9793 68.3961 77.8367 68.2305C77.6942 68.0649 77.5975 67.8648 77.5564 67.6502L76.4439 61.4815C76.4095 61.3186 76.4081 61.1506 76.4396 60.9871C76.4711 60.8237 76.5349 60.6682 76.6272 60.5298C76.7196 60.3913 76.8387 60.2728 76.9775 60.181C77.1164 60.0892 77.2721 60.026 77.4357 59.9952C77.5992 59.9644 77.7673 59.9666 77.93 60.0016C78.0927 60.0366 78.2468 60.1038 78.3832 60.1992C78.5196 60.2945 78.6356 60.4161 78.7243 60.5569C78.8131 60.6977 78.8729 60.8548 78.9001 61.019L79.6626 65.069L80.6876 64.194C80.8522 64.0541 81.0502 63.9592 81.2623 63.9186C81.4744 63.878 81.6934 63.8931 81.898 63.9623C82.1026 64.0316 82.2857 64.1526 82.4296 64.3137C82.5734 64.4748 82.6731 64.6704 82.7189 64.8815L83.9314 70.5065C83.9711 70.6911 83.9684 70.8823 83.9237 71.0657C83.8789 71.2491 83.7931 71.4201 83.6728 71.5656C83.5526 71.7111 83.4009 71.8276 83.2291 71.9061C83.0574 71.9846 82.8701 72.0232 82.6814 72.019H82.7064Z" fill="#003188"></path> <path d="M105 140C104.71 140.007 104.427 139.912 104.199 139.733C103.971 139.554 103.812 139.302 103.75 139.019C102.819 135.04 101.502 131.161 99.8185 127.437C97.256 128.062 92.0435 128.112 91.3373 127.869C89.3748 127.194 86.5685 125.231 86.906 122.594L87.0498 121.481C87.2248 120.162 87.4435 118.531 87.3185 118.125C87.1802 117.769 86.9998 117.431 86.781 117.119C86.5704 116.877 86.4149 116.593 86.3253 116.285C86.2357 115.978 86.2142 115.654 86.2623 115.337C86.3678 114.99 86.5351 114.664 86.756 114.375C85.706 113.65 84.1248 112.5 84.956 111.025C85.1979 110.441 85.3476 109.823 85.3998 109.194C85.0435 109.05 84.506 108.875 84.1498 108.756C83.3991 108.574 82.6848 108.265 82.0373 107.844C81.4444 107.254 81.0499 106.494 80.9088 105.669C80.7677 104.845 80.8868 103.997 81.2498 103.244L81.481 102.837C84.6748 97.1436 85.3185 95.6124 85.4373 95.1999C85.2168 94.7132 84.9216 94.2641 84.5623 93.8686C84.3998 93.6624 84.2498 93.4686 84.1248 93.2936C83.1185 91.8874 83.681 79.5436 83.6873 79.4124C83.806 77.1936 85.6123 73.9624 89.0435 69.8186C96.206 61.1249 105.056 59.7061 111.25 60.0436C118.994 60.4749 125.625 63.7499 129.275 66.6311C137.25 72.9936 139.375 83.4561 138.75 91.1186C138.462 94.5499 136.031 100.737 133.881 106.2C132.487 109.756 131.037 113.431 130.987 114.475C130.887 116.587 131.319 120.25 132.387 121.625C132.906 122.294 134.431 123.156 135.775 123.919C137.969 125.169 139.7 126.137 139.975 127.531C140.049 127.854 139.991 128.194 139.814 128.474C139.638 128.755 139.357 128.954 139.034 129.028C138.711 129.102 138.372 129.044 138.091 128.868C137.81 128.691 137.611 128.411 137.537 128.087C137.25 127.625 135.562 126.669 134.544 126.094C132.844 125.131 131.237 124.219 130.412 123.156C128.6 120.831 128.412 116.012 128.494 114.356C128.556 112.969 129.644 110.15 131.556 105.281C133.537 100.244 136 93.9749 136.262 90.9061C136.462 88.4811 137.012 76.0061 127.719 68.5874C121.25 63.3999 102.937 56.9124 90.9373 71.4124C87.9873 74.9999 86.2498 77.9499 86.1498 79.5561C85.981 82.6249 85.9185 90.5811 86.2185 91.9624C86.2998 92.0749 86.3935 92.1874 86.4873 92.3061C87.1123 93.1061 87.9123 94.0936 87.9123 95.2561C87.9123 95.8811 87.5873 97.0124 83.631 104.062L83.406 104.462C83.3379 104.704 83.3233 104.958 83.3632 105.207C83.4031 105.455 83.4967 105.691 83.6373 105.9C84.0459 106.071 84.4631 106.222 84.8873 106.35C86.4935 106.875 87.656 107.25 87.8373 108.362C87.9159 109.497 87.7475 110.636 87.3435 111.7C87.6123 111.925 88.0373 112.219 88.2685 112.381C88.6111 112.6 88.9332 112.849 89.231 113.125C89.3904 113.275 89.5171 113.456 89.6031 113.657C89.6892 113.858 89.7327 114.075 89.731 114.294C89.7138 114.549 89.6418 114.798 89.52 115.024C89.3981 115.249 89.2292 115.445 89.0248 115.6L88.8748 115.744L88.9123 115.812C89.2402 116.295 89.5088 116.815 89.7123 117.362C90.0185 118.281 89.831 119.694 89.5498 121.837L89.406 122.937C89.2873 123.869 90.7685 125.056 92.1685 125.537C94.6368 125.616 97.1065 125.436 99.5373 125C99.7006 124.89 99.8859 124.818 100.08 124.787C100.275 124.757 100.473 124.77 100.662 124.825C101.2 124.981 101.812 125.162 103.669 130.15C104.698 132.879 105.547 135.672 106.212 138.512C106.283 138.836 106.223 139.174 106.045 139.452C105.867 139.731 105.585 139.928 105.262 140C105.175 140.008 105.087 140.008 105 140V140ZM101.106 126.875C100.972 126.995 100.817 127.09 100.65 127.156C100.822 127.101 100.979 127.004 101.106 126.875Z" fill="#003188"></path> <path d="M108.125 103.75C106.224 103.748 104.339 103.398 102.563 102.719C102.253 102.601 102.002 102.365 101.866 102.063C101.73 101.76 101.72 101.416 101.838 101.106C101.955 100.796 102.191 100.546 102.494 100.41C102.796 100.274 103.14 100.264 103.45 100.381C106.702 101.621 110.314 101.518 113.49 100.095C116.666 98.6719 119.148 96.0457 120.388 92.7937C120.446 92.6402 120.534 92.4997 120.647 92.3802C120.759 92.2607 120.894 92.1646 121.044 92.0972C121.194 92.0299 121.355 91.9928 121.519 91.9879C121.683 91.983 121.847 92.0104 122 92.0687C122.154 92.127 122.294 92.2149 122.414 92.3275C122.533 92.4401 122.629 92.5751 122.697 92.7248C122.764 92.8745 122.801 93.0361 122.806 93.2002C122.811 93.3643 122.784 93.5277 122.725 93.6812C121.593 96.6375 119.592 99.1817 116.986 100.979C114.38 102.776 111.291 103.742 108.125 103.75V103.75Z" fill="#003188"></path> <path d="M94.6936 84.2629C94.5419 84.2638 94.3913 84.2363 94.2498 84.1816C94.0963 84.1234 93.9558 84.0355 93.8363 83.9229C93.7168 83.8103 93.6206 83.6753 93.5533 83.5256C93.486 83.3758 93.4488 83.2143 93.4439 83.0502C93.439 82.8861 93.4665 82.7226 93.5248 82.5691C94.9992 78.6976 97.9507 75.57 101.731 73.8741C105.51 72.1782 109.809 72.0528 113.681 73.5254C113.991 73.6431 114.242 73.8791 114.378 74.1815C114.513 74.4839 114.524 74.8279 114.406 75.1379C114.288 75.4479 114.052 75.6984 113.75 75.8344C113.448 75.9703 113.104 75.9806 112.794 75.8629C109.541 74.6257 105.931 74.7306 102.756 76.1546C99.5809 77.5786 97.1014 80.2051 95.8623 83.4566C95.7723 83.6937 95.6123 83.8978 95.4035 84.0418C95.1948 84.1858 94.9472 84.2629 94.6936 84.2629V84.2629Z" fill="#003188"></path> <path d="M108.125 98.3875H107.7C107.369 98.3743 107.056 98.2298 106.831 97.986C106.606 97.7423 106.487 97.419 106.5 97.0875C106.513 96.756 106.658 96.4433 106.901 96.2183C107.145 95.9932 107.469 95.8743 107.8 95.8875C108.819 95.9294 109.835 95.7703 110.793 95.4192C111.75 95.0681 112.628 94.5319 113.378 93.8413C114.128 93.1506 114.734 92.319 115.163 91.394C115.591 90.469 115.833 89.4686 115.875 88.45C115.888 88.1185 116.033 87.8058 116.276 87.5808C116.52 87.3557 116.844 87.2368 117.175 87.25C117.507 87.2633 117.819 87.4077 118.044 87.6515C118.269 87.8953 118.388 88.2185 118.375 88.55C118.262 91.1943 117.134 93.693 115.224 95.5257C113.315 97.3583 110.772 98.3835 108.125 98.3875Z" fill="#003188"></path> <path d="M99.1251 89.0066H99.0688C98.7383 88.992 98.4271 88.8469 98.2033 88.6033C97.9796 88.3596 97.8615 88.0371 97.8751 87.7066C97.9888 84.9891 99.176 82.4277 101.176 80.5845C103.176 78.7413 105.826 77.767 108.544 77.8753C108.708 77.8819 108.869 77.9207 109.018 77.9896C109.168 78.0585 109.302 78.1561 109.413 78.2768C109.524 78.3975 109.611 78.539 109.668 78.6932C109.725 78.8474 109.75 79.0112 109.744 79.1753C109.737 79.3395 109.698 79.5007 109.63 79.6499C109.561 79.799 109.463 79.9332 109.342 80.0446C109.222 80.156 109.08 80.2426 108.926 80.2993C108.772 80.3561 108.608 80.3819 108.444 80.3753C106.388 80.2941 104.383 81.0313 102.869 82.4254C101.356 83.8195 100.457 85.7569 100.369 87.8128C100.354 88.1334 100.217 88.4362 99.9857 88.6584C99.7541 88.8807 99.446 89.0053 99.1251 89.0066Z" fill="#003188"></path> <path d="M108.125 93.1246H107.913C106.628 93.0966 105.405 92.5629 104.511 91.6393C103.618 90.7157 103.124 89.4767 103.138 88.1914C103.152 86.9061 103.672 85.6782 104.586 84.7742C105.5 83.8703 106.734 83.3633 108.019 83.3633C109.304 83.3633 110.538 83.8703 111.452 84.7742C112.366 85.6782 112.886 86.9061 112.9 88.1914C112.914 89.4767 112.42 90.7157 111.526 91.6393C110.632 92.5629 109.41 93.0966 108.125 93.1246V93.1246ZM108.125 85.6246C107.498 85.6378 106.902 85.8978 106.465 86.3483C106.029 86.7987 105.787 87.4032 105.794 88.0304C105.801 88.6575 106.054 89.2568 106.5 89.698C106.946 90.1391 107.548 90.3866 108.175 90.3866C108.802 90.3866 109.404 90.1391 109.85 89.698C110.296 89.2568 110.55 88.6575 110.556 88.0304C110.563 87.4032 110.322 86.7987 109.885 86.3483C109.449 85.8978 108.852 85.6378 108.225 85.6246H108.125Z" fill="#003188"></path> </g> <defs> <clipPath id="clip0"> <rect x="60" y="60" width="80" height="80" fill="white"></rect> </clipPath> </defs> </svg>
