<svg xmlns="http://www.w3.org/2000/svg" width="260" height="100" viewBox="0 0 260 100" fill="none"> <path d="M157.755 66.5078H160.552L149.348 47.2536L159.653 30.7451H157.247L146.806 47.457V30.7451H144.297V66.5078H146.806V47.6434L157.755 66.5078ZM168.297 65.101C165.908 65.101 164.348 63.0502 164.348 59.5078C164.348 55.101 166.348 53.2027 170.501 53.2027H173.196V60.1519C172.297 62.8468 170.653 65.101 168.297 65.101ZM173.908 66.5078H176.043C175.755 65.5417 175.501 63.5926 175.501 61.8468V48.101C175.501 43.101 173.145 40.796 168.992 40.796C166.145 40.796 164.043 42.0502 163.043 43.3553L163.704 45.5926C164.908 43.8468 166.857 42.8468 168.992 42.8468C171.755 42.8468 173.196 44.5078 173.196 48.3553V51.5078H170.45C164.992 51.5078 162.043 54.3044 162.043 59.6943C162.043 64.3044 164.399 66.9993 167.806 66.9993C170.297 66.9993 172.094 65.5078 173.297 63.101C173.45 64.8977 173.704 65.8468 173.908 66.5078ZM187.908 65.101C185.653 65.101 184.247 64.101 183.247 62.0502V47.9485C184.348 45.2536 186.247 42.8468 188.501 42.8468C191.399 42.8468 193.196 46.7451 193.196 53.3553C193.196 61.3044 191.094 65.101 187.908 65.101ZM187.755 66.9485C192.45 66.9485 195.552 62.4061 195.552 53.1519C195.552 45.8468 193.094 40.796 188.908 40.796C186.094 40.796 184.247 43.0502 183.145 45.457L182.941 41.3044H180.908V74.3044H183.247V64.7451C184.196 65.9993 185.857 66.9485 187.755 66.9485ZM211.247 43.2536V41.3044H197.247V43.2536H203.094V66.5078H205.45V43.2536H211.247ZM214.992 66.5078H219.043C223.806 66.5078 227.094 63.8468 227.094 58.4909C227.094 53.2536 223.992 50.6434 219.196 50.6434H217.348V41.3044H214.992V66.5078ZM232.094 41.3044H229.806V66.5078H232.094V41.3044ZM219.094 52.5078C222.704 52.5078 224.806 54.3044 224.806 58.5417C224.806 62.8977 222.399 64.6434 218.857 64.6434H217.348V52.5078H219.094Z" fill="black"></path> <path d="M39.7458 52.796V66.5078H43.5932V30.7451H37.8475C32.2034 30.7451 27.4576 34.4909 27.4576 41.9994C27.4576 47.3553 29.5424 50.2536 32.6949 51.8468L26 66.5078H30.4576L36.5424 52.796H39.7458ZM39.7458 49.5926H37.6949C34.3559 49.5926 31.5932 47.7451 31.5932 41.9994C31.5932 36.0502 34.5932 33.9994 37.6949 33.9994H39.7458V49.5926Z" fill="#FF0000"></path> <path d="M82.2034 63.3052H80.2034V41.3052H68.5085V43.4577C68.5085 50.1526 68.2543 57.9492 65.9492 63.3052H64.4068V71.4577H67.8983V66.5085H78.695V71.4577H82.2034V63.3052ZM99.1526 64.7967L98.2543 61.7967C97.2543 62.5085 95.4916 63.5085 93.3051 63.5085C90.2034 63.5085 88.5933 60.5085 88.5933 54.7967H99.1017V52.6441C99.1017 44.1018 96.356 40.9492 92.1526 40.9492C86.7967 40.9492 84.5424 46.8475 84.5424 54.9492C84.5424 62.695 87.7458 66.8475 92.9492 66.8475C95.4577 66.8475 97.5424 66.0509 99.1526 64.7967ZM58.3051 41.3052V52.0001H52.5085V41.3052H48.5933V66.5085H52.5085V55.2035H58.3051V66.5085H62.1526V41.3052H58.3051ZM113.644 66.5085H117.898L110.746 53.1526L117 41.3052H113.051L107 52.9492V41.3052H103.102V66.5085H107V53.9492L113.644 66.5085ZM127.051 66.8475C129.356 66.8475 130.949 66.1018 132.305 64.9492L131.407 62.0509C130.509 62.8475 129.051 63.5933 127.153 63.5933C124 63.5933 122.509 60.0001 122.509 53.695C122.509 47.356 124.492 44.2035 127.305 44.2035C128.898 44.2035 130.407 45.0509 131.458 45.9492L132 42.2543C130.898 41.5424 129.593 40.9492 127.356 40.9492C121.458 40.9492 118.407 46.0001 118.407 53.8984C118.407 62.5085 121.644 66.8475 127.051 66.8475ZM76.356 63.3052H69.6441C71.7458 57.9492 72 50.2035 72 44.8984V44.4577H76.356V63.3052ZM92.1526 44.1526C94.4068 44.1526 95.1017 47.3052 95.1017 51.5933H88.6441C88.8984 47.1018 89.7458 44.1526 92.1526 44.1526Z" fill="black"></path> </svg>
